%TF.GenerationSoftware,KiCad,Pcbnew,10.0.1*%
%TF.CreationDate,2026-05-04T00:29:17+09:00*%
%TF.ProjectId,E-ink smart display board,452d696e-6b20-4736-9d61-727420646973,rev?*%
%TF.SameCoordinates,Original*%
%TF.FileFunction,Copper,L2,Bot*%
%TF.FilePolarity,Positive*%
%FSLAX46Y46*%
G04 Gerber Fmt 4.6, Leading zero omitted, Abs format (unit mm)*
G04 Created by KiCad (PCBNEW 10.0.1) date 2026-05-04 00:29:17*
%MOMM*%
%LPD*%
G01*
G04 APERTURE LIST*
G04 Aperture macros list*
%AMRoundRect*
0 Rectangle with rounded corners*
0 $1 Rounding radius*
0 $2 $3 $4 $5 $6 $7 $8 $9 X,Y pos of 4 corners*
0 Add a 4 corners polygon primitive as box body*
4,1,4,$2,$3,$4,$5,$6,$7,$8,$9,$2,$3,0*
0 Add four circle primitives for the rounded corners*
1,1,$1+$1,$2,$3*
1,1,$1+$1,$4,$5*
1,1,$1+$1,$6,$7*
1,1,$1+$1,$8,$9*
0 Add four rect primitives between the rounded corners*
20,1,$1+$1,$2,$3,$4,$5,0*
20,1,$1+$1,$4,$5,$6,$7,0*
20,1,$1+$1,$6,$7,$8,$9,0*
20,1,$1+$1,$8,$9,$2,$3,0*%
G04 Aperture macros list end*
%TA.AperFunction,ComponentPad*%
%ADD10C,1.700000*%
%TD*%
%TA.AperFunction,ComponentPad*%
%ADD11R,1.700000X1.700000*%
%TD*%
%TA.AperFunction,ComponentPad*%
%ADD12C,1.600200*%
%TD*%
%TA.AperFunction,ComponentPad*%
%ADD13R,1.600200X1.600200*%
%TD*%
%TA.AperFunction,ComponentPad*%
%ADD14R,2.000000X2.000000*%
%TD*%
%TA.AperFunction,ComponentPad*%
%ADD15C,2.000000*%
%TD*%
%TA.AperFunction,ComponentPad*%
%ADD16RoundRect,0.250000X0.725000X-0.600000X0.725000X0.600000X-0.725000X0.600000X-0.725000X-0.600000X0*%
%TD*%
%TA.AperFunction,ComponentPad*%
%ADD17O,1.950000X1.700000*%
%TD*%
%TA.AperFunction,ViaPad*%
%ADD18C,0.600000*%
%TD*%
%TA.AperFunction,Conductor*%
%ADD19C,0.300000*%
%TD*%
G04 APERTURE END LIST*
D10*
%TO.P,J1,9,Pin_9_9*%
%TO.N,/EPD_PWR*%
X61000000Y-49700000D03*
%TO.P,J1,8,Pin_8_8*%
%TO.N,/EPD_BUSY*%
X61000000Y-47160000D03*
%TO.P,J1,7,Pin_7_7*%
%TO.N,/EPD_RST*%
X61000000Y-44620000D03*
%TO.P,J1,6,Pin_6_6*%
%TO.N,/EPD_DC*%
X61000000Y-42080000D03*
%TO.P,J1,5,Pin_5_5*%
%TO.N,/EPD_CS*%
X61000000Y-39540000D03*
%TO.P,J1,4,Pin_4_4*%
%TO.N,/EPD_CLK*%
X61000000Y-37000000D03*
%TO.P,J1,3,Pin_3_3*%
%TO.N,/EPD_DIN*%
X61000000Y-34460000D03*
%TO.P,J1,2,Pin_2_2*%
%TO.N,GND*%
X61000000Y-31920000D03*
D11*
%TO.P,J1,1,Pin_1_1*%
%TO.N,/3.3V*%
X61000000Y-29380000D03*
%TD*%
D12*
%TO.P,U2,GND,GND_GND*%
%TO.N,GND*%
X40670000Y-76000000D03*
%TO.P,U2,SCL,SCL_SCL*%
%TO.N,/I2C_SCL*%
X38130000Y-76000000D03*
%TO.P,U2,SDA,SDA_SDA*%
%TO.N,/I2C_SDA*%
X43210000Y-76000000D03*
D13*
%TO.P,U2,VDD,VDD_VDD*%
%TO.N,/3.3V*%
X45750000Y-76000000D03*
%TD*%
D14*
%TO.P,U1,1,3V3_1*%
%TO.N,/3.3V*%
X29800000Y-30985000D03*
D15*
%TO.P,U1,2,GND_2*%
%TO.N,GND*%
X29800000Y-33525000D03*
%TO.P,U1,3,D15_3*%
%TO.N,unconnected-(U1-D15-Pad3)*%
X29800000Y-36065000D03*
%TO.P,U1,4,D2_4*%
%TO.N,unconnected-(U1-D2-Pad4)*%
X29800000Y-38605000D03*
%TO.P,U1,5,D4_5*%
%TO.N,unconnected-(U1-D4-Pad5)*%
X29800000Y-41145000D03*
%TO.P,U1,6,RX2_6*%
%TO.N,unconnected-(U1-RX2-Pad6)*%
X29800000Y-43685000D03*
%TO.P,U1,7,TX2_7*%
%TO.N,unconnected-(U1-TX2-Pad7)*%
X29800000Y-46225000D03*
%TO.P,U1,8,D5_8*%
%TO.N,unconnected-(U1-D5-Pad8)*%
X29800000Y-48765000D03*
%TO.P,U1,9,D18_9*%
%TO.N,/EPD_CLK*%
X29800000Y-51305000D03*
%TO.P,U1,10,D19_10*%
%TO.N,unconnected-(U1-D19-Pad10)*%
X29800000Y-53845000D03*
%TO.P,U1,11,D21_11*%
%TO.N,/I2C_SDA*%
X29800000Y-56385000D03*
%TO.P,U1,12,RX0_12*%
%TO.N,unconnected-(U1-RX0-Pad12)*%
X29800000Y-58925000D03*
%TO.P,U1,13,TX0_13*%
%TO.N,unconnected-(U1-TX0-Pad13)*%
X29800000Y-61465000D03*
%TO.P,U1,14,D22_14*%
%TO.N,/I2C_SCL*%
X29800000Y-64005000D03*
%TO.P,U1,15,D23_15*%
%TO.N,/EPD_DIN*%
X29800000Y-66545000D03*
%TO.P,U1,16,EN_16*%
%TO.N,unconnected-(U1-EN-Pad16)*%
X55200000Y-66545000D03*
%TO.P,U1,17,VP_17*%
%TO.N,unconnected-(U1-VP-Pad17)*%
X55200000Y-64005000D03*
%TO.P,U1,18,VN_18*%
%TO.N,unconnected-(U1-VN-Pad18)*%
X55200000Y-61465000D03*
%TO.P,U1,19,D34_19*%
%TO.N,/PIR_OUT*%
X55200000Y-58925000D03*
%TO.P,U1,20,D35_20*%
%TO.N,unconnected-(U1-D35-Pad20)*%
X55200000Y-56385000D03*
%TO.P,U1,21,D32_21*%
%TO.N,/EPD_PWR*%
X55200000Y-53845000D03*
%TO.P,U1,22,D33_22*%
%TO.N,/EPD_BUSY*%
X55200000Y-51305000D03*
%TO.P,U1,23,D25_23*%
%TO.N,/EPD_RST*%
X55200000Y-48765000D03*
%TO.P,U1,24,D26_24*%
%TO.N,/EPD_DC*%
X55200000Y-46225000D03*
%TO.P,U1,25,D27_25*%
%TO.N,/EPD_CS*%
X55200000Y-43685000D03*
%TO.P,U1,26,D14_26*%
%TO.N,unconnected-(U1-D14-Pad26)*%
X55200000Y-41145000D03*
%TO.P,U1,27,D12_27*%
%TO.N,unconnected-(U1-D12-Pad27)*%
X55200000Y-38605000D03*
%TO.P,U1,28,D13_28*%
%TO.N,unconnected-(U1-D13-Pad28)*%
X55200000Y-36065000D03*
%TO.P,U1,29,GND_29*%
%TO.N,GND*%
X55200000Y-33525000D03*
%TO.P,U1,30,VIN_30*%
%TO.N,unconnected-(U1-VIN-Pad30)*%
X55200000Y-30985000D03*
%TD*%
D16*
%TO.P,J2,1,Pin_1_1*%
%TO.N,/3.3V*%
X60475000Y-61000000D03*
D17*
%TO.P,J2,2,Pin_2_2*%
%TO.N,/PIR_OUT*%
X60475000Y-58500000D03*
%TO.P,J2,3,Pin_3_3*%
%TO.N,GND*%
X60475000Y-56000000D03*
%TD*%
D18*
%TO.N,/EPD_CLK*%
X58650000Y-37000000D03*
%TO.N,/EPD_DIN*%
X58000000Y-36000000D03*
%TD*%
%TO.N,/EPD_CLK*%
D19*
X52605000Y-28500000D02*
X29800000Y-51305000D01*
X58650000Y-37000000D02*
X58650000Y-30880799D01*
X58650000Y-30880799D02*
X56269201Y-28500000D01*
X56269201Y-28500000D02*
X52605000Y-28500000D01*
%TO.N,/EPD_DIN*%
X32000000Y-64345000D02*
X29800000Y-66545000D01*
X32000000Y-50000000D02*
X32000000Y-64345000D01*
X56062095Y-29000000D02*
X53000000Y-29000000D01*
X58000000Y-36000000D02*
X58000000Y-30937905D01*
X58000000Y-30937905D02*
X56062095Y-29000000D01*
X53000000Y-29000000D02*
X32000000Y-50000000D01*
%TD*%
%TA.AperFunction,Conductor*%
%TO.N,GND*%
G36*
X59440711Y-25019685D02*
G01*
X59472048Y-25048514D01*
X59605733Y-25222736D01*
X59605739Y-25222743D01*
X59777256Y-25394260D01*
X59777263Y-25394266D01*
X59890321Y-25481018D01*
X59969711Y-25541936D01*
X60179788Y-25663224D01*
X60403900Y-25756054D01*
X60638211Y-25818838D01*
X60818586Y-25842584D01*
X60878711Y-25850500D01*
X60878712Y-25850500D01*
X61121289Y-25850500D01*
X61169388Y-25844167D01*
X61361789Y-25818838D01*
X61596100Y-25756054D01*
X61820212Y-25663224D01*
X62030289Y-25541936D01*
X62222738Y-25394265D01*
X62394265Y-25222738D01*
X62491882Y-25095521D01*
X62527952Y-25048514D01*
X62584380Y-25007311D01*
X62626328Y-25000000D01*
X62993907Y-25000000D01*
X63006061Y-25000597D01*
X63182941Y-25018018D01*
X63206769Y-25022757D01*
X63371001Y-25072576D01*
X63393453Y-25081877D01*
X63544798Y-25162772D01*
X63565010Y-25176277D01*
X63697666Y-25285145D01*
X63714854Y-25302333D01*
X63823722Y-25434989D01*
X63837227Y-25455201D01*
X63918121Y-25606543D01*
X63927424Y-25629001D01*
X63977240Y-25793224D01*
X63981982Y-25817065D01*
X63999403Y-25993938D01*
X64000000Y-26006092D01*
X64000000Y-70995572D01*
X63999684Y-71004418D01*
X63980275Y-71275785D01*
X63977757Y-71293297D01*
X63920872Y-71554794D01*
X63915888Y-71571770D01*
X63822361Y-71822524D01*
X63815011Y-71838617D01*
X63686758Y-72073496D01*
X63677193Y-72088380D01*
X63516811Y-72302624D01*
X63505225Y-72315994D01*
X63315994Y-72505225D01*
X63302624Y-72516811D01*
X63088380Y-72677193D01*
X63073496Y-72686758D01*
X62838617Y-72815011D01*
X62822524Y-72822361D01*
X62571770Y-72915888D01*
X62554794Y-72920872D01*
X62293297Y-72977757D01*
X62275785Y-72980275D01*
X62004418Y-72999684D01*
X61995572Y-73000000D01*
X58000000Y-73000000D01*
X58000000Y-75995572D01*
X57999684Y-76004418D01*
X57980275Y-76275785D01*
X57977757Y-76293297D01*
X57920872Y-76554794D01*
X57915888Y-76571770D01*
X57822361Y-76822524D01*
X57815011Y-76838617D01*
X57686758Y-77073496D01*
X57677193Y-77088380D01*
X57516811Y-77302624D01*
X57505225Y-77315994D01*
X57315994Y-77505225D01*
X57302624Y-77516811D01*
X57088380Y-77677193D01*
X57073496Y-77686758D01*
X56838617Y-77815011D01*
X56822524Y-77822361D01*
X56571770Y-77915888D01*
X56554794Y-77920872D01*
X56293297Y-77977757D01*
X56275785Y-77980275D01*
X56004418Y-77999684D01*
X55995572Y-78000000D01*
X29004428Y-78000000D01*
X28995582Y-77999684D01*
X28724214Y-77980275D01*
X28706702Y-77977757D01*
X28445205Y-77920872D01*
X28428229Y-77915888D01*
X28177475Y-77822361D01*
X28161382Y-77815011D01*
X27926503Y-77686758D01*
X27911619Y-77677193D01*
X27697375Y-77516811D01*
X27684005Y-77505225D01*
X27494774Y-77315994D01*
X27483188Y-77302624D01*
X27340446Y-77111944D01*
X27322802Y-77088375D01*
X27313244Y-77073501D01*
X27184987Y-76838616D01*
X27177638Y-76822524D01*
X27120644Y-76669717D01*
X27084108Y-76571762D01*
X27079129Y-76554803D01*
X27022241Y-76293291D01*
X27019724Y-76275785D01*
X27018179Y-76254186D01*
X27000316Y-76004418D01*
X27000000Y-75995572D01*
X27000000Y-75896520D01*
X37079400Y-75896520D01*
X37079400Y-76103479D01*
X37119772Y-76306441D01*
X37119774Y-76306449D01*
X37198969Y-76497642D01*
X37198974Y-76497652D01*
X37313945Y-76669717D01*
X37313948Y-76669721D01*
X37460278Y-76816051D01*
X37460282Y-76816054D01*
X37632347Y-76931025D01*
X37632351Y-76931027D01*
X37632354Y-76931029D01*
X37823551Y-77010226D01*
X37953458Y-77036066D01*
X38026520Y-77050599D01*
X38026523Y-77050600D01*
X38026525Y-77050600D01*
X38233477Y-77050600D01*
X38233478Y-77050599D01*
X38436449Y-77010226D01*
X38627646Y-76931029D01*
X38628414Y-76930515D01*
X38630407Y-76929185D01*
X38630408Y-76929184D01*
X38703864Y-76880101D01*
X38799718Y-76816054D01*
X38946054Y-76669718D01*
X39061029Y-76497646D01*
X39140226Y-76306449D01*
X39150622Y-76254183D01*
X39183006Y-76192274D01*
X39243721Y-76157700D01*
X39313491Y-76161439D01*
X39370163Y-76202305D01*
X39394712Y-76258978D01*
X39401913Y-76304442D01*
X39401913Y-76304445D01*
X39465148Y-76499062D01*
X39558055Y-76681401D01*
X39590453Y-76725992D01*
X39590453Y-76725993D01*
X40159765Y-76156680D01*
X40172950Y-76205885D01*
X40243174Y-76327515D01*
X40342485Y-76426826D01*
X40464115Y-76497050D01*
X40513318Y-76510233D01*
X39944005Y-77079545D01*
X39988598Y-77111944D01*
X40170937Y-77204851D01*
X40365555Y-77268086D01*
X40567681Y-77300100D01*
X40772319Y-77300100D01*
X40974442Y-77268086D01*
X40974445Y-77268086D01*
X41169062Y-77204851D01*
X41351401Y-77111944D01*
X41395992Y-77079546D01*
X41395992Y-77079545D01*
X40826680Y-76510233D01*
X40875885Y-76497050D01*
X40997515Y-76426826D01*
X41096826Y-76327515D01*
X41167050Y-76205885D01*
X41180233Y-76156680D01*
X41749545Y-76725992D01*
X41749546Y-76725992D01*
X41781944Y-76681401D01*
X41874851Y-76499062D01*
X41938085Y-76304448D01*
X41945286Y-76258980D01*
X41975215Y-76195845D01*
X42034526Y-76158913D01*
X42104388Y-76159909D01*
X42162622Y-76198518D01*
X42189377Y-76254184D01*
X42199772Y-76306443D01*
X42199774Y-76306449D01*
X42278969Y-76497642D01*
X42278974Y-76497652D01*
X42393945Y-76669717D01*
X42393948Y-76669721D01*
X42540278Y-76816051D01*
X42540282Y-76816054D01*
X42712347Y-76931025D01*
X42712351Y-76931027D01*
X42712354Y-76931029D01*
X42903551Y-77010226D01*
X43033458Y-77036066D01*
X43106520Y-77050599D01*
X43106523Y-77050600D01*
X43106525Y-77050600D01*
X43313477Y-77050600D01*
X43313478Y-77050599D01*
X43516449Y-77010226D01*
X43707646Y-76931029D01*
X43879718Y-76816054D01*
X44026054Y-76669718D01*
X44141029Y-76497646D01*
X44220226Y-76306449D01*
X44260600Y-76103475D01*
X44260600Y-75896525D01*
X44260600Y-75896522D01*
X44260599Y-75896520D01*
X44242937Y-75807726D01*
X44220226Y-75693551D01*
X44141029Y-75502354D01*
X44141027Y-75502351D01*
X44141025Y-75502347D01*
X44026054Y-75330282D01*
X44026051Y-75330278D01*
X43879721Y-75183948D01*
X43879717Y-75183945D01*
X43866661Y-75175221D01*
X44699400Y-75175221D01*
X44699400Y-76824778D01*
X44713932Y-76897835D01*
X44713933Y-76897839D01*
X44713934Y-76897840D01*
X44769299Y-76980701D01*
X44813489Y-77010227D01*
X44852160Y-77036066D01*
X44852164Y-77036067D01*
X44925221Y-77050599D01*
X44925224Y-77050600D01*
X44925226Y-77050600D01*
X46574776Y-77050600D01*
X46574777Y-77050599D01*
X46647840Y-77036066D01*
X46730701Y-76980701D01*
X46786066Y-76897840D01*
X46800600Y-76824774D01*
X46800600Y-75175226D01*
X46800600Y-75175223D01*
X46800599Y-75175221D01*
X46786067Y-75102164D01*
X46786066Y-75102160D01*
X46730701Y-75019299D01*
X46647840Y-74963934D01*
X46647839Y-74963933D01*
X46647835Y-74963932D01*
X46574777Y-74949400D01*
X46574774Y-74949400D01*
X44925226Y-74949400D01*
X44925223Y-74949400D01*
X44852164Y-74963932D01*
X44852160Y-74963933D01*
X44769299Y-75019299D01*
X44713933Y-75102160D01*
X44713932Y-75102164D01*
X44699400Y-75175221D01*
X43866661Y-75175221D01*
X43707652Y-75068974D01*
X43707642Y-75068969D01*
X43516449Y-74989774D01*
X43516441Y-74989772D01*
X43313478Y-74949400D01*
X43313475Y-74949400D01*
X43106525Y-74949400D01*
X43106522Y-74949400D01*
X42903558Y-74989772D01*
X42903550Y-74989774D01*
X42712357Y-75068969D01*
X42712347Y-75068974D01*
X42540282Y-75183945D01*
X42540278Y-75183948D01*
X42393948Y-75330278D01*
X42393945Y-75330282D01*
X42278974Y-75502347D01*
X42278969Y-75502357D01*
X42199774Y-75693550D01*
X42199772Y-75693555D01*
X42189377Y-75745816D01*
X42156991Y-75807726D01*
X42096275Y-75842300D01*
X42026506Y-75838559D01*
X41969834Y-75797692D01*
X41945286Y-75741019D01*
X41938085Y-75695551D01*
X41874851Y-75500937D01*
X41781944Y-75318598D01*
X41749545Y-75274006D01*
X41749545Y-75274005D01*
X41180233Y-75843317D01*
X41167050Y-75794115D01*
X41096826Y-75672485D01*
X40997515Y-75573174D01*
X40875885Y-75502950D01*
X40826680Y-75489765D01*
X41395993Y-74920453D01*
X41351401Y-74888055D01*
X41169062Y-74795148D01*
X40974444Y-74731913D01*
X40772319Y-74699900D01*
X40567681Y-74699900D01*
X40365557Y-74731913D01*
X40365554Y-74731913D01*
X40170937Y-74795148D01*
X39988602Y-74888053D01*
X39944006Y-74920453D01*
X40513319Y-75489765D01*
X40464115Y-75502950D01*
X40342485Y-75573174D01*
X40243174Y-75672485D01*
X40172950Y-75794115D01*
X40159766Y-75843319D01*
X39590453Y-75274006D01*
X39558053Y-75318602D01*
X39465148Y-75500937D01*
X39401913Y-75695554D01*
X39401913Y-75695555D01*
X39394712Y-75741022D01*
X39364782Y-75804156D01*
X39305470Y-75841087D01*
X39235608Y-75840089D01*
X39177375Y-75801479D01*
X39150622Y-75745814D01*
X39146547Y-75725331D01*
X39140226Y-75693551D01*
X39061029Y-75502354D01*
X39061027Y-75502351D01*
X39061025Y-75502347D01*
X38946054Y-75330282D01*
X38946051Y-75330278D01*
X38799721Y-75183948D01*
X38799717Y-75183945D01*
X38630405Y-75070814D01*
X38630404Y-75070813D01*
X38627653Y-75068975D01*
X38627642Y-75068969D01*
X38436449Y-74989774D01*
X38436441Y-74989772D01*
X38233478Y-74949400D01*
X38233475Y-74949400D01*
X38026525Y-74949400D01*
X38026522Y-74949400D01*
X37823558Y-74989772D01*
X37823550Y-74989774D01*
X37632357Y-75068969D01*
X37632347Y-75068974D01*
X37460282Y-75183945D01*
X37460278Y-75183948D01*
X37313948Y-75330278D01*
X37313945Y-75330282D01*
X37198974Y-75502347D01*
X37198969Y-75502357D01*
X37119774Y-75693550D01*
X37119772Y-75693558D01*
X37079400Y-75896520D01*
X27000000Y-75896520D01*
X27000000Y-73000000D01*
X25000000Y-73000000D01*
X23004428Y-73000000D01*
X22995582Y-72999684D01*
X22724214Y-72980275D01*
X22706702Y-72977757D01*
X22445205Y-72920872D01*
X22428229Y-72915888D01*
X22177475Y-72822361D01*
X22161382Y-72815011D01*
X21926503Y-72686758D01*
X21911619Y-72677193D01*
X21697375Y-72516811D01*
X21684005Y-72505225D01*
X21494774Y-72315994D01*
X21483188Y-72302624D01*
X21322802Y-72088375D01*
X21313244Y-72073501D01*
X21259458Y-71975000D01*
X33590000Y-71975000D01*
X51280000Y-71975000D01*
X51280000Y-65485000D01*
X33590000Y-65485000D01*
X33590000Y-71975000D01*
X21259458Y-71975000D01*
X21184987Y-71838616D01*
X21177638Y-71822524D01*
X21084108Y-71571762D01*
X21079129Y-71554803D01*
X21022241Y-71293291D01*
X21019724Y-71275785D01*
X21000316Y-71004418D01*
X21000000Y-70995572D01*
X21000000Y-33406947D01*
X28300000Y-33406947D01*
X28300000Y-33643052D01*
X28336934Y-33876247D01*
X28409897Y-34100802D01*
X28517087Y-34311174D01*
X28577338Y-34394104D01*
X28577340Y-34394105D01*
X29308871Y-33662574D01*
X29324755Y-33721853D01*
X29391898Y-33838147D01*
X29486853Y-33933102D01*
X29603147Y-34000245D01*
X29662425Y-34016128D01*
X28930893Y-34747658D01*
X29013830Y-34807916D01*
X29062135Y-34832528D01*
X29112931Y-34880502D01*
X29129727Y-34948323D01*
X29107190Y-35014458D01*
X29078728Y-35043330D01*
X28985354Y-35111171D01*
X28846174Y-35250351D01*
X28846174Y-35250352D01*
X28846172Y-35250354D01*
X28810530Y-35299411D01*
X28730476Y-35409594D01*
X28641117Y-35584970D01*
X28580290Y-35772173D01*
X28549500Y-35966577D01*
X28549500Y-36163422D01*
X28580290Y-36357826D01*
X28641117Y-36545029D01*
X28700711Y-36661988D01*
X28730476Y-36720405D01*
X28846172Y-36879646D01*
X28985354Y-37018828D01*
X29144595Y-37134524D01*
X29267992Y-37197397D01*
X29321213Y-37224515D01*
X29372009Y-37272489D01*
X29388804Y-37340310D01*
X29366267Y-37406445D01*
X29321213Y-37445485D01*
X29144594Y-37535476D01*
X29123916Y-37550500D01*
X28985354Y-37651172D01*
X28985352Y-37651174D01*
X28985351Y-37651174D01*
X28846174Y-37790351D01*
X28846174Y-37790352D01*
X28846172Y-37790354D01*
X28810530Y-37839411D01*
X28730476Y-37949594D01*
X28641117Y-38124970D01*
X28580290Y-38312173D01*
X28549500Y-38506577D01*
X28549500Y-38703422D01*
X28580290Y-38897826D01*
X28641117Y-39085029D01*
X28730476Y-39260405D01*
X28846172Y-39419646D01*
X28985354Y-39558828D01*
X29144595Y-39674524D01*
X29267992Y-39737397D01*
X29321213Y-39764515D01*
X29372009Y-39812489D01*
X29388804Y-39880310D01*
X29366267Y-39946445D01*
X29321213Y-39985485D01*
X29144594Y-40075476D01*
X29087734Y-40116788D01*
X28985354Y-40191172D01*
X28985352Y-40191174D01*
X28985351Y-40191174D01*
X28846174Y-40330351D01*
X28846174Y-40330352D01*
X28846172Y-40330354D01*
X28810530Y-40379411D01*
X28730476Y-40489594D01*
X28641117Y-40664970D01*
X28580290Y-40852173D01*
X28549500Y-41046577D01*
X28549500Y-41243422D01*
X28580290Y-41437826D01*
X28641117Y-41625029D01*
X28730476Y-41800405D01*
X28846172Y-41959646D01*
X28985354Y-42098828D01*
X29144595Y-42214524D01*
X29267992Y-42277397D01*
X29321213Y-42304515D01*
X29372009Y-42352489D01*
X29388804Y-42420310D01*
X29366267Y-42486445D01*
X29321213Y-42525485D01*
X29144594Y-42615476D01*
X29087734Y-42656788D01*
X28985354Y-42731172D01*
X28985352Y-42731174D01*
X28985351Y-42731174D01*
X28846174Y-42870351D01*
X28846174Y-42870352D01*
X28846172Y-42870354D01*
X28810530Y-42919411D01*
X28730476Y-43029594D01*
X28641117Y-43204970D01*
X28580290Y-43392173D01*
X28549500Y-43586577D01*
X28549500Y-43783422D01*
X28580290Y-43977826D01*
X28641117Y-44165029D01*
X28730476Y-44340405D01*
X28846172Y-44499646D01*
X28985354Y-44638828D01*
X29144595Y-44754524D01*
X29267992Y-44817397D01*
X29321213Y-44844515D01*
X29372009Y-44892489D01*
X29388804Y-44960310D01*
X29366267Y-45026445D01*
X29321213Y-45065485D01*
X29144594Y-45155476D01*
X29087734Y-45196788D01*
X28985354Y-45271172D01*
X28985352Y-45271174D01*
X28985351Y-45271174D01*
X28846174Y-45410351D01*
X28846174Y-45410352D01*
X28846172Y-45410354D01*
X28810530Y-45459411D01*
X28730476Y-45569594D01*
X28641117Y-45744970D01*
X28580290Y-45932173D01*
X28549500Y-46126577D01*
X28549500Y-46323422D01*
X28580290Y-46517826D01*
X28641117Y-46705029D01*
X28730476Y-46880405D01*
X28846172Y-47039646D01*
X28985354Y-47178828D01*
X29144595Y-47294524D01*
X29267992Y-47357397D01*
X29321213Y-47384515D01*
X29372009Y-47432489D01*
X29388804Y-47500310D01*
X29366267Y-47566445D01*
X29321213Y-47605485D01*
X29144594Y-47695476D01*
X29087734Y-47736788D01*
X28985354Y-47811172D01*
X28985352Y-47811174D01*
X28985351Y-47811174D01*
X28846174Y-47950351D01*
X28846174Y-47950352D01*
X28846172Y-47950354D01*
X28810530Y-47999411D01*
X28730476Y-48109594D01*
X28641117Y-48284970D01*
X28580290Y-48472173D01*
X28549500Y-48666577D01*
X28549500Y-48863422D01*
X28580290Y-49057826D01*
X28641117Y-49245029D01*
X28700831Y-49362224D01*
X28730476Y-49420405D01*
X28846172Y-49579646D01*
X28985354Y-49718828D01*
X29144595Y-49834524D01*
X29267992Y-49897397D01*
X29321213Y-49924515D01*
X29372009Y-49972489D01*
X29388804Y-50040310D01*
X29366267Y-50106445D01*
X29321213Y-50145485D01*
X29144594Y-50235476D01*
X29059992Y-50296944D01*
X28985354Y-50351172D01*
X28985352Y-50351174D01*
X28985351Y-50351174D01*
X28846174Y-50490351D01*
X28846174Y-50490352D01*
X28846172Y-50490354D01*
X28810530Y-50539411D01*
X28730476Y-50649594D01*
X28641117Y-50824970D01*
X28580290Y-51012173D01*
X28549500Y-51206577D01*
X28549500Y-51403422D01*
X28580290Y-51597826D01*
X28641117Y-51785029D01*
X28730476Y-51960405D01*
X28846172Y-52119646D01*
X28985354Y-52258828D01*
X29144595Y-52374524D01*
X29267992Y-52437397D01*
X29321213Y-52464515D01*
X29372009Y-52512489D01*
X29388804Y-52580310D01*
X29366267Y-52646445D01*
X29321213Y-52685485D01*
X29144594Y-52775476D01*
X29053741Y-52841485D01*
X28985354Y-52891172D01*
X28985352Y-52891174D01*
X28985351Y-52891174D01*
X28846174Y-53030351D01*
X28846174Y-53030352D01*
X28846172Y-53030354D01*
X28796485Y-53098741D01*
X28730476Y-53189594D01*
X28641117Y-53364970D01*
X28580290Y-53552173D01*
X28549500Y-53746577D01*
X28549500Y-53943422D01*
X28580290Y-54137826D01*
X28641117Y-54325029D01*
X28730476Y-54500405D01*
X28846172Y-54659646D01*
X28985354Y-54798828D01*
X29144595Y-54914524D01*
X29254007Y-54970272D01*
X29321213Y-55004515D01*
X29372009Y-55052489D01*
X29388804Y-55120310D01*
X29366267Y-55186445D01*
X29321213Y-55225485D01*
X29144594Y-55315476D01*
X29053741Y-55381485D01*
X28985354Y-55431172D01*
X28985352Y-55431174D01*
X28985351Y-55431174D01*
X28846174Y-55570351D01*
X28846174Y-55570352D01*
X28846172Y-55570354D01*
X28810171Y-55619905D01*
X28730476Y-55729594D01*
X28641117Y-55904970D01*
X28580290Y-56092173D01*
X28549500Y-56286577D01*
X28549500Y-56483422D01*
X28580290Y-56677826D01*
X28641117Y-56865029D01*
X28725033Y-57029723D01*
X28730476Y-57040405D01*
X28846172Y-57199646D01*
X28985354Y-57338828D01*
X29144595Y-57454524D01*
X29267992Y-57517397D01*
X29321213Y-57544515D01*
X29372009Y-57592489D01*
X29388804Y-57660310D01*
X29366267Y-57726445D01*
X29321213Y-57765485D01*
X29144594Y-57855476D01*
X29053741Y-57921485D01*
X28985354Y-57971172D01*
X28985352Y-57971174D01*
X28985351Y-57971174D01*
X28846174Y-58110351D01*
X28846174Y-58110352D01*
X28846172Y-58110354D01*
X28796485Y-58178741D01*
X28730476Y-58269594D01*
X28641117Y-58444970D01*
X28580290Y-58632173D01*
X28549500Y-58826577D01*
X28549500Y-59023422D01*
X28580290Y-59217826D01*
X28641117Y-59405029D01*
X28726908Y-59573402D01*
X28730476Y-59580405D01*
X28846172Y-59739646D01*
X28985354Y-59878828D01*
X29144595Y-59994524D01*
X29267992Y-60057397D01*
X29321213Y-60084515D01*
X29372009Y-60132489D01*
X29388804Y-60200310D01*
X29366267Y-60266445D01*
X29321213Y-60305485D01*
X29144594Y-60395476D01*
X29070755Y-60449124D01*
X28985354Y-60511172D01*
X28985352Y-60511174D01*
X28985351Y-60511174D01*
X28846174Y-60650351D01*
X28846174Y-60650352D01*
X28846172Y-60650354D01*
X28796485Y-60718741D01*
X28730476Y-60809594D01*
X28641117Y-60984970D01*
X28580290Y-61172173D01*
X28549500Y-61366577D01*
X28549500Y-61563422D01*
X28580290Y-61757826D01*
X28641117Y-61945029D01*
X28717068Y-62094091D01*
X28730476Y-62120405D01*
X28846172Y-62279646D01*
X28985354Y-62418828D01*
X29144595Y-62534524D01*
X29267992Y-62597397D01*
X29321213Y-62624515D01*
X29372009Y-62672489D01*
X29388804Y-62740310D01*
X29366267Y-62806445D01*
X29321213Y-62845485D01*
X29144594Y-62935476D01*
X29053741Y-63001485D01*
X28985354Y-63051172D01*
X28985352Y-63051174D01*
X28985351Y-63051174D01*
X28846174Y-63190351D01*
X28846174Y-63190352D01*
X28846172Y-63190354D01*
X28796485Y-63258741D01*
X28730476Y-63349594D01*
X28641117Y-63524970D01*
X28580290Y-63712173D01*
X28549500Y-63906577D01*
X28549500Y-64103422D01*
X28580290Y-64297826D01*
X28641117Y-64485029D01*
X28695068Y-64590913D01*
X28730476Y-64660405D01*
X28846172Y-64819646D01*
X28985354Y-64958828D01*
X29144595Y-65074524D01*
X29267992Y-65137397D01*
X29321213Y-65164515D01*
X29372009Y-65212489D01*
X29388804Y-65280310D01*
X29366267Y-65346445D01*
X29321213Y-65385485D01*
X29144594Y-65475476D01*
X29131486Y-65485000D01*
X28985354Y-65591172D01*
X28985352Y-65591174D01*
X28985351Y-65591174D01*
X28846174Y-65730351D01*
X28846174Y-65730352D01*
X28846172Y-65730354D01*
X28796485Y-65798741D01*
X28730476Y-65889594D01*
X28641117Y-66064970D01*
X28580290Y-66252173D01*
X28549500Y-66446577D01*
X28549500Y-66643422D01*
X28580290Y-66837826D01*
X28641117Y-67025029D01*
X28730476Y-67200405D01*
X28846172Y-67359646D01*
X28985354Y-67498828D01*
X29144595Y-67614524D01*
X29227455Y-67656743D01*
X29319970Y-67703882D01*
X29319972Y-67703882D01*
X29319975Y-67703884D01*
X29420317Y-67736487D01*
X29507173Y-67764709D01*
X29701578Y-67795500D01*
X29701583Y-67795500D01*
X29898422Y-67795500D01*
X30092826Y-67764709D01*
X30280025Y-67703884D01*
X30455405Y-67614524D01*
X30614646Y-67498828D01*
X30753828Y-67359646D01*
X30869524Y-67200405D01*
X30958884Y-67025025D01*
X31019709Y-66837826D01*
X31050500Y-66643422D01*
X31050500Y-66446577D01*
X31019709Y-66252173D01*
X31001335Y-66195625D01*
X30958884Y-66064975D01*
X30958881Y-66064970D01*
X30958880Y-66064965D01*
X30957646Y-66061985D01*
X30957514Y-66060762D01*
X30957378Y-66060342D01*
X30957466Y-66060313D01*
X30950183Y-65992515D01*
X30981463Y-65930039D01*
X30984501Y-65926890D01*
X32320480Y-64590913D01*
X32373207Y-64499588D01*
X32400500Y-64397727D01*
X32400500Y-64292273D01*
X32400500Y-50217255D01*
X32420185Y-50150216D01*
X32436819Y-50129574D01*
X49159446Y-33406947D01*
X53700000Y-33406947D01*
X53700000Y-33643052D01*
X53736934Y-33876247D01*
X53809897Y-34100802D01*
X53917087Y-34311174D01*
X53977338Y-34394104D01*
X53977340Y-34394105D01*
X54708871Y-33662574D01*
X54724755Y-33721853D01*
X54791898Y-33838147D01*
X54886853Y-33933102D01*
X55003147Y-34000245D01*
X55062425Y-34016128D01*
X54330893Y-34747658D01*
X54413830Y-34807916D01*
X54462135Y-34832528D01*
X54512931Y-34880502D01*
X54529727Y-34948323D01*
X54507190Y-35014458D01*
X54478728Y-35043330D01*
X54385354Y-35111171D01*
X54246174Y-35250351D01*
X54246174Y-35250352D01*
X54246172Y-35250354D01*
X54210530Y-35299411D01*
X54130476Y-35409594D01*
X54041117Y-35584970D01*
X53980290Y-35772173D01*
X53949500Y-35966577D01*
X53949500Y-36163422D01*
X53980290Y-36357826D01*
X54041117Y-36545029D01*
X54100711Y-36661988D01*
X54130476Y-36720405D01*
X54246172Y-36879646D01*
X54385354Y-37018828D01*
X54544595Y-37134524D01*
X54667992Y-37197397D01*
X54721213Y-37224515D01*
X54772009Y-37272489D01*
X54788804Y-37340310D01*
X54766267Y-37406445D01*
X54721213Y-37445485D01*
X54544594Y-37535476D01*
X54523916Y-37550500D01*
X54385354Y-37651172D01*
X54385352Y-37651174D01*
X54385351Y-37651174D01*
X54246174Y-37790351D01*
X54246174Y-37790352D01*
X54246172Y-37790354D01*
X54210530Y-37839411D01*
X54130476Y-37949594D01*
X54041117Y-38124970D01*
X53980290Y-38312173D01*
X53949500Y-38506577D01*
X53949500Y-38703422D01*
X53980290Y-38897826D01*
X54041117Y-39085029D01*
X54130476Y-39260405D01*
X54246172Y-39419646D01*
X54385354Y-39558828D01*
X54544595Y-39674524D01*
X54667992Y-39737397D01*
X54721213Y-39764515D01*
X54772009Y-39812489D01*
X54788804Y-39880310D01*
X54766267Y-39946445D01*
X54721213Y-39985485D01*
X54544594Y-40075476D01*
X54487734Y-40116788D01*
X54385354Y-40191172D01*
X54385352Y-40191174D01*
X54385351Y-40191174D01*
X54246174Y-40330351D01*
X54246174Y-40330352D01*
X54246172Y-40330354D01*
X54210530Y-40379411D01*
X54130476Y-40489594D01*
X54041117Y-40664970D01*
X53980290Y-40852173D01*
X53949500Y-41046577D01*
X53949500Y-41243422D01*
X53980290Y-41437826D01*
X54041117Y-41625029D01*
X54130476Y-41800405D01*
X54246172Y-41959646D01*
X54385354Y-42098828D01*
X54544595Y-42214524D01*
X54667992Y-42277397D01*
X54721213Y-42304515D01*
X54772009Y-42352489D01*
X54788804Y-42420310D01*
X54766267Y-42486445D01*
X54721213Y-42525485D01*
X54544594Y-42615476D01*
X54487734Y-42656788D01*
X54385354Y-42731172D01*
X54385352Y-42731174D01*
X54385351Y-42731174D01*
X54246174Y-42870351D01*
X54246174Y-42870352D01*
X54246172Y-42870354D01*
X54210530Y-42919411D01*
X54130476Y-43029594D01*
X54041117Y-43204970D01*
X53980290Y-43392173D01*
X53949500Y-43586577D01*
X53949500Y-43783422D01*
X53980290Y-43977826D01*
X54041117Y-44165029D01*
X54130476Y-44340405D01*
X54246172Y-44499646D01*
X54385354Y-44638828D01*
X54544595Y-44754524D01*
X54667992Y-44817397D01*
X54721213Y-44844515D01*
X54772009Y-44892489D01*
X54788804Y-44960310D01*
X54766267Y-45026445D01*
X54721213Y-45065485D01*
X54544594Y-45155476D01*
X54487734Y-45196788D01*
X54385354Y-45271172D01*
X54385352Y-45271174D01*
X54385351Y-45271174D01*
X54246174Y-45410351D01*
X54246174Y-45410352D01*
X54246172Y-45410354D01*
X54210530Y-45459411D01*
X54130476Y-45569594D01*
X54041117Y-45744970D01*
X53980290Y-45932173D01*
X53949500Y-46126577D01*
X53949500Y-46323422D01*
X53980290Y-46517826D01*
X54041117Y-46705029D01*
X54130476Y-46880405D01*
X54246172Y-47039646D01*
X54385354Y-47178828D01*
X54544595Y-47294524D01*
X54667992Y-47357397D01*
X54721213Y-47384515D01*
X54772009Y-47432489D01*
X54788804Y-47500310D01*
X54766267Y-47566445D01*
X54721213Y-47605485D01*
X54544594Y-47695476D01*
X54487734Y-47736788D01*
X54385354Y-47811172D01*
X54385352Y-47811174D01*
X54385351Y-47811174D01*
X54246174Y-47950351D01*
X54246174Y-47950352D01*
X54246172Y-47950354D01*
X54210530Y-47999411D01*
X54130476Y-48109594D01*
X54041117Y-48284970D01*
X53980290Y-48472173D01*
X53949500Y-48666577D01*
X53949500Y-48863422D01*
X53980290Y-49057826D01*
X54041117Y-49245029D01*
X54100831Y-49362224D01*
X54130476Y-49420405D01*
X54246172Y-49579646D01*
X54385354Y-49718828D01*
X54544595Y-49834524D01*
X54667992Y-49897397D01*
X54721213Y-49924515D01*
X54772009Y-49972489D01*
X54788804Y-50040310D01*
X54766267Y-50106445D01*
X54721213Y-50145485D01*
X54544594Y-50235476D01*
X54459992Y-50296944D01*
X54385354Y-50351172D01*
X54385352Y-50351174D01*
X54385351Y-50351174D01*
X54246174Y-50490351D01*
X54246174Y-50490352D01*
X54246172Y-50490354D01*
X54210530Y-50539411D01*
X54130476Y-50649594D01*
X54041117Y-50824970D01*
X53980290Y-51012173D01*
X53949500Y-51206577D01*
X53949500Y-51403422D01*
X53980290Y-51597826D01*
X54041117Y-51785029D01*
X54130476Y-51960405D01*
X54246172Y-52119646D01*
X54385354Y-52258828D01*
X54544595Y-52374524D01*
X54667992Y-52437397D01*
X54721213Y-52464515D01*
X54772009Y-52512489D01*
X54788804Y-52580310D01*
X54766267Y-52646445D01*
X54721213Y-52685485D01*
X54544594Y-52775476D01*
X54453741Y-52841485D01*
X54385354Y-52891172D01*
X54385352Y-52891174D01*
X54385351Y-52891174D01*
X54246174Y-53030351D01*
X54246174Y-53030352D01*
X54246172Y-53030354D01*
X54196485Y-53098741D01*
X54130476Y-53189594D01*
X54041117Y-53364970D01*
X53980290Y-53552173D01*
X53949500Y-53746577D01*
X53949500Y-53943422D01*
X53980290Y-54137826D01*
X54041117Y-54325029D01*
X54130476Y-54500405D01*
X54246172Y-54659646D01*
X54385354Y-54798828D01*
X54544595Y-54914524D01*
X54654007Y-54970272D01*
X54721213Y-55004515D01*
X54772009Y-55052489D01*
X54788804Y-55120310D01*
X54766267Y-55186445D01*
X54721213Y-55225485D01*
X54544594Y-55315476D01*
X54453741Y-55381485D01*
X54385354Y-55431172D01*
X54385352Y-55431174D01*
X54385351Y-55431174D01*
X54246174Y-55570351D01*
X54246174Y-55570352D01*
X54246172Y-55570354D01*
X54210171Y-55619905D01*
X54130476Y-55729594D01*
X54041117Y-55904970D01*
X53980290Y-56092173D01*
X53949500Y-56286577D01*
X53949500Y-56483422D01*
X53980290Y-56677826D01*
X54041117Y-56865029D01*
X54125033Y-57029723D01*
X54130476Y-57040405D01*
X54246172Y-57199646D01*
X54385354Y-57338828D01*
X54544595Y-57454524D01*
X54667992Y-57517397D01*
X54721213Y-57544515D01*
X54772009Y-57592489D01*
X54788804Y-57660310D01*
X54766267Y-57726445D01*
X54721213Y-57765485D01*
X54544594Y-57855476D01*
X54453741Y-57921485D01*
X54385354Y-57971172D01*
X54385352Y-57971174D01*
X54385351Y-57971174D01*
X54246174Y-58110351D01*
X54246174Y-58110352D01*
X54246172Y-58110354D01*
X54196485Y-58178741D01*
X54130476Y-58269594D01*
X54041117Y-58444970D01*
X53980290Y-58632173D01*
X53949500Y-58826577D01*
X53949500Y-59023422D01*
X53980290Y-59217826D01*
X54041117Y-59405029D01*
X54126908Y-59573402D01*
X54130476Y-59580405D01*
X54246172Y-59739646D01*
X54385354Y-59878828D01*
X54544595Y-59994524D01*
X54667992Y-60057397D01*
X54721213Y-60084515D01*
X54772009Y-60132489D01*
X54788804Y-60200310D01*
X54766267Y-60266445D01*
X54721213Y-60305485D01*
X54544594Y-60395476D01*
X54470755Y-60449124D01*
X54385354Y-60511172D01*
X54385352Y-60511174D01*
X54385351Y-60511174D01*
X54246174Y-60650351D01*
X54246174Y-60650352D01*
X54246172Y-60650354D01*
X54196485Y-60718741D01*
X54130476Y-60809594D01*
X54041117Y-60984970D01*
X53980290Y-61172173D01*
X53949500Y-61366577D01*
X53949500Y-61563422D01*
X53980290Y-61757826D01*
X54041117Y-61945029D01*
X54117068Y-62094091D01*
X54130476Y-62120405D01*
X54246172Y-62279646D01*
X54385354Y-62418828D01*
X54544595Y-62534524D01*
X54667992Y-62597397D01*
X54721213Y-62624515D01*
X54772009Y-62672489D01*
X54788804Y-62740310D01*
X54766267Y-62806445D01*
X54721213Y-62845485D01*
X54544594Y-62935476D01*
X54453741Y-63001485D01*
X54385354Y-63051172D01*
X54385352Y-63051174D01*
X54385351Y-63051174D01*
X54246174Y-63190351D01*
X54246174Y-63190352D01*
X54246172Y-63190354D01*
X54196485Y-63258741D01*
X54130476Y-63349594D01*
X54041117Y-63524970D01*
X53980290Y-63712173D01*
X53949500Y-63906577D01*
X53949500Y-64103422D01*
X53980290Y-64297826D01*
X54041117Y-64485029D01*
X54095068Y-64590913D01*
X54130476Y-64660405D01*
X54246172Y-64819646D01*
X54385354Y-64958828D01*
X54544595Y-65074524D01*
X54667992Y-65137397D01*
X54721213Y-65164515D01*
X54772009Y-65212489D01*
X54788804Y-65280310D01*
X54766267Y-65346445D01*
X54721213Y-65385485D01*
X54544594Y-65475476D01*
X54531486Y-65485000D01*
X54385354Y-65591172D01*
X54385352Y-65591174D01*
X54385351Y-65591174D01*
X54246174Y-65730351D01*
X54246174Y-65730352D01*
X54246172Y-65730354D01*
X54196485Y-65798741D01*
X54130476Y-65889594D01*
X54041117Y-66064970D01*
X53980290Y-66252173D01*
X53949500Y-66446577D01*
X53949500Y-66643422D01*
X53980290Y-66837826D01*
X54041117Y-67025029D01*
X54130476Y-67200405D01*
X54246172Y-67359646D01*
X54385354Y-67498828D01*
X54544595Y-67614524D01*
X54627455Y-67656743D01*
X54719970Y-67703882D01*
X54719972Y-67703882D01*
X54719975Y-67703884D01*
X54820317Y-67736487D01*
X54907173Y-67764709D01*
X55101578Y-67795500D01*
X55101583Y-67795500D01*
X55298422Y-67795500D01*
X55492826Y-67764709D01*
X55680025Y-67703884D01*
X55855405Y-67614524D01*
X56014646Y-67498828D01*
X56153828Y-67359646D01*
X56269524Y-67200405D01*
X56358884Y-67025025D01*
X56419709Y-66837826D01*
X56450500Y-66643422D01*
X56450500Y-66446577D01*
X56419709Y-66252173D01*
X56358882Y-66064970D01*
X56269523Y-65889594D01*
X56153828Y-65730354D01*
X56014646Y-65591172D01*
X55868514Y-65485000D01*
X55855403Y-65475474D01*
X55678787Y-65385485D01*
X55627990Y-65337511D01*
X55611195Y-65269690D01*
X55633732Y-65203555D01*
X55678787Y-65164515D01*
X55855403Y-65074525D01*
X55855402Y-65074525D01*
X55855405Y-65074524D01*
X56014646Y-64958828D01*
X56153828Y-64819646D01*
X56269524Y-64660405D01*
X56358884Y-64485025D01*
X56419709Y-64297826D01*
X56450500Y-64103422D01*
X56450500Y-63906577D01*
X56419709Y-63712173D01*
X56358882Y-63524970D01*
X56269523Y-63349594D01*
X56153828Y-63190354D01*
X56014646Y-63051172D01*
X55935025Y-62993324D01*
X55855403Y-62935474D01*
X55678787Y-62845485D01*
X55627990Y-62797511D01*
X55611195Y-62729690D01*
X55633732Y-62663555D01*
X55678787Y-62624515D01*
X55855403Y-62534525D01*
X55855402Y-62534525D01*
X55855405Y-62534524D01*
X56014646Y-62418828D01*
X56153828Y-62279646D01*
X56269524Y-62120405D01*
X56358884Y-61945025D01*
X56419709Y-61757826D01*
X56450500Y-61563422D01*
X56450500Y-61366577D01*
X56419709Y-61172173D01*
X56358882Y-60984970D01*
X56269523Y-60809594D01*
X56153828Y-60650354D01*
X56014646Y-60511172D01*
X55892941Y-60422747D01*
X55855403Y-60395474D01*
X55770344Y-60352135D01*
X59249500Y-60352135D01*
X59249500Y-61647870D01*
X59249501Y-61647876D01*
X59255908Y-61707483D01*
X59306202Y-61842328D01*
X59306206Y-61842335D01*
X59392452Y-61957544D01*
X59392455Y-61957547D01*
X59507664Y-62043793D01*
X59507671Y-62043797D01*
X59642517Y-62094091D01*
X59642516Y-62094091D01*
X59649444Y-62094835D01*
X59702127Y-62100500D01*
X61247872Y-62100499D01*
X61307483Y-62094091D01*
X61442331Y-62043796D01*
X61557546Y-61957546D01*
X61643796Y-61842331D01*
X61694091Y-61707483D01*
X61700500Y-61647873D01*
X61700499Y-60352128D01*
X61694091Y-60292517D01*
X61643796Y-60157669D01*
X61643795Y-60157668D01*
X61643793Y-60157664D01*
X61557547Y-60042455D01*
X61557544Y-60042452D01*
X61442335Y-59956206D01*
X61442328Y-59956202D01*
X61307482Y-59905908D01*
X61307483Y-59905908D01*
X61247883Y-59899501D01*
X61247881Y-59899500D01*
X61247873Y-59899500D01*
X61247864Y-59899500D01*
X59702129Y-59899500D01*
X59702123Y-59899501D01*
X59642516Y-59905908D01*
X59507671Y-59956202D01*
X59507664Y-59956206D01*
X59392455Y-60042452D01*
X59392452Y-60042455D01*
X59306206Y-60157664D01*
X59306202Y-60157671D01*
X59255908Y-60292517D01*
X59249501Y-60352116D01*
X59249501Y-60352123D01*
X59249500Y-60352135D01*
X55770344Y-60352135D01*
X55678787Y-60305485D01*
X55627990Y-60257511D01*
X55611195Y-60189690D01*
X55633732Y-60123555D01*
X55678787Y-60084515D01*
X55855403Y-59994525D01*
X55855402Y-59994525D01*
X55855405Y-59994524D01*
X56014646Y-59878828D01*
X56153828Y-59739646D01*
X56269524Y-59580405D01*
X56358884Y-59405025D01*
X56419709Y-59217826D01*
X56419851Y-59216928D01*
X56450500Y-59023422D01*
X56450500Y-58826577D01*
X56419709Y-58632173D01*
X56358882Y-58444970D01*
X56269523Y-58269594D01*
X56249692Y-58242299D01*
X56153828Y-58110354D01*
X56014646Y-57971172D01*
X55935025Y-57913324D01*
X55855403Y-57855474D01*
X55678787Y-57765485D01*
X55627990Y-57717511D01*
X55611195Y-57649690D01*
X55633732Y-57583555D01*
X55678787Y-57544515D01*
X55855403Y-57454525D01*
X55855402Y-57454525D01*
X55855405Y-57454524D01*
X56014646Y-57338828D01*
X56153828Y-57199646D01*
X56269524Y-57040405D01*
X56358884Y-56865025D01*
X56419709Y-56677826D01*
X56450500Y-56483422D01*
X56450500Y-56286576D01*
X56441909Y-56232333D01*
X56419709Y-56092173D01*
X56391487Y-56005317D01*
X56358884Y-55904975D01*
X56358882Y-55904972D01*
X56358882Y-55904970D01*
X56327489Y-55843359D01*
X56327488Y-55843357D01*
X56279921Y-55750000D01*
X59022769Y-55750000D01*
X60070854Y-55750000D01*
X60032370Y-55816657D01*
X60000000Y-55937465D01*
X60000000Y-56062535D01*
X60032370Y-56183343D01*
X60070854Y-56250000D01*
X59022769Y-56250000D01*
X59033242Y-56316126D01*
X59033242Y-56316129D01*
X59098904Y-56518217D01*
X59195379Y-56707557D01*
X59320272Y-56879459D01*
X59320276Y-56879464D01*
X59470535Y-57029723D01*
X59470540Y-57029727D01*
X59642442Y-57154620D01*
X59831778Y-57251093D01*
X59880022Y-57266768D01*
X59937698Y-57306205D01*
X59964897Y-57370563D01*
X59952983Y-57439410D01*
X59905740Y-57490886D01*
X59898000Y-57495185D01*
X59773211Y-57558768D01*
X59726799Y-57592489D01*
X59633072Y-57660586D01*
X59633070Y-57660588D01*
X59633069Y-57660588D01*
X59510588Y-57783069D01*
X59510588Y-57783070D01*
X59510586Y-57783072D01*
X59466859Y-57843256D01*
X59408768Y-57923211D01*
X59330128Y-58077552D01*
X59276597Y-58242302D01*
X59249500Y-58413389D01*
X59249500Y-58586611D01*
X59276598Y-58757701D01*
X59330127Y-58922445D01*
X59408768Y-59076788D01*
X59510586Y-59216928D01*
X59633072Y-59339414D01*
X59773212Y-59441232D01*
X59927555Y-59519873D01*
X60092299Y-59573402D01*
X60263389Y-59600500D01*
X60263390Y-59600500D01*
X60686610Y-59600500D01*
X60686611Y-59600500D01*
X60857701Y-59573402D01*
X61022445Y-59519873D01*
X61176788Y-59441232D01*
X61316928Y-59339414D01*
X61439414Y-59216928D01*
X61541232Y-59076788D01*
X61619873Y-58922445D01*
X61673402Y-58757701D01*
X61700500Y-58586611D01*
X61700500Y-58413389D01*
X61673402Y-58242299D01*
X61619873Y-58077555D01*
X61541232Y-57923212D01*
X61439414Y-57783072D01*
X61316928Y-57660586D01*
X61176788Y-57558768D01*
X61147576Y-57543884D01*
X61051999Y-57495185D01*
X61001203Y-57447210D01*
X60984408Y-57379389D01*
X61006945Y-57313255D01*
X61061660Y-57269803D01*
X61069978Y-57266768D01*
X61118219Y-57251094D01*
X61307557Y-57154620D01*
X61479459Y-57029727D01*
X61479464Y-57029723D01*
X61629723Y-56879464D01*
X61629727Y-56879459D01*
X61754620Y-56707557D01*
X61851095Y-56518217D01*
X61916757Y-56316129D01*
X61916757Y-56316126D01*
X61927231Y-56250000D01*
X60879146Y-56250000D01*
X60917630Y-56183343D01*
X60950000Y-56062535D01*
X60950000Y-55937465D01*
X60917630Y-55816657D01*
X60879146Y-55750000D01*
X61927231Y-55750000D01*
X61916757Y-55683873D01*
X61916757Y-55683870D01*
X61851095Y-55481782D01*
X61754620Y-55292442D01*
X61629727Y-55120540D01*
X61629723Y-55120535D01*
X61479464Y-54970276D01*
X61479459Y-54970272D01*
X61307557Y-54845379D01*
X61118217Y-54748904D01*
X60916128Y-54683242D01*
X60725000Y-54652969D01*
X60725000Y-55595854D01*
X60658343Y-55557370D01*
X60537535Y-55525000D01*
X60412465Y-55525000D01*
X60291657Y-55557370D01*
X60225000Y-55595854D01*
X60225000Y-54652969D01*
X60033872Y-54683242D01*
X60033869Y-54683242D01*
X59831782Y-54748904D01*
X59642442Y-54845379D01*
X59470540Y-54970272D01*
X59470535Y-54970276D01*
X59320276Y-55120535D01*
X59320272Y-55120540D01*
X59195379Y-55292442D01*
X59098904Y-55481782D01*
X59033242Y-55683870D01*
X59033242Y-55683873D01*
X59022769Y-55750000D01*
X56279921Y-55750000D01*
X56269525Y-55729596D01*
X56236305Y-55683873D01*
X56153828Y-55570354D01*
X56014646Y-55431172D01*
X55935025Y-55373324D01*
X55855403Y-55315474D01*
X55678787Y-55225485D01*
X55627990Y-55177511D01*
X55611195Y-55109690D01*
X55633732Y-55043555D01*
X55678787Y-55004515D01*
X55855403Y-54914525D01*
X55855402Y-54914525D01*
X55855405Y-54914524D01*
X56014646Y-54798828D01*
X56153828Y-54659646D01*
X56269524Y-54500405D01*
X56358884Y-54325025D01*
X56419709Y-54137826D01*
X56450500Y-53943422D01*
X56450500Y-53746577D01*
X56419709Y-53552173D01*
X56358882Y-53364970D01*
X56269523Y-53189594D01*
X56153828Y-53030354D01*
X56014646Y-52891172D01*
X55935025Y-52833324D01*
X55855403Y-52775474D01*
X55678787Y-52685485D01*
X55627990Y-52637511D01*
X55611195Y-52569690D01*
X55633732Y-52503555D01*
X55678787Y-52464515D01*
X55855403Y-52374525D01*
X55855402Y-52374525D01*
X55855405Y-52374524D01*
X56014646Y-52258828D01*
X56153828Y-52119646D01*
X56269524Y-51960405D01*
X56358884Y-51785025D01*
X56419709Y-51597826D01*
X56450500Y-51403422D01*
X56450500Y-51206577D01*
X56419709Y-51012173D01*
X56358882Y-50824970D01*
X56269523Y-50649594D01*
X56263447Y-50641231D01*
X56153828Y-50490354D01*
X56014646Y-50351172D01*
X55935025Y-50293324D01*
X55855403Y-50235474D01*
X55678787Y-50145485D01*
X55627990Y-50097511D01*
X55611195Y-50029690D01*
X55633732Y-49963555D01*
X55678787Y-49924515D01*
X55855403Y-49834525D01*
X55855402Y-49834525D01*
X55855405Y-49834524D01*
X56014646Y-49718828D01*
X56120085Y-49613389D01*
X59899500Y-49613389D01*
X59899500Y-49786611D01*
X59926598Y-49957701D01*
X59980127Y-50122445D01*
X60058768Y-50276788D01*
X60160586Y-50416928D01*
X60283072Y-50539414D01*
X60423212Y-50641232D01*
X60577555Y-50719873D01*
X60742299Y-50773402D01*
X60913389Y-50800500D01*
X60913390Y-50800500D01*
X61086610Y-50800500D01*
X61086611Y-50800500D01*
X61257701Y-50773402D01*
X61422445Y-50719873D01*
X61576788Y-50641232D01*
X61716928Y-50539414D01*
X61839414Y-50416928D01*
X61941232Y-50276788D01*
X62019873Y-50122445D01*
X62073402Y-49957701D01*
X62100500Y-49786611D01*
X62100500Y-49613389D01*
X62073402Y-49442299D01*
X62019873Y-49277555D01*
X61941232Y-49123212D01*
X61839414Y-48983072D01*
X61716928Y-48860586D01*
X61576788Y-48758768D01*
X61422445Y-48680127D01*
X61257701Y-48626598D01*
X61257699Y-48626597D01*
X61257698Y-48626597D01*
X61126271Y-48605781D01*
X61086611Y-48599500D01*
X60913389Y-48599500D01*
X60873728Y-48605781D01*
X60742302Y-48626597D01*
X60577552Y-48680128D01*
X60423211Y-48758768D01*
X60343256Y-48816859D01*
X60283072Y-48860586D01*
X60283070Y-48860588D01*
X60283069Y-48860588D01*
X60160588Y-48983069D01*
X60160588Y-48983070D01*
X60160586Y-48983072D01*
X60116859Y-49043256D01*
X60058768Y-49123211D01*
X59980128Y-49277552D01*
X59926597Y-49442302D01*
X59904845Y-49579642D01*
X59899500Y-49613389D01*
X56120085Y-49613389D01*
X56153828Y-49579646D01*
X56269524Y-49420405D01*
X56358884Y-49245025D01*
X56419709Y-49057826D01*
X56431549Y-48983070D01*
X56450500Y-48863422D01*
X56450500Y-48666577D01*
X56419709Y-48472173D01*
X56358882Y-48284970D01*
X56269523Y-48109594D01*
X56263447Y-48101231D01*
X56153828Y-47950354D01*
X56014646Y-47811172D01*
X55912266Y-47736788D01*
X55855403Y-47695474D01*
X55678787Y-47605485D01*
X55627990Y-47557511D01*
X55611195Y-47489690D01*
X55633732Y-47423555D01*
X55678787Y-47384515D01*
X55855403Y-47294525D01*
X55855402Y-47294525D01*
X55855405Y-47294524D01*
X56014646Y-47178828D01*
X56120085Y-47073389D01*
X59899500Y-47073389D01*
X59899500Y-47246611D01*
X59926598Y-47417701D01*
X59980127Y-47582445D01*
X60058768Y-47736788D01*
X60160586Y-47876928D01*
X60283072Y-47999414D01*
X60423212Y-48101232D01*
X60577555Y-48179873D01*
X60742299Y-48233402D01*
X60913389Y-48260500D01*
X60913390Y-48260500D01*
X61086610Y-48260500D01*
X61086611Y-48260500D01*
X61257701Y-48233402D01*
X61422445Y-48179873D01*
X61576788Y-48101232D01*
X61716928Y-47999414D01*
X61839414Y-47876928D01*
X61941232Y-47736788D01*
X62019873Y-47582445D01*
X62073402Y-47417701D01*
X62100500Y-47246611D01*
X62100500Y-47073389D01*
X62073402Y-46902299D01*
X62019873Y-46737555D01*
X61941232Y-46583212D01*
X61839414Y-46443072D01*
X61716928Y-46320586D01*
X61576788Y-46218768D01*
X61422445Y-46140127D01*
X61257701Y-46086598D01*
X61257699Y-46086597D01*
X61257698Y-46086597D01*
X61126271Y-46065781D01*
X61086611Y-46059500D01*
X60913389Y-46059500D01*
X60873728Y-46065781D01*
X60742302Y-46086597D01*
X60577552Y-46140128D01*
X60423211Y-46218768D01*
X60343256Y-46276859D01*
X60283072Y-46320586D01*
X60283070Y-46320588D01*
X60283069Y-46320588D01*
X60160588Y-46443069D01*
X60160588Y-46443070D01*
X60160586Y-46443072D01*
X60116859Y-46503256D01*
X60058768Y-46583211D01*
X59980128Y-46737552D01*
X59926597Y-46902302D01*
X59904845Y-47039642D01*
X59899500Y-47073389D01*
X56120085Y-47073389D01*
X56153828Y-47039646D01*
X56269524Y-46880405D01*
X56358884Y-46705025D01*
X56419709Y-46517826D01*
X56431549Y-46443070D01*
X56450500Y-46323422D01*
X56450500Y-46126577D01*
X56419709Y-45932173D01*
X56358882Y-45744970D01*
X56269523Y-45569594D01*
X56263447Y-45561231D01*
X56153828Y-45410354D01*
X56014646Y-45271172D01*
X55912266Y-45196788D01*
X55855403Y-45155474D01*
X55678787Y-45065485D01*
X55627990Y-45017511D01*
X55611195Y-44949690D01*
X55633732Y-44883555D01*
X55678787Y-44844515D01*
X55855403Y-44754525D01*
X55855402Y-44754525D01*
X55855405Y-44754524D01*
X56014646Y-44638828D01*
X56120085Y-44533389D01*
X59899500Y-44533389D01*
X59899500Y-44706611D01*
X59926598Y-44877701D01*
X59980127Y-45042445D01*
X60058768Y-45196788D01*
X60160586Y-45336928D01*
X60283072Y-45459414D01*
X60423212Y-45561232D01*
X60577555Y-45639873D01*
X60742299Y-45693402D01*
X60913389Y-45720500D01*
X60913390Y-45720500D01*
X61086610Y-45720500D01*
X61086611Y-45720500D01*
X61257701Y-45693402D01*
X61422445Y-45639873D01*
X61576788Y-45561232D01*
X61716928Y-45459414D01*
X61839414Y-45336928D01*
X61941232Y-45196788D01*
X62019873Y-45042445D01*
X62073402Y-44877701D01*
X62100500Y-44706611D01*
X62100500Y-44533389D01*
X62073402Y-44362299D01*
X62019873Y-44197555D01*
X61941232Y-44043212D01*
X61839414Y-43903072D01*
X61716928Y-43780586D01*
X61576788Y-43678768D01*
X61422445Y-43600127D01*
X61257701Y-43546598D01*
X61257699Y-43546597D01*
X61257698Y-43546597D01*
X61126271Y-43525781D01*
X61086611Y-43519500D01*
X60913389Y-43519500D01*
X60873728Y-43525781D01*
X60742302Y-43546597D01*
X60577552Y-43600128D01*
X60423211Y-43678768D01*
X60343256Y-43736859D01*
X60283072Y-43780586D01*
X60283070Y-43780588D01*
X60283069Y-43780588D01*
X60160588Y-43903069D01*
X60160588Y-43903070D01*
X60160586Y-43903072D01*
X60116859Y-43963256D01*
X60058768Y-44043211D01*
X59980128Y-44197552D01*
X59926597Y-44362302D01*
X59904845Y-44499642D01*
X59899500Y-44533389D01*
X56120085Y-44533389D01*
X56153828Y-44499646D01*
X56269524Y-44340405D01*
X56358884Y-44165025D01*
X56419709Y-43977826D01*
X56431549Y-43903070D01*
X56450500Y-43783422D01*
X56450500Y-43586577D01*
X56419709Y-43392173D01*
X56358882Y-43204970D01*
X56269523Y-43029594D01*
X56263447Y-43021231D01*
X56153828Y-42870354D01*
X56014646Y-42731172D01*
X55912266Y-42656788D01*
X55855403Y-42615474D01*
X55678787Y-42525485D01*
X55627990Y-42477511D01*
X55611195Y-42409690D01*
X55633732Y-42343555D01*
X55678787Y-42304515D01*
X55855403Y-42214525D01*
X55855402Y-42214525D01*
X55855405Y-42214524D01*
X56014646Y-42098828D01*
X56120085Y-41993389D01*
X59899500Y-41993389D01*
X59899500Y-42166611D01*
X59926598Y-42337701D01*
X59980127Y-42502445D01*
X60058768Y-42656788D01*
X60160586Y-42796928D01*
X60283072Y-42919414D01*
X60423212Y-43021232D01*
X60577555Y-43099873D01*
X60742299Y-43153402D01*
X60913389Y-43180500D01*
X60913390Y-43180500D01*
X61086610Y-43180500D01*
X61086611Y-43180500D01*
X61257701Y-43153402D01*
X61422445Y-43099873D01*
X61576788Y-43021232D01*
X61716928Y-42919414D01*
X61839414Y-42796928D01*
X61941232Y-42656788D01*
X62019873Y-42502445D01*
X62073402Y-42337701D01*
X62100500Y-42166611D01*
X62100500Y-41993389D01*
X62073402Y-41822299D01*
X62019873Y-41657555D01*
X61941232Y-41503212D01*
X61839414Y-41363072D01*
X61716928Y-41240586D01*
X61576788Y-41138768D01*
X61422445Y-41060127D01*
X61257701Y-41006598D01*
X61257699Y-41006597D01*
X61257698Y-41006597D01*
X61126271Y-40985781D01*
X61086611Y-40979500D01*
X60913389Y-40979500D01*
X60873728Y-40985781D01*
X60742302Y-41006597D01*
X60577552Y-41060128D01*
X60423211Y-41138768D01*
X60343256Y-41196859D01*
X60283072Y-41240586D01*
X60283070Y-41240588D01*
X60283069Y-41240588D01*
X60160588Y-41363069D01*
X60160588Y-41363070D01*
X60160586Y-41363072D01*
X60116859Y-41423256D01*
X60058768Y-41503211D01*
X59980128Y-41657552D01*
X59926597Y-41822302D01*
X59904845Y-41959642D01*
X59899500Y-41993389D01*
X56120085Y-41993389D01*
X56153828Y-41959646D01*
X56269524Y-41800405D01*
X56358884Y-41625025D01*
X56419709Y-41437826D01*
X56431549Y-41363070D01*
X56450500Y-41243422D01*
X56450500Y-41046577D01*
X56419709Y-40852173D01*
X56358882Y-40664970D01*
X56269523Y-40489594D01*
X56263447Y-40481231D01*
X56153828Y-40330354D01*
X56014646Y-40191172D01*
X55912266Y-40116788D01*
X55855403Y-40075474D01*
X55678787Y-39985485D01*
X55627990Y-39937511D01*
X55611195Y-39869690D01*
X55633732Y-39803555D01*
X55678787Y-39764515D01*
X55855403Y-39674525D01*
X55855402Y-39674525D01*
X55855405Y-39674524D01*
X56014646Y-39558828D01*
X56120085Y-39453389D01*
X59899500Y-39453389D01*
X59899500Y-39626611D01*
X59926598Y-39797701D01*
X59980127Y-39962445D01*
X60058768Y-40116788D01*
X60160586Y-40256928D01*
X60283072Y-40379414D01*
X60423212Y-40481232D01*
X60577555Y-40559873D01*
X60742299Y-40613402D01*
X60913389Y-40640500D01*
X60913390Y-40640500D01*
X61086610Y-40640500D01*
X61086611Y-40640500D01*
X61257701Y-40613402D01*
X61422445Y-40559873D01*
X61576788Y-40481232D01*
X61716928Y-40379414D01*
X61839414Y-40256928D01*
X61941232Y-40116788D01*
X62019873Y-39962445D01*
X62073402Y-39797701D01*
X62100500Y-39626611D01*
X62100500Y-39453389D01*
X62073402Y-39282299D01*
X62019873Y-39117555D01*
X61941232Y-38963212D01*
X61839414Y-38823072D01*
X61716928Y-38700586D01*
X61576788Y-38598768D01*
X61422445Y-38520127D01*
X61257701Y-38466598D01*
X61257699Y-38466597D01*
X61257698Y-38466597D01*
X61126271Y-38445781D01*
X61086611Y-38439500D01*
X60913389Y-38439500D01*
X60873728Y-38445781D01*
X60742302Y-38466597D01*
X60577552Y-38520128D01*
X60423211Y-38598768D01*
X60343256Y-38656859D01*
X60283072Y-38700586D01*
X60283070Y-38700588D01*
X60283069Y-38700588D01*
X60160588Y-38823069D01*
X60160588Y-38823070D01*
X60160586Y-38823072D01*
X60116859Y-38883256D01*
X60058768Y-38963211D01*
X59980128Y-39117552D01*
X59926597Y-39282302D01*
X59904845Y-39419642D01*
X59899500Y-39453389D01*
X56120085Y-39453389D01*
X56153828Y-39419646D01*
X56269524Y-39260405D01*
X56358884Y-39085025D01*
X56419709Y-38897826D01*
X56431549Y-38823070D01*
X56450500Y-38703422D01*
X56450500Y-38506577D01*
X56419709Y-38312173D01*
X56358882Y-38124970D01*
X56269523Y-37949594D01*
X56263447Y-37941231D01*
X56153828Y-37790354D01*
X56014646Y-37651172D01*
X55876084Y-37550500D01*
X55855403Y-37535474D01*
X55678787Y-37445485D01*
X55627990Y-37397511D01*
X55611195Y-37329690D01*
X55633732Y-37263555D01*
X55678787Y-37224515D01*
X55855403Y-37134525D01*
X55855402Y-37134525D01*
X55855405Y-37134524D01*
X56014646Y-37018828D01*
X56153828Y-36879646D01*
X56269524Y-36720405D01*
X56358884Y-36545025D01*
X56419709Y-36357826D01*
X56431549Y-36283070D01*
X56450500Y-36163422D01*
X56450500Y-35966577D01*
X56419709Y-35772173D01*
X56358882Y-35584970D01*
X56269523Y-35409594D01*
X56263447Y-35401231D01*
X56153828Y-35250354D01*
X56014646Y-35111172D01*
X56009393Y-35107356D01*
X55921272Y-35043330D01*
X55878606Y-34988000D01*
X55872628Y-34918387D01*
X55905235Y-34856592D01*
X55937865Y-34832527D01*
X55986164Y-34807918D01*
X55986169Y-34807914D01*
X56069104Y-34747658D01*
X56069105Y-34747658D01*
X55337574Y-34016128D01*
X55396853Y-34000245D01*
X55513147Y-33933102D01*
X55608102Y-33838147D01*
X55675245Y-33721853D01*
X55691128Y-33662574D01*
X56422658Y-34394105D01*
X56422658Y-34394104D01*
X56482914Y-34311169D01*
X56482918Y-34311163D01*
X56590102Y-34100802D01*
X56663065Y-33876247D01*
X56700000Y-33643052D01*
X56700000Y-33406947D01*
X56663065Y-33173752D01*
X56590102Y-32949197D01*
X56482914Y-32738828D01*
X56422658Y-32655894D01*
X56422658Y-32655893D01*
X55691128Y-33387424D01*
X55675245Y-33328147D01*
X55608102Y-33211853D01*
X55513147Y-33116898D01*
X55396853Y-33049755D01*
X55337574Y-33033871D01*
X56069105Y-32302340D01*
X56069104Y-32302338D01*
X55986172Y-32242085D01*
X55937863Y-32217471D01*
X55887067Y-32169497D01*
X55870271Y-32101676D01*
X55892808Y-32035541D01*
X55921270Y-32006669D01*
X56014646Y-31938828D01*
X56153828Y-31799646D01*
X56269524Y-31640405D01*
X56358884Y-31465025D01*
X56419709Y-31277826D01*
X56438643Y-31158282D01*
X56450500Y-31083422D01*
X56450500Y-30886577D01*
X56419709Y-30692173D01*
X56358882Y-30504970D01*
X56269523Y-30329594D01*
X56268176Y-30327740D01*
X56153828Y-30170354D01*
X56014646Y-30031172D01*
X55855405Y-29915476D01*
X55680029Y-29826117D01*
X55492826Y-29765290D01*
X55298422Y-29734500D01*
X55298417Y-29734500D01*
X55101583Y-29734500D01*
X55101578Y-29734500D01*
X54907173Y-29765290D01*
X54719970Y-29826117D01*
X54544594Y-29915476D01*
X54453741Y-29981485D01*
X54385354Y-30031172D01*
X54385352Y-30031174D01*
X54385351Y-30031174D01*
X54246174Y-30170351D01*
X54246174Y-30170352D01*
X54246172Y-30170354D01*
X54196485Y-30238741D01*
X54130476Y-30329594D01*
X54041117Y-30504970D01*
X53980290Y-30692173D01*
X53949500Y-30886577D01*
X53949500Y-31083422D01*
X53980290Y-31277826D01*
X54041117Y-31465029D01*
X54116509Y-31612993D01*
X54130476Y-31640405D01*
X54246172Y-31799646D01*
X54385354Y-31938828D01*
X54478728Y-32006669D01*
X54521393Y-32061998D01*
X54527372Y-32131612D01*
X54494766Y-32193407D01*
X54462138Y-32217470D01*
X54413832Y-32242083D01*
X54330894Y-32302340D01*
X55062425Y-33033871D01*
X55003147Y-33049755D01*
X54886853Y-33116898D01*
X54791898Y-33211853D01*
X54724755Y-33328147D01*
X54708871Y-33387425D01*
X53977340Y-32655894D01*
X53917084Y-32738830D01*
X53809897Y-32949197D01*
X53736934Y-33173752D01*
X53700000Y-33406947D01*
X49159446Y-33406947D01*
X53129574Y-29436819D01*
X53190897Y-29403334D01*
X53217255Y-29400500D01*
X55844840Y-29400500D01*
X55911879Y-29420185D01*
X55932521Y-29436819D01*
X57563181Y-31067478D01*
X57596666Y-31128801D01*
X57599500Y-31155159D01*
X57599500Y-35570614D01*
X57579815Y-35637653D01*
X57563181Y-35658295D01*
X57559493Y-35661982D01*
X57559488Y-35661988D01*
X57487017Y-35787511D01*
X57487016Y-35787515D01*
X57449500Y-35927525D01*
X57449500Y-36072475D01*
X57487016Y-36212485D01*
X57487017Y-36212488D01*
X57559488Y-36338011D01*
X57559490Y-36338013D01*
X57559491Y-36338015D01*
X57661985Y-36440509D01*
X57661986Y-36440510D01*
X57661988Y-36440511D01*
X57787511Y-36512982D01*
X57787512Y-36512982D01*
X57787515Y-36512984D01*
X57927525Y-36550500D01*
X57927528Y-36550500D01*
X58059082Y-36550500D01*
X58126121Y-36570185D01*
X58171876Y-36622989D01*
X58181820Y-36692147D01*
X58166469Y-36736500D01*
X58137017Y-36787511D01*
X58137016Y-36787515D01*
X58099500Y-36927525D01*
X58099500Y-37072475D01*
X58137016Y-37212485D01*
X58137017Y-37212488D01*
X58209488Y-37338011D01*
X58209490Y-37338013D01*
X58209491Y-37338015D01*
X58311985Y-37440509D01*
X58311986Y-37440510D01*
X58311988Y-37440511D01*
X58437511Y-37512982D01*
X58437512Y-37512982D01*
X58437515Y-37512984D01*
X58577525Y-37550500D01*
X58577528Y-37550500D01*
X58722472Y-37550500D01*
X58722475Y-37550500D01*
X58862485Y-37512984D01*
X58988015Y-37440509D01*
X59090509Y-37338015D01*
X59162984Y-37212485D01*
X59200500Y-37072475D01*
X59200500Y-36927525D01*
X59196712Y-36913389D01*
X59899500Y-36913389D01*
X59899500Y-37086611D01*
X59926598Y-37257701D01*
X59974928Y-37406445D01*
X59980128Y-37422447D01*
X60026259Y-37512984D01*
X60058768Y-37576788D01*
X60160586Y-37716928D01*
X60283072Y-37839414D01*
X60423212Y-37941232D01*
X60577555Y-38019873D01*
X60742299Y-38073402D01*
X60913389Y-38100500D01*
X60913390Y-38100500D01*
X61086610Y-38100500D01*
X61086611Y-38100500D01*
X61257701Y-38073402D01*
X61422445Y-38019873D01*
X61576788Y-37941232D01*
X61716928Y-37839414D01*
X61839414Y-37716928D01*
X61941232Y-37576788D01*
X62019873Y-37422445D01*
X62073402Y-37257701D01*
X62100500Y-37086611D01*
X62100500Y-36913389D01*
X62073402Y-36742299D01*
X62019873Y-36577555D01*
X61941232Y-36423212D01*
X61839414Y-36283072D01*
X61716928Y-36160586D01*
X61576788Y-36058768D01*
X61422445Y-35980127D01*
X61257701Y-35926598D01*
X61257699Y-35926597D01*
X61257698Y-35926597D01*
X61126271Y-35905781D01*
X61086611Y-35899500D01*
X60913389Y-35899500D01*
X60873728Y-35905781D01*
X60742302Y-35926597D01*
X60577552Y-35980128D01*
X60423211Y-36058768D01*
X60343256Y-36116859D01*
X60283072Y-36160586D01*
X60283070Y-36160588D01*
X60283069Y-36160588D01*
X60160588Y-36283069D01*
X60160588Y-36283070D01*
X60160586Y-36283072D01*
X60120670Y-36338011D01*
X60058768Y-36423211D01*
X59980128Y-36577552D01*
X59926597Y-36742302D01*
X59919437Y-36787511D01*
X59899500Y-36913389D01*
X59196712Y-36913389D01*
X59162984Y-36787515D01*
X59136878Y-36742299D01*
X59090511Y-36661988D01*
X59090506Y-36661982D01*
X59086819Y-36658295D01*
X59053334Y-36596972D01*
X59050500Y-36570614D01*
X59050500Y-31813753D01*
X59650000Y-31813753D01*
X59650000Y-32026246D01*
X59683242Y-32236127D01*
X59683242Y-32236130D01*
X59748904Y-32438217D01*
X59845375Y-32627550D01*
X59884728Y-32681716D01*
X60517037Y-32049408D01*
X60534075Y-32112993D01*
X60599901Y-32227007D01*
X60692993Y-32320099D01*
X60807007Y-32385925D01*
X60870590Y-32402962D01*
X60238282Y-33035269D01*
X60238282Y-33035270D01*
X60292449Y-33074624D01*
X60481784Y-33171096D01*
X60580711Y-33203239D01*
X60638387Y-33242676D01*
X60665586Y-33307034D01*
X60653672Y-33375881D01*
X60606428Y-33427357D01*
X60580722Y-33439097D01*
X60579522Y-33439487D01*
X60577550Y-33440128D01*
X60423211Y-33518768D01*
X60414634Y-33525000D01*
X60283072Y-33620586D01*
X60283070Y-33620588D01*
X60283069Y-33620588D01*
X60160588Y-33743069D01*
X60160588Y-33743070D01*
X60160586Y-33743072D01*
X60116859Y-33803256D01*
X60058768Y-33883211D01*
X59980128Y-34037552D01*
X59926597Y-34202302D01*
X59909354Y-34311174D01*
X59899500Y-34373389D01*
X59899500Y-34546611D01*
X59926598Y-34717701D01*
X59980127Y-34882445D01*
X60058768Y-35036788D01*
X60160586Y-35176928D01*
X60283072Y-35299414D01*
X60423212Y-35401232D01*
X60577555Y-35479873D01*
X60742299Y-35533402D01*
X60913389Y-35560500D01*
X60913390Y-35560500D01*
X61086610Y-35560500D01*
X61086611Y-35560500D01*
X61257701Y-35533402D01*
X61422445Y-35479873D01*
X61576788Y-35401232D01*
X61716928Y-35299414D01*
X61839414Y-35176928D01*
X61941232Y-35036788D01*
X62019873Y-34882445D01*
X62073402Y-34717701D01*
X62100500Y-34546611D01*
X62100500Y-34373389D01*
X62073402Y-34202299D01*
X62019873Y-34037555D01*
X61941232Y-33883212D01*
X61839414Y-33743072D01*
X61716928Y-33620586D01*
X61576788Y-33518768D01*
X61422446Y-33440127D01*
X61419284Y-33439100D01*
X61418236Y-33438383D01*
X61417952Y-33438266D01*
X61417976Y-33438206D01*
X61361609Y-33399661D01*
X61334413Y-33335302D01*
X61346329Y-33266456D01*
X61393574Y-33214981D01*
X61419288Y-33203239D01*
X61518215Y-33171096D01*
X61707554Y-33074622D01*
X61761716Y-33035270D01*
X61761717Y-33035270D01*
X61129408Y-32402962D01*
X61192993Y-32385925D01*
X61307007Y-32320099D01*
X61400099Y-32227007D01*
X61465925Y-32112993D01*
X61482962Y-32049409D01*
X62115270Y-32681717D01*
X62115270Y-32681716D01*
X62154622Y-32627554D01*
X62251095Y-32438217D01*
X62316757Y-32236130D01*
X62316757Y-32236127D01*
X62350000Y-32026246D01*
X62350000Y-31813753D01*
X62316757Y-31603872D01*
X62316757Y-31603869D01*
X62251095Y-31401782D01*
X62154624Y-31212449D01*
X62115270Y-31158282D01*
X62115269Y-31158282D01*
X61482962Y-31790590D01*
X61465925Y-31727007D01*
X61400099Y-31612993D01*
X61307007Y-31519901D01*
X61192993Y-31454075D01*
X61129409Y-31437037D01*
X61761716Y-30804728D01*
X61707550Y-30765375D01*
X61608655Y-30714985D01*
X61557859Y-30667010D01*
X61541064Y-30599189D01*
X61563602Y-30533054D01*
X61618317Y-30489603D01*
X61664950Y-30480500D01*
X61874676Y-30480500D01*
X61874677Y-30480499D01*
X61947740Y-30465966D01*
X62030601Y-30410601D01*
X62085966Y-30327740D01*
X62100500Y-30254674D01*
X62100500Y-28505326D01*
X62100500Y-28505323D01*
X62100499Y-28505321D01*
X62085967Y-28432264D01*
X62085966Y-28432260D01*
X62030601Y-28349399D01*
X61947740Y-28294034D01*
X61947739Y-28294033D01*
X61947735Y-28294032D01*
X61874677Y-28279500D01*
X61874674Y-28279500D01*
X60125326Y-28279500D01*
X60125323Y-28279500D01*
X60052264Y-28294032D01*
X60052260Y-28294033D01*
X59969399Y-28349399D01*
X59914033Y-28432260D01*
X59914032Y-28432264D01*
X59899500Y-28505321D01*
X59899500Y-30254678D01*
X59914032Y-30327735D01*
X59914033Y-30327739D01*
X59915273Y-30329595D01*
X59969399Y-30410601D01*
X60052260Y-30465966D01*
X60052264Y-30465967D01*
X60125321Y-30480499D01*
X60125324Y-30480500D01*
X60335051Y-30480500D01*
X60402090Y-30500185D01*
X60447845Y-30552989D01*
X60457789Y-30622147D01*
X60428764Y-30685703D01*
X60391346Y-30714985D01*
X60292439Y-30765380D01*
X60238282Y-30804727D01*
X60238282Y-30804728D01*
X60870591Y-31437037D01*
X60807007Y-31454075D01*
X60692993Y-31519901D01*
X60599901Y-31612993D01*
X60534075Y-31727007D01*
X60517037Y-31790591D01*
X59884728Y-31158282D01*
X59884727Y-31158282D01*
X59845380Y-31212439D01*
X59748904Y-31401782D01*
X59683242Y-31603869D01*
X59683242Y-31603872D01*
X59650000Y-31813753D01*
X59050500Y-31813753D01*
X59050500Y-30828074D01*
X59050500Y-30828072D01*
X59023207Y-30726212D01*
X59023207Y-30726211D01*
X58970480Y-30634886D01*
X56515114Y-28179520D01*
X56469451Y-28153156D01*
X56423790Y-28126793D01*
X56372858Y-28113146D01*
X56321928Y-28099500D01*
X52657727Y-28099500D01*
X52552273Y-28099500D01*
X52450410Y-28126793D01*
X52359087Y-28179520D01*
X52359084Y-28179522D01*
X31163010Y-49375595D01*
X31101687Y-49409080D01*
X31031995Y-49404096D01*
X30976062Y-49362224D01*
X30951645Y-49296760D01*
X30957398Y-49249595D01*
X30958882Y-49245029D01*
X30958884Y-49245025D01*
X31019709Y-49057826D01*
X31031549Y-48983070D01*
X31050500Y-48863422D01*
X31050500Y-48666577D01*
X31019709Y-48472173D01*
X30958882Y-48284970D01*
X30869523Y-48109594D01*
X30863447Y-48101231D01*
X30753828Y-47950354D01*
X30614646Y-47811172D01*
X30512266Y-47736788D01*
X30455403Y-47695474D01*
X30278787Y-47605485D01*
X30227990Y-47557511D01*
X30211195Y-47489690D01*
X30233732Y-47423555D01*
X30278787Y-47384515D01*
X30455403Y-47294525D01*
X30455402Y-47294525D01*
X30455405Y-47294524D01*
X30614646Y-47178828D01*
X30753828Y-47039646D01*
X30869524Y-46880405D01*
X30958884Y-46705025D01*
X31019709Y-46517826D01*
X31031549Y-46443070D01*
X31050500Y-46323422D01*
X31050500Y-46126577D01*
X31019709Y-45932173D01*
X30958882Y-45744970D01*
X30869523Y-45569594D01*
X30863447Y-45561231D01*
X30753828Y-45410354D01*
X30614646Y-45271172D01*
X30512266Y-45196788D01*
X30455403Y-45155474D01*
X30278787Y-45065485D01*
X30227990Y-45017511D01*
X30211195Y-44949690D01*
X30233732Y-44883555D01*
X30278787Y-44844515D01*
X30455403Y-44754525D01*
X30455402Y-44754525D01*
X30455405Y-44754524D01*
X30614646Y-44638828D01*
X30753828Y-44499646D01*
X30869524Y-44340405D01*
X30958884Y-44165025D01*
X31019709Y-43977826D01*
X31031549Y-43903070D01*
X31050500Y-43783422D01*
X31050500Y-43586577D01*
X31019709Y-43392173D01*
X30958882Y-43204970D01*
X30869523Y-43029594D01*
X30863447Y-43021231D01*
X30753828Y-42870354D01*
X30614646Y-42731172D01*
X30512266Y-42656788D01*
X30455403Y-42615474D01*
X30278787Y-42525485D01*
X30227990Y-42477511D01*
X30211195Y-42409690D01*
X30233732Y-42343555D01*
X30278787Y-42304515D01*
X30455403Y-42214525D01*
X30455402Y-42214525D01*
X30455405Y-42214524D01*
X30614646Y-42098828D01*
X30753828Y-41959646D01*
X30869524Y-41800405D01*
X30958884Y-41625025D01*
X31019709Y-41437826D01*
X31031549Y-41363070D01*
X31050500Y-41243422D01*
X31050500Y-41046577D01*
X31019709Y-40852173D01*
X30958882Y-40664970D01*
X30869523Y-40489594D01*
X30863447Y-40481231D01*
X30753828Y-40330354D01*
X30614646Y-40191172D01*
X30512266Y-40116788D01*
X30455403Y-40075474D01*
X30278787Y-39985485D01*
X30227990Y-39937511D01*
X30211195Y-39869690D01*
X30233732Y-39803555D01*
X30278787Y-39764515D01*
X30455403Y-39674525D01*
X30455402Y-39674525D01*
X30455405Y-39674524D01*
X30614646Y-39558828D01*
X30753828Y-39419646D01*
X30869524Y-39260405D01*
X30958884Y-39085025D01*
X31019709Y-38897826D01*
X31031549Y-38823070D01*
X31050500Y-38703422D01*
X31050500Y-38506577D01*
X31019709Y-38312173D01*
X30958882Y-38124970D01*
X30869523Y-37949594D01*
X30863447Y-37941231D01*
X30753828Y-37790354D01*
X30614646Y-37651172D01*
X30476084Y-37550500D01*
X30455403Y-37535474D01*
X30278787Y-37445485D01*
X30227990Y-37397511D01*
X30211195Y-37329690D01*
X30233732Y-37263555D01*
X30278787Y-37224515D01*
X30455403Y-37134525D01*
X30455402Y-37134525D01*
X30455405Y-37134524D01*
X30614646Y-37018828D01*
X30753828Y-36879646D01*
X30869524Y-36720405D01*
X30958884Y-36545025D01*
X31019709Y-36357826D01*
X31031549Y-36283070D01*
X31050500Y-36163422D01*
X31050500Y-35966577D01*
X31019709Y-35772173D01*
X30958882Y-35584970D01*
X30869523Y-35409594D01*
X30863447Y-35401231D01*
X30753828Y-35250354D01*
X30614646Y-35111172D01*
X30609393Y-35107356D01*
X30521272Y-35043330D01*
X30478606Y-34988000D01*
X30472628Y-34918387D01*
X30505235Y-34856592D01*
X30537865Y-34832527D01*
X30586164Y-34807918D01*
X30586169Y-34807914D01*
X30669104Y-34747658D01*
X30669105Y-34747658D01*
X29937574Y-34016128D01*
X29996853Y-34000245D01*
X30113147Y-33933102D01*
X30208102Y-33838147D01*
X30275245Y-33721853D01*
X30291128Y-33662574D01*
X31022658Y-34394105D01*
X31022658Y-34394104D01*
X31082914Y-34311169D01*
X31082918Y-34311163D01*
X31190102Y-34100802D01*
X31263065Y-33876247D01*
X31300000Y-33643052D01*
X31300000Y-33406947D01*
X31263065Y-33173752D01*
X31190102Y-32949197D01*
X31082914Y-32738828D01*
X31022658Y-32655894D01*
X31022658Y-32655893D01*
X30291128Y-33387424D01*
X30275245Y-33328147D01*
X30208102Y-33211853D01*
X30113147Y-33116898D01*
X29996853Y-33049755D01*
X29937575Y-33033871D01*
X30699627Y-32271819D01*
X30760950Y-32238334D01*
X30787308Y-32235500D01*
X30824676Y-32235500D01*
X30824677Y-32235499D01*
X30897740Y-32220966D01*
X30980601Y-32165601D01*
X31035966Y-32082740D01*
X31050500Y-32009674D01*
X31050500Y-29960326D01*
X31050500Y-29960323D01*
X31050499Y-29960321D01*
X31035967Y-29887264D01*
X31035966Y-29887260D01*
X30995112Y-29826117D01*
X30980601Y-29804399D01*
X30897740Y-29749034D01*
X30897739Y-29749033D01*
X30897735Y-29749032D01*
X30824677Y-29734500D01*
X30824674Y-29734500D01*
X28775326Y-29734500D01*
X28775323Y-29734500D01*
X28702264Y-29749032D01*
X28702260Y-29749033D01*
X28619399Y-29804399D01*
X28564033Y-29887260D01*
X28564032Y-29887264D01*
X28549500Y-29960321D01*
X28549500Y-32009678D01*
X28564032Y-32082735D01*
X28564033Y-32082739D01*
X28564034Y-32082740D01*
X28619399Y-32165601D01*
X28697028Y-32217470D01*
X28702260Y-32220966D01*
X28702264Y-32220967D01*
X28775321Y-32235499D01*
X28775324Y-32235500D01*
X28812692Y-32235500D01*
X28879731Y-32255185D01*
X28900373Y-32271819D01*
X29662425Y-33033871D01*
X29603147Y-33049755D01*
X29486853Y-33116898D01*
X29391898Y-33211853D01*
X29324755Y-33328147D01*
X29308871Y-33387425D01*
X28577340Y-32655894D01*
X28517084Y-32738830D01*
X28409897Y-32949197D01*
X28336934Y-33173752D01*
X28300000Y-33406947D01*
X21000000Y-33406947D01*
X21000000Y-27004427D01*
X21000316Y-26995581D01*
X21019724Y-26724214D01*
X21022240Y-26706710D01*
X21079130Y-26445192D01*
X21084107Y-26428241D01*
X21177640Y-26177470D01*
X21184985Y-26161388D01*
X21313248Y-25926491D01*
X21322798Y-25911630D01*
X21483195Y-25697366D01*
X21494767Y-25684012D01*
X21684012Y-25494767D01*
X21697366Y-25483195D01*
X21911630Y-25322798D01*
X21926491Y-25313248D01*
X22161388Y-25184985D01*
X22177470Y-25177640D01*
X22397637Y-25095521D01*
X22467328Y-25090538D01*
X22528651Y-25124023D01*
X22539346Y-25136218D01*
X22605733Y-25222736D01*
X22605739Y-25222743D01*
X22777256Y-25394260D01*
X22777263Y-25394266D01*
X22890321Y-25481018D01*
X22969711Y-25541936D01*
X23179788Y-25663224D01*
X23403900Y-25756054D01*
X23638211Y-25818838D01*
X23818586Y-25842584D01*
X23878711Y-25850500D01*
X23878712Y-25850500D01*
X24121289Y-25850500D01*
X24169388Y-25844167D01*
X24361789Y-25818838D01*
X24596100Y-25756054D01*
X24820212Y-25663224D01*
X25030289Y-25541936D01*
X25222738Y-25394265D01*
X25394265Y-25222738D01*
X25491882Y-25095521D01*
X25527952Y-25048514D01*
X25584380Y-25007311D01*
X25626328Y-25000000D01*
X59373672Y-25000000D01*
X59440711Y-25019685D01*
G37*
%TD.AperFunction*%
%TD*%
M02*
