M48
; DRILL file KiCad 10.0.1 date 2026-05-04T00:26:20
; FORMAT={-:-/ absolute / metric / decimal}
; #@! TF.CreationDate,2026-05-04T00:26:20+09:00
; #@! TF.GenerationSoftware,Kicad,Pcbnew,10.0.1
; #@! TF.FileFunction,Plated,1,2,PTH
FMAT,2
METRIC
; #@! TA.AperFunction,Plated,PTH,ViaDrill
T1C0.300
; #@! TA.AperFunction,Plated,PTH,ComponentDrill
T2C0.950
; #@! TA.AperFunction,Plated,PTH,ComponentDrill
T3C1.000
; #@! TA.AperFunction,Plated,PTH,ComponentDrill
T4C1.020
; #@! TA.AperFunction,Plated,PTH,ComponentDrill
T5C1.067
%
G90
G05
T1
X58.0Y-36.0
X58.65Y-37.0
T2
X60.475Y-56.0
X60.475Y-58.5
X60.475Y-61.0
T3
X61.0Y-29.38
X61.0Y-31.92
X61.0Y-34.46
X61.0Y-37.0
X61.0Y-39.54
X61.0Y-42.08
X61.0Y-44.62
X61.0Y-47.16
X61.0Y-49.7
T4
X29.8Y-30.985
X29.8Y-33.525
X29.8Y-36.065
X29.8Y-38.605
X29.8Y-41.145
X29.8Y-43.685
X29.8Y-46.225
X29.8Y-48.765
X29.8Y-51.305
X29.8Y-53.845
X29.8Y-56.385
X29.8Y-58.925
X29.8Y-61.465
X29.8Y-64.005
X29.8Y-66.545
X55.2Y-30.985
X55.2Y-33.525
X55.2Y-36.065
X55.2Y-38.605
X55.2Y-41.145
X55.2Y-43.685
X55.2Y-46.225
X55.2Y-48.765
X55.2Y-51.305
X55.2Y-53.845
X55.2Y-56.385
X55.2Y-58.925
X55.2Y-61.465
X55.2Y-64.005
X55.2Y-66.545
T5
X38.13Y-76.0
X40.67Y-76.0
X43.21Y-76.0
X45.75Y-76.0
M30
