%TF.GenerationSoftware,KiCad,Pcbnew,10.0.1*%
%TF.CreationDate,2026-05-04T00:29:17+09:00*%
%TF.ProjectId,E-ink smart display board,452d696e-6b20-4736-9d61-727420646973,rev?*%
%TF.SameCoordinates,Original*%
%TF.FileFunction,Soldermask,Bot*%
%TF.FilePolarity,Negative*%
%FSLAX46Y46*%
G04 Gerber Fmt 4.6, Leading zero omitted, Abs format (unit mm)*
G04 Created by KiCad (PCBNEW 10.0.1) date 2026-05-04 00:29:17*
%MOMM*%
%LPD*%
G01*
G04 APERTURE LIST*
G04 Aperture macros list*
%AMRoundRect*
0 Rectangle with rounded corners*
0 $1 Rounding radius*
0 $2 $3 $4 $5 $6 $7 $8 $9 X,Y pos of 4 corners*
0 Add a 4 corners polygon primitive as box body*
4,1,4,$2,$3,$4,$5,$6,$7,$8,$9,$2,$3,0*
0 Add four circle primitives for the rounded corners*
1,1,$1+$1,$2,$3*
1,1,$1+$1,$4,$5*
1,1,$1+$1,$6,$7*
1,1,$1+$1,$8,$9*
0 Add four rect primitives between the rounded corners*
20,1,$1+$1,$2,$3,$4,$5,0*
20,1,$1+$1,$4,$5,$6,$7,0*
20,1,$1+$1,$6,$7,$8,$9,0*
20,1,$1+$1,$8,$9,$2,$3,0*%
G04 Aperture macros list end*
%ADD10C,1.700000*%
%ADD11R,1.700000X1.700000*%
%ADD12C,3.200000*%
%ADD13C,1.804200*%
%ADD14RoundRect,0.102000X-0.800100X-0.800100X0.800100X-0.800100X0.800100X0.800100X-0.800100X0.800100X0*%
%ADD15RoundRect,0.102000X-1.000000X-1.000000X1.000000X-1.000000X1.000000X1.000000X-1.000000X1.000000X0*%
%ADD16C,2.204000*%
%ADD17RoundRect,0.250000X0.725000X-0.600000X0.725000X0.600000X-0.725000X0.600000X-0.725000X-0.600000X0*%
%ADD18O,1.950000X1.700000*%
G04 APERTURE END LIST*
D10*
%TO.C,J1*%
X61000000Y-49700000D03*
X61000000Y-47160000D03*
X61000000Y-44620000D03*
X61000000Y-42080000D03*
X61000000Y-39540000D03*
X61000000Y-37000000D03*
X61000000Y-34460000D03*
X61000000Y-31920000D03*
D11*
X61000000Y-29380000D03*
%TD*%
D12*
%TO.C,H3*%
X61000000Y-76000000D03*
%TD*%
%TO.C,H4*%
X24000000Y-76000000D03*
%TD*%
%TO.C,H2*%
X61000000Y-24000000D03*
%TD*%
%TO.C,H1*%
X24000000Y-24000000D03*
%TD*%
D13*
%TO.C,U2*%
X40670000Y-76000000D03*
X38130000Y-76000000D03*
X43210000Y-76000000D03*
D14*
X45750000Y-76000000D03*
%TD*%
D15*
%TO.C,U1*%
X29800000Y-30985000D03*
D16*
X29800000Y-33525000D03*
X29800000Y-36065000D03*
X29800000Y-38605000D03*
X29800000Y-41145000D03*
X29800000Y-43685000D03*
X29800000Y-46225000D03*
X29800000Y-48765000D03*
X29800000Y-51305000D03*
X29800000Y-53845000D03*
X29800000Y-56385000D03*
X29800000Y-58925000D03*
X29800000Y-61465000D03*
X29800000Y-64005000D03*
X29800000Y-66545000D03*
X55200000Y-66545000D03*
X55200000Y-64005000D03*
X55200000Y-61465000D03*
X55200000Y-58925000D03*
X55200000Y-56385000D03*
X55200000Y-53845000D03*
X55200000Y-51305000D03*
X55200000Y-48765000D03*
X55200000Y-46225000D03*
X55200000Y-43685000D03*
X55200000Y-41145000D03*
X55200000Y-38605000D03*
X55200000Y-36065000D03*
X55200000Y-33525000D03*
X55200000Y-30985000D03*
%TD*%
D17*
%TO.C,J2*%
X60475000Y-61000000D03*
D18*
X60475000Y-58500000D03*
X60475000Y-56000000D03*
%TD*%
M02*
