ISO-10303-21;
HEADER;
FILE_DESCRIPTION (( 'STEP AP214' ),
    '1' );
FILE_NAME ('Copy of Part4^Assem5_Assem3.STEP',
    '2026-05-04T16:10:19',
    ( '' ),
    ( '' ),
    'SwSTEP 2.0',
    'SolidWorks 2022',
    '' );
FILE_SCHEMA (( 'AUTOMOTIVE_DESIGN' ));
ENDSEC;

DATA;
#1 = VERTEX_POINT ( 'NONE', #635 ) ;
#2 = EDGE_LOOP ( 'NONE', ( #478, #371 ) ) ;
#3 = CARTESIAN_POINT ( 'NONE',  ( -30.99999999999976197, 1.500000000000000000, 17.10000000000017550 ) ) ;
#4 = ORIENTED_EDGE ( 'NONE', *, *, #616, .F. ) ;
#5 = CYLINDRICAL_SURFACE ( 'NONE', #271, 9.999999999999998224 ) ;
#6 = ORIENTED_EDGE ( 'NONE', *, *, #572, .F. ) ;
#7 = EDGE_LOOP ( 'NONE', ( #53, #130 ) ) ;
#8 = DIRECTION ( 'NONE',  ( 0.000000000000000000, 1.000000000000000000, -0.000000000000000000 ) ) ;
#9 = CARTESIAN_POINT ( 'NONE',  ( -39.99999999999992895, -1.500000000000000000, -37.50000000000000000 ) ) ;
#10 = VECTOR ( 'NONE', #460, 1000.000000000000000 ) ;
#11 = AXIS2_PLACEMENT_3D ( 'NONE', #312, #400, #136 ) ;
#12 = EDGE_LOOP ( 'NONE', ( #283, #334 ) ) ;
#13 = VERTEX_POINT ( 'NONE', #140 ) ;
#14 = LINE ( 'NONE', #259, #10 ) ;
#15 = VERTEX_POINT ( 'NONE', #297 ) ;
#16 = CARTESIAN_POINT ( 'NONE',  ( -30.99999999999976197, 3.500000000000000000, 18.50000000000017408 ) ) ;
#17 = VECTOR ( 'NONE', #76, 1000.000000000000000 ) ;
#18 = AXIS2_PLACEMENT_3D ( 'NONE', #629, #193, #397 ) ;
#19 = ORIENTED_EDGE ( 'NONE', *, *, #416, .F. ) ;
#20 = ORIENTED_EDGE ( 'NONE', *, *, #211, .F. ) ;
#21 = LINE ( 'NONE', #606, #465 ) ;
#22 = EDGE_LOOP ( 'NONE', ( #333, #425, #280, #419 ) ) ;
#23 = DIRECTION ( 'NONE',  ( 0.000000000000000000, 0.000000000000000000, -1.000000000000000000 ) ) ;
#24 = VECTOR ( 'NONE', #162, 1000.000000000000000 ) ;
#25 = ORIENTED_EDGE ( 'NONE', *, *, #442, .F. ) ;
#26 = AXIS2_PLACEMENT_3D ( 'NONE', #276, #617, #390 ) ;
#27 = FACE_OUTER_BOUND ( 'NONE', #339, .T. ) ;
#28 = CYLINDRICAL_SURFACE ( 'NONE', #591, 1.399999999999998579 ) ;
#29 = FACE_OUTER_BOUND ( 'NONE', #146, .T. ) ;
#30 = DIRECTION ( 'NONE',  ( 0.000000000000000000, -1.000000000000000000, 0.000000000000000000 ) ) ;
#31 = CARTESIAN_POINT ( 'NONE',  ( -30.99999999999976197, 3.500000000000000000, -18.50000000000017408 ) ) ;
#32 = CARTESIAN_POINT ( 'NONE',  ( -39.99999999999992895, 1.500000000000000000, 37.49999999999999289 ) ) ;
#33 = AXIS2_PLACEMENT_3D ( 'NONE', #67, #207, #317 ) ;
#34 = FACE_OUTER_BOUND ( 'NONE', #349, .T. ) ;
#35 = CARTESIAN_POINT ( 'NONE',  ( 39.99999999999992895, -1.500000000000000000, -37.50000000000000000 ) ) ;
#36 = LINE ( 'NONE', #40, #543 ) ;
#37 = CARTESIAN_POINT ( 'NONE',  ( 21.00000000000024869, -1.500000000000000000, 17.09999999999944720 ) ) ;
#38 = APPLICATION_CONTEXT ( 'automotive_design' ) ;
#39 = ADVANCED_FACE ( 'NONE', ( #482 ), #536, .F. ) ;
#40 = CARTESIAN_POINT ( 'NONE',  ( -50.00000000000000000, 1.500000000000000000, -27.49999999999993250 ) ) ;
#41 = EDGE_CURVE ( 'NONE', #518, #110, #552, .T. ) ;
#42 = PLANE ( 'NONE',  #179 ) ;
#43 = CARTESIAN_POINT ( 'NONE',  ( 21.00000000000024869, 3.500000000000000000, 18.49999999999944578 ) ) ;
#44 = CARTESIAN_POINT ( 'NONE',  ( 21.00000000000024869, 3.500000000000000000, 18.49999999999944578 ) ) ;
#45 = ORIENTED_EDGE ( 'NONE', *, *, #216, .F. ) ;
#46 = LINE ( 'NONE', #147, #375 ) ;
#47 = VECTOR ( 'NONE', #112, 1000.000000000000000 ) ;
#48 = ORIENTED_EDGE ( 'NONE', *, *, #475, .F. ) ;
#49 = ORIENTED_EDGE ( 'NONE', *, *, #224, .F. ) ;
#50 = FACE_BOUND ( 'NONE', #455, .T. ) ;
#51 = CARTESIAN_POINT ( 'NONE',  ( 50.00000000000000000, 1.500000000000000000, -27.49999999999992895 ) ) ;
#52 = FACE_BOUND ( 'NONE', #426, .T. ) ;
#53 = ORIENTED_EDGE ( 'NONE', *, *, #549, .T. ) ;
#54 = EDGE_CURVE ( 'NONE', #411, #559, #97, .T. ) ;
#55 = ORIENTED_EDGE ( 'NONE', *, *, #102, .T. ) ;
#56 = DIRECTION ( 'NONE',  ( 0.000000000000000000, -1.000000000000000000, 0.000000000000000000 ) ) ;
#57 = EDGE_CURVE ( 'NONE', #75, #242, #84, .T. ) ;
#58 = ADVANCED_FACE ( 'NONE', ( #489 ), #443, .F. ) ;
#59 = CARTESIAN_POINT ( 'NONE',  ( 21.00000000000024869, 3.500000000000000000, 17.09999999999944720 ) ) ;
#60 = CARTESIAN_POINT ( 'NONE',  ( -39.99999999999992895, -1.500000000000000000, 37.49999999999999289 ) ) ;
#61 = EDGE_CURVE ( 'NONE', #15, #470, #576, .T. ) ;
#62 = ORIENTED_EDGE ( 'NONE', *, *, #632, .T. ) ;
#63 = ADVANCED_FACE ( 'NONE', ( #249 ), #407, .T. ) ;
#64 = ORIENTED_EDGE ( 'NONE', *, *, #306, .F. ) ;
#65 = VECTOR ( 'NONE', #517, 1000.000000000000000 ) ;
#66 = CIRCLE ( 'NONE', #220, 1.399999999999998579 ) ;
#67 = CARTESIAN_POINT ( 'NONE',  ( -30.99999999999976197, 1.500000000000000000, -18.50000000000017408 ) ) ;
#68 = EDGE_LOOP ( 'NONE', ( #45, #49, #533, #201 ) ) ;
#69 = DIRECTION ( 'NONE',  ( 0.000000000000000000, 0.000000000000000000, -1.000000000000000000 ) ) ;
#70 =( LENGTH_UNIT ( ) NAMED_UNIT ( * ) SI_UNIT ( .MILLI., .METRE. ) );
#71 = DIRECTION ( 'NONE',  ( -0.000000000000000000, -1.000000000000000000, -0.000000000000000000 ) ) ;
#72 = EDGE_LOOP ( 'NONE', ( #355, #417, #395, #62 ) ) ;
#73 = CARTESIAN_POINT ( 'NONE',  ( -40.00000000000000000, 1.500000000000000000, 27.49999999999999289 ) ) ;
#74 = DIRECTION ( 'NONE',  ( 8.673617379884050263E-17, 0.000000000000000000, -1.000000000000000000 ) ) ;
#75 = VERTEX_POINT ( 'NONE', #93 ) ;
#76 = DIRECTION ( 'NONE',  ( -0.000000000000000000, -1.000000000000000000, -0.000000000000000000 ) ) ;
#77 = ORIENTED_EDGE ( 'NONE', *, *, #241, .F. ) ;
#78 = CIRCLE ( 'NONE', #522, 1.399999999999998579 ) ;
#79 = ORIENTED_EDGE ( 'NONE', *, *, #628, .F. ) ;
#80 = PRODUCT_RELATED_PRODUCT_CATEGORY ( 'part', '', ( #183 ) ) ;
#81 = DIRECTION ( 'NONE',  ( 0.000000000000000000, 0.000000000000000000, -1.000000000000000000 ) ) ;
#82 = CARTESIAN_POINT ( 'NONE',  ( 21.00000000000024869, 1.500000000000000000, 18.49999999999944578 ) ) ;
#83 =( NAMED_UNIT ( * ) SI_UNIT ( $, .STERADIAN. ) SOLID_ANGLE_UNIT ( ) );
#84 = LINE ( 'NONE', #360, #284 ) ;
#85 = FACE_BOUND ( 'NONE', #12, .T. ) ;
#86 = PRODUCT_DEFINITION_CONTEXT ( 'detailed design', #182, 'design' ) ;
#87 = DIRECTION ( 'NONE',  ( 0.000000000000000000, 0.000000000000000000, -1.000000000000000000 ) ) ;
#88 = DIRECTION ( 'NONE',  ( 1.000000000000000000, 0.000000000000000000, 8.673617379884050263E-17 ) ) ;
#89 = AXIS2_PLACEMENT_3D ( 'NONE', #191, #137, #319 ) ;
#90 = DIRECTION ( 'NONE',  ( 0.000000000000000000, 0.000000000000000000, -1.000000000000000000 ) ) ;
#91 = EDGE_LOOP ( 'NONE', ( #547, #540, #265, #197 ) ) ;
#92 = VERTEX_POINT ( 'NONE', #498 ) ;
#93 = CARTESIAN_POINT ( 'NONE',  ( 21.00000000000024869, 1.500000000000000000, -19.89999999999944436 ) ) ;
#94 = DIRECTION ( 'NONE',  ( 0.000000000000000000, 0.000000000000000000, -1.000000000000000000 ) ) ;
#95 = DIRECTION ( 'NONE',  ( -0.000000000000000000, -1.000000000000000000, -0.000000000000000000 ) ) ;
#96 = ADVANCED_FACE ( 'NONE', ( #263 ), #573, .F. ) ;
#97 = LINE ( 'NONE', #303, #499 ) ;
#98 = EDGE_CURVE ( 'NONE', #470, #589, #385, .T. ) ;
#99 = DIRECTION ( 'NONE',  ( -0.000000000000000000, -1.000000000000000000, 0.000000000000000000 ) ) ;
#100 = ORIENTED_EDGE ( 'NONE', *, *, #572, .T. ) ;
#101 = LINE ( 'NONE', #51, #350 ) ;
#102 = EDGE_CURVE ( 'NONE', #92, #461, #36, .T. ) ;
#103 = VECTOR ( 'NONE', #555, 1000.000000000000000 ) ;
#104 = SURFACE_STYLE_USAGE ( .BOTH. , #542 ) ;
#105 = EDGE_CURVE ( 'NONE', #451, #598, #172, .T. ) ;
#106 = VECTOR ( 'NONE', #396, 1000.000000000000000 ) ;
#107 = CARTESIAN_POINT ( 'NONE',  ( 39.99999999999992895, -1.500000000000000000, 37.50000000000000000 ) ) ;
#108 = ORIENTED_EDGE ( 'NONE', *, *, #98, .F. ) ;
#109 = EDGE_CURVE ( 'NONE', #424, #75, #562, .T. ) ;
#110 = VERTEX_POINT ( 'NONE', #327 ) ;
#111 = AXIS2_PLACEMENT_3D ( 'NONE', #610, #74, #278 ) ;
#112 = DIRECTION ( 'NONE',  ( -0.000000000000000000, -1.000000000000000000, -0.000000000000000000 ) ) ;
#113 = CIRCLE ( 'NONE', #209, 1.399999999999998579 ) ;
#114 = ORIENTED_EDGE ( 'NONE', *, *, #260, .T. ) ;
#115 = DIRECTION ( 'NONE',  ( 0.000000000000000000, 1.000000000000000000, -0.000000000000000000 ) ) ;
#116 = CARTESIAN_POINT ( 'NONE',  ( -30.99999999999976197, -1.500000000000000000, -17.10000000000017550 ) ) ;
#117 = LINE ( 'NONE', #338, #621 ) ;
#118 = EDGE_CURVE ( 'NONE', #384, #1, #561, .T. ) ;
#119 = ORIENTED_EDGE ( 'NONE', *, *, #224, .T. ) ;
#120 = EDGE_CURVE ( 'NONE', #110, #518, #321, .T. ) ;
#121 = CYLINDRICAL_SURFACE ( 'NONE', #359, 9.999999999999998224 ) ;
#122 = DIRECTION ( 'NONE',  ( 0.000000000000000000, 0.000000000000000000, -1.000000000000000000 ) ) ;
#123 = MECHANICAL_DESIGN_GEOMETRIC_PRESENTATION_REPRESENTATION (  '', ( #492 ), #599 ) ;
#124 = AXIS2_PLACEMENT_3D ( 'NONE', #558, #546, #495 ) ;
#125 = ORIENTED_EDGE ( 'NONE', *, *, #163, .F. ) ;
#126 = DIRECTION ( 'NONE',  ( -0.000000000000000000, -1.000000000000000000, 0.000000000000000000 ) ) ;
#127 = FACE_OUTER_BOUND ( 'NONE', #68, .T. ) ;
#128 = ORIENTED_EDGE ( 'NONE', *, *, #504, .F. ) ;
#129 = CARTESIAN_POINT ( 'NONE',  ( -40.00000000000000000, 1.500000000000000000, 37.49999999999999289 ) ) ;
#130 = ORIENTED_EDGE ( 'NONE', *, *, #109, .T. ) ;
#131 = CIRCLE ( 'NONE', #393, 1.399999999999998579 ) ;
#132 = DIRECTION ( 'NONE',  ( -0.000000000000000000, -1.000000000000000000, -0.000000000000000000 ) ) ;
#133 = FACE_OUTER_BOUND ( 'NONE', #556, .T. ) ;
#134 = EDGE_CURVE ( 'NONE', #167, #514, #268, .T. ) ;
#135 = DIRECTION ( 'NONE',  ( 0.000000000000000000, 0.000000000000000000, 1.000000000000000000 ) ) ;
#136 = DIRECTION ( 'NONE',  ( 0.000000000000000000, 0.000000000000000000, -1.000000000000000000 ) ) ;
#137 = DIRECTION ( 'NONE',  ( -0.000000000000000000, -1.000000000000000000, -0.000000000000000000 ) ) ;
#138 = DIRECTION ( 'NONE',  ( -0.000000000000000000, -1.000000000000000000, -0.000000000000000000 ) ) ;
#139 = UNCERTAINTY_MEASURE_WITH_UNIT (LENGTH_MEASURE( 1.000000000000000082E-05 ), #372, 'distance_accuracy_value', 'NONE');
#140 = CARTESIAN_POINT ( 'NONE',  ( -30.99999999999976197, 1.500000000000000000, 19.90000000000017266 ) ) ;
#141 = CARTESIAN_POINT ( 'NONE',  ( -30.99999999999976197, 1.500000000000000000, -17.10000000000017550 ) ) ;
#142 = AXIS2_PLACEMENT_3D ( 'NONE', #16, #219, #422 ) ;
#143 = AXIS2_PLACEMENT_3D ( 'NONE', #82, #383, #477 ) ;
#144 = DIRECTION ( 'NONE',  ( 0.000000000000000000, 0.000000000000000000, -1.000000000000000000 ) ) ;
#145 = MANIFOLD_SOLID_BREP ( '∂Øƒ - âüÇµèoÇµ1', #228 ) ;
#146 = EDGE_LOOP ( 'NONE', ( #79, #585, #344, #605, #48, #6, #25, #413 ) ) ;
#147 = CARTESIAN_POINT ( 'NONE',  ( -39.99999999999992895, -1.500000000000000000, -37.50000000000000000 ) ) ;
#148 = ORIENTED_EDGE ( 'NONE', *, *, #306, .T. ) ;
#149 = ORIENTED_EDGE ( 'NONE', *, *, #607, .F. ) ;
#150 = EDGE_CURVE ( 'NONE', #507, #592, #217, .T. ) ;
#151 = DIRECTION ( 'NONE',  ( 0.000000000000000000, 0.000000000000000000, -1.000000000000000000 ) ) ;
#152 = APPLICATION_PROTOCOL_DEFINITION ( 'draft international standard', 'automotive_design', 1998, #38 ) ;
#153 = CARTESIAN_POINT ( 'NONE',  ( -40.00000000000000000, 1.500000000000000000, 27.49999999999999289 ) ) ;
#154 = VERTEX_POINT ( 'NONE', #373 ) ;
#155 = SURFACE_STYLE_FILL_AREA ( #332 ) ;
#156 = AXIS2_PLACEMENT_3D ( 'NONE', #481, #586, #370 ) ;
#157 = CIRCLE ( 'NONE', #580, 9.999999999999998224 ) ;
#158 = STYLED_ITEM ( 'NONE', ( #311 ), #624 ) ;
#159 = ORIENTED_EDGE ( 'NONE', *, *, #275, .F. ) ;
#160 = ADVANCED_FACE ( 'NONE', ( #165 ), #378, .F. ) ;
#161 = ORIENTED_EDGE ( 'NONE', *, *, #260, .F. ) ;
#162 = DIRECTION ( 'NONE',  ( -0.000000000000000000, -1.000000000000000000, -0.000000000000000000 ) ) ;
#163 = EDGE_CURVE ( 'NONE', #589, #154, #602, .T. ) ;
#164 = VECTOR ( 'NONE', #557, 1000.000000000000000 ) ;
#165 = FACE_OUTER_BOUND ( 'NONE', #174, .T. ) ;
#166 = AXIS2_PLACEMENT_3D ( 'NONE', #348, #436, #524 ) ;
#167 = VERTEX_POINT ( 'NONE', #116 ) ;
#168 = ADVANCED_FACE ( 'NONE', ( #288 ), #28, .F. ) ;
#169 = CARTESIAN_POINT ( 'NONE',  ( 50.00000000000000000, 1.500000000000000000, 27.49999999999993250 ) ) ;
#170 = DIRECTION ( 'NONE',  ( -1.000000000000000000, -0.000000000000000000, -0.000000000000000000 ) ) ;
#171 = ORIENTED_EDGE ( 'NONE', *, *, #380, .F. ) ;
#172 = LINE ( 'NONE', #60, #429 ) ;
#173 = VERTEX_POINT ( 'NONE', #35 ) ;
#174 = EDGE_LOOP ( 'NONE', ( #184, #225, #445, #20 ) ) ;
#175 = UNCERTAINTY_MEASURE_WITH_UNIT (LENGTH_MEASURE( 1.000000000000000082E-05 ), #70, 'distance_accuracy_value', 'NONE');
#176 = DIRECTION ( 'NONE',  ( -0.000000000000000000, -1.000000000000000000, -0.000000000000000000 ) ) ;
#177 = AXIS2_PLACEMENT_3D ( 'NONE', #153, #630, #291 ) ;
#178 = CARTESIAN_POINT ( 'NONE',  ( -30.99999999999976197, 1.500000000000000000, -18.50000000000017408 ) ) ;
#179 = AXIS2_PLACEMENT_3D ( 'NONE', #199, #480, #623 ) ;
#180 = ORIENTED_EDGE ( 'NONE', *, *, #41, .F. ) ;
#181 = CARTESIAN_POINT ( 'NONE',  ( 21.00000000000024869, -1.500000000000000000, 18.49999999999944578 ) ) ;
#182 = APPLICATION_CONTEXT ( 'automotive_design' ) ;
#183 = PRODUCT ( 'Copy of Part4^Assem5_Assem3', 'Copy of Part4^Assem5_Assem3', '', ( #485 ) ) ;
#184 = ORIENTED_EDGE ( 'NONE', *, *, #457, .F. ) ;
#185 = CARTESIAN_POINT ( 'NONE',  ( 50.00000000000000000, 1.500000000000000000, -27.49999999999992895 ) ) ;
#186 = LINE ( 'NONE', #570, #500 ) ;
#187 = EDGE_CURVE ( 'NONE', #598, #154, #474, .T. ) ;
#188 = AXIS2_PLACEMENT_3D ( 'NONE', #365, #534, #525 ) ;
#189 = AXIS2_PLACEMENT_3D ( 'NONE', #246, #394, #491 ) ;
#190 = LINE ( 'NONE', #571, #637 ) ;
#191 = CARTESIAN_POINT ( 'NONE',  ( 21.00000000000024869, 3.500000000000000000, -18.49999999999944578 ) ) ;
#192 = CYLINDRICAL_SURFACE ( 'NONE', #622, 1.399999999999998579 ) ;
#193 = DIRECTION ( 'NONE',  ( 0.000000000000000000, 0.000000000000000000, 1.000000000000000000 ) ) ;
#194 = CARTESIAN_POINT ( 'NONE',  ( 50.00000000000000000, 1.500000000000000000, -27.49999999999992895 ) ) ;
#195 = EDGE_CURVE ( 'NONE', #248, #514, #14, .T. ) ;
#196 = CARTESIAN_POINT ( 'NONE',  ( 39.99999999999992895, 1.500000000000000000, 37.50000000000000000 ) ) ;
#197 = ORIENTED_EDGE ( 'NONE', *, *, #57, .F. ) ;
#198 = AXIS2_PLACEMENT_3D ( 'NONE', #331, #56, #281 ) ;
#199 = CARTESIAN_POINT ( 'NONE',  ( 40.00000000000000711, -1.500000000000000000, -27.50000000000000000 ) ) ;
#200 = ORIENTED_EDGE ( 'NONE', *, *, #307, .F. ) ;
#201 = ORIENTED_EDGE ( 'NONE', *, *, #404, .T. ) ;
#202 = CARTESIAN_POINT ( 'NONE',  ( 21.00000000000024869, 3.500000000000000000, -18.49999999999944578 ) ) ;
#203 = VERTEX_POINT ( 'NONE', #347 ) ;
#204 = EDGE_LOOP ( 'NONE', ( #604, #389, #620, #402 ) ) ;
#205 = DIRECTION ( 'NONE',  ( -0.000000000000000000, -1.000000000000000000, -0.000000000000000000 ) ) ;
#206 = CARTESIAN_POINT ( 'NONE',  ( 50.00000000000000000, -1.500000000000000000, -27.49999999999992895 ) ) ;
#207 = DIRECTION ( 'NONE',  ( -0.000000000000000000, -1.000000000000000000, 0.000000000000000000 ) ) ;
#208 = DIRECTION ( 'NONE',  ( -0.000000000000000000, -1.000000000000000000, -0.000000000000000000 ) ) ;
#209 = AXIS2_PLACEMENT_3D ( 'NONE', #577, #251, #236 ) ;
#210 = ORIENTED_EDGE ( 'NONE', *, *, #241, .T. ) ;
#211 = EDGE_CURVE ( 'NONE', #266, #518, #117, .T. ) ;
#212 = EDGE_LOOP ( 'NONE', ( #100, #253, #320, #55 ) ) ;
#213 = ORIENTED_EDGE ( 'NONE', *, *, #404, .F. ) ;
#214 = LINE ( 'NONE', #468, #103 ) ;
#215 = ORIENTED_EDGE ( 'NONE', *, *, #61, .F. ) ;
#216 = EDGE_CURVE ( 'NONE', #239, #507, #609, .T. ) ;
#217 = CIRCLE ( 'NONE', #198, 1.399999999999998579 ) ;
#218 = AXIS2_PLACEMENT_3D ( 'NONE', #223, #388, #564 ) ;
#219 = DIRECTION ( 'NONE',  ( -0.000000000000000000, -1.000000000000000000, -0.000000000000000000 ) ) ;
#220 = AXIS2_PLACEMENT_3D ( 'NONE', #483, #476, #81 ) ;
#221 = CIRCLE ( 'NONE', #594, 9.999999999999998224 ) ;
#222 = ORIENTED_EDGE ( 'NONE', *, *, #345, .T. ) ;
#223 = CARTESIAN_POINT ( 'NONE',  ( -30.99999999999976197, -1.500000000000000000, 18.50000000000017408 ) ) ;
#224 = EDGE_CURVE ( 'NONE', #274, #239, #530, .T. ) ;
#225 = ORIENTED_EDGE ( 'NONE', *, *, #289, .T. ) ;
#226 = ORIENTED_EDGE ( 'NONE', *, *, #134, .T. ) ;
#227 =( NAMED_UNIT ( * ) PLANE_ANGLE_UNIT ( ) SI_UNIT ( $, .RADIAN. ) );
#228 = CLOSED_SHELL ( 'NONE', ( #168, #58, #497, #160, #374, #423, #539, #364, #63, #287, #579, #96, #618, #568, #548, #39, #279, #328 ) ) ;
#229 = AXIS2_PLACEMENT_3D ( 'NONE', #73, #336, #512 ) ;
#230 = AXIS2_PLACEMENT_3D ( 'NONE', #273, #452, #412 ) ;
#231 = ORIENTED_EDGE ( 'NONE', *, *, #616, .T. ) ;
#232 = CARTESIAN_POINT ( 'NONE',  ( -50.00000000000000000, 1.500000000000000000, 27.49999999999992184 ) ) ;
#233 = DIRECTION ( 'NONE',  ( 0.000000000000000000, 1.000000000000000000, 0.000000000000000000 ) ) ;
#234 = EDGE_CURVE ( 'NONE', #154, #559, #537, .T. ) ;
#235 = DIRECTION ( 'NONE',  ( -0.000000000000000000, -1.000000000000000000, -0.000000000000000000 ) ) ;
#236 = DIRECTION ( 'NONE',  ( 0.000000000000000000, 0.000000000000000000, -1.000000000000000000 ) ) ;
#237 = AXIS2_PLACEMENT_3D ( 'NONE', #43, #205, #151 ) ;
#238 = VECTOR ( 'NONE', #208, 1000.000000000000000 ) ;
#239 = VERTEX_POINT ( 'NONE', #340 ) ;
#240 = FACE_OUTER_BOUND ( 'NONE', #204, .T. ) ;
#241 = EDGE_CURVE ( 'NONE', #411, #612, #358, .T. ) ;
#242 = VERTEX_POINT ( 'NONE', #631 ) ;
#243 = VERTEX_POINT ( 'NONE', #141 ) ;
#244 = FACE_OUTER_BOUND ( 'NONE', #22, .T. ) ;
#245 = ORIENTED_EDGE ( 'NONE', *, *, #632, .F. ) ;
#246 = CARTESIAN_POINT ( 'NONE',  ( -40.00000000000000000, -1.500000000000000000, 27.49999999999999289 ) ) ;
#247 = CYLINDRICAL_SURFACE ( 'NONE', #11, 1.399999999999998579 ) ;
#248 = VERTEX_POINT ( 'NONE', #304 ) ;
#249 = FACE_OUTER_BOUND ( 'NONE', #597, .T. ) ;
#250 = AXIS2_PLACEMENT_3D ( 'NONE', #346, #270, #560 ) ;
#251 = DIRECTION ( 'NONE',  ( 0.000000000000000000, -1.000000000000000000, 0.000000000000000000 ) ) ;
#252 = PRESENTATION_LAYER_ASSIGNMENT (  '', '', ( #158 ) ) ;
#253 = ORIENTED_EDGE ( 'NONE', *, *, #118, .F. ) ;
#254 = FACE_OUTER_BOUND ( 'NONE', #505, .T. ) ;
#255 = FACE_OUTER_BOUND ( 'NONE', #258, .T. ) ;
#256 = ORIENTED_EDGE ( 'NONE', *, *, #479, .F. ) ;
#257 = CARTESIAN_POINT ( 'NONE',  ( 40.00000000000000711, -1.500000000000000000, -27.50000000000000000 ) ) ;
#258 = EDGE_LOOP ( 'NONE', ( #210, #325, #519, #264, #366, #458, #520, #114 ) ) ;
#259 = CARTESIAN_POINT ( 'NONE',  ( -30.99999999999976197, 3.500000000000000000, -19.90000000000017266 ) ) ;
#260 = EDGE_CURVE ( 'NONE', #589, #411, #101, .T. ) ;
#261 = AXIS2_PLACEMENT_3D ( 'NONE', #301, #356, #528 ) ;
#262 = AXIS2_PLACEMENT_3D ( 'NONE', #357, #529, #90 ) ;
#263 = FACE_OUTER_BOUND ( 'NONE', #398, .T. ) ;
#264 = ORIENTED_EDGE ( 'NONE', *, *, #318, .T. ) ;
#265 = ORIENTED_EDGE ( 'NONE', *, *, #479, .T. ) ;
#266 = VERTEX_POINT ( 'NONE', #3 ) ;
#267 = EDGE_LOOP ( 'NONE', ( #180, #614 ) ) ;
#268 = CIRCLE ( 'NONE', #368, 1.399999999999998579 ) ;
#269 = EDGE_CURVE ( 'NONE', #424, #329, #214, .T. ) ;
#270 = DIRECTION ( 'NONE',  ( 1.000000000000000000, 0.000000000000000000, 0.000000000000000000 ) ) ;
#271 = AXIS2_PLACEMENT_3D ( 'NONE', #446, #132, #302 ) ;
#272 = DIRECTION ( 'NONE',  ( -0.000000000000000000, -1.000000000000000000, 0.000000000000000000 ) ) ;
#273 = CARTESIAN_POINT ( 'NONE',  ( 21.00000000000024869, -1.500000000000000000, -18.49999999999944578 ) ) ;
#274 = VERTEX_POINT ( 'NONE', #315 ) ;
#275 = EDGE_CURVE ( 'NONE', #274, #592, #415, .T. ) ;
#276 = CARTESIAN_POINT ( 'NONE',  ( -39.99999999999992895, 1.500000000000000000, -37.50000000000000000 ) ) ;
#277 = DIRECTION ( 'NONE',  ( 0.000000000000000000, -1.000000000000000000, 0.000000000000000000 ) ) ;
#278 = DIRECTION ( 'NONE',  ( -1.000000000000000000, 0.000000000000000000, -8.673617379884050263E-17 ) ) ;
#279 = ADVANCED_FACE ( 'NONE', ( #127 ), #300, .F. ) ;
#280 = ORIENTED_EDGE ( 'NONE', *, *, #211, .T. ) ;
#281 = DIRECTION ( 'NONE',  ( 0.000000000000000000, 0.000000000000000000, -1.000000000000000000 ) ) ;
#282 = CARTESIAN_POINT ( 'NONE',  ( 21.00000000000024869, 1.500000000000000000, 18.49999999999944578 ) ) ;
#283 = ORIENTED_EDGE ( 'NONE', *, *, #345, .F. ) ;
#284 = VECTOR ( 'NONE', #588, 1000.000000000000000 ) ;
#285 = VECTOR ( 'NONE', #433, 1000.000000000000000 ) ;
#286 = EDGE_LOOP ( 'NONE', ( #245, #256 ) ) ;
#287 = ADVANCED_FACE ( 'NONE', ( #133 ), #434, .F. ) ;
#288 = FACE_OUTER_BOUND ( 'NONE', #541, .T. ) ;
#289 = EDGE_CURVE ( 'NONE', #13, #110, #21, .T. ) ;
#290 = FACE_BOUND ( 'NONE', #322, .T. ) ;
#291 = DIRECTION ( 'NONE',  ( 0.000000000000000000, 0.000000000000000000, -1.000000000000000000 ) ) ;
#292 = FACE_OUTER_BOUND ( 'NONE', #91, .T. ) ;
#293 = EDGE_CURVE ( 'NONE', #203, #92, #421, .T. ) ;
#294 = PRESENTATION_LAYER_ASSIGNMENT (  '', '', ( #492 ) ) ;
#295 = CIRCLE ( 'NONE', #387, 1.399999999999998579 ) ;
#296 =( LENGTH_UNIT ( ) NAMED_UNIT ( * ) SI_UNIT ( .MILLI., .METRE. ) );
#297 = CARTESIAN_POINT ( 'NONE',  ( -40.00000000000000000, 1.500000000000000000, 37.49999999999999289 ) ) ;
#298 = MECHANICAL_DESIGN_GEOMETRIC_PRESENTATION_REPRESENTATION (  '', ( #158 ), #502 ) ;
#299 = CARTESIAN_POINT ( 'NONE',  ( 50.00000000000000000, 1.500000000000000000, 27.49999999999993250 ) ) ;
#300 = CYLINDRICAL_SURFACE ( 'NONE', #237, 1.399999999999998579 ) ;
#301 = CARTESIAN_POINT ( 'NONE',  ( 40.00000000000000711, 1.500000000000000000, 27.50000000000000000 ) ) ;
#302 = DIRECTION ( 'NONE',  ( 0.000000000000000000, 0.000000000000000000, -1.000000000000000000 ) ) ;
#303 = CARTESIAN_POINT ( 'NONE',  ( 50.00000000000000000, 1.500000000000000000, -27.49999999999992895 ) ) ;
#304 = CARTESIAN_POINT ( 'NONE',  ( -30.99999999999976197, 1.500000000000000000, -19.90000000000017266 ) ) ;
#305 = CARTESIAN_POINT ( 'NONE',  ( -30.99999999999976197, 3.500000000000000000, -17.10000000000017550 ) ) ;
#306 = EDGE_CURVE ( 'NONE', #248, #243, #295, .T. ) ;
#307 = EDGE_CURVE ( 'NONE', #239, #274, #544, .T. ) ;
#308 = SHAPE_DEFINITION_REPRESENTATION ( #408, #624 ) ;
#309 = AXIS2_PLACEMENT_3D ( 'NONE', #282, #595, #94 ) ;
#310 = CIRCLE ( 'NONE', #401, 1.399999999999998579 ) ;
#311 = PRESENTATION_STYLE_ASSIGNMENT (( #104 ) ) ;
#312 = CARTESIAN_POINT ( 'NONE',  ( -30.99999999999976197, 3.500000000000000000, -18.50000000000017408 ) ) ;
#313 = ORIENTED_EDGE ( 'NONE', *, *, #54, .F. ) ;
#314 = FACE_BOUND ( 'NONE', #7, .T. ) ;
#315 = CARTESIAN_POINT ( 'NONE',  ( 21.00000000000024869, 1.500000000000000000, 17.09999999999944720 ) ) ;
#316 = ORIENTED_EDGE ( 'NONE', *, *, #216, .T. ) ;
#317 = DIRECTION ( 'NONE',  ( 0.000000000000000000, 0.000000000000000000, -1.000000000000000000 ) ) ;
#318 = EDGE_CURVE ( 'NONE', #92, #384, #186, .T. ) ;
#319 = DIRECTION ( 'NONE',  ( 0.000000000000000000, 0.000000000000000000, -1.000000000000000000 ) ) ;
#320 = ORIENTED_EDGE ( 'NONE', *, *, #318, .F. ) ;
#321 = CIRCLE ( 'NONE', #218, 1.399999999999998579 ) ;
#322 = EDGE_LOOP ( 'NONE', ( #213, #414 ) ) ;
#323 = CIRCLE ( 'NONE', #189, 9.999999999999998224 ) ;
#324 =( GEOMETRIC_REPRESENTATION_CONTEXT ( 3 ) GLOBAL_UNCERTAINTY_ASSIGNED_CONTEXT ( ( #139 ) ) GLOBAL_UNIT_ASSIGNED_CONTEXT ( ( #372, #550, #469 ) ) REPRESENTATION_CONTEXT ( 'NONE', 'WORKASPACE' ) );
#325 = ORIENTED_EDGE ( 'NONE', *, *, #615, .T. ) ;
#326 = FILL_AREA_STYLE_COLOUR ( '', #438 ) ;
#327 = CARTESIAN_POINT ( 'NONE',  ( -30.99999999999976197, -1.500000000000000000, 19.90000000000017266 ) ) ;
#328 = ADVANCED_FACE ( 'NONE', ( #254 ), #247, .F. ) ;
#329 = VERTEX_POINT ( 'NONE', #532 ) ;
#330 = LINE ( 'NONE', #129, #285 ) ;
#331 = CARTESIAN_POINT ( 'NONE',  ( 21.00000000000024869, -1.500000000000000000, 18.49999999999944578 ) ) ;
#332 = FILL_AREA_STYLE ('',( #603 ) ) ;
#333 = ORIENTED_EDGE ( 'NONE', *, *, #289, .F. ) ;
#334 = ORIENTED_EDGE ( 'NONE', *, *, #134, .F. ) ;
#335 = AXIS2_PLACEMENT_3D ( 'NONE', #44, #486, #448 ) ;
#336 = DIRECTION ( 'NONE',  ( 0.000000000000000000, 1.000000000000000000, 0.000000000000000000 ) ) ;
#337 = CIRCLE ( 'NONE', #33, 1.399999999999998579 ) ;
#338 = CARTESIAN_POINT ( 'NONE',  ( -30.99999999999976197, 3.500000000000000000, 17.10000000000017550 ) ) ;
#339 = EDGE_LOOP ( 'NONE', ( #432, #149, #428, #488 ) ) ;
#340 = CARTESIAN_POINT ( 'NONE',  ( 21.00000000000024869, 1.500000000000000000, 19.89999999999944436 ) ) ;
#341 = CARTESIAN_POINT ( 'NONE',  ( -50.00000000000000000, 1.500000000000000000, 27.49999999999992184 ) ) ;
#342 = CARTESIAN_POINT ( 'NONE',  ( 21.00000000000024869, 3.500000000000000000, 19.89999999999944436 ) ) ;
#343 = DIRECTION ( 'NONE',  ( 0.000000000000000000, 0.000000000000000000, -1.000000000000000000 ) ) ;
#344 = ORIENTED_EDGE ( 'NONE', *, *, #187, .F. ) ;
#345 = EDGE_CURVE ( 'NONE', #514, #167, #78, .T. ) ;
#346 = CARTESIAN_POINT ( 'NONE',  ( -50.00000000000000000, 1.500000000000000000, -27.49999999999992895 ) ) ;
#347 = CARTESIAN_POINT ( 'NONE',  ( -39.99999999999992895, 1.500000000000000000, -37.50000000000000000 ) ) ;
#348 = CARTESIAN_POINT ( 'NONE',  ( -40.00000000000000711, 1.500000000000000000, -27.50000000000000000 ) ) ;
#349 = EDGE_LOOP ( 'NONE', ( #362, #125, #108, #493 ) ) ;
#350 = VECTOR ( 'NONE', #449, 1000.000000000000000 ) ;
#351 = DIRECTION ( 'NONE',  ( 0.000000000000000000, 0.000000000000000000, 1.000000000000000000 ) ) ;
#352 = LINE ( 'NONE', #305, #106 ) ;
#353 = DIRECTION ( 'NONE',  ( 0.000000000000000000, 0.000000000000000000, -1.000000000000000000 ) ) ;
#354 = DIRECTION ( 'NONE',  ( -0.000000000000000000, -1.000000000000000000, -0.000000000000000000 ) ) ;
#355 = ORIENTED_EDGE ( 'NONE', *, *, #269, .F. ) ;
#356 = DIRECTION ( 'NONE',  ( 0.000000000000000000, 1.000000000000000000, 0.000000000000000000 ) ) ;
#357 = CARTESIAN_POINT ( 'NONE',  ( -30.99999999999976197, 1.500000000000000000, 18.50000000000017408 ) ) ;
#358 = CIRCLE ( 'NONE', #392, 9.999999999999998224 ) ;
#359 = AXIS2_PLACEMENT_3D ( 'NONE', #521, #619, #23 ) ;
#360 = CARTESIAN_POINT ( 'NONE',  ( 21.00000000000024869, 3.500000000000000000, -19.89999999999944436 ) ) ;
#361 = FACE_BOUND ( 'NONE', #286, .T. ) ;
#362 = ORIENTED_EDGE ( 'NONE', *, *, #187, .T. ) ;
#363 = DIRECTION ( 'NONE',  ( -1.000000000000000000, -0.000000000000000000, -0.000000000000000000 ) ) ;
#364 = ADVANCED_FACE ( 'NONE', ( #638 ), #406, .F. ) ;
#365 = CARTESIAN_POINT ( 'NONE',  ( -30.99999999999976197, -1.500000000000000000, 18.50000000000017408 ) ) ;
#366 = ORIENTED_EDGE ( 'NONE', *, *, #376, .T. ) ;
#367 = CARTESIAN_POINT ( 'NONE',  ( -39.99999999999992895, 1.500000000000000000, -37.50000000000000000 ) ) ;
#368 = AXIS2_PLACEMENT_3D ( 'NONE', #551, #277, #122 ) ;
#369 = AXIS2_PLACEMENT_3D ( 'NONE', #409, #138, #523 ) ;
#370 = DIRECTION ( 'NONE',  ( 0.000000000000000000, 0.000000000000000000, 1.000000000000000000 ) ) ;
#371 = ORIENTED_EDGE ( 'NONE', *, *, #457, .T. ) ;
#372 =( LENGTH_UNIT ( ) NAMED_UNIT ( * ) SI_UNIT ( .MILLI., .METRE. ) );
#373 = CARTESIAN_POINT ( 'NONE',  ( 50.00000000000000000, -1.500000000000000000, 27.49999999999993250 ) ) ;
#374 = ADVANCED_FACE ( 'NONE', ( #515 ), #121, .T. ) ;
#375 = VECTOR ( 'NONE', #363, 1000.000000000000000 ) ;
#376 = EDGE_CURVE ( 'NONE', #384, #15, #600, .T. ) ;
#377 = CIRCLE ( 'NONE', #230, 1.399999999999998579 ) ;
#378 = CYLINDRICAL_SURFACE ( 'NONE', #142, 1.399999999999998579 ) ;
#379 = ORIENTED_EDGE ( 'NONE', *, *, #195, .T. ) ;
#380 = EDGE_CURVE ( 'NONE', #612, #173, #430, .T. ) ;
#381 = LINE ( 'NONE', #367, #238 ) ;
#382 = ORIENTED_EDGE ( 'NONE', *, *, #463, .T. ) ;
#383 = DIRECTION ( 'NONE',  ( -0.000000000000000000, -1.000000000000000000, 0.000000000000000000 ) ) ;
#384 = VERTEX_POINT ( 'NONE', #232 ) ;
#385 = CIRCLE ( 'NONE', #261, 9.999999999999998224 ) ;
#386 = CARTESIAN_POINT ( 'NONE',  ( 21.00000000000024869, 1.500000000000000000, -17.09999999999944720 ) ) ;
#387 = AXIS2_PLACEMENT_3D ( 'NONE', #178, #126, #343 ) ;
#388 = DIRECTION ( 'NONE',  ( 0.000000000000000000, -1.000000000000000000, 0.000000000000000000 ) ) ;
#389 = ORIENTED_EDGE ( 'NONE', *, *, #102, .F. ) ;
#390 = DIRECTION ( 'NONE',  ( 1.000000000000000000, 0.000000000000000000, -0.000000000000000000 ) ) ;
#391 = PLANE ( 'NONE',  #26 ) ;
#392 = AXIS2_PLACEMENT_3D ( 'NONE', #554, #115, #353 ) ;
#393 = AXIS2_PLACEMENT_3D ( 'NONE', #181, #566, #69 ) ;
#394 = DIRECTION ( 'NONE',  ( 0.000000000000000000, 1.000000000000000000, 0.000000000000000000 ) ) ;
#395 = ORIENTED_EDGE ( 'NONE', *, *, #57, .T. ) ;
#396 = DIRECTION ( 'NONE',  ( -0.000000000000000000, -1.000000000000000000, -0.000000000000000000 ) ) ;
#397 = DIRECTION ( 'NONE',  ( 1.000000000000000000, 0.000000000000000000, 0.000000000000000000 ) ) ;
#398 = EDGE_LOOP ( 'NONE', ( #466, #313, #161, #496 ) ) ;
#399 = CARTESIAN_POINT ( 'NONE',  ( 50.00000000000000000, -1.500000000000000000, -27.49999999999992895 ) ) ;
#400 = DIRECTION ( 'NONE',  ( -0.000000000000000000, -1.000000000000000000, -0.000000000000000000 ) ) ;
#401 = AXIS2_PLACEMENT_3D ( 'NONE', #538, #99, #144 ) ;
#402 = ORIENTED_EDGE ( 'NONE', *, *, #607, .T. ) ;
#403 = COLOUR_RGB ( '',0.7921568627450980005, 0.8196078431372548767, 0.9333333333333333481 ) ;
#404 = EDGE_CURVE ( 'NONE', #592, #507, #131, .T. ) ;
#405 = CARTESIAN_POINT ( 'NONE',  ( 40.00000000000000711, 1.500000000000000000, 27.50000000000000000 ) ) ;
#406 = PLANE ( 'NONE',  #250 ) ;
#407 = CYLINDRICAL_SURFACE ( 'NONE', #177, 9.999999999999998224 ) ;
#408 = PRODUCT_DEFINITION_SHAPE ( 'NONE', 'NONE',  #545 ) ;
#409 = CARTESIAN_POINT ( 'NONE',  ( -30.99999999999976197, 3.500000000000000000, 18.50000000000017408 ) ) ;
#410 = FACE_BOUND ( 'NONE', #2, .T. ) ;
#411 = VERTEX_POINT ( 'NONE', #185 ) ;
#412 = DIRECTION ( 'NONE',  ( 0.000000000000000000, 0.000000000000000000, -1.000000000000000000 ) ) ;
#413 = ORIENTED_EDGE ( 'NONE', *, *, #454, .F. ) ;
#414 = ORIENTED_EDGE ( 'NONE', *, *, #150, .F. ) ;
#415 = LINE ( 'NONE', #59, #24 ) ;
#416 = EDGE_CURVE ( 'NONE', #15, #451, #330, .T. ) ;
#417 = ORIENTED_EDGE ( 'NONE', *, *, #549, .F. ) ;
#418 = SURFACE_STYLE_FILL_AREA ( #471 ) ;
#419 = ORIENTED_EDGE ( 'NONE', *, *, #41, .T. ) ;
#420 = AXIS2_PLACEMENT_3D ( 'NONE', #427, #272, #464 ) ;
#421 = CIRCLE ( 'NONE', #166, 9.999999999999998224 ) ;
#422 = DIRECTION ( 'NONE',  ( 0.000000000000000000, 0.000000000000000000, -1.000000000000000000 ) ) ;
#423 = ADVANCED_FACE ( 'NONE', ( #27 ), #391, .F. ) ;
#424 = VERTEX_POINT ( 'NONE', #386 ) ;
#425 = ORIENTED_EDGE ( 'NONE', *, *, #584, .F. ) ;
#426 = EDGE_LOOP ( 'NONE', ( #119, #608 ) ) ;
#427 = CARTESIAN_POINT ( 'NONE',  ( 21.00000000000024869, 1.500000000000000000, -18.49999999999944578 ) ) ;
#428 = ORIENTED_EDGE ( 'NONE', *, *, #615, .F. ) ;
#429 = VECTOR ( 'NONE', #462, 1000.000000000000000 ) ;
#430 = LINE ( 'NONE', #613, #17 ) ;
#431 =( NAMED_UNIT ( * ) SI_UNIT ( $, .STERADIAN. ) SOLID_ANGLE_UNIT ( ) );
#432 = ORIENTED_EDGE ( 'NONE', *, *, #454, .T. ) ;
#433 = DIRECTION ( 'NONE',  ( -0.000000000000000000, -1.000000000000000000, -0.000000000000000000 ) ) ;
#434 = PLANE ( 'NONE',  #111 ) ;
#435 = DIRECTION ( 'NONE',  ( 0.000000000000000000, 0.000000000000000000, 1.000000000000000000 ) ) ;
#436 = DIRECTION ( 'NONE',  ( 0.000000000000000000, 1.000000000000000000, 0.000000000000000000 ) ) ;
#437 = DIRECTION ( 'NONE',  ( -0.000000000000000000, -1.000000000000000000, -0.000000000000000000 ) ) ;
#438 = COLOUR_RGB ( '',0.7921568627450980005, 0.8196078431372548767, 0.9333333333333333481 ) ;
#439 = CIRCLE ( 'NONE', #262, 1.399999999999998579 ) ;
#440 = DIRECTION ( 'NONE',  ( 0.000000000000000000, 0.000000000000000000, 1.000000000000000000 ) ) ;
#441 = CYLINDRICAL_SURFACE ( 'NONE', #511, 9.999999999999998224 ) ;
#442 = EDGE_CURVE ( 'NONE', #634, #461, #157, .T. ) ;
#443 = CYLINDRICAL_SURFACE ( 'NONE', #335, 1.399999999999998579 ) ;
#444 = LINE ( 'NONE', #196, #553 ) ;
#445 = ORIENTED_EDGE ( 'NONE', *, *, #120, .T. ) ;
#446 = CARTESIAN_POINT ( 'NONE',  ( -40.00000000000000711, 1.500000000000000000, -27.50000000000000000 ) ) ;
#447 = DIRECTION ( 'NONE',  ( -0.000000000000000000, -1.000000000000000000, -0.000000000000000000 ) ) ;
#448 = DIRECTION ( 'NONE',  ( 0.000000000000000000, 0.000000000000000000, -1.000000000000000000 ) ) ;
#449 = DIRECTION ( 'NONE',  ( -0.000000000000000000, -0.000000000000000000, -1.000000000000000000 ) ) ;
#450 = CARTESIAN_POINT ( 'NONE',  ( 21.00000000000024869, -1.500000000000000000, 19.89999999999944436 ) ) ;
#451 = VERTEX_POINT ( 'NONE', #508 ) ;
#452 = DIRECTION ( 'NONE',  ( 0.000000000000000000, -1.000000000000000000, 0.000000000000000000 ) ) ;
#453 = ORIENTED_EDGE ( 'NONE', *, *, #463, .F. ) ;
#454 = EDGE_CURVE ( 'NONE', #173, #634, #46, .T. ) ;
#455 = EDGE_LOOP ( 'NONE', ( #148, #231 ) ) ;
#456 = PLANE ( 'NONE',  #124 ) ;
#457 = EDGE_CURVE ( 'NONE', #13, #266, #310, .T. ) ;
#458 = ORIENTED_EDGE ( 'NONE', *, *, #61, .T. ) ;
#459 = DIRECTION ( 'NONE',  ( -1.000000000000000000, 0.000000000000000000, 0.000000000000000000 ) ) ;
#460 = DIRECTION ( 'NONE',  ( -0.000000000000000000, -1.000000000000000000, -0.000000000000000000 ) ) ;
#461 = VERTEX_POINT ( 'NONE', #627 ) ;
#462 = DIRECTION ( 'NONE',  ( 1.000000000000000000, 0.000000000000000000, 8.673617379884050263E-17 ) ) ;
#463 = EDGE_CURVE ( 'NONE', #243, #167, #352, .T. ) ;
#464 = DIRECTION ( 'NONE',  ( 0.000000000000000000, 0.000000000000000000, -1.000000000000000000 ) ) ;
#465 = VECTOR ( 'NONE', #235, 1000.000000000000000 ) ;
#466 = ORIENTED_EDGE ( 'NONE', *, *, #234, .T. ) ;
#467 = PRODUCT_DEFINITION_FORMATION_WITH_SPECIFIED_SOURCE ( 'ANY', '', #183, .NOT_KNOWN. ) ;
#468 = CARTESIAN_POINT ( 'NONE',  ( 21.00000000000024869, 3.500000000000000000, -17.09999999999944720 ) ) ;
#469 =( NAMED_UNIT ( * ) SI_UNIT ( $, .STERADIAN. ) SOLID_ANGLE_UNIT ( ) );
#470 = VERTEX_POINT ( 'NONE', #526 ) ;
#471 = FILL_AREA_STYLE ('',( #326 ) ) ;
#472 = ORIENTED_EDGE ( 'NONE', *, *, #105, .T. ) ;
#473 = ORIENTED_EDGE ( 'NONE', *, *, #118, .T. ) ;
#474 = CIRCLE ( 'NONE', #156, 9.999999999999998224 ) ;
#475 = EDGE_CURVE ( 'NONE', #1, #451, #323, .T. ) ;
#476 = DIRECTION ( 'NONE',  ( -0.000000000000000000, -1.000000000000000000, 0.000000000000000000 ) ) ;
#477 = DIRECTION ( 'NONE',  ( 0.000000000000000000, 0.000000000000000000, -1.000000000000000000 ) ) ;
#478 = ORIENTED_EDGE ( 'NONE', *, *, #584, .T. ) ;
#479 = EDGE_CURVE ( 'NONE', #329, #242, #113, .T. ) ;
#480 = DIRECTION ( 'NONE',  ( 0.000000000000000000, -1.000000000000000000, 0.000000000000000000 ) ) ;
#481 = CARTESIAN_POINT ( 'NONE',  ( 40.00000000000000711, -1.500000000000000000, 27.50000000000000000 ) ) ;
#482 = FACE_OUTER_BOUND ( 'NONE', #72, .T. ) ;
#483 = CARTESIAN_POINT ( 'NONE',  ( 21.00000000000024869, 1.500000000000000000, -18.49999999999944578 ) ) ;
#484 = DIRECTION ( 'NONE',  ( 0.000000000000000000, 0.000000000000000000, -1.000000000000000000 ) ) ;
#485 = PRODUCT_CONTEXT ( 'NONE', #38, 'mechanical' ) ;
#486 = DIRECTION ( 'NONE',  ( -0.000000000000000000, -1.000000000000000000, -0.000000000000000000 ) ) ;
#487 = DIRECTION ( 'NONE',  ( 0.000000000000000000, 0.000000000000000000, -1.000000000000000000 ) ) ;
#488 = ORIENTED_EDGE ( 'NONE', *, *, #380, .T. ) ;
#489 = FACE_OUTER_BOUND ( 'NONE', #567, .T. ) ;
#490 = ORIENTED_EDGE ( 'NONE', *, *, #628, .T. ) ;
#491 = DIRECTION ( 'NONE',  ( 0.000000000000000000, 0.000000000000000000, 1.000000000000000000 ) ) ;
#492 = STYLED_ITEM ( 'NONE', ( #513 ), #145 ) ;
#493 = ORIENTED_EDGE ( 'NONE', *, *, #504, .T. ) ;
#494 = CARTESIAN_POINT ( 'NONE',  ( 39.99999999999992895, 1.500000000000000000, -37.50000000000000000 ) ) ;
#495 = DIRECTION ( 'NONE',  ( 0.000000000000000000, -0.000000000000000000, -1.000000000000000000 ) ) ;
#496 = ORIENTED_EDGE ( 'NONE', *, *, #163, .T. ) ;
#497 = ADVANCED_FACE ( 'NONE', ( #292 ), #192, .F. ) ;
#498 = CARTESIAN_POINT ( 'NONE',  ( -50.00000000000000000, 1.500000000000000000, -27.49999999999993250 ) ) ;
#499 = VECTOR ( 'NONE', #626, 1000.000000000000000 ) ;
#500 = VECTOR ( 'NONE', #351, 1000.000000000000000 ) ;
#501 = ORIENTED_EDGE ( 'NONE', *, *, #376, .F. ) ;
#502 =( GEOMETRIC_REPRESENTATION_CONTEXT ( 3 ) GLOBAL_UNCERTAINTY_ASSIGNED_CONTEXT ( ( #531 ) ) GLOBAL_UNIT_ASSIGNED_CONTEXT ( ( #296, #625, #83 ) ) REPRESENTATION_CONTEXT ( 'NONE', 'WORKASPACE' ) );
#503 = DIRECTION ( 'NONE',  ( -0.000000000000000000, -0.000000000000000000, -1.000000000000000000 ) ) ;
#504 = EDGE_CURVE ( 'NONE', #470, #598, #444, .T. ) ;
#505 = EDGE_LOOP ( 'NONE', ( #453, #64, #379, #222 ) ) ;
#506 = SURFACE_SIDE_STYLE ('',( #418 ) ) ;
#507 = VERTEX_POINT ( 'NONE', #450 ) ;
#508 = CARTESIAN_POINT ( 'NONE',  ( -40.00000000000000000, -1.500000000000000000, 37.49999999999999289 ) ) ;
#509 = LINE ( 'NONE', #596, #593 ) ;
#510 = VECTOR ( 'NONE', #503, 1000.000000000000000 ) ;
#511 = AXIS2_PLACEMENT_3D ( 'NONE', #405, #95, #633 ) ;
#512 = DIRECTION ( 'NONE',  ( 0.000000000000000000, 0.000000000000000000, 1.000000000000000000 ) ) ;
#513 = PRESENTATION_STYLE_ASSIGNMENT (( #516 ) ) ;
#514 = VERTEX_POINT ( 'NONE', #583 ) ;
#515 = FACE_OUTER_BOUND ( 'NONE', #582, .T. ) ;
#516 = SURFACE_STYLE_USAGE ( .BOTH. , #506 ) ;
#517 = DIRECTION ( 'NONE',  ( -0.000000000000000000, -1.000000000000000000, -0.000000000000000000 ) ) ;
#518 = VERTEX_POINT ( 'NONE', #574 ) ;
#519 = ORIENTED_EDGE ( 'NONE', *, *, #293, .T. ) ;
#520 = ORIENTED_EDGE ( 'NONE', *, *, #98, .T. ) ;
#521 = CARTESIAN_POINT ( 'NONE',  ( 40.00000000000000711, 1.500000000000000000, -27.50000000000000000 ) ) ;
#522 = AXIS2_PLACEMENT_3D ( 'NONE', #581, #30, #484 ) ;
#523 = DIRECTION ( 'NONE',  ( 0.000000000000000000, 0.000000000000000000, -1.000000000000000000 ) ) ;
#524 = DIRECTION ( 'NONE',  ( 0.000000000000000000, 0.000000000000000000, 1.000000000000000000 ) ) ;
#525 = DIRECTION ( 'NONE',  ( 0.000000000000000000, 0.000000000000000000, -1.000000000000000000 ) ) ;
#526 = CARTESIAN_POINT ( 'NONE',  ( 39.99999999999992895, 1.500000000000000000, 37.50000000000000000 ) ) ;
#527 = ORIENTED_EDGE ( 'NONE', *, *, #195, .F. ) ;
#528 = DIRECTION ( 'NONE',  ( 0.000000000000000000, 0.000000000000000000, 1.000000000000000000 ) ) ;
#529 = DIRECTION ( 'NONE',  ( -0.000000000000000000, -1.000000000000000000, 0.000000000000000000 ) ) ;
#530 = CIRCLE ( 'NONE', #309, 1.399999999999998579 ) ;
#531 = UNCERTAINTY_MEASURE_WITH_UNIT (LENGTH_MEASURE( 1.000000000000000082E-05 ), #296, 'distance_accuracy_value', 'NONE');
#532 = CARTESIAN_POINT ( 'NONE',  ( 21.00000000000024869, -1.500000000000000000, -17.09999999999944720 ) ) ;
#533 = ORIENTED_EDGE ( 'NONE', *, *, #275, .T. ) ;
#534 = DIRECTION ( 'NONE',  ( 0.000000000000000000, -1.000000000000000000, 0.000000000000000000 ) ) ;
#535 = FACE_BOUND ( 'NONE', #267, .T. ) ;
#536 = CYLINDRICAL_SURFACE ( 'NONE', #89, 1.399999999999998579 ) ;
#537 = LINE ( 'NONE', #206, #510 ) ;
#538 = CARTESIAN_POINT ( 'NONE',  ( -30.99999999999976197, 1.500000000000000000, 18.50000000000017408 ) ) ;
#539 = ADVANCED_FACE ( 'NONE', ( #240 ), #5, .T. ) ;
#540 = ORIENTED_EDGE ( 'NONE', *, *, #269, .T. ) ;
#541 = EDGE_LOOP ( 'NONE', ( #4, #382, #226, #527 ) ) ;
#542 = SURFACE_SIDE_STYLE ('',( #155 ) ) ;
#543 = VECTOR ( 'NONE', #176, 1000.000000000000000 ) ;
#544 = CIRCLE ( 'NONE', #143, 1.399999999999998579 ) ;
#545 = PRODUCT_DEFINITION ( 'UNKNOWN', '', #467, #86 ) ;
#546 = DIRECTION ( 'NONE',  ( 0.000000000000000000, -1.000000000000000000, 0.000000000000000000 ) ) ;
#547 = ORIENTED_EDGE ( 'NONE', *, *, #109, .F. ) ;
#548 = ADVANCED_FACE ( 'NONE', ( #244 ), #636, .F. ) ;
#549 = EDGE_CURVE ( 'NONE', #75, #424, #66, .T. ) ;
#550 =( NAMED_UNIT ( * ) PLANE_ANGLE_UNIT ( ) SI_UNIT ( $, .RADIAN. ) );
#551 = CARTESIAN_POINT ( 'NONE',  ( -30.99999999999976197, -1.500000000000000000, -18.50000000000017408 ) ) ;
#552 = CIRCLE ( 'NONE', #188, 1.399999999999998579 ) ;
#553 = VECTOR ( 'NONE', #437, 1000.000000000000000 ) ;
#554 = CARTESIAN_POINT ( 'NONE',  ( 40.00000000000000711, 1.500000000000000000, -27.50000000000000000 ) ) ;
#555 = DIRECTION ( 'NONE',  ( -0.000000000000000000, -1.000000000000000000, -0.000000000000000000 ) ) ;
#556 = EDGE_LOOP ( 'NONE', ( #472, #128, #215, #601 ) ) ;
#557 = DIRECTION ( 'NONE',  ( -0.000000000000000000, -1.000000000000000000, -0.000000000000000000 ) ) ;
#558 = CARTESIAN_POINT ( 'NONE',  ( 40.00000000000000711, 1.500000000000000000, -27.50000000000000000 ) ) ;
#559 = VERTEX_POINT ( 'NONE', #399 ) ;
#560 = DIRECTION ( 'NONE',  ( 0.000000000000000000, 0.000000000000000000, -1.000000000000000000 ) ) ;
#561 = LINE ( 'NONE', #341, #47 ) ;
#562 = CIRCLE ( 'NONE', #420, 1.399999999999998579 ) ;
#563 = ORIENTED_EDGE ( 'NONE', *, *, #150, .T. ) ;
#564 = DIRECTION ( 'NONE',  ( 0.000000000000000000, 0.000000000000000000, -1.000000000000000000 ) ) ;
#565 = ORIENTED_EDGE ( 'NONE', *, *, #54, .T. ) ;
#566 = DIRECTION ( 'NONE',  ( 0.000000000000000000, -1.000000000000000000, 0.000000000000000000 ) ) ;
#567 = EDGE_LOOP ( 'NONE', ( #200, #316, #563, #159 ) ) ;
#568 = ADVANCED_FACE ( 'NONE', ( #85, #290, #361, #535, #29 ), #42, .T. ) ;
#569 = CARTESIAN_POINT ( 'NONE',  ( -40.00000000000000711, -1.500000000000000000, -27.50000000000000000 ) ) ;
#570 = CARTESIAN_POINT ( 'NONE',  ( -50.00000000000000000, 1.500000000000000000, -27.49999999999992895 ) ) ;
#571 = CARTESIAN_POINT ( 'NONE',  ( -50.00000000000000000, -1.500000000000000000, -27.49999999999992895 ) ) ;
#572 = EDGE_CURVE ( 'NONE', #461, #1, #190, .T. ) ;
#573 = PLANE ( 'NONE',  #611 ) ;
#574 = CARTESIAN_POINT ( 'NONE',  ( -30.99999999999976197, -1.500000000000000000, 17.10000000000017550 ) ) ;
#575 = APPLICATION_PROTOCOL_DEFINITION ( 'draft international standard', 'automotive_design', 1998, #182 ) ;
#576 = LINE ( 'NONE', #32, #578 ) ;
#577 = CARTESIAN_POINT ( 'NONE',  ( 21.00000000000024869, -1.500000000000000000, -18.49999999999944578 ) ) ;
#578 = VECTOR ( 'NONE', #88, 1000.000000000000000 ) ;
#579 = ADVANCED_FACE ( 'NONE', ( #34 ), #441, .T. ) ;
#580 = AXIS2_PLACEMENT_3D ( 'NONE', #569, #233, #435 ) ;
#581 = CARTESIAN_POINT ( 'NONE',  ( -30.99999999999976197, -1.500000000000000000, -18.50000000000017408 ) ) ;
#582 = EDGE_LOOP ( 'NONE', ( #490, #171, #77, #565 ) ) ;
#583 = CARTESIAN_POINT ( 'NONE',  ( -30.99999999999976197, -1.500000000000000000, -19.90000000000017266 ) ) ;
#584 = EDGE_CURVE ( 'NONE', #266, #13, #439, .T. ) ;
#585 = ORIENTED_EDGE ( 'NONE', *, *, #234, .F. ) ;
#586 = DIRECTION ( 'NONE',  ( 0.000000000000000000, 1.000000000000000000, 0.000000000000000000 ) ) ;
#587 = ORIENTED_EDGE ( 'NONE', *, *, #475, .T. ) ;
#588 = DIRECTION ( 'NONE',  ( -0.000000000000000000, -1.000000000000000000, -0.000000000000000000 ) ) ;
#589 = VERTEX_POINT ( 'NONE', #299 ) ;
#590 = DIRECTION ( 'NONE',  ( 0.000000000000000000, 0.000000000000000000, -1.000000000000000000 ) ) ;
#591 = AXIS2_PLACEMENT_3D ( 'NONE', #31, #447, #87 ) ;
#592 = VERTEX_POINT ( 'NONE', #37 ) ;
#593 = VECTOR ( 'NONE', #170, 1000.000000000000000 ) ;
#594 = AXIS2_PLACEMENT_3D ( 'NONE', #257, #8, #590 ) ;
#595 = DIRECTION ( 'NONE',  ( -0.000000000000000000, -1.000000000000000000, 0.000000000000000000 ) ) ;
#596 = CARTESIAN_POINT ( 'NONE',  ( -39.99999999999992895, 1.500000000000000000, -37.50000000000000000 ) ) ;
#597 = EDGE_LOOP ( 'NONE', ( #587, #19, #501, #473 ) ) ;
#598 = VERTEX_POINT ( 'NONE', #107 ) ;
#599 =( GEOMETRIC_REPRESENTATION_CONTEXT ( 3 ) GLOBAL_UNCERTAINTY_ASSIGNED_CONTEXT ( ( #175 ) ) GLOBAL_UNIT_ASSIGNED_CONTEXT ( ( #70, #227, #431 ) ) REPRESENTATION_CONTEXT ( 'NONE', 'WORKASPACE' ) );
#600 = CIRCLE ( 'NONE', #229, 9.999999999999998224 ) ;
#601 = ORIENTED_EDGE ( 'NONE', *, *, #416, .T. ) ;
#602 = LINE ( 'NONE', #169, #164 ) ;
#603 = FILL_AREA_STYLE_COLOUR ( '', #403 ) ;
#604 = ORIENTED_EDGE ( 'NONE', *, *, #442, .T. ) ;
#605 = ORIENTED_EDGE ( 'NONE', *, *, #105, .F. ) ;
#606 = CARTESIAN_POINT ( 'NONE',  ( -30.99999999999976197, 3.500000000000000000, 19.90000000000017266 ) ) ;
#607 = EDGE_CURVE ( 'NONE', #203, #634, #381, .T. ) ;
#608 = ORIENTED_EDGE ( 'NONE', *, *, #307, .T. ) ;
#609 = LINE ( 'NONE', #342, #65 ) ;
#610 = CARTESIAN_POINT ( 'NONE',  ( -39.99999999999992895, 1.500000000000000000, 37.49999999999999289 ) ) ;
#611 = AXIS2_PLACEMENT_3D ( 'NONE', #194, #459, #440 ) ;
#612 = VERTEX_POINT ( 'NONE', #494 ) ;
#613 = CARTESIAN_POINT ( 'NONE',  ( 39.99999999999992895, 1.500000000000000000, -37.50000000000000000 ) ) ;
#614 = ORIENTED_EDGE ( 'NONE', *, *, #120, .F. ) ;
#615 = EDGE_CURVE ( 'NONE', #612, #203, #509, .T. ) ;
#616 = EDGE_CURVE ( 'NONE', #243, #248, #337, .T. ) ;
#617 = DIRECTION ( 'NONE',  ( 0.000000000000000000, 0.000000000000000000, 1.000000000000000000 ) ) ;
#618 = ADVANCED_FACE ( 'NONE', ( #50, #52, #314, #410, #255 ), #456, .F. ) ;
#619 = DIRECTION ( 'NONE',  ( -0.000000000000000000, -1.000000000000000000, -0.000000000000000000 ) ) ;
#620 = ORIENTED_EDGE ( 'NONE', *, *, #293, .F. ) ;
#621 = VECTOR ( 'NONE', #71, 1000.000000000000000 ) ;
#622 = AXIS2_PLACEMENT_3D ( 'NONE', #202, #354, #487 ) ;
#623 = DIRECTION ( 'NONE',  ( 0.000000000000000000, -0.000000000000000000, -1.000000000000000000 ) ) ;
#624 = ADVANCED_BREP_SHAPE_REPRESENTATION ( 'Copy of Part4^Assem5_Assem3', ( #145, #18 ), #324 ) ;
#625 =( NAMED_UNIT ( * ) PLANE_ANGLE_UNIT ( ) SI_UNIT ( $, .RADIAN. ) );
#626 = DIRECTION ( 'NONE',  ( -0.000000000000000000, -1.000000000000000000, -0.000000000000000000 ) ) ;
#627 = CARTESIAN_POINT ( 'NONE',  ( -50.00000000000000000, -1.500000000000000000, -27.49999999999993250 ) ) ;
#628 = EDGE_CURVE ( 'NONE', #559, #173, #221, .T. ) ;
#629 = CARTESIAN_POINT ( 'NONE',  ( 0.000000000000000000, 0.000000000000000000, 0.000000000000000000 ) ) ;
#630 = DIRECTION ( 'NONE',  ( -0.000000000000000000, -1.000000000000000000, -0.000000000000000000 ) ) ;
#631 = CARTESIAN_POINT ( 'NONE',  ( 21.00000000000024869, -1.500000000000000000, -19.89999999999944436 ) ) ;
#632 = EDGE_CURVE ( 'NONE', #242, #329, #377, .T. ) ;
#633 = DIRECTION ( 'NONE',  ( 0.000000000000000000, 0.000000000000000000, -1.000000000000000000 ) ) ;
#634 = VERTEX_POINT ( 'NONE', #9 ) ;
#635 = CARTESIAN_POINT ( 'NONE',  ( -50.00000000000000000, -1.500000000000000000, 27.49999999999992184 ) ) ;
#636 = CYLINDRICAL_SURFACE ( 'NONE', #369, 1.399999999999998579 ) ;
#637 = VECTOR ( 'NONE', #135, 1000.000000000000000 ) ;
#638 = FACE_OUTER_BOUND ( 'NONE', #212, .T. ) ;
ENDSEC;
END-ISO-10303-21;
