ISO-10303-21;
HEADER;
FILE_DESCRIPTION (( 'STEP AP214' ),
    '1' );
FILE_NAME ('Copy of Part6^Assem5_Assem3.STEP',
    '2026-05-04T16:09:57',
    ( '' ),
    ( '' ),
    'SwSTEP 2.0',
    'SolidWorks 2022',
    '' );
FILE_SCHEMA (( 'AUTOMOTIVE_DESIGN' ));
ENDSEC;

DATA;
#1 = AXIS2_PLACEMENT_3D ( 'NONE', #757, #1098, #1019 ) ;
#2 = CARTESIAN_POINT ( 'NONE',  ( 26.77000000000025182, 0.000000000000000000, -5.440000000000833502 ) ) ;
#3 = DIRECTION ( 'NONE',  ( 0.000000000000000000, 0.000000000000000000, 1.000000000000000000 ) ) ;
#4 = DIRECTION ( 'NONE',  ( -1.000000000000000000, 0.000000000000000000, 1.982541115402065110E-16 ) ) ;
#5 = EDGE_LOOP ( 'NONE', ( #765, #667, #315, #741 ) ) ;
#6 = PRODUCT_DEFINITION ( 'UNKNOWN', '', #1092, #912 ) ;
#7 = ORIENTED_EDGE ( 'NONE', *, *, #521, .F. ) ;
#8 = FACE_OUTER_BOUND ( 'NONE', #297, .T. ) ;
#9 = ORIENTED_EDGE ( 'NONE', *, *, #318, .T. ) ;
#10 = CARTESIAN_POINT ( 'NONE',  ( 20.77000000000014879, 0.000000000000000000, -3.940000000000832614 ) ) ;
#11 = DIRECTION ( 'NONE',  ( -1.000000000000000000, 0.000000000000000000, -5.782411586589370951E-17 ) ) ;
#12 = ORIENTED_EDGE ( 'NONE', *, *, #543, .T. ) ;
#13 = DIRECTION ( 'NONE',  ( -0.000000000000000000, 1.000000000000000000, -0.000000000000000000 ) ) ;
#14 = CARTESIAN_POINT ( 'NONE',  ( 38.50000000000000000, 3.000000000000000000, -17.49999999999993605 ) ) ;
#15 = CARTESIAN_POINT ( 'NONE',  ( 30.00000000000000000, 3.000000000000000000, 17.49999999999999645 ) ) ;
#16 = VERTEX_POINT ( 'NONE', #539 ) ;
#17 = CIRCLE ( 'NONE', #730, 1.500000000000003997 ) ;
#18 = VECTOR ( 'NONE', #901, 1000.000000000000000 ) ;
#19 = CARTESIAN_POINT ( 'NONE',  ( 20.77000000000015234, 0.000000000000000000, 6.559999999999125642 ) ) ;
#20 = ADVANCED_FACE ( 'NONE', ( #527 ), #177, .T. ) ;
#21 = CARTESIAN_POINT ( 'NONE',  ( -26.00000000000000355, 0.000000000000000000, -19.09999999999998010 ) ) ;
#22 = AXIS2_PLACEMENT_3D ( 'NONE', #164, #348, #701 ) ;
#23 = FACE_OUTER_BOUND ( 'NONE', #977, .T. ) ;
#24 = AXIS2_PLACEMENT_3D ( 'NONE', #286, #638, #111 ) ;
#25 = EDGE_LOOP ( 'NONE', ( #300, #221, #144, #600 ) ) ;
#26 = CIRCLE ( 'NONE', #124, 8.500000000000000000 ) ;
#27 = DIRECTION ( 'NONE',  ( 0.000000000000000000, 0.000000000000000000, 1.000000000000000000 ) ) ;
#28 = ORIENTED_EDGE ( 'NONE', *, *, #254, .F. ) ;
#29 = VERTEX_POINT ( 'NONE', #245 ) ;
#30 = CARTESIAN_POINT ( 'NONE',  ( 20.77000000000015234, 0.000000000000000000, 5.059999999999124753 ) ) ;
#31 = VERTEX_POINT ( 'NONE', #438 ) ;
#32 = CIRCLE ( 'NONE', #61, 1.499999999999996891 ) ;
#33 = ORIENTED_EDGE ( 'NONE', *, *, #1117, .F. ) ;
#34 = VECTOR ( 'NONE', #1014, 1000.000000000000000 ) ;
#35 = VECTOR ( 'NONE', #738, 1000.000000000000000 ) ;
#36 = VECTOR ( 'NONE', #488, 1000.000000000000000 ) ;
#37 = EDGE_CURVE ( 'NONE', #936, #623, #115, .T. ) ;
#38 = VECTOR ( 'NONE', #746, 1000.000000000000000 ) ;
#39 = EDGE_LOOP ( 'NONE', ( #1097, #284, #917, #9 ) ) ;
#40 = DIRECTION ( 'NONE',  ( 0.000000000000000000, 0.000000000000000000, 1.000000000000000000 ) ) ;
#41 = LINE ( 'NONE', #199, #658 ) ;
#42 = VERTEX_POINT ( 'NONE', #782 ) ;
#43 = ORIENTED_EDGE ( 'NONE', *, *, #250, .F. ) ;
#44 = ORIENTED_EDGE ( 'NONE', *, *, #356, .T. ) ;
#45 = ORIENTED_EDGE ( 'NONE', *, *, #267, .T. ) ;
#46 = DIRECTION ( 'NONE',  ( -0.000000000000000000, 1.000000000000000000, -0.000000000000000000 ) ) ;
#47 = CARTESIAN_POINT ( 'NONE',  ( 26.76999999999996760, 0.000000000000000000, 2.059999999999140741 ) ) ;
#48 = CARTESIAN_POINT ( 'NONE',  ( 38.50000000000000000, 0.000000000000000000, -17.49999999999993605 ) ) ;
#49 = EDGE_CURVE ( 'NONE', #873, #831, #654, .T. ) ;
#50 = ORIENTED_EDGE ( 'NONE', *, *, #468, .T. ) ;
#51 = VERTEX_POINT ( 'NONE', #877 ) ;
#52 = CYLINDRICAL_SURFACE ( 'NONE', #842, 2.999999999999999112 ) ;
#53 = LINE ( 'NONE', #150, #784 ) ;
#54 = ADVANCED_FACE ( 'NONE', ( #788 ), #357, .F. ) ;
#55 = CIRCLE ( 'NONE', #103, 1.499999999999996891 ) ;
#56 = DIRECTION ( 'NONE',  ( -0.000000000000000000, -1.000000000000000000, -0.000000000000000000 ) ) ;
#57 = ORIENTED_EDGE ( 'NONE', *, *, #421, .T. ) ;
#58 = CIRCLE ( 'NONE', #178, 1.500000000000000444 ) ;
#59 = EDGE_CURVE ( 'NONE', #1048, #651, #968, .T. ) ;
#60 = ORIENTED_EDGE ( 'NONE', *, *, #521, .T. ) ;
#61 = AXIS2_PLACEMENT_3D ( 'NONE', #1131, #1025, #240 ) ;
#62 = CARTESIAN_POINT ( 'NONE',  ( -26.00000000000000355, 2.999999999999999112, -19.09999999999998010 ) ) ;
#63 = ORIENTED_EDGE ( 'NONE', *, *, #988, .F. ) ;
#64 = DIRECTION ( 'NONE',  ( 0.000000000000000000, 0.000000000000000000, 1.000000000000000000 ) ) ;
#65 =( GEOMETRIC_REPRESENTATION_CONTEXT ( 3 ) GLOBAL_UNCERTAINTY_ASSIGNED_CONTEXT ( ( #1001 ) ) GLOBAL_UNIT_ASSIGNED_CONTEXT ( ( #80, #447, #1064 ) ) REPRESENTATION_CONTEXT ( 'NONE', 'WORKASPACE' ) );
#66 =( LENGTH_UNIT ( ) NAMED_UNIT ( * ) SI_UNIT ( .MILLI., .METRE. ) );
#67 = CARTESIAN_POINT ( 'NONE',  ( -29.99999999999998579, 3.000000000000000000, 25.99999999999999645 ) ) ;
#68 = DIRECTION ( 'NONE',  ( 0.000000000000000000, 0.000000000000000000, 1.000000000000000000 ) ) ;
#69 = DIRECTION ( 'NONE',  ( 0.000000000000000000, 1.000000000000000000, -0.000000000000000000 ) ) ;
#70 = DIRECTION ( 'NONE',  ( 0.000000000000000000, 0.000000000000000000, 1.000000000000000000 ) ) ;
#71 = ORIENTED_EDGE ( 'NONE', *, *, #106, .T. ) ;
#72 = FILL_AREA_STYLE_COLOUR ( '', #1016 ) ;
#73 = ADVANCED_FACE ( 'NONE', ( #184 ), #884, .F. ) ;
#74 = CYLINDRICAL_SURFACE ( 'NONE', #963, 1.499999999999999556 ) ;
#75 = DIRECTION ( 'NONE',  ( 0.000000000000000000, 0.000000000000000000, -1.000000000000000000 ) ) ;
#76 = CARTESIAN_POINT ( 'NONE',  ( 26.77000000000025182, 0.000000000000000000, -5.440000000000833502 ) ) ;
#77 = ORIENTED_EDGE ( 'NONE', *, *, #205, .F. ) ;
#78 = CIRCLE ( 'NONE', #1031, 1.500000000000000888 ) ;
#79 = ORIENTED_EDGE ( 'NONE', *, *, #1133, .T. ) ;
#80 =( LENGTH_UNIT ( ) NAMED_UNIT ( * ) SI_UNIT ( .MILLI., .METRE. ) );
#81 = LINE ( 'NONE', #1040, #698 ) ;
#82 = LINE ( 'NONE', #342, #212 ) ;
#83 = VECTOR ( 'NONE', #424, 1000.000000000000000 ) ;
#84 = AXIS2_PLACEMENT_3D ( 'NONE', #1120, #1144, #186 ) ;
#85 = DIRECTION ( 'NONE',  ( 0.000000000000000000, 0.000000000000000000, 1.000000000000000000 ) ) ;
#86 = FACE_BOUND ( 'NONE', #462, .T. ) ;
#87 = DIRECTION ( 'NONE',  ( 0.000000000000000000, 0.000000000000000000, -1.000000000000000000 ) ) ;
#88 = ORIENTED_EDGE ( 'NONE', *, *, #690, .F. ) ;
#89 = EDGE_CURVE ( 'NONE', #849, #235, #814, .T. ) ;
#90 = FACE_OUTER_BOUND ( 'NONE', #253, .T. ) ;
#91 = EDGE_CURVE ( 'NONE', #503, #1052, #195, .T. ) ;
#92 = DIRECTION ( 'NONE',  ( -0.000000000000000000, 1.000000000000000000, -0.000000000000000000 ) ) ;
#93 = DIRECTION ( 'NONE',  ( 0.000000000000000000, 1.000000000000000000, -0.000000000000000000 ) ) ;
#94 = EDGE_LOOP ( 'NONE', ( #456, #894 ) ) ;
#95 = FACE_BOUND ( 'NONE', #679, .T. ) ;
#96 = VERTEX_POINT ( 'NONE', #10 ) ;
#97 = DIRECTION ( 'NONE',  ( 0.000000000000000000, 0.000000000000000000, 1.000000000000000000 ) ) ;
#98 = DIRECTION ( 'NONE',  ( -0.000000000000000000, -1.000000000000000000, -0.000000000000000000 ) ) ;
#99 = ORIENTED_EDGE ( 'NONE', *, *, #309, .F. ) ;
#100 = EDGE_CURVE ( 'NONE', #494, #503, #41, .T. ) ;
#101 = ORIENTED_EDGE ( 'NONE', *, *, #1126, .F. ) ;
#102 = FACE_BOUND ( 'NONE', #485, .T. ) ;
#103 = AXIS2_PLACEMENT_3D ( 'NONE', #669, #1005, #812 ) ;
#104 = VECTOR ( 'NONE', #1029, 1000.000000000000000 ) ;
#105 = EDGE_CURVE ( 'NONE', #856, #268, #317, .T. ) ;
#106 = EDGE_CURVE ( 'NONE', #1118, #129, #981, .T. ) ;
#107 = CYLINDRICAL_SURFACE ( 'NONE', #783, 1.500000000000009992 ) ;
#108 = DIRECTION ( 'NONE',  ( 5.782411586589370951E-17, 0.000000000000000000, -1.000000000000000000 ) ) ;
#109 = EDGE_CURVE ( 'NONE', #16, #904, #17, .T. ) ;
#110 = EDGE_CURVE ( 'NONE', #507, #919, #466, .T. ) ;
#111 = DIRECTION ( 'NONE',  ( 0.000000000000000000, 0.000000000000000000, 1.000000000000000000 ) ) ;
#112 = DIRECTION ( 'NONE',  ( 0.000000000000000000, 0.000000000000000000, 1.000000000000000000 ) ) ;
#113 = CARTESIAN_POINT ( 'NONE',  ( 20.77000000000014879, 3.000000000000000000, -5.440000000000832614 ) ) ;
#114 = CARTESIAN_POINT ( 'NONE',  ( 20.77000000000006708, 0.000000000000000000, -0.9400000000008544854 ) ) ;
#115 = CIRCLE ( 'NONE', #1045, 1.500000000000000444 ) ;
#116 = FACE_OUTER_BOUND ( 'NONE', #470, .T. ) ;
#117 = CARTESIAN_POINT ( 'NONE',  ( -29.99999999999998579, 3.000000000000000000, 17.49999999999999645 ) ) ;
#118 = DIRECTION ( 'NONE',  ( -0.000000000000000000, -1.000000000000000000, -0.000000000000000000 ) ) ;
#119 = AXIS2_PLACEMENT_3D ( 'NONE', #697, #432, #87 ) ;
#120 = VECTOR ( 'NONE', #958, 1000.000000000000000 ) ;
#121 = ORIENTED_EDGE ( 'NONE', *, *, #967, .F. ) ;
#122 = CARTESIAN_POINT ( 'NONE',  ( -26.00000000000000355, 2.999999999999999112, -16.09999999999998010 ) ) ;
#123 = DIRECTION ( 'NONE',  ( 0.000000000000000000, 1.000000000000000000, 0.000000000000000000 ) ) ;
#124 = AXIS2_PLACEMENT_3D ( 'NONE', #131, #399, #568 ) ;
#125 = EDGE_CURVE ( 'NONE', #919, #143, #942, .T. ) ;
#126 = CARTESIAN_POINT ( 'NONE',  ( 26.77000000000025182, 3.000000000000000000, -6.940000000000830838 ) ) ;
#127 = ORIENTED_EDGE ( 'NONE', *, *, #1101, .F. ) ;
#128 = AXIS2_PLACEMENT_3D ( 'NONE', #113, #643, #473 ) ;
#129 = VERTEX_POINT ( 'NONE', #900 ) ;
#130 = AXIS2_PLACEMENT_3D ( 'NONE', #170, #599, #68 ) ;
#131 = CARTESIAN_POINT ( 'NONE',  ( -30.00000000000000000, 0.000000000000000000, -17.50000000000000000 ) ) ;
#132 = ORIENTED_EDGE ( 'NONE', *, *, #413, .F. ) ;
#133 = CARTESIAN_POINT ( 'NONE',  ( -26.00000000000000355, -2.000000000000000888, -19.09999999999998010 ) ) ;
#134 = DIRECTION ( 'NONE',  ( 0.000000000000000000, 0.000000000000000000, 1.000000000000000000 ) ) ;
#135 = ORIENTED_EDGE ( 'NONE', *, *, #37, .F. ) ;
#136 = VERTEX_POINT ( 'NONE', #404 ) ;
#137 = VECTOR ( 'NONE', #460, 1000.000000000000000 ) ;
#138 = ADVANCED_FACE ( 'NONE', ( #219 ), #107, .F. ) ;
#139 = ORIENTED_EDGE ( 'NONE', *, *, #1081, .T. ) ;
#140 = EDGE_LOOP ( 'NONE', ( #397, #1091, #217, #247 ) ) ;
#141 = DIRECTION ( 'NONE',  ( 0.000000000000000000, 1.000000000000000000, 0.000000000000000000 ) ) ;
#142 = CIRCLE ( 'NONE', #700, 1.499999999999996891 ) ;
#143 = VERTEX_POINT ( 'NONE', #818 ) ;
#144 = ORIENTED_EDGE ( 'NONE', *, *, #110, .T. ) ;
#145 = ORIENTED_EDGE ( 'NONE', *, *, #125, .F. ) ;
#146 = LINE ( 'NONE', #598, #34 ) ;
#147 = VECTOR ( 'NONE', #280, 1000.000000000000000 ) ;
#148 = ADVANCED_FACE ( 'NONE', ( #116 ), #292, .F. ) ;
#149 = ORIENTED_EDGE ( 'NONE', *, *, #988, .T. ) ;
#150 = CARTESIAN_POINT ( 'NONE',  ( 20.77000000000006708, 0.000000000000000000, -0.9400000000008544854 ) ) ;
#151 = DIRECTION ( 'NONE',  ( -0.000000000000000000, 1.000000000000000000, -0.000000000000000000 ) ) ;
#152 = ORIENTED_EDGE ( 'NONE', *, *, #394, .F. ) ;
#153 = ORIENTED_EDGE ( 'NONE', *, *, #1070, .T. ) ;
#154 = CYLINDRICAL_SURFACE ( 'NONE', #312, 2.999999999999999112 ) ;
#155 = CARTESIAN_POINT ( 'NONE',  ( 26.76999999999996760, 0.000000000000000000, -0.9400000000008533751 ) ) ;
#156 = FACE_OUTER_BOUND ( 'NONE', #644, .T. ) ;
#157 = CIRCLE ( 'NONE', #982, 1.500000000000003997 ) ;
#158 = EDGE_LOOP ( 'NONE', ( #836, #794, #50, #804 ) ) ;
#159 = ADVANCED_FACE ( 'NONE', ( #476 ), #635, .F. ) ;
#160 = EDGE_LOOP ( 'NONE', ( #411, #1085, #630, #824 ) ) ;
#161 = PRESENTATION_STYLE_ASSIGNMENT (( #603 ) ) ;
#162 = AXIS2_PLACEMENT_3D ( 'NONE', #813, #898, #980 ) ;
#163 = CARTESIAN_POINT ( 'NONE',  ( 20.77000000000015234, 0.000000000000000000, 6.559999999999125642 ) ) ;
#164 = CARTESIAN_POINT ( 'NONE',  ( 30.00000000000000000, 0.000000000000000000, -17.49999999999999645 ) ) ;
#165 = VERTEX_POINT ( 'NONE', #753 ) ;
#166 = LINE ( 'NONE', #364, #461 ) ;
#167 = ORIENTED_EDGE ( 'NONE', *, *, #172, .F. ) ;
#168 = EDGE_CURVE ( 'NONE', #661, #492, #55, .T. ) ;
#169 = CYLINDRICAL_SURFACE ( 'NONE', #855, 1.499999999999996891 ) ;
#170 = CARTESIAN_POINT ( 'NONE',  ( 38.50000000000000000, 3.000000000000000000, -17.49999999999993605 ) ) ;
#171 = DIRECTION ( 'NONE',  ( 0.000000000000000000, 0.000000000000000000, 1.000000000000000000 ) ) ;
#172 = EDGE_CURVE ( 'NONE', #327, #425, #279, .T. ) ;
#173 = ADVANCED_FACE ( 'NONE', ( #705 ), #798, .F. ) ;
#174 = ORIENTED_EDGE ( 'NONE', *, *, #847, .T. ) ;
#175 = CARTESIAN_POINT ( 'NONE',  ( 20.77000000000014879, 0.000000000000000000, -5.440000000000832614 ) ) ;
#176 = DIRECTION ( 'NONE',  ( 0.000000000000000000, 0.000000000000000000, -1.000000000000000000 ) ) ;
#177 = CYLINDRICAL_SURFACE ( 'NONE', #762, 8.500000000000000000 ) ;
#178 = AXIS2_PLACEMENT_3D ( 'NONE', #175, #786, #3 ) ;
#179 = ADVANCED_FACE ( 'NONE', ( #442 ), #965, .F. ) ;
#180 = ADVANCED_FACE ( 'NONE', ( #723 ), #181, .T. ) ;
#181 = CYLINDRICAL_SURFACE ( 'NONE', #890, 8.500000000000000000 ) ;
#182 = CARTESIAN_POINT ( 'NONE',  ( -30.00000000000000000, 3.000000000000000000, -17.50000000000000000 ) ) ;
#183 = AXIS2_PLACEMENT_3D ( 'NONE', #336, #612, #953 ) ;
#184 = FACE_OUTER_BOUND ( 'NONE', #1141, .T. ) ;
#185 = FACE_BOUND ( 'NONE', #508, .T. ) ;
#186 = DIRECTION ( 'NONE',  ( 0.000000000000000000, 0.000000000000000000, 1.000000000000000000 ) ) ;
#187 = FILL_AREA_STYLE_COLOUR ( '', #1088 ) ;
#188 = CARTESIAN_POINT ( 'NONE',  ( 30.00000000000000000, 0.000000000000000000, -22.09999999999998721 ) ) ;
#189 = VERTEX_POINT ( 'NONE', #1059 ) ;
#190 = CARTESIAN_POINT ( 'NONE',  ( 32.77000000000035129, 0.000000000000000000, 5.059999999999110543 ) ) ;
#191 = VERTEX_POINT ( 'NONE', #974 ) ;
#192 =( NAMED_UNIT ( * ) PLANE_ANGLE_UNIT ( ) SI_UNIT ( $, .RADIAN. ) );
#193 = DIRECTION ( 'NONE',  ( -0.000000000000000000, 1.000000000000000000, -0.000000000000000000 ) ) ;
#194 = DIRECTION ( 'NONE',  ( 1.000000000000000000, 0.000000000000000000, 1.156482317317873944E-16 ) ) ;
#195 = CIRCLE ( 'NONE', #994, 1.499999999999996891 ) ;
#196 = DIRECTION ( 'NONE',  ( 0.000000000000000000, 0.000000000000000000, -1.000000000000000000 ) ) ;
#197 = AXIS2_PLACEMENT_3D ( 'NONE', #258, #449, #537 ) ;
#198 = FACE_OUTER_BOUND ( 'NONE', #39, .T. ) ;
#199 = CARTESIAN_POINT ( 'NONE',  ( 26.77000000000025182, 0.000000000000000000, -6.940000000000830838 ) ) ;
#200 = FACE_BOUND ( 'NONE', #403, .T. ) ;
#201 = CIRCLE ( 'NONE', #1116, 8.500000000000000000 ) ;
#202 = ORIENTED_EDGE ( 'NONE', *, *, #891, .F. ) ;
#203 = CARTESIAN_POINT ( 'NONE',  ( 32.77000000000035129, 3.000000000000000000, -5.440000000000834390 ) ) ;
#204 = FACE_OUTER_BOUND ( 'NONE', #613, .T. ) ;
#205 = EDGE_CURVE ( 'NONE', #809, #42, #81, .T. ) ;
#206 = ORIENTED_EDGE ( 'NONE', *, *, #271, .T. ) ;
#207 = DIRECTION ( 'NONE',  ( 0.000000000000000000, 1.000000000000000000, 0.000000000000000000 ) ) ;
#208 = DIRECTION ( 'NONE',  ( 0.000000000000000000, 0.000000000000000000, 1.000000000000000000 ) ) ;
#209 = EDGE_LOOP ( 'NONE', ( #581, #376 ) ) ;
#210 = VECTOR ( 'NONE', #226, 1000.000000000000000 ) ;
#211 = DIRECTION ( 'NONE',  ( 0.000000000000000000, 1.000000000000000000, -0.000000000000000000 ) ) ;
#212 = VECTOR ( 'NONE', #1015, 1000.000000000000000 ) ;
#213 = EDGE_LOOP ( 'NONE', ( #496, #1119, #766, #396 ) ) ;
#214 = ORIENTED_EDGE ( 'NONE', *, *, #967, .T. ) ;
#215 = DIRECTION ( 'NONE',  ( 0.000000000000000000, 0.000000000000000000, 1.000000000000000000 ) ) ;
#216 = EDGE_LOOP ( 'NONE', ( #773, #948, #777, #844 ) ) ;
#217 = ORIENTED_EDGE ( 'NONE', *, *, #895, .T. ) ;
#218 = DIRECTION ( 'NONE',  ( 3.965082230804144518E-16, 0.000000000000000000, 1.000000000000000000 ) ) ;
#219 = FACE_OUTER_BOUND ( 'NONE', #222, .T. ) ;
#220 = CARTESIAN_POINT ( 'NONE',  ( 20.77000000000015234, 3.000000000000000000, 6.559999999999125642 ) ) ;
#221 = ORIENTED_EDGE ( 'NONE', *, *, #445, .F. ) ;
#222 = EDGE_LOOP ( 'NONE', ( #33, #261, #799, #591 ) ) ;
#223 = ORIENTED_EDGE ( 'NONE', *, *, #1010, .F. ) ;
#224 = EDGE_CURVE ( 'NONE', #235, #1137, #402, .T. ) ;
#225 = CIRCLE ( 'NONE', #478, 1.499999999999996669 ) ;
#226 = DIRECTION ( 'NONE',  ( 3.965082230804144518E-16, 0.000000000000000000, 1.000000000000000000 ) ) ;
#227 = VERTEX_POINT ( 'NONE', #1047 ) ;
#228 = EDGE_CURVE ( 'NONE', #849, #96, #58, .T. ) ;
#229 = ADVANCED_FACE ( 'NONE', ( #23 ), #169, .F. ) ;
#230 = CIRCLE ( 'NONE', #1013, 1.500000000000000444 ) ;
#231 = EDGE_LOOP ( 'NONE', ( #28, #99, #933, #975 ) ) ;
#232 = DIRECTION ( 'NONE',  ( -0.000000000000000000, -1.000000000000000000, -0.000000000000000000 ) ) ;
#233 = CYLINDRICAL_SURFACE ( 'NONE', #910, 8.500000000000000000 ) ;
#234 = AXIS2_PLACEMENT_3D ( 'NONE', #220, #211, #915 ) ;
#235 = VERTEX_POINT ( 'NONE', #1134 ) ;
#236 = ORIENTED_EDGE ( 'NONE', *, *, #713, .T. ) ;
#237 = LINE ( 'NONE', #597, #294 ) ;
#238 = CARTESIAN_POINT ( 'NONE',  ( 9.000000000000001776, 0.000000000000000000, -19.09999999999998721 ) ) ;
#239 = DIRECTION ( 'NONE',  ( -0.000000000000000000, 1.000000000000000000, -0.000000000000000000 ) ) ;
#240 = DIRECTION ( 'NONE',  ( 0.000000000000000000, 0.000000000000000000, -1.000000000000000000 ) ) ;
#241 = APPLICATION_PROTOCOL_DEFINITION ( 'draft international standard', 'automotive_design', 1998, #1003 ) ;
#242 = AXIS2_PLACEMENT_3D ( 'NONE', #854, #426, #70 ) ;
#243 = CARTESIAN_POINT ( 'NONE',  ( 29.99999999999993960, 3.000000000000000000, -25.99999999999999645 ) ) ;
#244 = VECTOR ( 'NONE', #423, 1000.000000000000000 ) ;
#245 = CARTESIAN_POINT ( 'NONE',  ( 29.99999999999993605, 0.000000000000000000, 26.00000000000000000 ) ) ;
#246 = MANIFOLD_SOLID_BREP ( '∂Øƒ - âüÇµèoÇµ2', #474 ) ;
#247 = ORIENTED_EDGE ( 'NONE', *, *, #379, .F. ) ;
#248 = DIRECTION ( 'NONE',  ( 0.000000000000000000, 0.000000000000000000, 1.000000000000000000 ) ) ;
#249 = FACE_OUTER_BOUND ( 'NONE', #1033, .T. ) ;
#250 = EDGE_CURVE ( 'NONE', #718, #314, #1145, .T. ) ;
#251 = CARTESIAN_POINT ( 'NONE',  ( 20.77000000000014879, 0.000000000000000000, -3.940000000000832614 ) ) ;
#252 = EDGE_CURVE ( 'NONE', #1052, #503, #142, .T. ) ;
#253 = EDGE_LOOP ( 'NONE', ( #79, #43, #276, #583 ) ) ;
#254 = EDGE_CURVE ( 'NONE', #338, #904, #525, .T. ) ;
#255 = ORIENTED_EDGE ( 'NONE', *, *, #655, .F. ) ;
#256 = CARTESIAN_POINT ( 'NONE',  ( 20.77000000000015234, 3.000000000000000000, 8.059999999999124753 ) ) ;
#257 = DIRECTION ( 'NONE',  ( 0.000000000000000000, 0.000000000000000000, 1.000000000000000000 ) ) ;
#258 = CARTESIAN_POINT ( 'NONE',  ( 20.77000000000014879, 3.000000000000000000, -5.440000000000832614 ) ) ;
#259 = DIRECTION ( 'NONE',  ( 0.000000000000000000, 1.000000000000000000, -0.000000000000000000 ) ) ;
#260 = ORIENTED_EDGE ( 'NONE', *, *, #358, .F. ) ;
#261 = ORIENTED_EDGE ( 'NONE', *, *, #608, .F. ) ;
#262 = CARTESIAN_POINT ( 'NONE',  ( 32.77000000000006708, 3.000000000000000000, 2.059999999999139408 ) ) ;
#263 = CARTESIAN_POINT ( 'NONE',  ( -29.99999999999992539, 0.000000000000000000, 25.99999999999999645 ) ) ;
#264 = ORIENTED_EDGE ( 'NONE', *, *, #437, .F. ) ;
#265 = DIRECTION ( 'NONE',  ( -0.000000000000000000, 1.000000000000000000, -0.000000000000000000 ) ) ;
#266 = DIRECTION ( 'NONE',  ( -0.000000000000000000, 1.000000000000000000, -0.000000000000000000 ) ) ;
#267 = EDGE_CURVE ( 'NONE', #136, #867, #870, .T. ) ;
#268 = VERTEX_POINT ( 'NONE', #414 ) ;
#269 = ORIENTED_EDGE ( 'NONE', *, *, #1086, .T. ) ;
#270 = FACE_OUTER_BOUND ( 'NONE', #805, .T. ) ;
#271 = EDGE_CURVE ( 'NONE', #619, #565, #775, .T. ) ;
#272 = LINE ( 'NONE', #1125, #737 ) ;
#273 =( LENGTH_UNIT ( ) NAMED_UNIT ( * ) SI_UNIT ( .MILLI., .METRE. ) );
#274 = AXIS2_PLACEMENT_3D ( 'NONE', #834, #320, #670 ) ;
#275 = CIRCLE ( 'NONE', #754, 1.500000000000000444 ) ;
#276 = ORIENTED_EDGE ( 'NONE', *, *, #533, .F. ) ;
#277 = FACE_BOUND ( 'NONE', #838, .T. ) ;
#278 = CIRCLE ( 'NONE', #388, 1.500000000000000444 ) ;
#279 = LINE ( 'NONE', #1051, #137 ) ;
#280 = DIRECTION ( 'NONE',  ( -0.000000000000000000, -0.000000000000000000, -1.000000000000000000 ) ) ;
#281 = EDGE_CURVE ( 'NONE', #785, #856, #146, .T. ) ;
#282 = CARTESIAN_POINT ( 'NONE',  ( 20.77000000000014879, 0.000000000000000000, -5.440000000000832614 ) ) ;
#283 = FACE_BOUND ( 'NONE', #1109, .T. ) ;
#284 = ORIENTED_EDGE ( 'NONE', *, *, #267, .F. ) ;
#285 = DIRECTION ( 'NONE',  ( 1.000000000000000000, 0.000000000000000000, 0.000000000000000000 ) ) ;
#286 = CARTESIAN_POINT ( 'NONE',  ( 20.77000000000006708, 3.000000000000000000, 0.5599999999991466249 ) ) ;
#287 = ORIENTED_EDGE ( 'NONE', *, *, #691, .T. ) ;
#288 = CARTESIAN_POINT ( 'NONE',  ( 32.77000000000006708, 0.000000000000000000, 2.059999999999139408 ) ) ;
#289 = FACE_BOUND ( 'NONE', #907, .T. ) ;
#290 = CIRCLE ( 'NONE', #922, 1.500000000000003997 ) ;
#291 = CYLINDRICAL_SURFACE ( 'NONE', #791, 8.500000000000000000 ) ;
#292 = CYLINDRICAL_SURFACE ( 'NONE', #905, 1.500000000000000444 ) ;
#293 = CARTESIAN_POINT ( 'NONE',  ( 32.77000000000006708, 0.000000000000000000, 0.5599999999991428501 ) ) ;
#294 = VECTOR ( 'NONE', #218, 1000.000000000000000 ) ;
#295 = EDGE_CURVE ( 'NONE', #1011, #344, #78, .T. ) ;
#296 = VECTOR ( 'NONE', #4, 1000.000000000000000 ) ;
#297 = EDGE_LOOP ( 'NONE', ( #60, #590, #962, #340 ) ) ;
#298 = DIRECTION ( 'NONE',  ( -0.000000000000000000, -1.000000000000000000, 0.000000000000000000 ) ) ;
#299 = CARTESIAN_POINT ( 'NONE',  ( 26.76999999999996760, 0.000000000000000000, 2.059999999999140741 ) ) ;
#300 = ORIENTED_EDGE ( 'NONE', *, *, #847, .F. ) ;
#301 = ORIENTED_EDGE ( 'NONE', *, *, #382, .T. ) ;
#302 = CYLINDRICAL_SURFACE ( 'NONE', #823, 1.500000000000009992 ) ;
#303 = LINE ( 'NONE', #997, #36 ) ;
#304 = VERTEX_POINT ( 'NONE', #827 ) ;
#305 = VECTOR ( 'NONE', #795, 1000.000000000000000 ) ;
#306 = CIRCLE ( 'NONE', #530, 2.999999999999999112 ) ;
#307 = FACE_OUTER_BOUND ( 'NONE', #158, .T. ) ;
#308 = EDGE_LOOP ( 'NONE', ( #1111, #553 ) ) ;
#309 = EDGE_CURVE ( 'NONE', #714, #338, #157, .T. ) ;
#310 = CARTESIAN_POINT ( 'NONE',  ( 32.77000000000035129, 0.000000000000000000, 6.559999999999120313 ) ) ;
#311 = EDGE_CURVE ( 'NONE', #189, #998, #582, .T. ) ;
#312 = AXIS2_PLACEMENT_3D ( 'NONE', #1021, #1004, #215 ) ;
#313 = ORIENTED_EDGE ( 'NONE', *, *, #281, .T. ) ;
#314 = VERTEX_POINT ( 'NONE', #851 ) ;
#315 = ORIENTED_EDGE ( 'NONE', *, *, #382, .F. ) ;
#316 = CARTESIAN_POINT ( 'NONE',  ( 38.50000000000000000, 3.000000000000000000, -17.49999999999993605 ) ) ;
#317 = LINE ( 'NONE', #500, #418 ) ;
#318 = EDGE_CURVE ( 'NONE', #51, #268, #395, .T. ) ;
#319 = ORIENTED_EDGE ( 'NONE', *, *, #110, .F. ) ;
#320 = DIRECTION ( 'NONE',  ( 0.000000000000000000, 1.000000000000000000, 0.000000000000000000 ) ) ;
#321 = DIRECTION ( 'NONE',  ( -0.000000000000000000, 1.000000000000000000, -0.000000000000000000 ) ) ;
#322 = ORIENTED_EDGE ( 'NONE', *, *, #872, .F. ) ;
#323 = DIRECTION ( 'NONE',  ( -0.000000000000000000, -1.000000000000000000, -0.000000000000000000 ) ) ;
#324 = DIRECTION ( 'NONE',  ( 0.000000000000000000, 0.000000000000000000, -1.000000000000000000 ) ) ;
#325 = CARTESIAN_POINT ( 'NONE',  ( 32.77000000000035129, 0.000000000000000000, 6.559999999999120313 ) ) ;
#326 = ORIENTED_EDGE ( 'NONE', *, *, #752, .F. ) ;
#327 = VERTEX_POINT ( 'NONE', #122 ) ;
#328 = FACE_OUTER_BOUND ( 'NONE', #140, .T. ) ;
#329 = VECTOR ( 'NONE', #764, 1000.000000000000000 ) ;
#330 = DIRECTION ( 'NONE',  ( 0.000000000000000000, 0.000000000000000000, 1.000000000000000000 ) ) ;
#331 = DIRECTION ( 'NONE',  ( -0.000000000000000000, 1.000000000000000000, -0.000000000000000000 ) ) ;
#332 = AXIS2_PLACEMENT_3D ( 'NONE', #1002, #653, #208 ) ;
#333 = ORIENTED_EDGE ( 'NONE', *, *, #309, .T. ) ;
#334 = DIRECTION ( 'NONE',  ( 0.000000000000000000, 0.000000000000000000, 1.000000000000000000 ) ) ;
#335 = CARTESIAN_POINT ( 'NONE',  ( -38.50000000000000000, 3.000000000000000000, -17.49999999999994316 ) ) ;
#336 = CARTESIAN_POINT ( 'NONE',  ( 32.77000000000035129, 0.000000000000000000, 6.559999999999120313 ) ) ;
#337 = CIRCLE ( 'NONE', #431, 1.499999999999996891 ) ;
#338 = VERTEX_POINT ( 'NONE', #934 ) ;
#339 = CARTESIAN_POINT ( 'NONE',  ( 29.99999999999993605, 3.000000000000000000, 26.00000000000000000 ) ) ;
#340 = ORIENTED_EDGE ( 'NONE', *, *, #472, .T. ) ;
#341 = CARTESIAN_POINT ( 'NONE',  ( -38.50000000000000000, 3.000000000000000000, -17.49999999999993960 ) ) ;
#342 = CARTESIAN_POINT ( 'NONE',  ( -26.00000000000000355, -2.000000000000000888, -16.09999999999998010 ) ) ;
#343 = ORIENTED_EDGE ( 'NONE', *, *, #713, .F. ) ;
#344 = VERTEX_POINT ( 'NONE', #1114 ) ;
#345 =( NAMED_UNIT ( * ) PLANE_ANGLE_UNIT ( ) SI_UNIT ( $, .RADIAN. ) );
#346 = DIRECTION ( 'NONE',  ( 0.000000000000000000, 1.000000000000000000, -0.000000000000000000 ) ) ;
#347 = PRESENTATION_LAYER_ASSIGNMENT (  '', '', ( #1130 ) ) ;
#348 = DIRECTION ( 'NONE',  ( 0.000000000000000000, 1.000000000000000000, -0.000000000000000000 ) ) ;
#349 = CARTESIAN_POINT ( 'NONE',  ( 20.77000000000006708, 0.000000000000000000, 0.5599999999991466249 ) ) ;
#350 = CARTESIAN_POINT ( 'NONE',  ( -38.49999999999998579, 3.000000000000000000, 17.49999999999993605 ) ) ;
#351 = EDGE_LOOP ( 'NONE', ( #405, #926, #702, #269 ) ) ;
#352 = EDGE_CURVE ( 'NONE', #718, #327, #306, .T. ) ;
#353 = AXIS2_PLACEMENT_3D ( 'NONE', #984, #885, #467 ) ;
#354 = DIRECTION ( 'NONE',  ( -0.000000000000000000, 1.000000000000000000, -0.000000000000000000 ) ) ;
#355 = DIRECTION ( 'NONE',  ( 0.000000000000000000, 1.000000000000000000, 0.000000000000000000 ) ) ;
#356 = EDGE_CURVE ( 'NONE', #143, #919, #995, .T. ) ;
#357 = CYLINDRICAL_SURFACE ( 'NONE', #561, 1.500000000000003997 ) ;
#358 = EDGE_CURVE ( 'NONE', #412, #129, #688, .T. ) ;
#359 = EDGE_CURVE ( 'NONE', #304, #191, #750, .T. ) ;
#360 = FACE_OUTER_BOUND ( 'NONE', #1135, .T. ) ;
#361 =( NAMED_UNIT ( * ) SI_UNIT ( $, .STERADIAN. ) SOLID_ANGLE_UNIT ( ) );
#362 = DIRECTION ( 'NONE',  ( -0.000000000000000000, 1.000000000000000000, -0.000000000000000000 ) ) ;
#363 = CARTESIAN_POINT ( 'NONE',  ( 20.77000000000015234, 3.000000000000000000, 5.059999999999124753 ) ) ;
#364 = CARTESIAN_POINT ( 'NONE',  ( -26.00000000000000355, -2.000000000000000888, -22.09999999999997655 ) ) ;
#365 = CARTESIAN_POINT ( 'NONE',  ( 26.77000000000025182, 3.000000000000000000, -5.440000000000833502 ) ) ;
#366 = ORIENTED_EDGE ( 'NONE', *, *, #413, .T. ) ;
#367 = AXIS2_PLACEMENT_3D ( 'NONE', #722, #346, #520 ) ;
#368 = CARTESIAN_POINT ( 'NONE',  ( -38.49999999999998579, 0.000000000000000000, 17.49999999999993605 ) ) ;
#369 = ADVANCED_BREP_SHAPE_REPRESENTATION ( 'Copy of Part6^Assem5_Assem3', ( #246, #721 ), #390 ) ;
#370 = DIRECTION ( 'NONE',  ( 0.000000000000000000, 0.000000000000000000, 1.000000000000000000 ) ) ;
#371 = SURFACE_STYLE_USAGE ( .BOTH. , #617 ) ;
#372 = CIRCLE ( 'NONE', #332, 8.500000000000000000 ) ;
#373 = ORIENTED_EDGE ( 'NONE', *, *, #168, .T. ) ;
#374 = PLANE ( 'NONE',  #353 ) ;
#375 = CYLINDRICAL_SURFACE ( 'NONE', #392, 1.499999999999996891 ) ;
#376 = ORIENTED_EDGE ( 'NONE', *, *, #825, .T. ) ;
#377 = DIRECTION ( 'NONE',  ( -0.000000000000000000, 1.000000000000000000, -0.000000000000000000 ) ) ;
#378 = CARTESIAN_POINT ( 'NONE',  ( 20.77000000000015234, 0.000000000000000000, 8.059999999999124753 ) ) ;
#379 = EDGE_CURVE ( 'NONE', #831, #1011, #559, .T. ) ;
#380 = FACE_OUTER_BOUND ( 'NONE', #656, .T. ) ;
#381 = EDGE_CURVE ( 'NONE', #136, #387, #1008, .T. ) ;
#382 = EDGE_CURVE ( 'NONE', #387, #619, #1050, .T. ) ;
#383 = DIRECTION ( 'NONE',  ( -1.000000000000000000, -0.000000000000000000, -1.156482317317873944E-16 ) ) ;
#384 = VECTOR ( 'NONE', #983, 1000.000000000000000 ) ;
#385 = CARTESIAN_POINT ( 'NONE',  ( -26.00000000000000355, 0.000000000000000000, -22.09999999999997655 ) ) ;
#386 = EDGE_CURVE ( 'NONE', #873, #344, #53, .T. ) ;
#387 = VERTEX_POINT ( 'NONE', #389 ) ;
#388 = AXIS2_PLACEMENT_3D ( 'NONE', #659, #848, #996 ) ;
#389 = CARTESIAN_POINT ( 'NONE',  ( -38.49999999999998579, 3.000000000000000000, 17.49999999999993605 ) ) ;
#390 =( GEOMETRIC_REPRESENTATION_CONTEXT ( 3 ) GLOBAL_UNCERTAINTY_ASSIGNED_CONTEXT ( ( #499 ) ) GLOBAL_UNIT_ASSIGNED_CONTEXT ( ( #66, #345, #1038 ) ) REPRESENTATION_CONTEXT ( 'NONE', 'WORKASPACE' ) );
#391 = SURFACE_STYLE_FILL_AREA ( #883 ) ;
#392 = AXIS2_PLACEMENT_3D ( 'NONE', #978, #193, #547 ) ;
#393 = ORIENTED_EDGE ( 'NONE', *, *, #59, .T. ) ;
#394 = EDGE_CURVE ( 'NONE', #704, #1118, #846, .T. ) ;
#395 = LINE ( 'NONE', #939, #497 ) ;
#396 = ORIENTED_EDGE ( 'NONE', *, *, #252, .T. ) ;
#397 = ORIENTED_EDGE ( 'NONE', *, *, #49, .F. ) ;
#398 = FACE_OUTER_BOUND ( 'NONE', #767, .T. ) ;
#399 = DIRECTION ( 'NONE',  ( 0.000000000000000000, 1.000000000000000000, 0.000000000000000000 ) ) ;
#400 = ORIENTED_EDGE ( 'NONE', *, *, #458, .T. ) ;
#401 = ORIENTED_EDGE ( 'NONE', *, *, #577, .T. ) ;
#402 = CIRCLE ( 'NONE', #197, 1.500000000000000444 ) ;
#403 = EDGE_LOOP ( 'NONE', ( #465, #1024 ) ) ;
#404 = CARTESIAN_POINT ( 'NONE',  ( -38.50000000000000000, 3.000000000000000000, -17.49999999999994316 ) ) ;
#405 = ORIENTED_EDGE ( 'NONE', *, *, #1101, .T. ) ;
#406 = AXIS2_PLACEMENT_3D ( 'NONE', #540, #1105, #584 ) ;
#407 = ORIENTED_EDGE ( 'NONE', *, *, #352, .F. ) ;
#408 = FACE_OUTER_BOUND ( 'NONE', #446, .T. ) ;
#409 = DIRECTION ( 'NONE',  ( 0.000000000000000000, 0.000000000000000000, 1.000000000000000000 ) ) ;
#410 = ORIENTED_EDGE ( 'NONE', *, *, #386, .F. ) ;
#411 = ORIENTED_EDGE ( 'NONE', *, *, #1081, .F. ) ;
#412 = VERTEX_POINT ( 'NONE', #1106 ) ;
#413 = EDGE_CURVE ( 'NONE', #904, #16, #290, .T. ) ;
#414 = CARTESIAN_POINT ( 'NONE',  ( -29.99999999999993605, 0.000000000000000000, -26.00000000000000355 ) ) ;
#415 = CARTESIAN_POINT ( 'NONE',  ( 26.76999999999996760, 0.000000000000000000, 0.5599999999991436272 ) ) ;
#416 = ORIENTED_EDGE ( 'NONE', *, *, #311, .F. ) ;
#417 = ORIENTED_EDGE ( 'NONE', *, *, #356, .F. ) ;
#418 = VECTOR ( 'NONE', #383, 1000.000000000000000 ) ;
#419 = ORIENTED_EDGE ( 'NONE', *, *, #250, .T. ) ;
#420 = CARTESIAN_POINT ( 'NONE',  ( 26.77000000000025182, 3.000000000000000000, -3.940000000000837055 ) ) ;
#421 = EDGE_CURVE ( 'NONE', #1012, #427, #694, .T. ) ;
#422 = AXIS2_PLACEMENT_3D ( 'NONE', #2, #92, #370 ) ;
#423 = DIRECTION ( 'NONE',  ( -0.000000000000000000, -1.000000000000000000, -0.000000000000000000 ) ) ;
#424 = DIRECTION ( 'NONE',  ( -0.000000000000000000, 1.000000000000000000, -0.000000000000000000 ) ) ;
#425 = VERTEX_POINT ( 'NONE', #769 ) ;
#426 = DIRECTION ( 'NONE',  ( 0.000000000000000000, 1.000000000000000000, 0.000000000000000000 ) ) ;
#427 = VERTEX_POINT ( 'NONE', #429 ) ;
#428 = CIRCLE ( 'NONE', #772, 1.500000000000009992 ) ;
#429 = CARTESIAN_POINT ( 'NONE',  ( 38.50000000000000000, 0.000000000000000000, 17.49999999999993960 ) ) ;
#430 = FACE_OUTER_BOUND ( 'NONE', #480, .T. ) ;
#431 = AXIS2_PLACEMENT_3D ( 'NONE', #415, #123, #1089 ) ;
#432 = DIRECTION ( 'NONE',  ( 0.000000000000000000, 1.000000000000000000, -0.000000000000000000 ) ) ;
#433 = EDGE_LOOP ( 'NONE', ( #569, #1053 ) ) ;
#434 = CARTESIAN_POINT ( 'NONE',  ( 20.77000000000014879, 0.000000000000000000, -5.440000000000832614 ) ) ;
#435 = DIRECTION ( 'NONE',  ( -0.000000000000000000, -1.000000000000000000, -0.000000000000000000 ) ) ;
#436 = DIRECTION ( 'NONE',  ( 0.000000000000000000, 0.000000000000000000, 1.000000000000000000 ) ) ;
#437 = EDGE_CURVE ( 'NONE', #987, #661, #1121, .T. ) ;
#438 = CARTESIAN_POINT ( 'NONE',  ( 26.77000000000025182, 0.000000000000000000, -3.940000000000837055 ) ) ;
#439 = ADVANCED_FACE ( 'NONE', ( #802 ), #74, .F. ) ;
#440 = EDGE_LOOP ( 'NONE', ( #797, #924, #12, #152 ) ) ;
#441 = ORIENTED_EDGE ( 'NONE', *, *, #254, .T. ) ;
#442 = FACE_OUTER_BOUND ( 'NONE', #560, .T. ) ;
#443 = AXIS2_PLACEMENT_3D ( 'NONE', #238, #585, #675 ) ;
#444 = FACE_OUTER_BOUND ( 'NONE', #25, .T. ) ;
#445 = EDGE_CURVE ( 'NONE', #507, #596, #225, .T. ) ;
#446 = EDGE_LOOP ( 'NONE', ( #822, #1017, #587, #1043 ) ) ;
#447 =( NAMED_UNIT ( * ) PLANE_ANGLE_UNIT ( ) SI_UNIT ( $, .RADIAN. ) );
#448 = CIRCLE ( 'NONE', #684, 8.500000000000000000 ) ;
#449 = DIRECTION ( 'NONE',  ( 0.000000000000000000, 1.000000000000000000, 0.000000000000000000 ) ) ;
#450 = CARTESIAN_POINT ( 'NONE',  ( 20.77000000000006708, 0.000000000000000000, 2.059999999999147402 ) ) ;
#451 = CIRCLE ( 'NONE', #1077, 8.500000000000000000 ) ;
#452 = CARTESIAN_POINT ( 'NONE',  ( 38.50000000000000000, 3.000000000000000000, -17.49999999999993605 ) ) ;
#453 = FACE_BOUND ( 'NONE', #209, .T. ) ;
#454 = CARTESIAN_POINT ( 'NONE',  ( 26.77000000000025537, 0.000000000000000000, 5.059999999999125642 ) ) ;
#455 = EDGE_CURVE ( 'NONE', #785, #51, #711, .T. ) ;
#456 = ORIENTED_EDGE ( 'NONE', *, *, #743, .T. ) ;
#457 = FACE_BOUND ( 'NONE', #433, .T. ) ;
#458 = EDGE_CURVE ( 'NONE', #191, #189, #964, .T. ) ;
#459 = CYLINDRICAL_SURFACE ( 'NONE', #422, 1.499999999999996891 ) ;
#460 = DIRECTION ( 'NONE',  ( 1.000000000000000000, 0.000000000000000000, -1.982541115402065110E-16 ) ) ;
#461 = VECTOR ( 'NONE', #512, 1000.000000000000000 ) ;
#462 = EDGE_LOOP ( 'NONE', ( #937, #121 ) ) ;
#463 = CARTESIAN_POINT ( 'NONE',  ( 26.76999999999996760, 0.000000000000000000, 0.5599999999991436272 ) ) ;
#464 = ADVANCED_FACE ( 'NONE', ( #945 ), #459, .F. ) ;
#465 = ORIENTED_EDGE ( 'NONE', *, *, #106, .F. ) ;
#466 = LINE ( 'NONE', #288, #384 ) ;
#467 = DIRECTION ( 'NONE',  ( 0.000000000000000000, -0.000000000000000000, -1.000000000000000000 ) ) ;
#468 = EDGE_CURVE ( 'NONE', #425, #314, #906, .T. ) ;
#469 = CARTESIAN_POINT ( 'NONE',  ( 32.77000000000035129, 3.000000000000000000, -6.940000000000838831 ) ) ;
#470 = EDGE_LOOP ( 'NONE', ( #1132, #911, #696, #326 ) ) ;
#471 = DIRECTION ( 'NONE',  ( -1.156482317317873944E-16, 0.000000000000000000, 1.000000000000000000 ) ) ;
#472 = EDGE_CURVE ( 'NONE', #619, #227, #864, .T. ) ;
#473 = DIRECTION ( 'NONE',  ( 0.000000000000000000, 0.000000000000000000, 1.000000000000000000 ) ) ;
#474 = CLOSED_SHELL ( 'NONE', ( #173, #758, #464, #724, #159, #888, #595, #148, #1068, #180, #73, #853, #501, #734, #993, #20, #760, #954, #923, #1032, #1036, #1094, #1069, #1087, #179, #138, #1112, #439, #54, #789, #841, #229 ) ) ;
#475 = CARTESIAN_POINT ( 'NONE',  ( 26.77000000000025537, 0.000000000000000000, 6.559999999999122977 ) ) ;
#476 = FACE_OUTER_BOUND ( 'NONE', #216, .T. ) ;
#477 = DIRECTION ( 'NONE',  ( 0.000000000000000000, 0.000000000000000000, 1.000000000000000000 ) ) ;
#478 = AXIS2_PLACEMENT_3D ( 'NONE', #1127, #616, #541 ) ;
#479 = DIRECTION ( 'NONE',  ( 0.000000000000000000, 1.000000000000000000, 0.000000000000000000 ) ) ;
#480 = EDGE_LOOP ( 'NONE', ( #837, #843, #63, #57 ) ) ;
#481 = AXIS2_PLACEMENT_3D ( 'NONE', #516, #355, #1136 ) ;
#482 = DIRECTION ( 'NONE',  ( -0.000000000000000000, 1.000000000000000000, -0.000000000000000000 ) ) ;
#483 = CIRCLE ( 'NONE', #24, 1.500000000000000888 ) ;
#484 = FACE_OUTER_BOUND ( 'NONE', #634, .T. ) ;
#485 = EDGE_LOOP ( 'NONE', ( #755, #668 ) ) ;
#486 = ORIENTED_EDGE ( 'NONE', *, *, #655, .T. ) ;
#487 = DIRECTION ( 'NONE',  ( 0.000000000000000000, 1.000000000000000000, -0.000000000000000000 ) ) ;
#488 = DIRECTION ( 'NONE',  ( -0.000000000000000000, 1.000000000000000000, -0.000000000000000000 ) ) ;
#489 = ORIENTED_EDGE ( 'NONE', *, *, #801, .T. ) ;
#490 = EDGE_LOOP ( 'NONE', ( #202, #672, #401, #264 ) ) ;
#491 = CARTESIAN_POINT ( 'NONE',  ( 20.77000000000006708, 0.000000000000000000, 0.5599999999991466249 ) ) ;
#492 = VERTEX_POINT ( 'NONE', #779 ) ;
#493 = LINE ( 'NONE', #30, #686 ) ;
#494 = VERTEX_POINT ( 'NONE', #1034 ) ;
#495 = AXIS2_PLACEMENT_3D ( 'NONE', #892, #1066, #112 ) ;
#496 = ORIENTED_EDGE ( 'NONE', *, *, #100, .F. ) ;
#497 = VECTOR ( 'NONE', #232, 1000.000000000000000 ) ;
#498 = ORIENTED_EDGE ( 'NONE', *, *, #972, .T. ) ;
#499 = UNCERTAINTY_MEASURE_WITH_UNIT (LENGTH_MEASURE( 1.000000000000000082E-05 ), #66, 'distance_accuracy_value', 'NONE');
#500 = CARTESIAN_POINT ( 'NONE',  ( -29.99999999999993605, 0.000000000000000000, -26.00000000000000355 ) ) ;
#501 = ADVANCED_FACE ( 'NONE', ( #249 ), #951, .F. ) ;
#502 = AXIS2_PLACEMENT_3D ( 'NONE', #293, #649, #719 ) ;
#503 = VERTEX_POINT ( 'NONE', #126 ) ;
#504 = DIRECTION ( 'NONE',  ( -0.000000000000000000, -1.000000000000000000, -0.000000000000000000 ) ) ;
#505 = CARTESIAN_POINT ( 'NONE',  ( -29.99999999999998579, 3.000000000000000000, 25.99999999999999645 ) ) ;
#506 = EDGE_CURVE ( 'NONE', #191, #425, #303, .T. ) ;
#507 = VERTEX_POINT ( 'NONE', #1090 ) ;
#508 = EDGE_LOOP ( 'NONE', ( #255, #955 ) ) ;
#509 = CARTESIAN_POINT ( 'NONE',  ( 32.77000000000035129, 3.000000000000000000, -5.440000000000834390 ) ) ;
#510 = DIRECTION ( 'NONE',  ( 0.000000000000000000, 1.000000000000000000, -0.000000000000000000 ) ) ;
#511 = ORIENTED_EDGE ( 'NONE', *, *, #1078, .T. ) ;
#512 = DIRECTION ( 'NONE',  ( -0.000000000000000000, 1.000000000000000000, -0.000000000000000000 ) ) ;
#513 = CARTESIAN_POINT ( 'NONE',  ( 26.77000000000025182, 0.000000000000000000, -5.440000000000833502 ) ) ;
#514 = VECTOR ( 'NONE', #435, 1000.000000000000000 ) ;
#515 = DIRECTION ( 'NONE',  ( 0.000000000000000000, 1.000000000000000000, 0.000000000000000000 ) ) ;
#516 = CARTESIAN_POINT ( 'NONE',  ( 20.77000000000006708, 0.000000000000000000, 0.5599999999991466249 ) ) ;
#517 = AXIS2_PLACEMENT_3D ( 'NONE', #961, #510, #176 ) ;
#518 = AXIS2_PLACEMENT_3D ( 'NONE', #893, #108, #11 ) ;
#519 = SURFACE_STYLE_FILL_AREA ( #1028 ) ;
#520 = DIRECTION ( 'NONE',  ( 0.000000000000000000, 0.000000000000000000, 1.000000000000000000 ) ) ;
#521 = EDGE_CURVE ( 'NONE', #227, #29, #671, .T. ) ;
#522 = CARTESIAN_POINT ( 'NONE',  ( 20.77000000000015234, 0.000000000000000000, 6.559999999999125642 ) ) ;
#523 = EDGE_CURVE ( 'NONE', #42, #165, #1107, .T. ) ;
#524 = EDGE_LOOP ( 'NONE', ( #287, #676 ) ) ;
#525 = LINE ( 'NONE', #792, #549 ) ;
#526 = CARTESIAN_POINT ( 'NONE',  ( 32.77000000000006708, 0.000000000000000000, 0.5599999999991428501 ) ) ;
#527 = FACE_OUTER_BOUND ( 'NONE', #351, .T. ) ;
#528 = ORIENTED_EDGE ( 'NONE', *, *, #872, .T. ) ;
#529 = DIRECTION ( 'NONE',  ( -0.000000000000000000, 1.000000000000000000, -0.000000000000000000 ) ) ;
#530 = AXIS2_PLACEMENT_3D ( 'NONE', #62, #562, #991 ) ;
#531 = CARTESIAN_POINT ( 'NONE',  ( 32.77000000000006708, 0.000000000000000000, 0.5599999999991428501 ) ) ;
#532 = CARTESIAN_POINT ( 'NONE',  ( 32.77000000000035129, 0.000000000000000000, -5.440000000000834390 ) ) ;
#533 = EDGE_CURVE ( 'NONE', #998, #718, #166, .T. ) ;
#534 = DIRECTION ( 'NONE',  ( 1.000000000000000000, 0.000000000000000000, 5.782411586589370951E-17 ) ) ;
#535 = AXIS2_PLACEMENT_3D ( 'NONE', #76, #1122, #436 ) ;
#536 = STYLED_ITEM ( 'NONE', ( #161 ), #369 ) ;
#537 = DIRECTION ( 'NONE',  ( 0.000000000000000000, 0.000000000000000000, 1.000000000000000000 ) ) ;
#538 = LINE ( 'NONE', #188, #296 ) ;
#539 = CARTESIAN_POINT ( 'NONE',  ( 32.77000000000035129, 3.000000000000000000, -3.940000000000830838 ) ) ;
#540 = CARTESIAN_POINT ( 'NONE',  ( -3.191891195797321504E-15, -2.000000000000000888, -16.09999999999998366 ) ) ;
#541 = DIRECTION ( 'NONE',  ( 0.000000000000000000, 0.000000000000000000, 1.000000000000000000 ) ) ;
#542 = DIRECTION ( 'NONE',  ( 0.000000000000000000, 0.000000000000000000, 1.000000000000000000 ) ) ;
#543 = EDGE_CURVE ( 'NONE', #129, #1118, #601, .T. ) ;
#544 = CARTESIAN_POINT ( 'NONE',  ( 20.77000000000014879, 0.000000000000000000, -6.940000000000834390 ) ) ;
#545 = ORIENTED_EDGE ( 'NONE', *, *, #458, .F. ) ;
#546 = FACE_BOUND ( 'NONE', #874, .T. ) ;
#547 = DIRECTION ( 'NONE',  ( 0.000000000000000000, 0.000000000000000000, 1.000000000000000000 ) ) ;
#548 = DIRECTION ( 'NONE',  ( -0.000000000000000000, 1.000000000000000000, -0.000000000000000000 ) ) ;
#549 = VECTOR ( 'NONE', #716, 1000.000000000000000 ) ;
#550 = CARTESIAN_POINT ( 'NONE',  ( 26.77000000000025537, 0.000000000000000000, 8.059999999999119424 ) ) ;
#551 = DIRECTION ( 'NONE',  ( 0.000000000000000000, 0.000000000000000000, -1.000000000000000000 ) ) ;
#552 = AXIS2_PLACEMENT_3D ( 'NONE', #491, #680, #334 ) ;
#553 = ORIENTED_EDGE ( 'NONE', *, *, #1010, .T. ) ;
#554 = CARTESIAN_POINT ( 'NONE',  ( 32.77000000000006708, 3.000000000000000000, 0.5599999999991428501 ) ) ;
#555 = DIRECTION ( 'NONE',  ( 0.000000000000000000, 0.000000000000000000, 1.000000000000000000 ) ) ;
#556 = ORIENTED_EDGE ( 'NONE', *, *, #437, .T. ) ;
#557 = CARTESIAN_POINT ( 'NONE',  ( 38.50000000000000000, 0.000000000000000000, -17.49999999999993605 ) ) ;
#558 = DIRECTION ( 'NONE',  ( -0.000000000000000000, 1.000000000000000000, -0.000000000000000000 ) ) ;
#559 = LINE ( 'NONE', #592, #18 ) ;
#560 = EDGE_LOOP ( 'NONE', ( #1026, #101, #699, #498 ) ) ;
#561 = AXIS2_PLACEMENT_3D ( 'NONE', #532, #362, #85 ) ;
#562 = DIRECTION ( 'NONE',  ( 0.000000000000000000, 1.000000000000000000, -0.000000000000000000 ) ) ;
#563 = CARTESIAN_POINT ( 'NONE',  ( 32.77000000000006708, 0.000000000000000000, -0.9400000000008537082 ) ) ;
#564 = AXIS2_PLACEMENT_3D ( 'NONE', #821, #739, #628 ) ;
#565 = VERTEX_POINT ( 'NONE', #339 ) ;
#566 = AXIS2_PLACEMENT_3D ( 'NONE', #526, #780, #64 ) ;
#567 = VECTOR ( 'NONE', #265, 1000.000000000000000 ) ;
#568 = DIRECTION ( 'NONE',  ( 0.000000000000000000, 0.000000000000000000, 1.000000000000000000 ) ) ;
#569 = ORIENTED_EDGE ( 'NONE', *, *, #295, .F. ) ;
#570 = ORIENTED_EDGE ( 'NONE', *, *, #168, .F. ) ;
#571 = DIRECTION ( 'NONE',  ( 0.000000000000000000, 1.000000000000000000, 0.000000000000000000 ) ) ;
#572 = PRODUCT ( 'Copy of Part6^Assem5_Assem3', 'Copy of Part6^Assem5_Assem3', '', ( #810 ) ) ;
#573 = ORIENTED_EDGE ( 'NONE', *, *, #866, .F. ) ;
#574 = ORIENTED_EDGE ( 'NONE', *, *, #109, .F. ) ;
#575 = DIRECTION ( 'NONE',  ( 0.000000000000000000, 1.000000000000000000, 0.000000000000000000 ) ) ;
#576 = DIRECTION ( 'NONE',  ( 0.000000000000000000, 0.000000000000000000, 1.000000000000000000 ) ) ;
#577 = EDGE_CURVE ( 'NONE', #492, #661, #32, .T. ) ;
#578 = DIRECTION ( 'NONE',  ( 0.000000000000000000, 1.000000000000000000, 0.000000000000000000 ) ) ;
#579 = EDGE_LOOP ( 'NONE', ( #570, #941 ) ) ;
#580 = VECTOR ( 'NONE', #647, 1000.000000000000000 ) ;
#581 = ORIENTED_EDGE ( 'NONE', *, *, #608, .T. ) ;
#582 = CIRCLE ( 'NONE', #660, 2.999999999999999112 ) ;
#583 = ORIENTED_EDGE ( 'NONE', *, *, #869, .F. ) ;
#584 = DIRECTION ( 'NONE',  ( 1.000000000000000000, 0.000000000000000000, -1.982541115402065110E-16 ) ) ;
#585 = DIRECTION ( 'NONE',  ( -0.000000000000000000, -1.000000000000000000, 0.000000000000000000 ) ) ;
#586 = EDGE_CURVE ( 'NONE', #387, #943, #862, .T. ) ;
#587 = ORIENTED_EDGE ( 'NONE', *, *, #352, .T. ) ;
#588 = EDGE_CURVE ( 'NONE', #565, #1012, #914, .T. ) ;
#589 = EDGE_LOOP ( 'NONE', ( #763, #167, #407, #419 ) ) ;
#590 = ORIENTED_EDGE ( 'NONE', *, *, #1086, .F. ) ;
#591 = ORIENTED_EDGE ( 'NONE', *, *, #523, .T. ) ;
#592 = CARTESIAN_POINT ( 'NONE',  ( 20.77000000000006708, 0.000000000000000000, 2.059999999999147402 ) ) ;
#593 = LINE ( 'NONE', #935, #648 ) ;
#594 = EDGE_LOOP ( 'NONE', ( #88, #135, #1007, #486 ) ) ;
#595 = ADVANCED_FACE ( 'NONE', ( #484 ), #302, .F. ) ;
#596 = VERTEX_POINT ( 'NONE', #563 ) ;
#597 = CARTESIAN_POINT ( 'NONE',  ( -38.50000000000000000, 0.000000000000000000, -17.49999999999993960 ) ) ;
#598 = CARTESIAN_POINT ( 'NONE',  ( 29.99999999999993960, 3.000000000000000000, -25.99999999999999645 ) ) ;
#599 = DIRECTION ( 'NONE',  ( -1.000000000000000000, 0.000000000000000000, 0.000000000000000000 ) ) ;
#600 = ORIENTED_EDGE ( 'NONE', *, *, #125, .T. ) ;
#601 = CIRCLE ( 'NONE', #242, 1.499999999999996891 ) ;
#602 = AXIS2_PLACEMENT_3D ( 'NONE', #19, #548, #979 ) ;
#603 = SURFACE_STYLE_USAGE ( .BOTH. , #880 ) ;
#604 = MECHANICAL_DESIGN_GEOMETRIC_PRESENTATION_REPRESENTATION (  '', ( #1130 ), #640 ) ;
#605 = CARTESIAN_POINT ( 'NONE',  ( 30.00000000000000000, 0.000000000000000000, -16.09999999999999076 ) ) ;
#606 = CARTESIAN_POINT ( 'NONE',  ( 32.77000000000035129, 0.000000000000000000, 8.059999999999130083 ) ) ;
#607 = EDGE_LOOP ( 'NONE', ( #333, #236 ) ) ;
#608 = EDGE_CURVE ( 'NONE', #809, #949, #428, .T. ) ;
#609 = CIRCLE ( 'NONE', #790, 1.500000000000009992 ) ;
#610 = ORIENTED_EDGE ( 'NONE', *, *, #586, .F. ) ;
#611 = PLANE ( 'NONE',  #771 ) ;
#612 = DIRECTION ( 'NONE',  ( 0.000000000000000000, 1.000000000000000000, -0.000000000000000000 ) ) ;
#613 = EDGE_LOOP ( 'NONE', ( #400, #932, #759, #865 ) ) ;
#614 = ORIENTED_EDGE ( 'NONE', *, *, #295, .T. ) ;
#615 = DIRECTION ( 'NONE',  ( 0.000000000000000000, 1.000000000000000000, 0.000000000000000000 ) ) ;
#616 = DIRECTION ( 'NONE',  ( 0.000000000000000000, 1.000000000000000000, 0.000000000000000000 ) ) ;
#617 = SURFACE_SIDE_STYLE ('',( #391 ) ) ;
#618 = CARTESIAN_POINT ( 'NONE',  ( 26.77000000000025182, 0.000000000000000000, -5.440000000000833502 ) ) ;
#619 = VERTEX_POINT ( 'NONE', #505 ) ;
#620 = DIRECTION ( 'NONE',  ( 1.982541115402065110E-16, 0.000000000000000000, 1.000000000000000000 ) ) ;
#621 = AXIS2_PLACEMENT_3D ( 'NONE', #554, #897, #1061 ) ;
#622 = VECTOR ( 'NONE', #903, 1000.000000000000000 ) ;
#623 = VERTEX_POINT ( 'NONE', #992 ) ;
#624 = DIRECTION ( 'NONE',  ( -0.000000000000000000, -0.000000000000000000, -1.000000000000000000 ) ) ;
#625 = VECTOR ( 'NONE', #816, 1000.000000000000000 ) ;
#626 = CARTESIAN_POINT ( 'NONE',  ( -4.381415865038559584E-15, -2.000000000000000888, -22.09999999999998010 ) ) ;
#627 = VECTOR ( 'NONE', #323, 1000.000000000000000 ) ;
#628 = DIRECTION ( 'NONE',  ( 0.000000000000000000, 0.000000000000000000, 1.000000000000000000 ) ) ;
#629 = AXIS2_PLACEMENT_3D ( 'NONE', #1084, #321, #1006 ) ;
#630 = ORIENTED_EDGE ( 'NONE', *, *, #91, .T. ) ;
#631 = CARTESIAN_POINT ( 'NONE',  ( 26.77000000000025182, 0.000000000000000000, -3.940000000000837055 ) ) ;
#632 = CARTESIAN_POINT ( 'NONE',  ( 26.76999999999996760, 0.000000000000000000, 0.5599999999991436272 ) ) ;
#633 = DIRECTION ( 'NONE',  ( 0.000000000000000000, 0.000000000000000000, -1.000000000000000000 ) ) ;
#634 = EDGE_LOOP ( 'NONE', ( #740, #751, #214, #77 ) ) ;
#635 = CYLINDRICAL_SURFACE ( 'NONE', #602, 1.499999999999999556 ) ;
#636 = FACE_OUTER_BOUND ( 'NONE', #761, .T. ) ;
#637 = APPLICATION_PROTOCOL_DEFINITION ( 'draft international standard', 'automotive_design', 1998, #689 ) ;
#638 = DIRECTION ( 'NONE',  ( 0.000000000000000000, 1.000000000000000000, 0.000000000000000000 ) ) ;
#639 = AXIS2_PLACEMENT_3D ( 'NONE', #989, #471, #194 ) ;
#640 =( GEOMETRIC_REPRESENTATION_CONTEXT ( 3 ) GLOBAL_UNCERTAINTY_ASSIGNED_CONTEXT ( ( #1060 ) ) GLOBAL_UNIT_ASSIGNED_CONTEXT ( ( #273, #192, #361 ) ) REPRESENTATION_CONTEXT ( 'NONE', 'WORKASPACE' ) );
#641 = DIRECTION ( 'NONE',  ( 0.000000000000000000, 0.000000000000000000, 1.000000000000000000 ) ) ;
#642 = PRODUCT_DEFINITION_SHAPE ( 'NONE', 'NONE',  #6 ) ;
#643 = DIRECTION ( 'NONE',  ( 0.000000000000000000, 1.000000000000000000, 0.000000000000000000 ) ) ;
#644 = EDGE_LOOP ( 'NONE', ( #223, #174, #44, #319 ) ) ;
#645 = LINE ( 'NONE', #557, #147 ) ;
#646 = AXIS2_PLACEMENT_3D ( 'NONE', #475, #1065, #1140 ) ;
#647 = DIRECTION ( 'NONE',  ( -0.000000000000000000, 1.000000000000000000, -0.000000000000000000 ) ) ;
#648 = VECTOR ( 'NONE', #151, 1000.000000000000000 ) ;
#649 = DIRECTION ( 'NONE',  ( 0.000000000000000000, 1.000000000000000000, 0.000000000000000000 ) ) ;
#650 = EDGE_CURVE ( 'NONE', #1000, #1147, #278, .T. ) ;
#651 = VERTEX_POINT ( 'NONE', #48 ) ;
#652 = CARTESIAN_POINT ( 'NONE',  ( -29.99999999999992539, 3.000000000000000000, 25.99999999999999645 ) ) ;
#653 = DIRECTION ( 'NONE',  ( 0.000000000000000000, 1.000000000000000000, 0.000000000000000000 ) ) ;
#654 = CIRCLE ( 'NONE', #747, 1.500000000000000888 ) ;
#655 = EDGE_CURVE ( 'NONE', #1147, #1000, #860, .T. ) ;
#656 = EDGE_LOOP ( 'NONE', ( #343, #441, #366, #1123 ) ) ;
#657 = ORIENTED_EDGE ( 'NONE', *, *, #379, .T. ) ;
#658 = VECTOR ( 'NONE', #13, 1000.000000000000000 ) ;
#659 = CARTESIAN_POINT ( 'NONE',  ( 20.77000000000015234, 3.000000000000000000, 6.559999999999125642 ) ) ;
#660 = AXIS2_PLACEMENT_3D ( 'NONE', #21, #298, #324 ) ;
#661 = VERTEX_POINT ( 'NONE', #830 ) ;
#662 = EDGE_LOOP ( 'NONE', ( #707, #1063, #322, #393 ) ) ;
#663 = CARTESIAN_POINT ( 'NONE',  ( -30.00000000000000000, 3.000000000000000000, -17.50000000000000000 ) ) ;
#664 = MECHANICAL_DESIGN_GEOMETRIC_PRESENTATION_REPRESENTATION (  '', ( #536 ), #65 ) ;
#665 = DIRECTION ( 'NONE',  ( -0.000000000000000000, 1.000000000000000000, -0.000000000000000000 ) ) ;
#666 = ORIENTED_EDGE ( 'NONE', *, *, #381, .F. ) ;
#667 = ORIENTED_EDGE ( 'NONE', *, *, #472, .F. ) ;
#668 = ORIENTED_EDGE ( 'NONE', *, *, #91, .F. ) ;
#669 = CARTESIAN_POINT ( 'NONE',  ( 26.77000000000025537, 3.000000000000000000, 6.559999999999122977 ) ) ;
#670 = DIRECTION ( 'NONE',  ( 0.000000000000000000, 0.000000000000000000, 1.000000000000000000 ) ) ;
#671 = LINE ( 'NONE', #263, #835 ) ;
#672 = ORIENTED_EDGE ( 'NONE', *, *, #693, .T. ) ;
#673 = CYLINDRICAL_SURFACE ( 'NONE', #1056, 1.500000000000000888 ) ;
#674 = EDGE_CURVE ( 'NONE', #268, #867, #26, .T. ) ;
#675 = DIRECTION ( 'NONE',  ( 0.000000000000000000, 0.000000000000000000, -1.000000000000000000 ) ) ;
#676 = ORIENTED_EDGE ( 'NONE', *, *, #959, .T. ) ;
#677 = VECTOR ( 'NONE', #1039, 1000.000000000000000 ) ;
#678 = ORIENTED_EDGE ( 'NONE', *, *, #105, .T. ) ;
#679 = EDGE_LOOP ( 'NONE', ( #744, #916 ) ) ;
#680 = DIRECTION ( 'NONE',  ( -0.000000000000000000, 1.000000000000000000, -0.000000000000000000 ) ) ;
#681 = CARTESIAN_POINT ( 'NONE',  ( 38.50000000000000000, 3.000000000000000000, 17.49999999999993960 ) ) ;
#682 = LINE ( 'NONE', #251, #1055 ) ;
#683 = CIRCLE ( 'NONE', #183, 1.500000000000009992 ) ;
#684 = AXIS2_PLACEMENT_3D ( 'NONE', #868, #1044, #944 ) ;
#685 = ORIENTED_EDGE ( 'NONE', *, *, #105, .F. ) ;
#686 = VECTOR ( 'NONE', #749, 1000.000000000000000 ) ;
#687 = DIRECTION ( 'NONE',  ( -0.000000000000000000, 1.000000000000000000, -0.000000000000000000 ) ) ;
#688 = LINE ( 'NONE', #155, #104 ) ;
#689 = APPLICATION_CONTEXT ( 'automotive_design' ) ;
#690 = EDGE_CURVE ( 'NONE', #623, #1000, #493, .T. ) ;
#691 = EDGE_CURVE ( 'NONE', #704, #412, #337, .T. ) ;
#692 = ORIENTED_EDGE ( 'NONE', *, *, #228, .T. ) ;
#693 = EDGE_CURVE ( 'NONE', #1093, #492, #1080, .T. ) ;
#694 = LINE ( 'NONE', #681, #244 ) ;
#695 = DIRECTION ( 'NONE',  ( -0.000000000000000000, 1.000000000000000000, -0.000000000000000000 ) ) ;
#696 = ORIENTED_EDGE ( 'NONE', *, *, #224, .T. ) ;
#697 = CARTESIAN_POINT ( 'NONE',  ( 32.77000000000035129, 3.000000000000000000, 6.559999999999120313 ) ) ;
#698 = VECTOR ( 'NONE', #886, 1000.000000000000000 ) ;
#699 = ORIENTED_EDGE ( 'NONE', *, *, #752, .T. ) ;
#700 = AXIS2_PLACEMENT_3D ( 'NONE', #365, #479, #542 ) ;
#701 = DIRECTION ( 'NONE',  ( 0.000000000000000000, 0.000000000000000000, -1.000000000000000000 ) ) ;
#702 = ORIENTED_EDGE ( 'NONE', *, *, #588, .F. ) ;
#703 = VECTOR ( 'NONE', #729, 1000.000000000000000 ) ;
#704 = VERTEX_POINT ( 'NONE', #299 ) ;
#705 = FACE_OUTER_BOUND ( 'NONE', #440, .T. ) ;
#706 = LINE ( 'NONE', #1128, #83 ) ;
#707 = ORIENTED_EDGE ( 'NONE', *, *, #811, .T. ) ;
#708 = ORIENTED_EDGE ( 'NONE', *, *, #588, .T. ) ;
#709 = EDGE_CURVE ( 'NONE', #943, #227, #372, .T. ) ;
#710 = CYLINDRICAL_SURFACE ( 'NONE', #84, 1.499999999999996891 ) ;
#711 = LINE ( 'NONE', #1139, #1108 ) ;
#712 = DIRECTION ( 'NONE',  ( 0.000000000000000000, 0.000000000000000000, 1.000000000000000000 ) ) ;
#713 = EDGE_CURVE ( 'NONE', #338, #714, #826, .T. ) ;
#714 = VERTEX_POINT ( 'NONE', #909 ) ;
#715 = PLANE ( 'NONE',  #406 ) ;
#716 = DIRECTION ( 'NONE',  ( -0.000000000000000000, 1.000000000000000000, -0.000000000000000000 ) ) ;
#717 = AXIS2_PLACEMENT_3D ( 'NONE', #742, #207, #928 ) ;
#718 = VERTEX_POINT ( 'NONE', #960 ) ;
#719 = DIRECTION ( 'NONE',  ( 0.000000000000000000, 0.000000000000000000, 1.000000000000000000 ) ) ;
#720 = AXIS2_PLACEMENT_3D ( 'NONE', #618, #695, #776 ) ;
#721 = AXIS2_PLACEMENT_3D ( 'NONE', #1071, #736, #285 ) ;
#722 = CARTESIAN_POINT ( 'NONE',  ( 9.000000000000001776, 2.999999999999999112, -19.09999999999998721 ) ) ;
#723 = FACE_OUTER_BOUND ( 'NONE', #662, .T. ) ;
#724 = ADVANCED_FACE ( 'NONE', ( #380 ), #735, .F. ) ;
#725 = CARTESIAN_POINT ( 'NONE',  ( 30.00000000000000000, 3.000000000000000000, 17.49999999999999645 ) ) ;
#726 = DIRECTION ( 'NONE',  ( 0.000000000000000000, 1.000000000000000000, 0.000000000000000000 ) ) ;
#727 = EDGE_CURVE ( 'NONE', #189, #327, #82, .T. ) ;
#728 = DIRECTION ( 'NONE',  ( 0.000000000000000000, 0.000000000000000000, 1.000000000000000000 ) ) ;
#729 = DIRECTION ( 'NONE',  ( -0.000000000000000000, 1.000000000000000000, -0.000000000000000000 ) ) ;
#730 = AXIS2_PLACEMENT_3D ( 'NONE', #203, #840, #728 ) ;
#731 = AXIS2_PLACEMENT_3D ( 'NONE', #117, #908, #27 ) ;
#732 = CARTESIAN_POINT ( 'NONE',  ( 20.77000000000014879, 0.000000000000000000, -6.940000000000833502 ) ) ;
#733 = FACE_BOUND ( 'NONE', #1104, .T. ) ;
#734 = ADVANCED_FACE ( 'NONE', ( #793 ), #233, .T. ) ;
#735 = CYLINDRICAL_SURFACE ( 'NONE', #629, 1.500000000000003997 ) ;
#736 = DIRECTION ( 'NONE',  ( 0.000000000000000000, 0.000000000000000000, 1.000000000000000000 ) ) ;
#737 = VECTOR ( 'NONE', #875, 1000.000000000000000 ) ;
#738 = DIRECTION ( 'NONE',  ( 1.000000000000000000, 0.000000000000000000, 5.782411586589370951E-17 ) ) ;
#739 = DIRECTION ( 'NONE',  ( -0.000000000000000000, 1.000000000000000000, -0.000000000000000000 ) ) ;
#740 = ORIENTED_EDGE ( 'NONE', *, *, #825, .F. ) ;
#741 = ORIENTED_EDGE ( 'NONE', *, *, #586, .T. ) ;
#742 = CARTESIAN_POINT ( 'NONE',  ( 32.77000000000006708, 3.000000000000000000, 0.5599999999991428501 ) ) ;
#743 = EDGE_CURVE ( 'NONE', #831, #873, #970, .T. ) ;
#744 = ORIENTED_EDGE ( 'NONE', *, *, #828, .T. ) ;
#745 = ORIENTED_EDGE ( 'NONE', *, *, #709, .F. ) ;
#746 = DIRECTION ( 'NONE',  ( -0.000000000000000000, 1.000000000000000000, -0.000000000000000000 ) ) ;
#747 = AXIS2_PLACEMENT_3D ( 'NONE', #349, #1035, #171 ) ;
#748 = PRODUCT_RELATED_PRODUCT_CATEGORY ( 'part', '', ( #572 ) ) ;
#749 = DIRECTION ( 'NONE',  ( -0.000000000000000000, 1.000000000000000000, -0.000000000000000000 ) ) ;
#750 = CIRCLE ( 'NONE', #443, 2.999999999999999112 ) ;
#751 = ORIENTED_EDGE ( 'NONE', *, *, #1117, .T. ) ;
#752 = EDGE_CURVE ( 'NONE', #96, #1137, #682, .T. ) ;
#753 = CARTESIAN_POINT ( 'NONE',  ( 32.77000000000035129, 3.000000000000000000, 5.059999999999110543 ) ) ;
#754 = AXIS2_PLACEMENT_3D ( 'NONE', #434, #615, #778 ) ;
#755 = ORIENTED_EDGE ( 'NONE', *, *, #252, .F. ) ;
#756 = EDGE_CURVE ( 'NONE', #31, #494, #1113, .T. ) ;
#757 = CARTESIAN_POINT ( 'NONE',  ( -38.50000000000000000, 3.000000000000000000, -17.49999999999993960 ) ) ;
#758 = ADVANCED_FACE ( 'NONE', ( #156 ), #1030, .F. ) ;
#759 = ORIENTED_EDGE ( 'NONE', *, *, #172, .T. ) ;
#760 = ADVANCED_FACE ( 'NONE', ( #430 ), #787, .F. ) ;
#761 = EDGE_LOOP ( 'NONE', ( #902, #573, #127, #7, #745, #1099, #817, #685 ) ) ;
#762 = AXIS2_PLACEMENT_3D ( 'NONE', #725, #947, #1042 ) ;
#763 = ORIENTED_EDGE ( 'NONE', *, *, #468, .F. ) ;
#764 = DIRECTION ( 'NONE',  ( -0.000000000000000000, 1.000000000000000000, -0.000000000000000000 ) ) ;
#765 = ORIENTED_EDGE ( 'NONE', *, *, #709, .T. ) ;
#766 = ORIENTED_EDGE ( 'NONE', *, *, #925, .T. ) ;
#767 = EDGE_LOOP ( 'NONE', ( #410, #829, #657, #614 ) ) ;
#768 = LINE ( 'NONE', #1100, #38 ) ;
#769 = CARTESIAN_POINT ( 'NONE',  ( 9.000000000000001776, 3.000000000000000000, -16.09999999999999076 ) ) ;
#770 = CYLINDRICAL_SURFACE ( 'NONE', #720, 1.499999999999996891 ) ;
#771 = AXIS2_PLACEMENT_3D ( 'NONE', #626, #620, #774 ) ;
#772 = AXIS2_PLACEMENT_3D ( 'NONE', #325, #487, #930 ) ;
#773 = ORIENTED_EDGE ( 'NONE', *, *, #801, .F. ) ;
#774 = DIRECTION ( 'NONE',  ( 1.000000000000000000, 0.000000000000000000, -1.982541115402065110E-16 ) ) ;
#775 = LINE ( 'NONE', #652, #35 ) ;
#776 = DIRECTION ( 'NONE',  ( 0.000000000000000000, 0.000000000000000000, 1.000000000000000000 ) ) ;
#777 = ORIENTED_EDGE ( 'NONE', *, *, #650, .T. ) ;
#778 = DIRECTION ( 'NONE',  ( 0.000000000000000000, 0.000000000000000000, 1.000000000000000000 ) ) ;
#779 = CARTESIAN_POINT ( 'NONE',  ( 26.77000000000025537, 3.000000000000000000, 5.059999999999125642 ) ) ;
#780 = DIRECTION ( 'NONE',  ( -0.000000000000000000, 1.000000000000000000, -0.000000000000000000 ) ) ;
#781 = EDGE_CURVE ( 'NONE', #714, #16, #706, .T. ) ;
#782 = CARTESIAN_POINT ( 'NONE',  ( 32.77000000000035129, 3.000000000000000000, 8.059999999999130083 ) ) ;
#783 = AXIS2_PLACEMENT_3D ( 'NONE', #1095, #377, #1072 ) ;
#784 = VECTOR ( 'NONE', #482, 1000.000000000000000 ) ;
#785 = VERTEX_POINT ( 'NONE', #243 ) ;
#786 = DIRECTION ( 'NONE',  ( 0.000000000000000000, 1.000000000000000000, 0.000000000000000000 ) ) ;
#787 = PLANE ( 'NONE',  #130 ) ;
#788 = FACE_OUTER_BOUND ( 'NONE', #231, .T. ) ;
#789 = ADVANCED_FACE ( 'NONE', ( #1041 ), #770, .F. ) ;
#790 = AXIS2_PLACEMENT_3D ( 'NONE', #800, #1073, #196 ) ;
#791 = AXIS2_PLACEMENT_3D ( 'NONE', #182, #98, #551 ) ;
#792 = CARTESIAN_POINT ( 'NONE',  ( 32.77000000000035129, 0.000000000000000000, -6.940000000000838831 ) ) ;
#793 = FACE_OUTER_BOUND ( 'NONE', #5, .T. ) ;
#794 = ORIENTED_EDGE ( 'NONE', *, *, #506, .T. ) ;
#795 = DIRECTION ( 'NONE',  ( -0.000000000000000000, -1.000000000000000000, -0.000000000000000000 ) ) ;
#796 = FACE_BOUND ( 'NONE', #94, .T. ) ;
#797 = ORIENTED_EDGE ( 'NONE', *, *, #959, .F. ) ;
#798 = CYLINDRICAL_SURFACE ( 'NONE', #564, 1.499999999999996891 ) ;
#799 = ORIENTED_EDGE ( 'NONE', *, *, #205, .T. ) ;
#800 = CARTESIAN_POINT ( 'NONE',  ( 32.77000000000035129, 3.000000000000000000, 6.559999999999120313 ) ) ;
#801 = EDGE_CURVE ( 'NONE', #623, #936, #230, .T. ) ;
#802 = FACE_OUTER_BOUND ( 'NONE', #594, .T. ) ;
#803 = CARTESIAN_POINT ( 'NONE',  ( 20.77000000000014879, 0.000000000000000000, -5.440000000000832614 ) ) ;
#804 = ORIENTED_EDGE ( 'NONE', *, *, #1133, .F. ) ;
#805 = EDGE_LOOP ( 'NONE', ( #528, #1076, #511, #861, #301, #206, #708, #149 ) ) ;
#806 = ORIENTED_EDGE ( 'NONE', *, *, #394, .T. ) ;
#807 = LINE ( 'NONE', #14, #808 ) ;
#808 = VECTOR ( 'NONE', #624, 1000.000000000000000 ) ;
#809 = VERTEX_POINT ( 'NONE', #606 ) ;
#810 = PRODUCT_CONTEXT ( 'NONE', #1003, 'mechanical' ) ;
#811 = EDGE_CURVE ( 'NONE', #651, #856, #879, .T. ) ;
#812 = DIRECTION ( 'NONE',  ( 0.000000000000000000, 0.000000000000000000, -1.000000000000000000 ) ) ;
#813 = CARTESIAN_POINT ( 'NONE',  ( 30.00000000000000000, 3.000000000000000000, -17.49999999999999645 ) ) ;
#814 = LINE ( 'NONE', #732, #580 ) ;
#815 = FACE_BOUND ( 'NONE', #1129, .T. ) ;
#816 = DIRECTION ( 'NONE',  ( -0.000000000000000000, -1.000000000000000000, -0.000000000000000000 ) ) ;
#817 = ORIENTED_EDGE ( 'NONE', *, *, #674, .F. ) ;
#818 = CARTESIAN_POINT ( 'NONE',  ( 32.77000000000006708, 3.000000000000000000, -0.9400000000008537082 ) ) ;
#819 = DIRECTION ( 'NONE',  ( 0.000000000000000000, 1.000000000000000000, 0.000000000000000000 ) ) ;
#820 = ORIENTED_EDGE ( 'NONE', *, *, #972, .F. ) ;
#821 = CARTESIAN_POINT ( 'NONE',  ( 26.76999999999996760, 0.000000000000000000, 0.5599999999991436272 ) ) ;
#822 = ORIENTED_EDGE ( 'NONE', *, *, #311, .T. ) ;
#823 = AXIS2_PLACEMENT_3D ( 'NONE', #310, #918, #409 ) ;
#824 = ORIENTED_EDGE ( 'NONE', *, *, #925, .F. ) ;
#825 = EDGE_CURVE ( 'NONE', #949, #809, #683, .T. ) ;
#826 = CIRCLE ( 'NONE', #274, 1.500000000000003997 ) ;
#827 = CARTESIAN_POINT ( 'NONE',  ( 9.000000000000001776, 0.000000000000000000, -22.09999999999998721 ) ) ;
#828 = EDGE_CURVE ( 'NONE', #987, #1093, #999, .T. ) ;
#829 = ORIENTED_EDGE ( 'NONE', *, *, #743, .F. ) ;
#830 = CARTESIAN_POINT ( 'NONE',  ( 26.77000000000025537, 3.000000000000000000, 8.059999999999119424 ) ) ;
#831 = VERTEX_POINT ( 'NONE', #450 ) ;
#832 = DIRECTION ( 'NONE',  ( 0.000000000000000000, 0.000000000000000000, 1.000000000000000000 ) ) ;
#833 = AXIS2_PLACEMENT_3D ( 'NONE', #803, #354, #712 ) ;
#834 = CARTESIAN_POINT ( 'NONE',  ( 32.77000000000035129, 0.000000000000000000, -5.440000000000834390 ) ) ;
#835 = VECTOR ( 'NONE', #534, 1000.000000000000000 ) ;
#836 = ORIENTED_EDGE ( 'NONE', *, *, #359, .T. ) ;
#837 = ORIENTED_EDGE ( 'NONE', *, *, #866, .T. ) ;
#838 = EDGE_LOOP ( 'NONE', ( #887, #139 ) ) ;
#839 = LINE ( 'NONE', #857, #627 ) ;
#840 = DIRECTION ( 'NONE',  ( 0.000000000000000000, 1.000000000000000000, 0.000000000000000000 ) ) ;
#841 = ADVANCED_FACE ( 'NONE', ( #444 ), #871, .F. ) ;
#842 = AXIS2_PLACEMENT_3D ( 'NONE', #133, #687, #40 ) ;
#843 = ORIENTED_EDGE ( 'NONE', *, *, #59, .F. ) ;
#844 = ORIENTED_EDGE ( 'NONE', *, *, #1057, .F. ) ;
#845 = CYLINDRICAL_SURFACE ( 'NONE', #552, 1.500000000000000888 ) ;
#846 = LINE ( 'NONE', #47, #329 ) ;
#847 = EDGE_CURVE ( 'NONE', #596, #143, #593, .T. ) ;
#848 = DIRECTION ( 'NONE',  ( 0.000000000000000000, 1.000000000000000000, -0.000000000000000000 ) ) ;
#849 = VERTEX_POINT ( 'NONE', #544 ) ;
#850 = ORIENTED_EDGE ( 'NONE', *, *, #37, .T. ) ;
#851 = CARTESIAN_POINT ( 'NONE',  ( 9.000000000000001776, 2.999999999999999112, -22.09999999999998366 ) ) ;
#852 = DIRECTION ( 'NONE',  ( 0.000000000000000000, 0.000000000000000000, 1.000000000000000000 ) ) ;
#853 = ADVANCED_FACE ( 'NONE', ( #198 ), #291, .T. ) ;
#854 = CARTESIAN_POINT ( 'NONE',  ( 26.76999999999996760, 3.000000000000000000, 0.5599999999991436272 ) ) ;
#855 = AXIS2_PLACEMENT_3D ( 'NONE', #632, #529, #97 ) ;
#856 = VERTEX_POINT ( 'NONE', #966 ) ;
#857 = CARTESIAN_POINT ( 'NONE',  ( 29.99999999999993605, 3.000000000000000000, 26.00000000000000000 ) ) ;
#858 = CARTESIAN_POINT ( 'NONE',  ( 20.77000000000006708, 3.000000000000000000, 0.5599999999991466249 ) ) ;
#859 = CARTESIAN_POINT ( 'NONE',  ( 20.77000000000015234, 0.000000000000000000, 6.559999999999125642 ) ) ;
#860 = CIRCLE ( 'NONE', #234, 1.500000000000000444 ) ;
#861 = ORIENTED_EDGE ( 'NONE', *, *, #381, .T. ) ;
#862 = LINE ( 'NONE', #350, #625 ) ;
#863 = CARTESIAN_POINT ( 'NONE',  ( 26.76999999999996760, 3.000000000000000000, 2.059999999999140741 ) ) ;
#864 = LINE ( 'NONE', #67, #514 ) ;
#865 = ORIENTED_EDGE ( 'NONE', *, *, #506, .F. ) ;
#866 = EDGE_CURVE ( 'NONE', #427, #651, #645, .T. ) ;
#867 = VERTEX_POINT ( 'NONE', #986 ) ;
#868 = CARTESIAN_POINT ( 'NONE',  ( 30.00000000000000000, 0.000000000000000000, 17.49999999999999645 ) ) ;
#869 = EDGE_CURVE ( 'NONE', #304, #998, #538, .T. ) ;
#870 = LINE ( 'NONE', #335, #1009 ) ;
#871 = CYLINDRICAL_SURFACE ( 'NONE', #1138, 1.499999999999996669 ) ;
#872 = EDGE_CURVE ( 'NONE', #1048, #785, #451, .T. ) ;
#873 = VERTEX_POINT ( 'NONE', #114 ) ;
#874 = EDGE_LOOP ( 'NONE', ( #850, #489 ) ) ;
#875 = DIRECTION ( 'NONE',  ( -0.000000000000000000, 1.000000000000000000, -0.000000000000000000 ) ) ;
#876 = CARTESIAN_POINT ( 'NONE',  ( 30.00000000000000000, 3.000000000000000000, -17.49999999999999645 ) ) ;
#877 = CARTESIAN_POINT ( 'NONE',  ( -29.99999999999993605, 3.000000000000000000, -26.00000000000000355 ) ) ;
#878 = LINE ( 'NONE', #631, #703 ) ;
#879 = CIRCLE ( 'NONE', #22, 8.500000000000000000 ) ;
#880 = SURFACE_SIDE_STYLE ('',( #519 ) ) ;
#881 = CIRCLE ( 'NONE', #646, 1.499999999999996891 ) ;
#882 = CARTESIAN_POINT ( 'NONE',  ( 26.77000000000025537, 0.000000000000000000, 8.059999999999119424 ) ) ;
#883 = FILL_AREA_STYLE ('',( #187 ) ) ;
#884 = PLANE ( 'NONE',  #639 ) ;
#885 = DIRECTION ( 'NONE',  ( 0.000000000000000000, -1.000000000000000000, 0.000000000000000000 ) ) ;
#886 = DIRECTION ( 'NONE',  ( -0.000000000000000000, 1.000000000000000000, -0.000000000000000000 ) ) ;
#887 = ORIENTED_EDGE ( 'NONE', *, *, #756, .T. ) ;
#888 = ADVANCED_FACE ( 'NONE', ( #1146 ), #375, .F. ) ;
#889 = FACE_BOUND ( 'NONE', #579, .T. ) ;
#890 = AXIS2_PLACEMENT_3D ( 'NONE', #876, #118, #75 ) ;
#891 = EDGE_CURVE ( 'NONE', #1093, #987, #881, .T. ) ;
#892 = CARTESIAN_POINT ( 'NONE',  ( 26.76999999999996760, 3.000000000000000000, 0.5599999999991436272 ) ) ;
#893 = CARTESIAN_POINT ( 'NONE',  ( -29.99999999999992539, 3.000000000000000000, 25.99999999999999645 ) ) ;
#894 = ORIENTED_EDGE ( 'NONE', *, *, #49, .T. ) ;
#895 = EDGE_CURVE ( 'NONE', #344, #1011, #483, .T. ) ;
#896 = CIRCLE ( 'NONE', #971, 1.499999999999996891 ) ;
#897 = DIRECTION ( 'NONE',  ( 0.000000000000000000, 1.000000000000000000, 0.000000000000000000 ) ) ;
#898 = DIRECTION ( 'NONE',  ( 0.000000000000000000, -1.000000000000000000, 0.000000000000000000 ) ) ;
#899 = CARTESIAN_POINT ( 'NONE',  ( 30.00000000000000000, 3.000000000000000000, -17.49999999999999645 ) ) ;
#900 = CARTESIAN_POINT ( 'NONE',  ( 26.76999999999996760, 3.000000000000000000, -0.9400000000008533751 ) ) ;
#901 = DIRECTION ( 'NONE',  ( -0.000000000000000000, 1.000000000000000000, -0.000000000000000000 ) ) ;
#902 = ORIENTED_EDGE ( 'NONE', *, *, #811, .F. ) ;
#903 = DIRECTION ( 'NONE',  ( 1.000000000000000000, 0.000000000000000000, -1.982541115402065110E-16 ) ) ;
#904 = VERTEX_POINT ( 'NONE', #469 ) ;
#905 = AXIS2_PLACEMENT_3D ( 'NONE', #282, #558, #576 ) ;
#906 = CIRCLE ( 'NONE', #367, 2.999999999999999112 ) ;
#907 = EDGE_LOOP ( 'NONE', ( #820, #1124 ) ) ;
#908 = DIRECTION ( 'NONE',  ( 0.000000000000000000, 1.000000000000000000, 0.000000000000000000 ) ) ;
#909 = CARTESIAN_POINT ( 'NONE',  ( 32.77000000000035129, 0.000000000000000000, -3.940000000000830838 ) ) ;
#910 = AXIS2_PLACEMENT_3D ( 'NONE', #940, #56, #1023 ) ;
#911 = ORIENTED_EDGE ( 'NONE', *, *, #89, .T. ) ;
#912 = PRODUCT_DEFINITION_CONTEXT ( 'detailed design', #689, 'design' ) ;
#913 = CIRCLE ( 'NONE', #128, 1.500000000000000444 ) ;
#914 = CIRCLE ( 'NONE', #1018, 8.500000000000000000 ) ;
#915 = DIRECTION ( 'NONE',  ( 0.000000000000000000, 0.000000000000000000, -1.000000000000000000 ) ) ;
#916 = ORIENTED_EDGE ( 'NONE', *, *, #891, .T. ) ;
#917 = ORIENTED_EDGE ( 'NONE', *, *, #1078, .F. ) ;
#918 = DIRECTION ( 'NONE',  ( -0.000000000000000000, 1.000000000000000000, -0.000000000000000000 ) ) ;
#919 = VERTEX_POINT ( 'NONE', #262 ) ;
#920 = CARTESIAN_POINT ( 'NONE',  ( 26.77000000000025182, 3.000000000000000000, -5.440000000000833502 ) ) ;
#921 = ORIENTED_EDGE ( 'NONE', *, *, #693, .F. ) ;
#922 = AXIS2_PLACEMENT_3D ( 'NONE', #509, #515, #330 ) ;
#923 = ADVANCED_FACE ( 'NONE', ( #976, #1062, #277, #1054, #546, #95, #453, #733, #796, #283, #636 ), #374, .T. ) ;
#924 = ORIENTED_EDGE ( 'NONE', *, *, #358, .T. ) ;
#925 = EDGE_CURVE ( 'NONE', #31, #1052, #878, .T. ) ;
#926 = ORIENTED_EDGE ( 'NONE', *, *, #421, .F. ) ;
#927 = CARTESIAN_POINT ( 'NONE',  ( 20.77000000000006708, 0.000000000000000000, 0.5599999999991466249 ) ) ;
#928 = DIRECTION ( 'NONE',  ( 0.000000000000000000, 0.000000000000000000, 1.000000000000000000 ) ) ;
#929 = CIRCLE ( 'NONE', #1074, 1.499999999999996891 ) ;
#930 = DIRECTION ( 'NONE',  ( 0.000000000000000000, 0.000000000000000000, -1.000000000000000000 ) ) ;
#931 = ORIENTED_EDGE ( 'NONE', *, *, #318, .F. ) ;
#932 = ORIENTED_EDGE ( 'NONE', *, *, #727, .T. ) ;
#933 = ORIENTED_EDGE ( 'NONE', *, *, #781, .T. ) ;
#934 = CARTESIAN_POINT ( 'NONE',  ( 32.77000000000035129, 0.000000000000000000, -6.940000000000838831 ) ) ;
#935 = CARTESIAN_POINT ( 'NONE',  ( 32.77000000000006708, 0.000000000000000000, -0.9400000000008537082 ) ) ;
#936 = VERTEX_POINT ( 'NONE', #378 ) ;
#937 = ORIENTED_EDGE ( 'NONE', *, *, #523, .F. ) ;
#938 = DIRECTION ( 'NONE',  ( 0.000000000000000000, 0.000000000000000000, 1.000000000000000000 ) ) ;
#939 = CARTESIAN_POINT ( 'NONE',  ( -29.99999999999993605, 3.000000000000000000, -26.00000000000000355 ) ) ;
#940 = CARTESIAN_POINT ( 'NONE',  ( -29.99999999999998579, 3.000000000000000000, 17.49999999999999645 ) ) ;
#941 = ORIENTED_EDGE ( 'NONE', *, *, #577, .F. ) ;
#942 = CIRCLE ( 'NONE', #621, 1.499999999999996669 ) ;
#943 = VERTEX_POINT ( 'NONE', #368 ) ;
#944 = DIRECTION ( 'NONE',  ( 0.000000000000000000, 0.000000000000000000, 1.000000000000000000 ) ) ;
#945 = FACE_OUTER_BOUND ( 'NONE', #160, .T. ) ;
#946 = PRESENTATION_LAYER_ASSIGNMENT (  '', '', ( #536 ) ) ;
#947 = DIRECTION ( 'NONE',  ( -0.000000000000000000, -1.000000000000000000, -0.000000000000000000 ) ) ;
#948 = ORIENTED_EDGE ( 'NONE', *, *, #690, .T. ) ;
#949 = VERTEX_POINT ( 'NONE', #190 ) ;
#950 = LINE ( 'NONE', #973, #567 ) ;
#951 = PLANE ( 'NONE',  #1 ) ;
#952 = CARTESIAN_POINT ( 'NONE',  ( -4.381415865038559584E-15, 2.999999999999999112, -22.09999999999998010 ) ) ;
#953 = DIRECTION ( 'NONE',  ( 0.000000000000000000, 0.000000000000000000, -1.000000000000000000 ) ) ;
#954 = ADVANCED_FACE ( 'NONE', ( #200, #815, #102, #1067, #185, #889, #86, #289, #457, #1049, #270 ), #1143, .F. ) ;
#955 = ORIENTED_EDGE ( 'NONE', *, *, #650, .F. ) ;
#956 = ORIENTED_EDGE ( 'NONE', *, *, #828, .F. ) ;
#957 = CARTESIAN_POINT ( 'NONE',  ( 20.77000000000014879, 3.000000000000000000, -3.940000000000832614 ) ) ;
#958 = DIRECTION ( 'NONE',  ( -1.000000000000000000, 0.000000000000000000, 1.982541115402065110E-16 ) ) ;
#959 = EDGE_CURVE ( 'NONE', #412, #704, #896, .T. ) ;
#960 = CARTESIAN_POINT ( 'NONE',  ( -26.00000000000000355, 2.999999999999999112, -22.09999999999997655 ) ) ;
#961 = CARTESIAN_POINT ( 'NONE',  ( 26.77000000000025537, 0.000000000000000000, 6.559999999999122977 ) ) ;
#962 = ORIENTED_EDGE ( 'NONE', *, *, #271, .F. ) ;
#963 = AXIS2_PLACEMENT_3D ( 'NONE', #163, #266, #257 ) ;
#964 = LINE ( 'NONE', #605, #120 ) ;
#965 = CYLINDRICAL_SURFACE ( 'NONE', #833, 1.500000000000000444 ) ;
#966 = CARTESIAN_POINT ( 'NONE',  ( 29.99999999999993960, 0.000000000000000000, -25.99999999999999645 ) ) ;
#967 = EDGE_CURVE ( 'NONE', #165, #42, #609, .T. ) ;
#968 = LINE ( 'NONE', #452, #305 ) ;
#969 = CARTESIAN_POINT ( 'NONE',  ( 38.50000000000000000, 3.000000000000000000, 17.49999999999993960 ) ) ;
#970 = CIRCLE ( 'NONE', #481, 1.500000000000000888 ) ;
#971 = AXIS2_PLACEMENT_3D ( 'NONE', #463, #726, #555 ) ;
#972 = EDGE_CURVE ( 'NONE', #1137, #235, #913, .T. ) ;
#973 = CARTESIAN_POINT ( 'NONE',  ( 32.77000000000035129, 0.000000000000000000, 5.059999999999110543 ) ) ;
#974 = CARTESIAN_POINT ( 'NONE',  ( 9.000000000000001776, 0.000000000000000000, -16.09999999999998721 ) ) ;
#975 = ORIENTED_EDGE ( 'NONE', *, *, #109, .T. ) ;
#976 = FACE_BOUND ( 'NONE', #524, .T. ) ;
#977 = EDGE_LOOP ( 'NONE', ( #260, #1020, #806, #71 ) ) ;
#978 = CARTESIAN_POINT ( 'NONE',  ( 26.77000000000025537, 0.000000000000000000, 6.559999999999122977 ) ) ;
#979 = DIRECTION ( 'NONE',  ( 0.000000000000000000, 0.000000000000000000, 1.000000000000000000 ) ) ;
#980 = DIRECTION ( 'NONE',  ( 0.000000000000000000, -0.000000000000000000, -1.000000000000000000 ) ) ;
#981 = CIRCLE ( 'NONE', #495, 1.499999999999996891 ) ;
#982 = AXIS2_PLACEMENT_3D ( 'NONE', #1102, #1022, #1079 ) ;
#983 = DIRECTION ( 'NONE',  ( -0.000000000000000000, 1.000000000000000000, -0.000000000000000000 ) ) ;
#984 = CARTESIAN_POINT ( 'NONE',  ( 30.00000000000000000, 0.000000000000000000, -17.49999999999999645 ) ) ;
#985 = CIRCLE ( 'NONE', #502, 1.499999999999996669 ) ;
#986 = CARTESIAN_POINT ( 'NONE',  ( -38.50000000000000000, 0.000000000000000000, -17.49999999999994316 ) ) ;
#987 = VERTEX_POINT ( 'NONE', #550 ) ;
#988 = EDGE_CURVE ( 'NONE', #1012, #1048, #807, .T. ) ;
#989 = CARTESIAN_POINT ( 'NONE',  ( -29.99999999999993605, 3.000000000000000000, -26.00000000000000355 ) ) ;
#990 = CARTESIAN_POINT ( 'NONE',  ( 20.77000000000006708, 3.000000000000000000, 2.059999999999147402 ) ) ;
#991 = DIRECTION ( 'NONE',  ( 0.000000000000000000, 0.000000000000000000, 1.000000000000000000 ) ) ;
#992 = CARTESIAN_POINT ( 'NONE',  ( 20.77000000000015234, 0.000000000000000000, 5.059999999999124753 ) ) ;
#993 = ADVANCED_FACE ( 'NONE', ( #8 ), #1148, .F. ) ;
#994 = AXIS2_PLACEMENT_3D ( 'NONE', #920, #141, #641 ) ;
#995 = CIRCLE ( 'NONE', #717, 1.499999999999996669 ) ;
#996 = DIRECTION ( 'NONE',  ( 0.000000000000000000, 0.000000000000000000, -1.000000000000000000 ) ) ;
#997 = CARTESIAN_POINT ( 'NONE',  ( 9.000000000000001776, -2.000000000000000888, -16.09999999999998721 ) ) ;
#998 = VERTEX_POINT ( 'NONE', #385 ) ;
#999 = CIRCLE ( 'NONE', #517, 1.499999999999996891 ) ;
#1000 = VERTEX_POINT ( 'NONE', #363 ) ;
#1001 = UNCERTAINTY_MEASURE_WITH_UNIT (LENGTH_MEASURE( 1.000000000000000082E-05 ), #80, 'distance_accuracy_value', 'NONE');
#1002 = CARTESIAN_POINT ( 'NONE',  ( -29.99999999999998579, 0.000000000000000000, 17.49999999999999645 ) ) ;
#1003 = APPLICATION_CONTEXT ( 'automotive_design' ) ;
#1004 = DIRECTION ( 'NONE',  ( -0.000000000000000000, 1.000000000000000000, -0.000000000000000000 ) ) ;
#1005 = DIRECTION ( 'NONE',  ( 0.000000000000000000, 1.000000000000000000, -0.000000000000000000 ) ) ;
#1006 = DIRECTION ( 'NONE',  ( 0.000000000000000000, 0.000000000000000000, 1.000000000000000000 ) ) ;
#1007 = ORIENTED_EDGE ( 'NONE', *, *, #1057, .T. ) ;
#1008 = LINE ( 'NONE', #341, #210 ) ;
#1009 = VECTOR ( 'NONE', #504, 1000.000000000000000 ) ;
#1010 = EDGE_CURVE ( 'NONE', #596, #507, #985, .T. ) ;
#1011 = VERTEX_POINT ( 'NONE', #990 ) ;
#1012 = VERTEX_POINT ( 'NONE', #969 ) ;
#1013 = AXIS2_PLACEMENT_3D ( 'NONE', #859, #259, #1115 ) ;
#1014 = DIRECTION ( 'NONE',  ( -0.000000000000000000, -1.000000000000000000, -0.000000000000000000 ) ) ;
#1015 = DIRECTION ( 'NONE',  ( -0.000000000000000000, 1.000000000000000000, -0.000000000000000000 ) ) ;
#1016 = COLOUR_RGB ( '',0.7921568627450980005, 0.8196078431372548767, 0.9333333333333333481 ) ;
#1017 = ORIENTED_EDGE ( 'NONE', *, *, #533, .T. ) ;
#1018 = AXIS2_PLACEMENT_3D ( 'NONE', #15, #578, #134 ) ;
#1019 = DIRECTION ( 'NONE',  ( -3.965082230804144518E-16, 0.000000000000000000, -1.000000000000000000 ) ) ;
#1020 = ORIENTED_EDGE ( 'NONE', *, *, #691, .F. ) ;
#1021 = CARTESIAN_POINT ( 'NONE',  ( 9.000000000000001776, -2.000000000000000888, -19.09999999999998721 ) ) ;
#1022 = DIRECTION ( 'NONE',  ( 0.000000000000000000, 1.000000000000000000, 0.000000000000000000 ) ) ;
#1023 = DIRECTION ( 'NONE',  ( 0.000000000000000000, 0.000000000000000000, -1.000000000000000000 ) ) ;
#1024 = ORIENTED_EDGE ( 'NONE', *, *, #543, .F. ) ;
#1025 = DIRECTION ( 'NONE',  ( 0.000000000000000000, 1.000000000000000000, -0.000000000000000000 ) ) ;
#1026 = ORIENTED_EDGE ( 'NONE', *, *, #89, .F. ) ;
#1027 = ORIENTED_EDGE ( 'NONE', *, *, #869, .T. ) ;
#1028 = FILL_AREA_STYLE ('',( #72 ) ) ;
#1029 = DIRECTION ( 'NONE',  ( -0.000000000000000000, 1.000000000000000000, -0.000000000000000000 ) ) ;
#1030 = CYLINDRICAL_SURFACE ( 'NONE', #566, 1.499999999999996669 ) ;
#1031 = AXIS2_PLACEMENT_3D ( 'NONE', #858, #819, #477 ) ;
#1032 = ADVANCED_FACE ( 'NONE', ( #204 ), #715, .F. ) ;
#1033 = EDGE_LOOP ( 'NONE', ( #153, #610, #666, #45 ) ) ;
#1034 = CARTESIAN_POINT ( 'NONE',  ( 26.77000000000025182, 0.000000000000000000, -6.940000000000830838 ) ) ;
#1035 = DIRECTION ( 'NONE',  ( 0.000000000000000000, 1.000000000000000000, 0.000000000000000000 ) ) ;
#1036 = ADVANCED_FACE ( 'NONE', ( #408 ), #52, .F. ) ;
#1037 = ORIENTED_EDGE ( 'NONE', *, *, #359, .F. ) ;
#1038 =( NAMED_UNIT ( * ) SI_UNIT ( $, .STERADIAN. ) SOLID_ANGLE_UNIT ( ) );
#1039 = DIRECTION ( 'NONE',  ( -0.000000000000000000, 1.000000000000000000, -0.000000000000000000 ) ) ;
#1040 = CARTESIAN_POINT ( 'NONE',  ( 32.77000000000035129, 0.000000000000000000, 8.059999999999130083 ) ) ;
#1041 = FACE_OUTER_BOUND ( 'NONE', #213, .T. ) ;
#1042 = DIRECTION ( 'NONE',  ( 0.000000000000000000, 0.000000000000000000, -1.000000000000000000 ) ) ;
#1043 = ORIENTED_EDGE ( 'NONE', *, *, #727, .F. ) ;
#1044 = DIRECTION ( 'NONE',  ( 0.000000000000000000, 1.000000000000000000, 0.000000000000000000 ) ) ;
#1045 = AXIS2_PLACEMENT_3D ( 'NONE', #522, #69, #1142 ) ;
#1046 = DIRECTION ( 'NONE',  ( -1.000000000000000000, -0.000000000000000000, -1.156482317317873944E-16 ) ) ;
#1047 = CARTESIAN_POINT ( 'NONE',  ( -29.99999999999998579, 0.000000000000000000, 25.99999999999999645 ) ) ;
#1048 = VERTEX_POINT ( 'NONE', #316 ) ;
#1049 = FACE_BOUND ( 'NONE', #589, .T. ) ;
#1050 = CIRCLE ( 'NONE', #731, 8.500000000000000000 ) ;
#1051 = CARTESIAN_POINT ( 'NONE',  ( -3.191891195797321504E-15, 2.999999999999999112, -16.09999999999998366 ) ) ;
#1052 = VERTEX_POINT ( 'NONE', #420 ) ;
#1053 = ORIENTED_EDGE ( 'NONE', *, *, #895, .F. ) ;
#1054 = FACE_BOUND ( 'NONE', #607, .T. ) ;
#1055 = VECTOR ( 'NONE', #239, 1000.000000000000000 ) ;
#1056 = AXIS2_PLACEMENT_3D ( 'NONE', #927, #46, #248 ) ;
#1057 = EDGE_CURVE ( 'NONE', #936, #1147, #768, .T. ) ;
#1058 = VECTOR ( 'NONE', #665, 1000.000000000000000 ) ;
#1059 = CARTESIAN_POINT ( 'NONE',  ( -26.00000000000000355, 0.000000000000000000, -16.09999999999998010 ) ) ;
#1060 = UNCERTAINTY_MEASURE_WITH_UNIT (LENGTH_MEASURE( 1.000000000000000082E-05 ), #273, 'distance_accuracy_value', 'NONE');
#1061 = DIRECTION ( 'NONE',  ( 0.000000000000000000, 0.000000000000000000, 1.000000000000000000 ) ) ;
#1062 = FACE_BOUND ( 'NONE', #308, .T. ) ;
#1063 = ORIENTED_EDGE ( 'NONE', *, *, #281, .F. ) ;
#1064 =( NAMED_UNIT ( * ) SI_UNIT ( $, .STERADIAN. ) SOLID_ANGLE_UNIT ( ) );
#1065 = DIRECTION ( 'NONE',  ( 0.000000000000000000, 1.000000000000000000, -0.000000000000000000 ) ) ;
#1066 = DIRECTION ( 'NONE',  ( 0.000000000000000000, 1.000000000000000000, 0.000000000000000000 ) ) ;
#1067 = FACE_BOUND ( 'NONE', #1083, .T. ) ;
#1068 = ADVANCED_FACE ( 'NONE', ( #328 ), #845, .F. ) ;
#1069 = ADVANCED_FACE ( 'NONE', ( #307 ), #154, .F. ) ;
#1070 = EDGE_CURVE ( 'NONE', #867, #943, #237, .T. ) ;
#1071 = CARTESIAN_POINT ( 'NONE',  ( 0.000000000000000000, 0.000000000000000000, 0.000000000000000000 ) ) ;
#1072 = DIRECTION ( 'NONE',  ( 0.000000000000000000, 0.000000000000000000, 1.000000000000000000 ) ) ;
#1073 = DIRECTION ( 'NONE',  ( 0.000000000000000000, 1.000000000000000000, -0.000000000000000000 ) ) ;
#1074 = AXIS2_PLACEMENT_3D ( 'NONE', #513, #571, #832 ) ;
#1075 = SHAPE_DEFINITION_REPRESENTATION ( #642, #369 ) ;
#1076 = ORIENTED_EDGE ( 'NONE', *, *, #455, .T. ) ;
#1077 = AXIS2_PLACEMENT_3D ( 'NONE', #899, #93, #633 ) ;
#1078 = EDGE_CURVE ( 'NONE', #51, #136, #201, .T. ) ;
#1079 = DIRECTION ( 'NONE',  ( 0.000000000000000000, 0.000000000000000000, 1.000000000000000000 ) ) ;
#1080 = LINE ( 'NONE', #1096, #1058 ) ;
#1081 = EDGE_CURVE ( 'NONE', #494, #31, #929, .T. ) ;
#1082 = PRESENTATION_STYLE_ASSIGNMENT (( #371 ) ) ;
#1083 = EDGE_LOOP ( 'NONE', ( #574, #132 ) ) ;
#1084 = CARTESIAN_POINT ( 'NONE',  ( 32.77000000000035129, 0.000000000000000000, -5.440000000000834390 ) ) ;
#1085 = ORIENTED_EDGE ( 'NONE', *, *, #100, .T. ) ;
#1086 = EDGE_CURVE ( 'NONE', #565, #29, #839, .T. ) ;
#1087 = ADVANCED_FACE ( 'NONE', ( #398 ), #673, .F. ) ;
#1088 = COLOUR_RGB ( '',0.7921568627450980005, 0.8196078431372548767, 0.9333333333333333481 ) ;
#1089 = DIRECTION ( 'NONE',  ( 0.000000000000000000, 0.000000000000000000, 1.000000000000000000 ) ) ;
#1090 = CARTESIAN_POINT ( 'NONE',  ( 32.77000000000006708, 0.000000000000000000, 2.059999999999139408 ) ) ;
#1091 = ORIENTED_EDGE ( 'NONE', *, *, #386, .T. ) ;
#1092 = PRODUCT_DEFINITION_FORMATION_WITH_SPECIFIED_SOURCE ( 'ANY', '', #572, .NOT_KNOWN. ) ;
#1093 = VERTEX_POINT ( 'NONE', #454 ) ;
#1094 = ADVANCED_FACE ( 'NONE', ( #90 ), #611, .T. ) ;
#1095 = CARTESIAN_POINT ( 'NONE',  ( 32.77000000000035129, 0.000000000000000000, 6.559999999999120313 ) ) ;
#1096 = CARTESIAN_POINT ( 'NONE',  ( 26.77000000000025537, 0.000000000000000000, 5.059999999999125642 ) ) ;
#1097 = ORIENTED_EDGE ( 'NONE', *, *, #674, .T. ) ;
#1098 = DIRECTION ( 'NONE',  ( 1.000000000000000000, 0.000000000000000000, -3.965082230804144518E-16 ) ) ;
#1099 = ORIENTED_EDGE ( 'NONE', *, *, #1070, .F. ) ;
#1100 = CARTESIAN_POINT ( 'NONE',  ( 20.77000000000015234, 0.000000000000000000, 8.059999999999124753 ) ) ;
#1101 = EDGE_CURVE ( 'NONE', #29, #427, #448, .T. ) ;
#1102 = CARTESIAN_POINT ( 'NONE',  ( 32.77000000000035129, 0.000000000000000000, -5.440000000000834390 ) ) ;
#1103 = ORIENTED_EDGE ( 'NONE', *, *, #455, .F. ) ;
#1104 = EDGE_LOOP ( 'NONE', ( #1110, #692 ) ) ;
#1105 = DIRECTION ( 'NONE',  ( 1.982541115402065110E-16, 0.000000000000000000, 1.000000000000000000 ) ) ;
#1106 = CARTESIAN_POINT ( 'NONE',  ( 26.76999999999996760, 0.000000000000000000, -0.9400000000008533751 ) ) ;
#1107 = CIRCLE ( 'NONE', #119, 1.500000000000009992 ) ;
#1108 = VECTOR ( 'NONE', #1046, 1000.000000000000000 ) ;
#1109 = EDGE_LOOP ( 'NONE', ( #545, #1037, #1027, #416 ) ) ;
#1110 = ORIENTED_EDGE ( 'NONE', *, *, #1126, .T. ) ;
#1111 = ORIENTED_EDGE ( 'NONE', *, *, #445, .T. ) ;
#1112 = ADVANCED_FACE ( 'NONE', ( #360 ), #710, .F. ) ;
#1113 = CIRCLE ( 'NONE', #535, 1.499999999999996891 ) ;
#1114 = CARTESIAN_POINT ( 'NONE',  ( 20.77000000000006708, 3.000000000000000000, -0.9400000000008544854 ) ) ;
#1115 = DIRECTION ( 'NONE',  ( 0.000000000000000000, 0.000000000000000000, -1.000000000000000000 ) ) ;
#1116 = AXIS2_PLACEMENT_3D ( 'NONE', #663, #575, #938 ) ;
#1117 = EDGE_CURVE ( 'NONE', #949, #165, #950, .T. ) ;
#1118 = VERTEX_POINT ( 'NONE', #863 ) ;
#1119 = ORIENTED_EDGE ( 'NONE', *, *, #756, .F. ) ;
#1120 = CARTESIAN_POINT ( 'NONE',  ( 26.77000000000025537, 0.000000000000000000, 6.559999999999122977 ) ) ;
#1121 = LINE ( 'NONE', #882, #677 ) ;
#1122 = DIRECTION ( 'NONE',  ( 0.000000000000000000, 1.000000000000000000, 0.000000000000000000 ) ) ;
#1123 = ORIENTED_EDGE ( 'NONE', *, *, #781, .F. ) ;
#1124 = ORIENTED_EDGE ( 'NONE', *, *, #224, .F. ) ;
#1125 = CARTESIAN_POINT ( 'NONE',  ( 9.000000000000001776, -2.000000000000000888, -22.09999999999998366 ) ) ;
#1126 = EDGE_CURVE ( 'NONE', #96, #849, #275, .T. ) ;
#1127 = CARTESIAN_POINT ( 'NONE',  ( 32.77000000000006708, 0.000000000000000000, 0.5599999999991428501 ) ) ;
#1128 = CARTESIAN_POINT ( 'NONE',  ( 32.77000000000035129, 0.000000000000000000, -3.940000000000830838 ) ) ;
#1129 = EDGE_LOOP ( 'NONE', ( #145, #417 ) ) ;
#1130 = STYLED_ITEM ( 'NONE', ( #1082 ), #246 ) ;
#1131 = CARTESIAN_POINT ( 'NONE',  ( 26.77000000000025537, 3.000000000000000000, 6.559999999999122977 ) ) ;
#1132 = ORIENTED_EDGE ( 'NONE', *, *, #228, .F. ) ;
#1133 = EDGE_CURVE ( 'NONE', #304, #314, #272, .T. ) ;
#1134 = CARTESIAN_POINT ( 'NONE',  ( 20.77000000000014879, 3.000000000000000000, -6.940000000000834390 ) ) ;
#1135 = EDGE_LOOP ( 'NONE', ( #921, #956, #556, #373 ) ) ;
#1136 = DIRECTION ( 'NONE',  ( 0.000000000000000000, 0.000000000000000000, 1.000000000000000000 ) ) ;
#1137 = VERTEX_POINT ( 'NONE', #957 ) ;
#1138 = AXIS2_PLACEMENT_3D ( 'NONE', #531, #331, #852 ) ;
#1139 = CARTESIAN_POINT ( 'NONE',  ( -29.99999999999993605, 3.000000000000000000, -26.00000000000000355 ) ) ;
#1140 = DIRECTION ( 'NONE',  ( 0.000000000000000000, 0.000000000000000000, -1.000000000000000000 ) ) ;
#1141 = EDGE_LOOP ( 'NONE', ( #678, #931, #1103, #313 ) ) ;
#1142 = DIRECTION ( 'NONE',  ( 0.000000000000000000, 0.000000000000000000, -1.000000000000000000 ) ) ;
#1143 = PLANE ( 'NONE',  #162 ) ;
#1144 = DIRECTION ( 'NONE',  ( -0.000000000000000000, 1.000000000000000000, -0.000000000000000000 ) ) ;
#1145 = LINE ( 'NONE', #952, #622 ) ;
#1146 = FACE_OUTER_BOUND ( 'NONE', #490, .T. ) ;
#1147 = VERTEX_POINT ( 'NONE', #256 ) ;
#1148 = PLANE ( 'NONE',  #518 ) ;
ENDSEC;
END-ISO-10303-21;
