ISO-10303-21;
HEADER;
FILE_DESCRIPTION (( 'STEP AP214' ),
    '1' );
FILE_NAME ('Part8^Assem7_Assem3.STEP',
    '2026-05-04T16:09:07',
    ( '' ),
    ( '' ),
    'SwSTEP 2.0',
    'SolidWorks 2022',
    '' );
FILE_SCHEMA (( 'AUTOMOTIVE_DESIGN' ));
ENDSEC;

DATA;
#1 = LINE ( 'NONE', #573, #902 ) ;
#2 = VERTEX_POINT ( 'NONE', #404 ) ;
#3 = EDGE_LOOP ( 'NONE', ( #583, #531 ) ) ;
#4 = CARTESIAN_POINT ( 'NONE',  ( 75.00000000000012790, 8.665947313000083696, -38.27418443887420096 ) ) ;
#5 = LINE ( 'NONE', #203, #357 ) ;
#6 = VERTEX_POINT ( 'NONE', #56 ) ;
#7 = VECTOR ( 'NONE', #844, 1000.000000000000114 ) ;
#8 = SHAPE_DEFINITION_REPRESENTATION ( #682, #627 ) ;
#9 = AXIS2_PLACEMENT_3D ( 'NONE', #907, #754, #254 ) ;
#10 = DIRECTION ( 'NONE',  ( 9.436895709313832566E-16, -0.3420201433256694346, 0.9396926207859083169 ) ) ;
#11 = AXIS2_PLACEMENT_3D ( 'NONE', #306, #507, #793 ) ;
#12 = CARTESIAN_POINT ( 'NONE',  ( 71.50000000000005684, 11.86850367655966032, -33.91601593155098016 ) ) ;
#13 = ORIENTED_EDGE ( 'NONE', *, *, #698, .T. ) ;
#14 = DIRECTION ( 'NONE',  ( -9.436895709313828621E-16, 0.3420201433256694346, -0.9396926207859082059 ) ) ;
#15 = FACE_BOUND ( 'NONE', #3, .T. ) ;
#16 = ORIENTED_EDGE ( 'NONE', *, *, #365, .T. ) ;
#17 = EDGE_CURVE ( 'NONE', #293, #292, #397, .T. ) ;
#18 = CARTESIAN_POINT ( 'NONE',  ( -71.49999999999995737, 11.67296369951496615, -37.17971998023193692 ) ) ;
#19 = CARTESIAN_POINT ( 'NONE',  ( -71.49999999999995737, 59.40934883543908285, -19.80509669928794025 ) ) ;
#20 = ORIENTED_EDGE ( 'NONE', *, *, #276, .F. ) ;
#21 = AXIS2_PLACEMENT_3D ( 'NONE', #65, #222, #291 ) ;
#22 = DIRECTION ( 'NONE',  ( -9.436895709313828621E-16, 0.3420201433256694346, -0.9396926207859082059 ) ) ;
#23 =( GEOMETRIC_REPRESENTATION_CONTEXT ( 3 ) GLOBAL_UNCERTAINTY_ASSIGNED_CONTEXT ( ( #672 ) ) GLOBAL_UNIT_ASSIGNED_CONTEXT ( ( #274, #140, #851 ) ) REPRESENTATION_CONTEXT ( 'NONE', 'WORKASPACE' ) );
#24 = CARTESIAN_POINT ( 'NONE',  ( -2.500000000000033307, 19.33644325475741965, -31.19790821378841628 ) ) ;
#25 = PRODUCT ( 'Part8^Assem7_Assem3', 'Part8^Assem7_Assem3', '', ( #393 ) ) ;
#26 = EDGE_LOOP ( 'NONE', ( #513, #284, #16, #181 ) ) ;
#27 = CARTESIAN_POINT ( 'NONE',  ( -71.49999999999995737, 12.89456410653664165, -36.73509379390856822 ) ) ;
#28 = UNCERTAINTY_MEASURE_WITH_UNIT (LENGTH_MEASURE( 1.000000000000000082E-05 ), #787, 'distance_accuracy_value', 'NONE');
#29 = DIRECTION ( 'NONE',  ( 9.436895709313830594E-16, -0.3420201433256694346, 0.9396926207859082059 ) ) ;
#30 = EDGE_CURVE ( 'NONE', #551, #876, #295, .T. ) ;
#31 = EDGE_LOOP ( 'NONE', ( #305, #459, #726, #117 ) ) ;
#32 = ORIENTED_EDGE ( 'NONE', *, *, #207, .F. ) ;
#33 = DIRECTION ( 'NONE',  ( 0.000000000000000000, -0.9396926207859087610, -0.3420201433256678802 ) ) ;
#34 = DIRECTION ( 'NONE',  ( 0.000000000000000000, -0.9396926207859076507, -0.3420201433256706558 ) ) ;
#35 = EDGE_CURVE ( 'NONE', #109, #813, #413, .T. ) ;
#36 = ORIENTED_EDGE ( 'NONE', *, *, #759, .F. ) ;
#37 = EDGE_LOOP ( 'NONE', ( #567, #233, #329, #810 ) ) ;
#38 = DIRECTION ( 'NONE',  ( 9.436895709313830594E-16, -0.3420201433256694346, 0.9396926207859082059 ) ) ;
#39 = UNCERTAINTY_MEASURE_WITH_UNIT (LENGTH_MEASURE( 1.000000000000000082E-05 ), #294, 'distance_accuracy_value', 'NONE');
#40 = VECTOR ( 'NONE', #180, 1000.000000000000000 ) ;
#41 = AXIS2_PLACEMENT_3D ( 'NONE', #277, #419, #723 ) ;
#42 = PLANE ( 'NONE',  #915 ) ;
#43 = AXIS2_PLACEMENT_3D ( 'NONE', #60, #134, #146 ) ;
#44 = EDGE_CURVE ( 'NONE', #506, #618, #800, .T. ) ;
#45 = DIRECTION ( 'NONE',  ( 4.147185910381981629E-16, -0.9396926207859082059, -0.3420201433256693790 ) ) ;
#46 = FACE_BOUND ( 'NONE', #835, .T. ) ;
#47 = ORIENTED_EDGE ( 'NONE', *, *, #710, .T. ) ;
#48 = VERTEX_POINT ( 'NONE', #631 ) ;
#49 = DIRECTION ( 'NONE',  ( -9.436895709313828621E-16, 0.3420201433256694346, -0.9396926207859082059 ) ) ;
#50 = DIRECTION ( 'NONE',  ( 0.000000000000000000, -0.9396926207859084279, -0.3420201433256688239 ) ) ;
#51 = CARTESIAN_POINT ( 'NONE',  ( -2.500000000000033307, 24.03490635868696401, -29.48780749716006966 ) ) ;
#52 = VERTEX_POINT ( 'NONE', #190 ) ;
#53 = CARTESIAN_POINT ( 'NONE',  ( -75.99999999999998579, 13.31480902884009332, -36.58213715108858111 ) ) ;
#54 = CYLINDRICAL_SURFACE ( 'NONE', #657, 0.9999999999999995559 ) ;
#55 = VECTOR ( 'NONE', #736, 1000.000000000000000 ) ;
#56 = CARTESIAN_POINT ( 'NONE',  ( 76.00000000000002842, 9.605639933785989015, -37.93216429554851032 ) ) ;
#57 = VECTOR ( 'NONE', #410, 1000.000000000000000 ) ;
#58 = VERTEX_POINT ( 'NONE', #120 ) ;
#59 = STYLED_ITEM ( 'NONE', ( #651 ), #627 ) ;
#60 = CARTESIAN_POINT ( 'NONE',  ( -75.99999999999998579, 13.31480902884009332, -36.58213715108858111 ) ) ;
#61 = ADVANCED_FACE ( 'NONE', ( #899 ), #42, .F. ) ;
#62 = ORIENTED_EDGE ( 'NONE', *, *, #809, .T. ) ;
#63 = ORIENTED_EDGE ( 'NONE', *, *, #562, .T. ) ;
#64 = CARTESIAN_POINT ( 'NONE',  ( 9.000000000000047962, 37.79641855736330314, -27.67155999577837378 ) ) ;
#65 = CARTESIAN_POINT ( 'NONE',  ( -71.49999999999995737, 12.89456410653664165, -36.73509379390856822 ) ) ;
#66 = VERTEX_POINT ( 'NONE', #696 ) ;
#67 = EDGE_LOOP ( 'NONE', ( #326, #394, #781, #542 ) ) ;
#68 = DIRECTION ( 'NONE',  ( 9.436895709313832566E-16, -0.3420201433256694346, 0.9396926207859083169 ) ) ;
#69 = DIRECTION ( 'NONE',  ( 9.436895709313830594E-16, -0.3420201433256694346, 0.9396926207859082059 ) ) ;
#70 = DIRECTION ( 'NONE',  ( 9.436895709313830594E-16, -0.3420201433256693790, 0.9396926207859082059 ) ) ;
#71 = AXIS2_PLACEMENT_3D ( 'NONE', #12, #304, #847 ) ;
#72 = EDGE_LOOP ( 'NONE', ( #20, #606, #493, #204 ) ) ;
#73 = VERTEX_POINT ( 'NONE', #51 ) ;
#74 = CIRCLE ( 'NONE', #490, 1.900000000000002354 ) ;
#75 = AXIS2_PLACEMENT_3D ( 'NONE', #185, #477, #763 ) ;
#76 = EDGE_CURVE ( 'NONE', #66, #868, #761, .T. ) ;
#77 = CARTESIAN_POINT ( 'NONE',  ( 76.00000000000002842, 9.605639933785989015, -37.93216429554851032 ) ) ;
#78 = DIRECTION ( 'NONE',  ( 9.436895709313830594E-16, -0.3420201433256693790, 0.9396926207859082059 ) ) ;
#79 = VERTEX_POINT ( 'NONE', #560 ) ;
#80 = CARTESIAN_POINT ( 'NONE',  ( -75.00000000000005684, 63.63796562897565678, -18.26600605432241764 ) ) ;
#81 = LINE ( 'NONE', #4, #774 ) ;
#82 = LINE ( 'NONE', #366, #702 ) ;
#83 = ORIENTED_EDGE ( 'NONE', *, *, #427, .F. ) ;
#84 = CARTESIAN_POINT ( 'NONE',  ( 75.00000000000002842, 9.605639933785992568, -37.93216429554852454 ) ) ;
#85 = CARTESIAN_POINT ( 'NONE',  ( 75.00000000000012790, 8.665947313000083696, -38.27418443887420096 ) ) ;
#86 = VERTEX_POINT ( 'NONE', #691 ) ;
#87 = AXIS2_PLACEMENT_3D ( 'NONE', #175, #29, #34 ) ;
#88 = VECTOR ( 'NONE', #381, 1000.000000000000114 ) ;
#89 = DIRECTION ( 'NONE',  ( -2.914335439641032889E-13, -0.9396926207859084279, -0.3420201433256688239 ) ) ;
#90 = CIRCLE ( 'NONE', #145, 1.299999999999994937 ) ;
#91 = CYLINDRICAL_SURFACE ( 'NONE', #848, 1.299999999999994937 ) ;
#92 = EDGE_CURVE ( 'NONE', #73, #323, #517, .T. ) ;
#93 = ORIENTED_EDGE ( 'NONE', *, *, #784, .T. ) ;
#94 = DIRECTION ( 'NONE',  ( 0.000000000000000000, -0.9396926207859087610, -0.3420201433256678802 ) ) ;
#95 = DIRECTION ( 'NONE',  ( 0.000000000000000000, -0.9396926207859082059, -0.3420201433256694346 ) ) ;
#96 = ORIENTED_EDGE ( 'NONE', *, *, #340, .F. ) ;
#97 = LINE ( 'NONE', #303, #88 ) ;
#98 = DIRECTION ( 'NONE',  ( 0.000000000000000000, -0.9396926207859087610, -0.3420201433256678802 ) ) ;
#99 = VERTEX_POINT ( 'NONE', #700 ) ;
#100 = ADVANCED_FACE ( 'NONE', ( #346 ), #629, .F. ) ;
#101 = AXIS2_PLACEMENT_3D ( 'NONE', #804, #668, #465 ) ;
#102 = DIRECTION ( 'NONE',  ( 9.436895709313830594E-16, -0.3420201433256694346, 0.9396926207859082059 ) ) ;
#103 = AXIS2_PLACEMENT_3D ( 'NONE', #529, #869, #454 ) ;
#104 = VECTOR ( 'NONE', #782, 1000.000000000000114 ) ;
#105 = DIRECTION ( 'NONE',  ( 9.436895709313828621E-16, -0.3420201433256694346, 0.9396926207859082059 ) ) ;
#106 = ORIENTED_EDGE ( 'NONE', *, *, #639, .T. ) ;
#107 = DIRECTION ( 'NONE',  ( 9.436895709313830594E-16, -0.3420201433256694346, 0.9396926207859082059 ) ) ;
#108 = CYLINDRICAL_SURFACE ( 'NONE', #101, 1.000000000000001110 ) ;
#109 = VERTEX_POINT ( 'NONE', #485 ) ;
#110 = CARTESIAN_POINT ( 'NONE',  ( 2.499999999999961808, 25.06096678866397198, -32.30688535951779983 ) ) ;
#111 = CARTESIAN_POINT ( 'NONE',  ( 9.000000000000051514, 34.98494214789307222, -25.50232040573942172 ) ) ;
#112 = EDGE_CURVE ( 'NONE', #790, #462, #772, .T. ) ;
#113 = ORIENTED_EDGE ( 'NONE', *, *, #17, .F. ) ;
#114 = CARTESIAN_POINT ( 'NONE',  ( 75.00000000000012790, 7.639886883023075725, -35.45510657651647790 ) ) ;
#115 = CARTESIAN_POINT ( 'NONE',  ( -71.49999999999995737, 60.63094924246075834, -19.36047051296457511 ) ) ;
#116 = EDGE_CURVE ( 'NONE', #813, #790, #795, .T. ) ;
#117 = ORIENTED_EDGE ( 'NONE', *, *, #238, .T. ) ;
#118 = DIRECTION ( 'NONE',  ( 9.436895709313830594E-16, -0.3420201433256694346, 0.9396926207859082059 ) ) ;
#119 = CARTESIAN_POINT ( 'NONE',  ( 2.499999999999963585, 22.71173523669919803, -33.16193571783197314 ) ) ;
#120 = CARTESIAN_POINT ( 'NONE',  ( 71.50000000000005684, 14.11616451355834378, -36.29046760758533452 ) ) ;
#121 = ORIENTED_EDGE ( 'NONE', *, *, #35, .T. ) ;
#122 = FACE_OUTER_BOUND ( 'NONE', #260, .T. ) ;
#123 = PLANE ( 'NONE',  #248 ) ;
#124 = DIRECTION ( 'NONE',  ( -9.436895709313828621E-16, 0.3420201433256694346, -0.9396926207859082059 ) ) ;
#125 = ORIENTED_EDGE ( 'NONE', *, *, #589, .F. ) ;
#126 = CARTESIAN_POINT ( 'NONE',  ( 9.000000000000047962, 39.58183453685653319, -27.02172172345960277 ) ) ;
#127 = ADVANCED_FACE ( 'NONE', ( #725 ), #852, .F. ) ;
#128 = AXIS2_PLACEMENT_3D ( 'NONE', #432, #362, #648 ) ;
#129 = CARTESIAN_POINT ( 'NONE',  ( -2.500000000000037303, 22.71173523669919803, -33.16193571783197314 ) ) ;
#130 = VECTOR ( 'NONE', #724, 1000.000000000000114 ) ;
#131 = DIRECTION ( 'NONE',  ( 0.000000000000000000, -0.9396926207859087610, -0.3420201433256678802 ) ) ;
#132 = PRODUCT_DEFINITION ( 'UNKNOWN', '', #837, #263 ) ;
#133 = DIRECTION ( 'NONE',  ( 9.511493642054062451E-16, -0.3420201433256693790, 0.9396926207859082059 ) ) ;
#134 = DIRECTION ( 'NONE',  ( 1.000000000000000000, 2.136924904916616245E-16, -9.344143058668113534E-16 ) ) ;
#135 = SURFACE_STYLE_FILL_AREA ( #429 ) ;
#136 = CARTESIAN_POINT ( 'NONE',  ( -75.99999999999997158, 62.69827300818972304, -18.60802619764807275 ) ) ;
#137 = EDGE_CURVE ( 'NONE', #466, #868, #773, .T. ) ;
#138 = ORIENTED_EDGE ( 'NONE', *, *, #434, .T. ) ;
#139 =( NAMED_UNIT ( * ) SI_UNIT ( $, .STERADIAN. ) SOLID_ANGLE_UNIT ( ) );
#140 =( NAMED_UNIT ( * ) PLANE_ANGLE_UNIT ( ) SI_UNIT ( $, .RADIAN. ) );
#141 = DIRECTION ( 'NONE',  ( 9.511493642054062451E-16, -0.3420201433256693790, 0.9396926207859082059 ) ) ;
#142 = CIRCLE ( 'NONE', #71, 1.299999999999994493 ) ;
#143 = ORIENTED_EDGE ( 'NONE', *, *, #784, .F. ) ;
#144 = AXIS2_PLACEMENT_3D ( 'NONE', #745, #102, #33 ) ;
#145 = AXIS2_PLACEMENT_3D ( 'NONE', #751, #107, #331 ) ;
#146 = DIRECTION ( 'NONE',  ( -9.344143058668113534E-16, 0.000000000000000000, -1.000000000000000000 ) ) ;
#147 = DIRECTION ( 'NONE',  ( 0.000000000000000000, -0.9396926207859076507, -0.3420201433256706558 ) ) ;
#148 = CARTESIAN_POINT ( 'NONE',  ( 75.00000000000002842, 62.61190519899869855, -15.44692819196481715 ) ) ;
#149 = ORIENTED_EDGE ( 'NONE', *, *, #76, .T. ) ;
#150 = ORIENTED_EDGE ( 'NONE', *, *, #632, .T. ) ;
#151 = LINE ( 'NONE', #77, #130 ) ;
#152 = ORIENTED_EDGE ( 'NONE', *, *, #179, .T. ) ;
#153 = CARTESIAN_POINT ( 'NONE',  ( -71.49999999999995737, 14.11616451355831536, -36.29046760758519952 ) ) ;
#154 = ORIENTED_EDGE ( 'NONE', *, *, #698, .F. ) ;
#155 = CARTESIAN_POINT ( 'NONE',  ( -74.99999999999997158, 61.67221257821272928, -15.78894833529036212 ) ) ;
#156 = EDGE_CURVE ( 'NONE', #506, #371, #579, .T. ) ;
#157 = DIRECTION ( 'NONE',  ( 4.746482975071928757E-16, 0.9396926207859082059, 0.3420201433256693790 ) ) ;
#158 = VERTEX_POINT ( 'NONE', #720 ) ;
#159 = CIRCLE ( 'NONE', #735, 2.500000000000001776 ) ;
#160 = CARTESIAN_POINT ( 'NONE',  ( -75.99999999999998579, 8.579579503808929530, -35.11308643319068068 ) ) ;
#161 = EDGE_CURVE ( 'NONE', #379, #646, #760, .T. ) ;
#162 = DIRECTION ( 'NONE',  ( 0.000000000000000000, -0.9396926207859083169, -0.3420201433256687684 ) ) ;
#163 = ORIENTED_EDGE ( 'NONE', *, *, #755, .F. ) ;
#164 = CARTESIAN_POINT ( 'NONE',  ( -8.999999999999946709, 34.98494214789306511, -25.50232040573940751 ) ) ;
#165 = FACE_OUTER_BOUND ( 'NONE', #770, .T. ) ;
#166 = VERTEX_POINT ( 'NONE', #85 ) ;
#167 = EDGE_CURVE ( 'NONE', #918, #2, #299, .T. ) ;
#168 = DIRECTION ( 'NONE',  ( 9.436895709313830594E-16, -0.3420201433256694346, 0.9396926207859083169 ) ) ;
#169 = CARTESIAN_POINT ( 'NONE',  ( 75.00000000000002842, 62.69827300818979410, -18.60802619764821131 ) ) ;
#170 = ORIENTED_EDGE ( 'NONE', *, *, #887, .F. ) ;
#171 = ORIENTED_EDGE ( 'NONE', *, *, #116, .T. ) ;
#172 = AXIS2_PLACEMENT_3D ( 'NONE', #586, #232, #516 ) ;
#173 = DIRECTION ( 'NONE',  ( 9.436895709313830594E-16, -0.3420201433256694346, 0.9396926207859083169 ) ) ;
#174 = AXIS2_PLACEMENT_3D ( 'NONE', #230, #514, #94 ) ;
#175 = CARTESIAN_POINT ( 'NONE',  ( -71.49999999999995737, 11.86850367655963367, -33.91601593155084515 ) ) ;
#176 = ORIENTED_EDGE ( 'NONE', *, *, #632, .F. ) ;
#177 = ORIENTED_EDGE ( 'NONE', *, *, #427, .T. ) ;
#178 = CARTESIAN_POINT ( 'NONE',  ( 76.00000000000001421, 62.69827300818977989, -18.60802619764822552 ) ) ;
#179 = EDGE_CURVE ( 'NONE', #791, #109, #644, .T. ) ;
#180 = DIRECTION ( 'NONE',  ( -4.930380657631323784E-32, -0.9396926207859082059, -0.3420201433256694346 ) ) ;
#181 = ORIENTED_EDGE ( 'NONE', *, *, #584, .F. ) ;
#182 = FACE_OUTER_BOUND ( 'NONE', #714, .T. ) ;
#183 = EDGE_CURVE ( 'NONE', #650, #79, #142, .T. ) ;
#184 = CARTESIAN_POINT ( 'NONE',  ( 71.50000000000005684, 60.63094924246078676, -19.36047051296470656 ) ) ;
#185 = CARTESIAN_POINT ( 'NONE',  ( 9.000000000000051514, 36.77035812738630227, -24.85248213342065071 ) ) ;
#186 = AXIS2_PLACEMENT_3D ( 'NONE', #455, #378, #162 ) ;
#187 = DIRECTION ( 'NONE',  ( 9.436895709313828621E-16, -0.3420201433256694346, 0.9396926207859082059 ) ) ;
#188 = AXIS2_PLACEMENT_3D ( 'NONE', #913, #286, #708 ) ;
#189 = COLOUR_RGB ( '',0.7921568627450980005, 0.8196078431372548767, 0.9333333333333333481 ) ;
#190 = CARTESIAN_POINT ( 'NONE',  ( 71.50000000000005684, 57.16168799844042070, -17.43064502325371734 ) ) ;
#191 = ORIENTED_EDGE ( 'NONE', *, *, #759, .T. ) ;
#192 = DIRECTION ( 'NONE',  ( 9.436895709313830594E-16, -0.3420201433256694346, 0.9396926207859083169 ) ) ;
#193 = FACE_BOUND ( 'NONE', #501, .T. ) ;
#194 = ORIENTED_EDGE ( 'NONE', *, *, #597, .T. ) ;
#195 = ORIENTED_EDGE ( 'NONE', *, *, #156, .F. ) ;
#196 = ORIENTED_EDGE ( 'NONE', *, *, #116, .F. ) ;
#197 = CARTESIAN_POINT ( 'NONE',  ( -8.999999999999950262, 39.58183453685652609, -27.02172172345958856 ) ) ;
#198 = DIRECTION ( 'NONE',  ( 0.000000000000000000, -0.9396926207859083169, -0.3420201433256687684 ) ) ;
#199 = EDGE_CURVE ( 'NONE', #48, #453, #709, .T. ) ;
#200 = DIRECTION ( 'NONE',  ( 0.000000000000000000, -0.9396926207859087610, -0.3420201433256678802 ) ) ;
#201 = AXIS2_PLACEMENT_3D ( 'NONE', #322, #812, #739 ) ;
#202 = VECTOR ( 'NONE', #496, 1000.000000000000114 ) ;
#203 = CARTESIAN_POINT ( 'NONE',  ( 9.000000000000047962, 39.58183453685653319, -27.02172172345960277 ) ) ;
#204 = ORIENTED_EDGE ( 'NONE', *, *, #897, .F. ) ;
#205 = DIRECTION ( 'NONE',  ( 0.000000000000000000, 0.3420201433256693790, -0.9396926207859082059 ) ) ;
#206 = LINE ( 'NONE', #495, #919 ) ;
#207 = EDGE_CURVE ( 'NONE', #910, #534, #5, .T. ) ;
#208 = DIRECTION ( 'NONE',  ( 0.000000000000000000, -0.9396926207859087610, -0.3420201433256678802 ) ) ;
#209 = VERTEX_POINT ( 'NONE', #780 ) ;
#210 = FILL_AREA_STYLE_COLOUR ( '', #189 ) ;
#211 = FILL_AREA_STYLE_COLOUR ( '', #718 ) ;
#212 = CARTESIAN_POINT ( 'NONE',  ( 71.50000000000005684, 59.40934883543910416, -19.80509669928807170 ) ) ;
#213 = ORIENTED_EDGE ( 'NONE', *, *, #500, .T. ) ;
#214 = CARTESIAN_POINT ( 'NONE',  ( 71.50000000000005684, 12.89456410653666651, -36.73509379390870322 ) ) ;
#215 = DIRECTION ( 'NONE',  ( 9.436895709313832566E-16, -0.3420201433256694346, 0.9396926207859082059 ) ) ;
#216 = CARTESIAN_POINT ( 'NONE',  ( 71.50000000000005684, 12.89456410653666651, -36.73509379390870322 ) ) ;
#217 = AXIS2_PLACEMENT_3D ( 'NONE', #216, #789, #437 ) ;
#218 = ORIENTED_EDGE ( 'NONE', *, *, #527, .T. ) ;
#219 = VECTOR ( 'NONE', #671, 1000.000000000000000 ) ;
#220 = AXIS2_PLACEMENT_3D ( 'NONE', #554, #38, #548 ) ;
#221 = CARTESIAN_POINT ( 'NONE',  ( 9.000000000000051514, 38.55577410687952522, -24.20264386110187971 ) ) ;
#222 = DIRECTION ( 'NONE',  ( 9.436895709313830594E-16, -0.3420201433256694346, 0.9396926207859083169 ) ) ;
#223 = ORIENTED_EDGE ( 'NONE', *, *, #500, .F. ) ;
#224 = ORIENTED_EDGE ( 'NONE', *, *, #515, .T. ) ;
#225 = ADVANCED_FACE ( 'NONE', ( #783 ), #569, .F. ) ;
#226 = FACE_OUTER_BOUND ( 'NONE', #26, .T. ) ;
#227 = LINE ( 'NONE', #24, #460 ) ;
#228 = ORIENTED_EDGE ( 'NONE', *, *, #112, .T. ) ;
#229 = APPLICATION_CONTEXT ( 'automotive_design' ) ;
#230 = CARTESIAN_POINT ( 'NONE',  ( -71.49999999999995737, 59.40934883543908285, -19.80509669928794025 ) ) ;
#231 = CLOSED_SHELL ( 'NONE', ( #557, #421, #615, #127, #692, #661, #628, #468, #61, #298, #920, #463, #873, #572, #355, #470, #310, #926, #840, #225, #850, #369, #608, #792, #100, #766 ) ) ;
#232 = DIRECTION ( 'NONE',  ( -9.436895709313828621E-16, 0.3420201433256694346, -0.9396926207859082059 ) ) ;
#233 = ORIENTED_EDGE ( 'NONE', *, *, #805, .F. ) ;
#234 = VECTOR ( 'NONE', #499, 1000.000000000000000 ) ;
#235 = VECTOR ( 'NONE', #742, 1000.000000000000114 ) ;
#236 = DIRECTION ( 'NONE',  ( 9.436895709313830594E-16, -0.3420201433256694346, 0.9396926207859083169 ) ) ;
#237 = DIRECTION ( 'NONE',  ( 0.000000000000000000, -0.9396926207859082059, -0.3420201433256693790 ) ) ;
#238 = EDGE_CURVE ( 'NONE', #551, #556, #854, .T. ) ;
#239 = ORIENTED_EDGE ( 'NONE', *, *, #76, .F. ) ;
#240 = CYLINDRICAL_SURFACE ( 'NONE', #431, 1.299999999999996270 ) ;
#241 = FACE_OUTER_BOUND ( 'NONE', #655, .T. ) ;
#242 = ORIENTED_EDGE ( 'NONE', *, *, #670, .F. ) ;
#243 = DIRECTION ( 'NONE',  ( 0.000000000000000000, -0.9396926207859076507, -0.3420201433256706558 ) ) ;
#244 = CARTESIAN_POINT ( 'NONE',  ( -3.676011738929091377E-14, 13.31480902884010931, -36.58213715108865216 ) ) ;
#245 = ORIENTED_EDGE ( 'NONE', *, *, #112, .F. ) ;
#246 =( NAMED_UNIT ( * ) SI_UNIT ( $, .STERADIAN. ) SOLID_ANGLE_UNIT ( ) );
#247 = EDGE_LOOP ( 'NONE', ( #645, #587, #320, #63 ) ) ;
#248 = AXIS2_PLACEMENT_3D ( 'NONE', #469, #187, #764 ) ;
#249 = DIRECTION ( 'NONE',  ( -2.914335439641032889E-13, -0.9396926207859084279, -0.3420201433256688239 ) ) ;
#250 = AXIS2_PLACEMENT_3D ( 'NONE', #689, #626, #843 ) ;
#251 = DIRECTION ( 'NONE',  ( 0.000000000000000000, -0.9396926207859082059, -0.3420201433256693790 ) ) ;
#252 = ORIENTED_EDGE ( 'NONE', *, *, #161, .F. ) ;
#253 = EDGE_CURVE ( 'NONE', #158, #256, #479, .T. ) ;
#254 = DIRECTION ( 'NONE',  ( 0.000000000000000000, -0.9396926207859087610, -0.3420201433256678802 ) ) ;
#255 = ORIENTED_EDGE ( 'NONE', *, *, #911, .F. ) ;
#256 = VERTEX_POINT ( 'NONE', #148 ) ;
#257 = LINE ( 'NONE', #464, #402 ) ;
#258 = FACE_BOUND ( 'NONE', #886, .T. ) ;
#259 = EDGE_CURVE ( 'NONE', #910, #48, #533, .T. ) ;
#260 = EDGE_LOOP ( 'NONE', ( #425, #125, #624, #570 ) ) ;
#261 = ORIENTED_EDGE ( 'NONE', *, *, #327, .F. ) ;
#262 = CYLINDRICAL_SURFACE ( 'NONE', #750, 1.299999999999994937 ) ;
#263 = PRODUCT_DEFINITION_CONTEXT ( 'detailed design', #599, 'design' ) ;
#264 = VECTOR ( 'NONE', #275, 1000.000000000000114 ) ;
#265 = CIRCLE ( 'NONE', #461, 1.000000000000001110 ) ;
#266 = PRESENTATION_LAYER_ASSIGNMENT (  '', '', ( #59 ) ) ;
#267 = EDGE_CURVE ( 'NONE', #99, #466, #1, .T. ) ;
#268 = EDGE_LOOP ( 'NONE', ( #195, #829, #536, #383 ) ) ;
#269 = ORIENTED_EDGE ( 'NONE', *, *, #710, .F. ) ;
#270 = LINE ( 'NONE', #619, #658 ) ;
#271 = DIRECTION ( 'NONE',  ( 0.000000000000000000, -0.9396926207859084279, -0.3420201433256689905 ) ) ;
#272 = EDGE_CURVE ( 'NONE', #2, #646, #636, .T. ) ;
#273 = CARTESIAN_POINT ( 'NONE',  ( -4.355282246409391152E-14, 63.63796562897568521, -18.26600605432247804 ) ) ;
#274 =( LENGTH_UNIT ( ) NAMED_UNIT ( * ) SI_UNIT ( .MILLI., .METRE. ) );
#275 = DIRECTION ( 'NONE',  ( 9.436895709313828621E-16, -0.3420201433256693790, 0.9396926207859082059 ) ) ;
#276 = EDGE_CURVE ( 'NONE', #58, #744, #384, .T. ) ;
#277 = CARTESIAN_POINT ( 'NONE',  ( -74.99999999999998579, 9.605639933785919737, -37.93216429554838953 ) ) ;
#278 = AXIS2_PLACEMENT_3D ( 'NONE', #129, #471, #341 ) ;
#279 = CARTESIAN_POINT ( 'NONE',  ( -4.355282246409391152E-14, 63.63796562897568521, -18.26600605432247804 ) ) ;
#280 = VECTOR ( 'NONE', #859, 1000.000000000000114 ) ;
#281 = CIRCLE ( 'NONE', #504, 1.299999999999994493 ) ;
#282 = CARTESIAN_POINT ( 'NONE',  ( -8.999999999999950262, 37.79641855736330314, -27.67155999577835956 ) ) ;
#283 = EDGE_LOOP ( 'NONE', ( #152, #121, #171, #318 ) ) ;
#284 = ORIENTED_EDGE ( 'NONE', *, *, #156, .T. ) ;
#285 = EDGE_CURVE ( 'NONE', #109, #73, #82, .T. ) ;
#286 = DIRECTION ( 'NONE',  ( 9.436895709313832566E-16, -0.3420201433256694346, 0.9396926207859083169 ) ) ;
#287 = CARTESIAN_POINT ( 'NONE',  ( 9.000000000000047962, 36.01100257787008019, -28.32139826809714478 ) ) ;
#288 = ORIENTED_EDGE ( 'NONE', *, *, #515, .F. ) ;
#289 = CARTESIAN_POINT ( 'NONE',  ( 71.50000000000005684, 11.67296369951499102, -37.17971998023207902 ) ) ;
#290 = SURFACE_STYLE_USAGE ( .BOTH. , #921 ) ;
#291 = DIRECTION ( 'NONE',  ( 0.000000000000000000, -0.9396926207859076507, -0.3420201433256706558 ) ) ;
#292 = VERTEX_POINT ( 'NONE', #297 ) ;
#293 = VERTEX_POINT ( 'NONE', #879 ) ;
#294 =( LENGTH_UNIT ( ) NAMED_UNIT ( * ) SI_UNIT ( .MILLI., .METRE. ) );
#295 = CIRCLE ( 'NONE', #814, 0.9999999999999995559 ) ;
#296 = CARTESIAN_POINT ( 'NONE',  ( -8.999999999999946709, 36.77035812738629517, -24.85248213342063295 ) ) ;
#297 = CARTESIAN_POINT ( 'NONE',  ( 71.50000000000005684, 59.60488881248377879, -16.54139265060697994 ) ) ;
#298 = ADVANCED_FACE ( 'NONE', ( #664 ), #108, .T. ) ;
#299 = CIRCLE ( 'NONE', #430, 1.900000000000002354 ) ;
#300 = EDGE_LOOP ( 'NONE', ( #32, #637, #519, #406 ) ) ;
#301 = VECTOR ( 'NONE', #489, 1000.000000000000000 ) ;
#302 = AXIS2_PLACEMENT_3D ( 'NONE', #214, #778, #575 ) ;
#303 = CARTESIAN_POINT ( 'NONE',  ( -2.500000000000036415, 20.36250368473442762, -34.01698607614614644 ) ) ;
#304 = DIRECTION ( 'NONE',  ( 9.436895709313830594E-16, -0.3420201433256694346, 0.9396926207859082059 ) ) ;
#305 = ORIENTED_EDGE ( 'NONE', *, *, #620, .T. ) ;
#306 = CARTESIAN_POINT ( 'NONE',  ( 0.000000000000000000, 0.000000000000000000, 0.000000000000000000 ) ) ;
#307 = CARTESIAN_POINT ( 'NONE',  ( -2.500000000000033307, 24.03490635868696401, -29.48780749716006966 ) ) ;
#308 = FACE_BOUND ( 'NONE', #483, .T. ) ;
#309 = ORIENTED_EDGE ( 'NONE', *, *, #762, .T. ) ;
#310 = ADVANCED_FACE ( 'NONE', ( #241 ), #91, .F. ) ;
#311 = CARTESIAN_POINT ( 'NONE',  ( 2.499999999999963585, 22.71173523669919803, -33.16193571783197314 ) ) ;
#312 = DIRECTION ( 'NONE',  ( 0.000000000000000000, -0.3420201433256693790, 0.9396926207859082059 ) ) ;
#313 = VERTEX_POINT ( 'NONE', #601 ) ;
#314 = AXIS2_PLACEMENT_3D ( 'NONE', #212, #914, #359 ) ;
#315 = CIRCLE ( 'NONE', #625, 1.299999999999994937 ) ;
#316 = AXIS2_PLACEMENT_3D ( 'NONE', #273, #571, #205 ) ;
#317 = CYLINDRICAL_SURFACE ( 'NONE', #400, 1.299999999999994937 ) ;
#318 = ORIENTED_EDGE ( 'NONE', *, *, #473, .T. ) ;
#319 = FACE_BOUND ( 'NONE', #821, .T. ) ;
#320 = ORIENTED_EDGE ( 'NONE', *, *, #654, .F. ) ;
#321 = FACE_OUTER_BOUND ( 'NONE', #679, .T. ) ;
#322 = CARTESIAN_POINT ( 'NONE',  ( -71.49999999999995737, 11.86850367655963367, -33.91601593155084515 ) ) ;
#323 = VERTEX_POINT ( 'NONE', #525 ) ;
#324 = LINE ( 'NONE', #53, #57 ) ;
#325 = CARTESIAN_POINT ( 'NONE',  ( 76.00000000000001421, 62.69827300818977989, -18.60802619764822552 ) ) ;
#326 = ORIENTED_EDGE ( 'NONE', *, *, #391, .T. ) ;
#327 = EDGE_CURVE ( 'NONE', #905, #371, #446, .T. ) ;
#328 = CIRCLE ( 'NONE', #716, 1.900000000000002354 ) ;
#329 = ORIENTED_EDGE ( 'NONE', *, *, #860, .F. ) ;
#330 = CIRCLE ( 'NONE', #564, 0.9999999999999995559 ) ;
#331 = DIRECTION ( 'NONE',  ( 0.000000000000000000, -0.9396926207859087610, -0.3420201433256678802 ) ) ;
#332 = AXIS2_PLACEMENT_3D ( 'NONE', #909, #846, #576 ) ;
#333 = DIRECTION ( 'NONE',  ( 0.000000000000000000, -0.9396926207859087610, -0.3420201433256678802 ) ) ;
#334 = EDGE_LOOP ( 'NONE', ( #191, #269, #96, #566 ) ) ;
#335 = ORIENTED_EDGE ( 'NONE', *, *, #405, .F. ) ;
#336 = LINE ( 'NONE', #680, #865 ) ;
#337 = ORIENTED_EDGE ( 'NONE', *, *, #350, .T. ) ;
#338 = ORIENTED_EDGE ( 'NONE', *, *, #809, .F. ) ;
#339 = CARTESIAN_POINT ( 'NONE',  ( 2.499999999999966693, 20.36250368473442762, -34.01698607614613223 ) ) ;
#340 = EDGE_CURVE ( 'NONE', #158, #456, #344, .T. ) ;
#341 = DIRECTION ( 'NONE',  ( 0.000000000000000000, -0.9396926207859084279, -0.3420201433256689905 ) ) ;
#342 = VECTOR ( 'NONE', #706, 1000.000000000000114 ) ;
#343 = DIRECTION ( 'NONE',  ( -9.436895709313828621E-16, 0.3420201433256694346, -0.9396926207859082059 ) ) ;
#344 = CIRCLE ( 'NONE', #786, 0.9999999999999995559 ) ;
#345 = AXIS2_PLACEMENT_3D ( 'NONE', #84, #14, #89 ) ;
#346 = FACE_OUTER_BOUND ( 'NONE', #300, .T. ) ;
#347 = CARTESIAN_POINT ( 'NONE',  ( 71.50000000000005684, 59.40934883543910416, -19.80509669928807170 ) ) ;
#348 = LINE ( 'NONE', #279, #301 ) ;
#349 = ORIENTED_EDGE ( 'NONE', *, *, #480, .F. ) ;
#350 = EDGE_CURVE ( 'NONE', #791, #891, #816, .T. ) ;
#351 = SURFACE_SIDE_STYLE ('',( #428 ) ) ;
#352 = DIRECTION ( 'NONE',  ( 9.436895709313832566E-16, -0.3420201433256694346, 0.9396926207859082059 ) ) ;
#353 = DIRECTION ( 'NONE',  ( 9.436895709313828621E-16, -0.3420201433256693790, 0.9396926207859082059 ) ) ;
#354 = ORIENTED_EDGE ( 'NONE', *, *, #589, .T. ) ;
#355 = ADVANCED_FACE ( 'NONE', ( #875, #15, #746, #319, #308, #681, #522, #885 ), #512, .F. ) ;
#356 = FACE_OUTER_BOUND ( 'NONE', #547, .T. ) ;
#357 = VECTOR ( 'NONE', #78, 1000.000000000000114 ) ;
#358 = CIRCLE ( 'NONE', #332, 2.500000000000001776 ) ;
#359 = DIRECTION ( 'NONE',  ( 0.000000000000000000, -0.9396926207859087610, -0.3420201433256678802 ) ) ;
#360 = EDGE_LOOP ( 'NONE', ( #622, #138 ) ) ;
#361 = EDGE_CURVE ( 'NONE', #2, #918, #862, .T. ) ;
#362 = DIRECTION ( 'NONE',  ( 9.436895709313832566E-16, -0.3420201433256694346, 0.9396926207859082059 ) ) ;
#363 = ORIENTED_EDGE ( 'NONE', *, *, #259, .F. ) ;
#364 = DIRECTION ( 'NONE',  ( 9.436895709313828621E-16, -0.3420201433256693790, 0.9396926207859082059 ) ) ;
#365 = EDGE_CURVE ( 'NONE', #371, #905, #734, .T. ) ;
#366 = CARTESIAN_POINT ( 'NONE',  ( -2.500000000000036415, 25.06096678866397198, -32.30688535951779272 ) ) ;
#367 = EDGE_LOOP ( 'NONE', ( #448, #528 ) ) ;
#368 = LINE ( 'NONE', #524, #219 ) ;
#369 = ADVANCED_FACE ( 'NONE', ( #582 ), #798, .F. ) ;
#370 = DIRECTION ( 'NONE',  ( 9.436895709313830594E-16, -0.3420201433256694346, 0.9396926207859082059 ) ) ;
#371 = VERTEX_POINT ( 'NONE', #870 ) ;
#372 = CIRCLE ( 'NONE', #220, 1.299999999999994493 ) ;
#373 = DIRECTION ( 'NONE',  ( 0.000000000000000000, -0.9396926207859087610, -0.3420201433256678802 ) ) ;
#374 = CARTESIAN_POINT ( 'NONE',  ( -3.327915805328899752E-14, 7.639886883023042863, -35.45510657651642106 ) ) ;
#375 = EDGE_LOOP ( 'NONE', ( #106, #917, #649, #337 ) ) ;
#376 = EDGE_CURVE ( 'NONE', #323, #462, #227, .T. ) ;
#377 = DIRECTION ( 'NONE',  ( -1.000000000000000000, -0.000000000000000000, 1.387778780781446070E-15 ) ) ;
#378 = DIRECTION ( 'NONE',  ( 9.436895709313832566E-16, -0.3420201433256694346, 0.9396926207859083169 ) ) ;
#379 = VERTEX_POINT ( 'NONE', #444 ) ;
#380 = VERTEX_POINT ( 'NONE', #808 ) ;
#381 = DIRECTION ( 'NONE',  ( 9.436895709313830594E-16, -0.3420201433256693790, 0.9396926207859082059 ) ) ;
#382 = CARTESIAN_POINT ( 'NONE',  ( -2.500000000000036415, 25.06096678866397198, -32.30688535951779272 ) ) ;
#383 = ORIENTED_EDGE ( 'NONE', *, *, #327, .T. ) ;
#384 = CIRCLE ( 'NONE', #217, 1.299999999999994493 ) ;
#385 = AXIS2_PLACEMENT_3D ( 'NONE', #296, #352, #502 ) ;
#386 = CYLINDRICAL_SURFACE ( 'NONE', #103, 0.9999999999999995559 ) ;
#387 = CARTESIAN_POINT ( 'NONE',  ( 2.499999999999961808, 25.06096678866397198, -32.30688535951779983 ) ) ;
#388 = ORIENTED_EDGE ( 'NONE', *, *, #272, .F. ) ;
#389 = CARTESIAN_POINT ( 'NONE',  ( -71.49999999999995737, 12.89456410653664165, -36.73509379390856822 ) ) ;
#390 = DIRECTION ( 'NONE',  ( 9.436895709313830594E-16, -0.3420201433256693790, 0.9396926207859082059 ) ) ;
#391 = EDGE_CURVE ( 'NONE', #765, #799, #530, .T. ) ;
#392 = ORIENTED_EDGE ( 'NONE', *, *, #741, .F. ) ;
#393 = PRODUCT_CONTEXT ( 'NONE', #229, 'mechanical' ) ;
#394 = ORIENTED_EDGE ( 'NONE', *, *, #452, .F. ) ;
#395 = CARTESIAN_POINT ( 'NONE',  ( -2.500000000000036415, 20.36250368473442762, -34.01698607614614644 ) ) ;
#396 = PRODUCT_RELATED_PRODUCT_CATEGORY ( 'part', '', ( #25 ) ) ;
#397 = LINE ( 'NONE', #184, #342 ) ;
#398 = AXIS2_PLACEMENT_3D ( 'NONE', #687, #613, #474 ) ;
#399 = CIRCLE ( 'NONE', #172, 1.000000000000001110 ) ;
#400 = AXIS2_PLACEMENT_3D ( 'NONE', #877, #236, #373 ) ;
#401 = DIRECTION ( 'NONE',  ( 0.000000000000000000, -0.9396926207859082059, -0.3420201433256693790 ) ) ;
#402 = VECTOR ( 'NONE', #757, 1000.000000000000114 ) ;
#403 = DIRECTION ( 'NONE',  ( 9.511493642054064423E-16, -0.3420201433256694346, 0.9396926207859083169 ) ) ;
#404 = CARTESIAN_POINT ( 'NONE',  ( -8.999999999999950262, 36.01100257787007308, -28.32139826809713412 ) ) ;
#405 = EDGE_CURVE ( 'NONE', #799, #580, #399, .T. ) ;
#406 = ORIENTED_EDGE ( 'NONE', *, *, #827, .T. ) ;
#407 = DIRECTION ( 'NONE',  ( 0.000000000000000000, -0.9396926207859076507, -0.3420201433256706558 ) ) ;
#408 = LINE ( 'NONE', #484, #40 ) ;
#409 = DIRECTION ( 'NONE',  ( 0.000000000000000000, -0.3420201433256693790, 0.9396926207859082059 ) ) ;
#410 = DIRECTION ( 'NONE',  ( 1.187832583857454337E-16, 0.9396926207859082059, 0.3420201433256694346 ) ) ;
#411 = DIRECTION ( 'NONE',  ( 9.436895709313832566E-16, -0.3420201433256694346, 0.9396926207859082059 ) ) ;
#412 = CARTESIAN_POINT ( 'NONE',  ( -2.500000000000034195, 21.68567480672219006, -30.34285785547424297 ) ) ;
#413 = CIRCLE ( 'NONE', #278, 2.500000000000001776 ) ;
#414 = ORIENTED_EDGE ( 'NONE', *, *, #728, .F. ) ;
#415 = CARTESIAN_POINT ( 'NONE',  ( -2.500000000000037303, 22.71173523669919803, -33.16193571783197314 ) ) ;
#416 = LINE ( 'NONE', #555, #7 ) ;
#417 = CIRCLE ( 'NONE', #9, 1.299999999999994937 ) ;
#418 = ORIENTED_EDGE ( 'NONE', *, *, #361, .T. ) ;
#419 = DIRECTION ( 'NONE',  ( -9.436895709313828621E-16, 0.3420201433256694346, -0.9396926207859082059 ) ) ;
#420 = FACE_OUTER_BOUND ( 'NONE', #638, .T. ) ;
#421 = ADVANCED_FACE ( 'NONE', ( #165 ), #596, .F. ) ;
#422 = DIRECTION ( 'NONE',  ( 0.000000000000000000, -0.9396926207859083169, -0.3420201433256687684 ) ) ;
#423 = PRESENTATION_STYLE_ASSIGNMENT (( #290 ) ) ;
#424 = CARTESIAN_POINT ( 'NONE',  ( -2.500000000000036415, 25.06096678866397198, -32.30688535951779272 ) ) ;
#425 = ORIENTED_EDGE ( 'NONE', *, *, #92, .T. ) ;
#426 = ORIENTED_EDGE ( 'NONE', *, *, #207, .T. ) ;
#427 = EDGE_CURVE ( 'NONE', #534, #453, #328, .T. ) ;
#428 = SURFACE_STYLE_FILL_AREA ( #498 ) ;
#429 = FILL_AREA_STYLE ('',( #211 ) ) ;
#430 = AXIS2_PLACEMENT_3D ( 'NONE', #282, #505, #659 ) ;
#431 = AXIS2_PLACEMENT_3D ( 'NONE', #811, #168, #457 ) ;
#432 = CARTESIAN_POINT ( 'NONE',  ( 9.000000000000047962, 37.79641855736330314, -27.67155999577837378 ) ) ;
#433 = ORIENTED_EDGE ( 'NONE', *, *, #434, .F. ) ;
#434 = EDGE_CURVE ( 'NONE', #66, #99, #817, .T. ) ;
#435 = CARTESIAN_POINT ( 'NONE',  ( -71.49999999999995737, 59.60488881248375037, -16.54139265060684849 ) ) ;
#436 = CARTESIAN_POINT ( 'NONE',  ( -75.99999999999997158, 62.69827300818972304, -18.60802619764807275 ) ) ;
#437 = DIRECTION ( 'NONE',  ( 0.000000000000000000, -0.9396926207859076507, -0.3420201433256706558 ) ) ;
#438 = EDGE_LOOP ( 'NONE', ( #433, #149, #13, #523 ) ) ;
#439 = EDGE_LOOP ( 'NONE', ( #541, #731 ) ) ;
#440 = CARTESIAN_POINT ( 'NONE',  ( -8.999999999999946709, 36.77035812738629517, -24.85248213342063295 ) ) ;
#441 = EDGE_LOOP ( 'NONE', ( #785, #903, #223, #796 ) ) ;
#442 = ORIENTED_EDGE ( 'NONE', *, *, #860, .T. ) ;
#443 = PLANE ( 'NONE',  #447 ) ;
#444 = CARTESIAN_POINT ( 'NONE',  ( -8.999999999999946709, 38.55577410687951811, -24.20264386110186194 ) ) ;
#445 = EDGE_CURVE ( 'NONE', #380, #737, #408, .T. ) ;
#446 = CIRCLE ( 'NONE', #201, 1.299999999999994493 ) ;
#447 = AXIS2_PLACEMENT_3D ( 'NONE', #802, #807, #727 ) ;
#448 = ORIENTED_EDGE ( 'NONE', *, *, #539, .F. ) ;
#449 = AXIS2_PLACEMENT_3D ( 'NONE', #389, #118, #407 ) ;
#450 = DIRECTION ( 'NONE',  ( 1.187832583857454337E-16, 0.9396926207859082059, 0.3420201433256694346 ) ) ;
#451 = CARTESIAN_POINT ( 'NONE',  ( 9.000000000000051514, 36.77035812738630227, -24.85248213342065071 ) ) ;
#452 = EDGE_CURVE ( 'NONE', #86, #799, #416, .T. ) ;
#453 = VERTEX_POINT ( 'NONE', #111 ) ;
#454 = DIRECTION ( 'NONE',  ( 0.000000000000000000, -0.9396926207859082059, -0.3420201433256693790 ) ) ;
#455 = CARTESIAN_POINT ( 'NONE',  ( 9.000000000000047962, 37.79641855736330314, -27.67155999577837378 ) ) ;
#456 = VERTEX_POINT ( 'NONE', #325 ) ;
#457 = DIRECTION ( 'NONE',  ( 0.000000000000000000, -0.9396926207859077618, -0.3420201433256702117 ) ) ;
#458 = DIRECTION ( 'NONE',  ( -9.436895709313828621E-16, 0.3420201433256694346, -0.9396926207859082059 ) ) ;
#459 = ORIENTED_EDGE ( 'NONE', *, *, #666, .F. ) ;
#460 = VECTOR ( 'NONE', #590, 1000.000000000000000 ) ;
#461 = AXIS2_PLACEMENT_3D ( 'NONE', #893, #49, #249 ) ;
#462 = VERTEX_POINT ( 'NONE', #695 ) ;
#463 = ADVANCED_FACE ( 'NONE', ( #605 ), #54, .T. ) ;
#464 = CARTESIAN_POINT ( 'NONE',  ( -75.99999999999998579, 9.605639933785937501, -37.93216429554840374 ) ) ;
#465 = DIRECTION ( 'NONE',  ( 0.000000000000000000, -0.9396926207859084279, -0.3420201433256688239 ) ) ;
#466 = VERTEX_POINT ( 'NONE', #690 ) ;
#467 = CARTESIAN_POINT ( 'NONE',  ( 76.00000000000002842, 8.579579503808981045, -35.11308643319078726 ) ) ;
#468 = ADVANCED_FACE ( 'NONE', ( #685 ), #769, .T. ) ;
#469 = CARTESIAN_POINT ( 'NONE',  ( -3.390666929667469345E-14, 12.28874859886310134, -33.76305928873092910 ) ) ;
#470 = ADVANCED_FACE ( 'NONE', ( #824, #46, #550, #258, #544, #832, #193, #612 ), #123, .T. ) ;
#471 = DIRECTION ( 'NONE',  ( 9.436895709313832566E-16, -0.3420201433256694346, 0.9396926207859082059 ) ) ;
#472 = DIRECTION ( 'NONE',  ( 0.000000000000000000, 0.3420201433256693790, -0.9396926207859082059 ) ) ;
#473 = EDGE_CURVE ( 'NONE', #790, #791, #159, .T. ) ;
#474 = DIRECTION ( 'NONE',  ( 0.000000000000000000, -0.9396926207859076507, -0.3420201433256706558 ) ) ;
#475 = VECTOR ( 'NONE', #713, 1000.000000000000000 ) ;
#476 = VECTOR ( 'NONE', #535, 1000.000000000000114 ) ;
#477 = DIRECTION ( 'NONE',  ( 9.436895709313832566E-16, -0.3420201433256694346, 0.9396926207859082059 ) ) ;
#478 = CIRCLE ( 'NONE', #449, 1.299999999999994493 ) ;
#479 = LINE ( 'NONE', #492, #503 ) ;
#480 = EDGE_CURVE ( 'NONE', #646, #379, #688, .T. ) ;
#481 = EDGE_LOOP ( 'NONE', ( #349, #252 ) ) ;
#482 = DIRECTION ( 'NONE',  ( 0.000000000000000000, -0.9396926207859087610, -0.3420201433256678802 ) ) ;
#483 = EDGE_LOOP ( 'NONE', ( #218, #598 ) ) ;
#484 = CARTESIAN_POINT ( 'NONE',  ( 76.00000000000002842, 12.28874859886312620, -33.76305928873099305 ) ) ;
#485 = CARTESIAN_POINT ( 'NONE',  ( -2.500000000000036415, 25.06096678866397198, -32.30688535951779272 ) ) ;
#486 = ORIENTED_EDGE ( 'NONE', *, *, #361, .F. ) ;
#487 = EDGE_CURVE ( 'NONE', #166, #86, #206, .T. ) ;
#488 = AXIS2_PLACEMENT_3D ( 'NONE', #898, #540, #333 ) ;
#489 = DIRECTION ( 'NONE',  ( 1.000000000000000000, 4.419526802337301416E-16, -8.433958449432612946E-16 ) ) ;
#490 = AXIS2_PLACEMENT_3D ( 'NONE', #64, #215, #652 ) ;
#491 =( GEOMETRIC_REPRESENTATION_CONTEXT ( 3 ) GLOBAL_UNCERTAINTY_ASSIGNED_CONTEXT ( ( #28 ) ) GLOBAL_UNIT_ASSIGNED_CONTEXT ( ( #787, #532, #246 ) ) REPRESENTATION_CONTEXT ( 'NONE', 'WORKASPACE' ) );
#492 = CARTESIAN_POINT ( 'NONE',  ( 75.00000000000002842, 63.63796562897570652, -18.26600605432254198 ) ) ;
#493 = ORIENTED_EDGE ( 'NONE', *, *, #183, .T. ) ;
#494 = FACE_OUTER_BOUND ( 'NONE', #614, .T. ) ;
#495 = CARTESIAN_POINT ( 'NONE',  ( -3.613260614590521783E-14, 8.665947313000051722, -38.27418443887414412 ) ) ;
#496 = DIRECTION ( 'NONE',  ( 9.436895709313828621E-16, -0.3420201433256693790, 0.9396926207859082059 ) ) ;
#497 = ORIENTED_EDGE ( 'NONE', *, *, #728, .T. ) ;
#498 = FILL_AREA_STYLE ('',( #210 ) ) ;
#499 = DIRECTION ( 'NONE',  ( -1.000000000000000000, -0.000000000000000000, 1.387778780781446070E-15 ) ) ;
#500 = EDGE_CURVE ( 'NONE', #462, #891, #358, .T. ) ;
#501 = EDGE_LOOP ( 'NONE', ( #753, #154 ) ) ;
#502 = DIRECTION ( 'NONE',  ( 0.000000000000000000, -0.9396926207859083169, -0.3420201433256687684 ) ) ;
#503 = VECTOR ( 'NONE', #133, 1000.000000000000114 ) ;
#504 = AXIS2_PLACEMENT_3D ( 'NONE', #508, #635, #147 ) ;
#505 = DIRECTION ( 'NONE',  ( 9.436895709313832566E-16, -0.3420201433256694346, 0.9396926207859082059 ) ) ;
#506 = VERTEX_POINT ( 'NONE', #794 ) ;
#507 = DIRECTION ( 'NONE',  ( 0.000000000000000000, 0.000000000000000000, 1.000000000000000000 ) ) ;
#508 = CARTESIAN_POINT ( 'NONE',  ( 71.50000000000005684, 11.86850367655966032, -33.91601593155098016 ) ) ;
#509 = CARTESIAN_POINT ( 'NONE',  ( 2.499999999999963585, 20.36250368473442762, -34.01698607614614644 ) ) ;
#510 = ORIENTED_EDGE ( 'NONE', *, *, #17, .T. ) ;
#511 = CARTESIAN_POINT ( 'NONE',  ( -71.49999999999995737, 11.67296369951496615, -37.17971998023193692 ) ) ;
#512 = PLANE ( 'NONE',  #732 ) ;
#513 = ORIENTED_EDGE ( 'NONE', *, *, #44, .F. ) ;
#514 = DIRECTION ( 'NONE',  ( 9.436895709313830594E-16, -0.3420201433256694346, 0.9396926207859082059 ) ) ;
#515 = EDGE_CURVE ( 'NONE', #876, #158, #348, .T. ) ;
#516 = DIRECTION ( 'NONE',  ( 0.000000000000000000, -0.9396926207859084279, -0.3420201433256688239 ) ) ;
#517 = CIRCLE ( 'NONE', #623, 2.500000000000001776 ) ;
#518 = VECTOR ( 'NONE', #738, 1000.000000000000114 ) ;
#519 = ORIENTED_EDGE ( 'NONE', *, *, #199, .T. ) ;
#520 = MANIFOLD_SOLID_BREP ( '∂Øƒ - âüÇµèoÇµ2', #231 ) ;
#521 = FACE_OUTER_BOUND ( 'NONE', #72, .T. ) ;
#522 = FACE_BOUND ( 'NONE', #360, .T. ) ;
#523 = ORIENTED_EDGE ( 'NONE', *, *, #267, .F. ) ;
#524 = CARTESIAN_POINT ( 'NONE',  ( -4.069937437147769121E-14, 62.61190519899867724, -15.44692819196475142 ) ) ;
#525 = CARTESIAN_POINT ( 'NONE',  ( -2.500000000000036415, 19.33644325475740899, -31.19790821378840207 ) ) ;
#526 = ORIENTED_EDGE ( 'NONE', *, *, #44, .T. ) ;
#527 = EDGE_CURVE ( 'NONE', #841, #293, #315, .T. ) ;
#528 = ORIENTED_EDGE ( 'NONE', *, *, #183, .F. ) ;
#529 = CARTESIAN_POINT ( 'NONE',  ( 75.00000000000002842, 62.69827300818979410, -18.60802619764821131 ) ) ;
#530 = LINE ( 'NONE', #374, #55 ) ;
#531 = ORIENTED_EDGE ( 'NONE', *, *, #259, .T. ) ;
#532 =( NAMED_UNIT ( * ) PLANE_ANGLE_UNIT ( ) SI_UNIT ( $, .RADIAN. ) );
#533 = CIRCLE ( 'NONE', #128, 1.900000000000002354 ) ;
#534 = VERTEX_POINT ( 'NONE', #221 ) ;
#535 = DIRECTION ( 'NONE',  ( 9.511493642054062451E-16, -0.3420201433256693790, 0.9396926207859082059 ) ) ;
#536 = ORIENTED_EDGE ( 'NONE', *, *, #584, .T. ) ;
#537 = ORIENTED_EDGE ( 'NONE', *, *, #562, .F. ) ;
#538 = PLANE ( 'NONE',  #594 ) ;
#539 = EDGE_CURVE ( 'NONE', #79, #650, #281, .T. ) ;
#540 = DIRECTION ( 'NONE',  ( 9.436895709313830594E-16, -0.3420201433256694346, 0.9396926207859082059 ) ) ;
#541 = ORIENTED_EDGE ( 'NONE', *, *, #762, .F. ) ;
#542 = ORIENTED_EDGE ( 'NONE', *, *, #568, .T. ) ;
#543 = DIRECTION ( 'NONE',  ( 9.436895709313830594E-16, -0.3420201433256693790, 0.9396926207859082059 ) ) ;
#544 = FACE_BOUND ( 'NONE', #439, .T. ) ;
#545 = EDGE_CURVE ( 'NONE', #48, #910, #74, .T. ) ;
#546 = CARTESIAN_POINT ( 'NONE',  ( -74.99999999999997158, 62.69827300818973725, -18.60802619764808341 ) ) ;
#547 = EDGE_LOOP ( 'NONE', ( #150, #880, #163, #610 ) ) ;
#548 = DIRECTION ( 'NONE',  ( 0.000000000000000000, -0.9396926207859076507, -0.3420201433256706558 ) ) ;
#549 = CIRCLE ( 'NONE', #676, 1.299999999999994937 ) ;
#550 = FACE_BOUND ( 'NONE', #441, .T. ) ;
#551 = VERTEX_POINT ( 'NONE', #436 ) ;
#552 = ORIENTED_EDGE ( 'NONE', *, *, #350, .F. ) ;
#553 = ORIENTED_EDGE ( 'NONE', *, *, #822, .T. ) ;
#554 = CARTESIAN_POINT ( 'NONE',  ( 71.50000000000005684, 12.89456410653666651, -36.73509379390870322 ) ) ;
#555 = CARTESIAN_POINT ( 'NONE',  ( -74.99999999999998579, 8.665947313000010865, -38.27418443887405886 ) ) ;
#556 = VERTEX_POINT ( 'NONE', #559 ) ;
#557 = ADVANCED_FACE ( 'NONE', ( #420 ), #719, .F. ) ;
#558 = CYLINDRICAL_SURFACE ( 'NONE', #302, 1.299999999999996270 ) ;
#559 = CARTESIAN_POINT ( 'NONE',  ( -75.99999999999997158, 61.67221257821271507, -15.78894833529034791 ) ) ;
#560 = CARTESIAN_POINT ( 'NONE',  ( 71.50000000000005684, 10.64690326953798305, -34.36064211787435596 ) ) ;
#561 = ORIENTED_EDGE ( 'NONE', *, *, #167, .T. ) ;
#562 = EDGE_CURVE ( 'NONE', #6, #737, #151, .T. ) ;
#563 = FACE_OUTER_BOUND ( 'NONE', #711, .T. ) ;
#564 = AXIS2_PLACEMENT_3D ( 'NONE', #155, #22, #815 ) ;
#565 = DIRECTION ( 'NONE',  ( 9.436895709313830594E-16, -0.3420201433256693790, 0.9396926207859082059 ) ) ;
#566 = ORIENTED_EDGE ( 'NONE', *, *, #253, .T. ) ;
#567 = ORIENTED_EDGE ( 'NONE', *, *, #405, .T. ) ;
#568 = EDGE_CURVE ( 'NONE', #166, #765, #81, .T. ) ;
#569 = CYLINDRICAL_SURFACE ( 'NONE', #21, 1.299999999999994493 ) ;
#570 = ORIENTED_EDGE ( 'NONE', *, *, #285, .T. ) ;
#571 = DIRECTION ( 'NONE',  ( 1.268413045844220284E-16, -0.9396926207859082059, -0.3420201433256693790 ) ) ;
#572 = ADVANCED_FACE ( 'NONE', ( #667 ), #386, .T. ) ;
#573 = CARTESIAN_POINT ( 'NONE',  ( -71.49999999999995737, 58.18774842841740025, -20.24972288561130895 ) ) ;
#574 = ORIENTED_EDGE ( 'NONE', *, *, #272, .T. ) ;
#575 = DIRECTION ( 'NONE',  ( 0.000000000000000000, -0.9396926207859077618, -0.3420201433256702117 ) ) ;
#576 = DIRECTION ( 'NONE',  ( 0.000000000000000000, -0.9396926207859084279, -0.3420201433256689905 ) ) ;
#577 = AXIS2_PLACEMENT_3D ( 'NONE', #752, #673, #678 ) ;
#578 = CIRCLE ( 'NONE', #704, 0.9999999999999995559 ) ;
#579 = LINE ( 'NONE', #153, #202 ) ;
#580 = VERTEX_POINT ( 'NONE', #160 ) ;
#581 = DIRECTION ( 'NONE',  ( 0.000000000000000000, -0.9396926207859084279, -0.3420201433256689905 ) ) ;
#582 = FACE_OUTER_BOUND ( 'NONE', #375, .T. ) ;
#583 = ORIENTED_EDGE ( 'NONE', *, *, #545, .T. ) ;
#584 = EDGE_CURVE ( 'NONE', #618, #905, #600, .T. ) ;
#585 = FACE_OUTER_BOUND ( 'NONE', #438, .T. ) ;
#586 = CARTESIAN_POINT ( 'NONE',  ( -74.99999999999998579, 8.579579503808911767, -35.11308643319066647 ) ) ;
#587 = ORIENTED_EDGE ( 'NONE', *, *, #568, .F. ) ;
#588 = CYLINDRICAL_SURFACE ( 'NONE', #836, 1.299999999999994493 ) ;
#589 = EDGE_CURVE ( 'NONE', #813, #323, #97, .T. ) ;
#590 = DIRECTION ( 'NONE',  ( 1.000000000000000000, 6.938893903907228378E-16, -6.938893903907228378E-16 ) ) ;
#591 = VECTOR ( 'NONE', #565, 1000.000000000000114 ) ;
#592 = CIRCLE ( 'NONE', #345, 1.000000000000001110 ) ;
#593 = EDGE_LOOP ( 'NONE', ( #213, #552, #871, #228 ) ) ;
#594 = AXIS2_PLACEMENT_3D ( 'NONE', #395, #45, #472 ) ;
#595 = CARTESIAN_POINT ( 'NONE',  ( -75.00000000000005684, 63.63796562897565678, -18.26600605432241764 ) ) ;
#596 = CYLINDRICAL_SURFACE ( 'NONE', #186, 1.900000000000002354 ) ;
#597 = EDGE_CURVE ( 'NONE', #209, #256, #368, .T. ) ;
#598 = ORIENTED_EDGE ( 'NONE', *, *, #887, .T. ) ;
#599 = APPLICATION_CONTEXT ( 'automotive_design' ) ;
#600 = LINE ( 'NONE', #18, #235 ) ;
#601 = CARTESIAN_POINT ( 'NONE',  ( -75.99999999999998579, 9.605639933785937501, -37.93216429554840374 ) ) ;
#602 = EDGE_LOOP ( 'NONE', ( #170, #510, #553, #255 ) ) ;
#603 = ORIENTED_EDGE ( 'NONE', *, *, #137, .T. ) ;
#604 = LINE ( 'NONE', #178, #476 ) ;
#605 = FACE_OUTER_BOUND ( 'NONE', #31, .T. ) ;
#606 = ORIENTED_EDGE ( 'NONE', *, *, #779, .T. ) ;
#607 = VECTOR ( 'NONE', #70, 1000.000000000000114 ) ;
#608 = ADVANCED_FACE ( 'NONE', ( #797 ), #677, .F. ) ;
#609 = CIRCLE ( 'NONE', #75, 1.900000000000002354 ) ;
#610 = ORIENTED_EDGE ( 'NONE', *, *, #805, .T. ) ;
#611 = FACE_OUTER_BOUND ( 'NONE', #665, .T. ) ;
#612 = FACE_OUTER_BOUND ( 'NONE', #730, .T. ) ;
#613 = DIRECTION ( 'NONE',  ( 9.436895709313830594E-16, -0.3420201433256694346, 0.9396926207859082059 ) ) ;
#614 = EDGE_LOOP ( 'NONE', ( #194, #662, #288, #715 ) ) ;
#615 = ADVANCED_FACE ( 'NONE', ( #226 ), #588, .F. ) ;
#616 = DIRECTION ( 'NONE',  ( -4.930380657631323784E-32, -0.9396926207859082059, -0.3420201433256694346 ) ) ;
#617 = DIRECTION ( 'NONE',  ( 9.511493642054064423E-16, -0.3420201433256694346, 0.9396926207859083169 ) ) ;
#618 = VERTEX_POINT ( 'NONE', #511 ) ;
#619 = CARTESIAN_POINT ( 'NONE',  ( 71.50000000000005684, 14.11616451355834378, -36.29046760758533452 ) ) ;
#620 = EDGE_CURVE ( 'NONE', #556, #209, #330, .T. ) ;
#621 = DIRECTION ( 'NONE',  ( -1.387778780781446307E-14, -0.9396926207859082059, -0.3420201433256693790 ) ) ;
#622 = ORIENTED_EDGE ( 'NONE', *, *, #670, .T. ) ;
#623 = AXIS2_PLACEMENT_3D ( 'NONE', #412, #756, #271 ) ;
#624 = ORIENTED_EDGE ( 'NONE', *, *, #35, .F. ) ;
#625 = AXIS2_PLACEMENT_3D ( 'NONE', #864, #69, #131 ) ;
#626 = DIRECTION ( 'NONE',  ( 9.436895709313832566E-16, -0.3420201433256694346, 0.9396926207859083169 ) ) ;
#627 = ADVANCED_BREP_SHAPE_REPRESENTATION ( 'Part8^Assem7_Assem3', ( #520, #11 ), #775 ) ;
#628 = ADVANCED_FACE ( 'NONE', ( #321 ), #443, .F. ) ;
#629 = CYLINDRICAL_SURFACE ( 'NONE', #916, 1.900000000000002354 ) ;
#630 = LINE ( 'NONE', #912, #820 ) ;
#631 = CARTESIAN_POINT ( 'NONE',  ( 9.000000000000047962, 36.01100257787008019, -28.32139826809714478 ) ) ;
#632 = EDGE_CURVE ( 'NONE', #580, #556, #733, .T. ) ;
#633 = ORIENTED_EDGE ( 'NONE', *, *, #30, .T. ) ;
#634 = PLANE ( 'NONE',  #316 ) ;
#635 = DIRECTION ( 'NONE',  ( 9.436895709313830594E-16, -0.3420201433256694346, 0.9396926207859082059 ) ) ;
#636 = LINE ( 'NONE', #866, #280 ) ;
#637 = ORIENTED_EDGE ( 'NONE', *, *, #545, .F. ) ;
#638 = EDGE_LOOP ( 'NONE', ( #867, #497, #693, #388 ) ) ;
#639 = EDGE_CURVE ( 'NONE', #891, #73, #874, .T. ) ;
#640 = AXIS2_PLACEMENT_3D ( 'NONE', #828, #617, #50 ) ;
#641 = CARTESIAN_POINT ( 'NONE',  ( -71.49999999999995737, 10.64690326953795818, -34.36064211787421385 ) ) ;
#642 = STYLED_ITEM ( 'NONE', ( #423 ), #520 ) ;
#643 = MECHANICAL_DESIGN_GEOMETRIC_PRESENTATION_REPRESENTATION (  '', ( #59 ), #491 ) ;
#644 = LINE ( 'NONE', #424, #234 ) ;
#645 = ORIENTED_EDGE ( 'NONE', *, *, #741, .T. ) ;
#646 = VERTEX_POINT ( 'NONE', #164 ) ;
#647 = CYLINDRICAL_SURFACE ( 'NONE', #906, 2.500000000000001776 ) ;
#648 = DIRECTION ( 'NONE',  ( 0.000000000000000000, -0.9396926207859083169, -0.3420201433256687684 ) ) ;
#649 = ORIENTED_EDGE ( 'NONE', *, *, #179, .F. ) ;
#650 = VERTEX_POINT ( 'NONE', #884 ) ;
#651 = PRESENTATION_STYLE_ASSIGNMENT (( #717 ) ) ;
#652 = DIRECTION ( 'NONE',  ( 0.000000000000000000, -0.9396926207859083169, -0.3420201433256687684 ) ) ;
#653 = DIRECTION ( 'NONE',  ( 9.436895709313830594E-16, -0.3420201433256693790, 0.9396926207859082059 ) ) ;
#654 = EDGE_CURVE ( 'NONE', #6, #166, #592, .T. ) ;
#655 = EDGE_LOOP ( 'NONE', ( #239, #242, #888, #603 ) ) ;
#656 = DIRECTION ( 'NONE',  ( 9.511493642054062451E-16, -0.3420201433256693790, 0.9396926207859082059 ) ) ;
#657 = AXIS2_PLACEMENT_3D ( 'NONE', #901, #403, #251 ) ;
#658 = VECTOR ( 'NONE', #823, 1000.000000000000114 ) ;
#659 = DIRECTION ( 'NONE',  ( 0.000000000000000000, -0.9396926207859083169, -0.3420201433256687684 ) ) ;
#660 = CIRCLE ( 'NONE', #41, 1.000000000000001110 ) ;
#661 = ADVANCED_FACE ( 'NONE', ( #585 ), #317, .F. ) ;
#662 = ORIENTED_EDGE ( 'NONE', *, *, #253, .F. ) ;
#663 = LINE ( 'NONE', #595, #518 ) ;
#664 = FACE_OUTER_BOUND ( 'NONE', #37, .T. ) ;
#665 = EDGE_LOOP ( 'NONE', ( #856, #245, #196, #354 ) ) ;
#666 = EDGE_CURVE ( 'NONE', #876, #209, #663, .T. ) ;
#667 = FACE_OUTER_BOUND ( 'NONE', #334, .T. ) ;
#668 = DIRECTION ( 'NONE',  ( 9.511493642054064423E-16, -0.3420201433256694346, 0.9396926207859083169 ) ) ;
#669 = ORIENTED_EDGE ( 'NONE', *, *, #539, .T. ) ;
#670 = EDGE_CURVE ( 'NONE', #99, #66, #788, .T. ) ;
#671 = DIRECTION ( 'NONE',  ( 1.000000000000000000, 4.419526802337301416E-16, -8.433958449432612946E-16 ) ) ;
#672 = UNCERTAINTY_MEASURE_WITH_UNIT (LENGTH_MEASURE( 1.000000000000000082E-05 ), #274, 'distance_accuracy_value', 'NONE');
#673 = DIRECTION ( 'NONE',  ( 9.436895709313832566E-16, -0.3420201433256694346, 0.9396926207859082059 ) ) ;
#674 = VECTOR ( 'NONE', #543, 1000.000000000000114 ) ;
#675 = ORIENTED_EDGE ( 'NONE', *, *, #620, .F. ) ;
#676 = AXIS2_PLACEMENT_3D ( 'NONE', #347, #712, #200 ) ;
#677 = CYLINDRICAL_SURFACE ( 'NONE', #818, 2.500000000000001776 ) ;
#678 = DIRECTION ( 'NONE',  ( 0.000000000000000000, -0.9396926207859083169, -0.3420201433256687684 ) ) ;
#679 = EDGE_LOOP ( 'NONE', ( #777, #537, #338, #47 ) ) ;
#680 = CARTESIAN_POINT ( 'NONE',  ( 76.00000000000002842, 13.31480902884013418, -36.58213715108871611 ) ) ;
#681 = FACE_BOUND ( 'NONE', #853, .T. ) ;
#682 = PRODUCT_DEFINITION_SHAPE ( 'NONE', 'NONE',  #132 ) ;
#683 = EDGE_LOOP ( 'NONE', ( #62, #855, #842, #442, #924, #633, #224, #767 ) ) ;
#684 = CARTESIAN_POINT ( 'NONE',  ( -8.999999999999950262, 39.58183453685652609, -27.02172172345958856 ) ) ;
#685 = FACE_OUTER_BOUND ( 'NONE', #247, .T. ) ;
#686 = AXIS2_PLACEMENT_3D ( 'NONE', #382, #157, #312 ) ;
#687 = CARTESIAN_POINT ( 'NONE',  ( -71.49999999999995737, 12.89456410653664165, -36.73509379390856822 ) ) ;
#688 = CIRCLE ( 'NONE', #385, 1.900000000000002354 ) ;
#689 = CARTESIAN_POINT ( 'NONE',  ( -8.999999999999950262, 37.79641855736330314, -27.67155999577835956 ) ) ;
#690 = CARTESIAN_POINT ( 'NONE',  ( -71.49999999999995737, 57.16168799844039228, -17.43064502325358944 ) ) ;
#691 = CARTESIAN_POINT ( 'NONE',  ( -74.99999999999998579, 8.665947313000010865, -38.27418443887405886 ) ) ;
#692 = ADVANCED_FACE ( 'NONE', ( #521 ), #240, .F. ) ;
#693 = ORIENTED_EDGE ( 'NONE', *, *, #161, .T. ) ;
#694 = CARTESIAN_POINT ( 'NONE',  ( 75.00000000000002842, 61.67221257821278613, -15.78894833529048647 ) ) ;
#695 = CARTESIAN_POINT ( 'NONE',  ( 2.499999999999966693, 19.33644325475741965, -31.19790821378841983 ) ) ;
#696 = CARTESIAN_POINT ( 'NONE',  ( -71.49999999999995737, 60.63094924246075834, -19.36047051296457155 ) ) ;
#697 = CARTESIAN_POINT ( 'NONE',  ( 71.50000000000005684, 11.67296369951499102, -37.17971998023207902 ) ) ;
#698 = EDGE_CURVE ( 'NONE', #868, #466, #863, .T. ) ;
#699 = DIRECTION ( 'NONE',  ( 0.000000000000000000, -0.9396926207859084279, -0.3420201433256689905 ) ) ;
#700 = CARTESIAN_POINT ( 'NONE',  ( -71.49999999999995737, 58.18774842841740025, -20.24972288561131251 ) ) ;
#701 = ORIENTED_EDGE ( 'NONE', *, *, #480, .T. ) ;
#702 = VECTOR ( 'NONE', #653, 1000.000000000000114 ) ;
#703 = ORIENTED_EDGE ( 'NONE', *, *, #911, .T. ) ;
#704 = AXIS2_PLACEMENT_3D ( 'NONE', #694, #343, #401 ) ;
#705 =( NAMED_UNIT ( * ) PLANE_ANGLE_UNIT ( ) SI_UNIT ( $, .RADIAN. ) );
#706 = DIRECTION ( 'NONE',  ( 9.436895709313828621E-16, -0.3420201433256693790, 0.9396926207859082059 ) ) ;
#707 = CARTESIAN_POINT ( 'NONE',  ( 2.499999999999964917, 24.03490635868696401, -29.48780749716007321 ) ) ;
#708 = DIRECTION ( 'NONE',  ( 0.000000000000000000, -0.9396926207859083169, -0.3420201433256687684 ) ) ;
#709 = LINE ( 'NONE', #287, #591 ) ;
#710 = EDGE_CURVE ( 'NONE', #456, #380, #604, .T. ) ;
#711 = EDGE_LOOP ( 'NONE', ( #740, #143, #825, #669 ) ) ;
#712 = DIRECTION ( 'NONE',  ( 9.436895709313830594E-16, -0.3420201433256694346, 0.9396926207859082059 ) ) ;
#713 = DIRECTION ( 'NONE',  ( 1.000000000000000000, 6.938893903907228378E-16, -6.938893903907228378E-16 ) ) ;
#714 = EDGE_LOOP ( 'NONE', ( #414, #486, #574, #701 ) ) ;
#715 = ORIENTED_EDGE ( 'NONE', *, *, #666, .T. ) ;
#716 = AXIS2_PLACEMENT_3D ( 'NONE', #451, #743, #758 ) ;
#717 = SURFACE_STYLE_USAGE ( .BOTH. , #351 ) ;
#718 = COLOUR_RGB ( '',0.7921568627450980005, 0.8196078431372548767, 0.9333333333333333481 ) ;
#719 = CYLINDRICAL_SURFACE ( 'NONE', #188, 1.900000000000002354 ) ;
#720 = CARTESIAN_POINT ( 'NONE',  ( 75.00000000000002842, 63.63796562897570652, -18.26600605432254198 ) ) ;
#721 = ORIENTED_EDGE ( 'NONE', *, *, #365, .F. ) ;
#722 = ORIENTED_EDGE ( 'NONE', *, *, #276, .T. ) ;
#723 = DIRECTION ( 'NONE',  ( 0.000000000000000000, -0.9396926207859084279, -0.3420201433256688239 ) ) ;
#724 = DIRECTION ( 'NONE',  ( 9.511493642054062451E-16, -0.3420201433256693790, 0.9396926207859082059 ) ) ;
#725 = FACE_OUTER_BOUND ( 'NONE', #602, .T. ) ;
#726 = ORIENTED_EDGE ( 'NONE', *, *, #30, .F. ) ;
#727 = DIRECTION ( 'NONE',  ( 8.937880388090287188E-16, 0.000000000000000000, 1.000000000000000000 ) ) ;
#728 = EDGE_CURVE ( 'NONE', #918, #379, #831, .T. ) ;
#729 = CARTESIAN_POINT ( 'NONE',  ( -71.49999999999995737, 58.38328840546207488, -16.98601883693021719 ) ) ;
#730 = EDGE_LOOP ( 'NONE', ( #861, #36, #895, #675, #176, #335, #749, #392 ) ) ;
#731 = ORIENTED_EDGE ( 'NONE', *, *, #822, .F. ) ;
#732 = AXIS2_PLACEMENT_3D ( 'NONE', #244, #105, #95 ) ;
#733 = LINE ( 'NONE', #881, #803 ) ;
#734 = CIRCLE ( 'NONE', #87, 1.299999999999994493 ) ;
#735 = AXIS2_PLACEMENT_3D ( 'NONE', #119, #411, #699 ) ;
#736 = DIRECTION ( 'NONE',  ( -1.000000000000000000, -4.419526802337301416E-16, 8.433958449432612946E-16 ) ) ;
#737 = VERTEX_POINT ( 'NONE', #467 ) ;
#738 = DIRECTION ( 'NONE',  ( 9.511493642054062451E-16, -0.3420201433256693790, 0.9396926207859082059 ) ) ;
#739 = DIRECTION ( 'NONE',  ( 0.000000000000000000, -0.9396926207859076507, -0.3420201433256706558 ) ) ;
#740 = ORIENTED_EDGE ( 'NONE', *, *, #779, .F. ) ;
#741 = EDGE_CURVE ( 'NONE', #737, #765, #265, .T. ) ;
#742 = DIRECTION ( 'NONE',  ( 9.436895709313828621E-16, -0.3420201433256693790, 0.9396926207859082059 ) ) ;
#743 = DIRECTION ( 'NONE',  ( 9.436895709313832566E-16, -0.3420201433256694346, 0.9396926207859082059 ) ) ;
#744 = VERTEX_POINT ( 'NONE', #697 ) ;
#745 = CARTESIAN_POINT ( 'NONE',  ( -71.49999999999995737, 58.38328840546207488, -16.98601883693021719 ) ) ;
#746 = FACE_BOUND ( 'NONE', #283, .T. ) ;
#747 = VECTOR ( 'NONE', #390, 1000.000000000000114 ) ;
#748 = PRESENTATION_LAYER_ASSIGNMENT (  '', '', ( #642 ) ) ;
#749 = ORIENTED_EDGE ( 'NONE', *, *, #391, .F. ) ;
#750 = AXIS2_PLACEMENT_3D ( 'NONE', #838, #192, #482 ) ;
#751 = CARTESIAN_POINT ( 'NONE',  ( 71.50000000000005684, 58.38328840546210330, -16.98601883693034509 ) ) ;
#752 = CARTESIAN_POINT ( 'NONE',  ( -8.999999999999950262, 37.79641855736330314, -27.67155999577835956 ) ) ;
#753 = ORIENTED_EDGE ( 'NONE', *, *, #137, .F. ) ;
#754 = DIRECTION ( 'NONE',  ( 9.436895709313830594E-16, -0.3420201433256694346, 0.9396926207859082059 ) ) ;
#755 = EDGE_CURVE ( 'NONE', #313, #551, #324, .T. ) ;
#756 = DIRECTION ( 'NONE',  ( 9.436895709313832566E-16, -0.3420201433256694346, 0.9396926207859082059 ) ) ;
#757 = DIRECTION ( 'NONE',  ( 9.511493642054062451E-16, -0.3420201433256693790, 0.9396926207859082059 ) ) ;
#758 = DIRECTION ( 'NONE',  ( 0.000000000000000000, -0.9396926207859083169, -0.3420201433256687684 ) ) ;
#759 = EDGE_CURVE ( 'NONE', #256, #380, #578, .T. ) ;
#760 = CIRCLE ( 'NONE', #801, 1.900000000000002354 ) ;
#761 = LINE ( 'NONE', #115, #264 ) ;
#762 = EDGE_CURVE ( 'NONE', #52, #292, #417, .T. ) ;
#763 = DIRECTION ( 'NONE',  ( 0.000000000000000000, -0.9396926207859083169, -0.3420201433256687684 ) ) ;
#764 = DIRECTION ( 'NONE',  ( 0.000000000000000000, -0.9396926207859082059, -0.3420201433256694346 ) ) ;
#765 = VERTEX_POINT ( 'NONE', #114 ) ;
#766 = ADVANCED_FACE ( 'NONE', ( #182 ), #889, .F. ) ;
#767 = ORIENTED_EDGE ( 'NONE', *, *, #340, .T. ) ;
#768 = CARTESIAN_POINT ( 'NONE',  ( 71.50000000000005684, 58.18774842841742867, -20.24972288561144396 ) ) ;
#769 = CYLINDRICAL_SURFACE ( 'NONE', #640, 1.000000000000001110 ) ;
#770 = EDGE_LOOP ( 'NONE', ( #363, #426, #177, #806 ) ) ;
#771 = LINE ( 'NONE', #289, #104 ) ;
#772 = LINE ( 'NONE', #509, #607 ) ;
#773 = CIRCLE ( 'NONE', #834, 1.299999999999994937 ) ;
#774 = VECTOR ( 'NONE', #656, 1000.000000000000114 ) ;
#775 =( GEOMETRIC_REPRESENTATION_CONTEXT ( 3 ) GLOBAL_UNCERTAINTY_ASSIGNED_CONTEXT ( ( #39 ) ) GLOBAL_UNIT_ASSIGNED_CONTEXT ( ( #294, #705, #139 ) ) REPRESENTATION_CONTEXT ( 'NONE', 'WORKASPACE' ) );
#776 = CARTESIAN_POINT ( 'NONE',  ( -2.500000000000036415, 20.36250368473442762, -34.01698607614614644 ) ) ;
#777 = ORIENTED_EDGE ( 'NONE', *, *, #445, .T. ) ;
#778 = DIRECTION ( 'NONE',  ( 9.436895709313830594E-16, -0.3420201433256694346, 0.9396926207859083169 ) ) ;
#779 = EDGE_CURVE ( 'NONE', #58, #650, #270, .T. ) ;
#780 = CARTESIAN_POINT ( 'NONE',  ( -75.00000000000005684, 62.61190519899864881, -15.44692819196468925 ) ) ;
#781 = ORIENTED_EDGE ( 'NONE', *, *, #487, .F. ) ;
#782 = DIRECTION ( 'NONE',  ( 9.436895709313828621E-16, -0.3420201433256693790, 0.9396926207859082059 ) ) ;
#783 = FACE_OUTER_BOUND ( 'NONE', #268, .T. ) ;
#784 = EDGE_CURVE ( 'NONE', #744, #58, #372, .T. ) ;
#785 = ORIENTED_EDGE ( 'NONE', *, *, #92, .F. ) ;
#786 = AXIS2_PLACEMENT_3D ( 'NONE', #169, #458, #237 ) ;
#787 =( LENGTH_UNIT ( ) NAMED_UNIT ( * ) SI_UNIT ( .MILLI., .METRE. ) );
#788 = CIRCLE ( 'NONE', #174, 1.299999999999994937 ) ;
#789 = DIRECTION ( 'NONE',  ( 9.436895709313830594E-16, -0.3420201433256694346, 0.9396926207859082059 ) ) ;
#790 = VERTEX_POINT ( 'NONE', #339 ) ;
#791 = VERTEX_POINT ( 'NONE', #110 ) ;
#792 = ADVANCED_FACE ( 'NONE', ( #611 ), #538, .F. ) ;
#793 = DIRECTION ( 'NONE',  ( 1.000000000000000000, 0.000000000000000000, 0.000000000000000000 ) ) ;
#794 = CARTESIAN_POINT ( 'NONE',  ( -71.49999999999995737, 14.11616451355831536, -36.29046760758519952 ) ) ;
#795 = LINE ( 'NONE', #776, #475 ) ;
#796 = ORIENTED_EDGE ( 'NONE', *, *, #376, .F. ) ;
#797 = FACE_OUTER_BOUND ( 'NONE', #593, .T. ) ;
#798 = PLANE ( 'NONE',  #686 ) ;
#799 = VERTEX_POINT ( 'NONE', #826 ) ;
#800 = CIRCLE ( 'NONE', #398, 1.299999999999994493 ) ;
#801 = AXIS2_PLACEMENT_3D ( 'NONE', #440, #922, #422 ) ;
#802 = CARTESIAN_POINT ( 'NONE',  ( 76.00000000000002842, 13.31480902884013418, -36.58213715108871611 ) ) ;
#803 = VECTOR ( 'NONE', #450, 1000.000000000000000 ) ;
#804 = CARTESIAN_POINT ( 'NONE',  ( -74.99999999999998579, 9.605639933785919737, -37.93216429554838953 ) ) ;
#805 = EDGE_CURVE ( 'NONE', #313, #580, #257, .T. ) ;
#806 = ORIENTED_EDGE ( 'NONE', *, *, #199, .F. ) ;
#807 = DIRECTION ( 'NONE',  ( -1.000000000000000000, -3.253122418696524060E-16, 8.937880388090287188E-16 ) ) ;
#808 = CARTESIAN_POINT ( 'NONE',  ( 76.00000000000001421, 61.67221257821277192, -15.78894833529049713 ) ) ;
#809 = EDGE_CURVE ( 'NONE', #456, #6, #336, .T. ) ;
#810 = ORIENTED_EDGE ( 'NONE', *, *, #452, .T. ) ;
#811 = CARTESIAN_POINT ( 'NONE',  ( 71.50000000000005684, 12.89456410653666651, -36.73509379390870322 ) ) ;
#812 = DIRECTION ( 'NONE',  ( 9.436895709313830594E-16, -0.3420201433256694346, 0.9396926207859082059 ) ) ;
#813 = VERTEX_POINT ( 'NONE', #896 ) ;
#814 = AXIS2_PLACEMENT_3D ( 'NONE', #546, #124, #621 ) ;
#815 = DIRECTION ( 'NONE',  ( 0.000000000000000000, -0.9396926207859082059, -0.3420201433256693790 ) ) ;
#816 = LINE ( 'NONE', #387, #747 ) ;
#817 = CIRCLE ( 'NONE', #488, 1.299999999999994937 ) ;
#818 = AXIS2_PLACEMENT_3D ( 'NONE', #311, #10, #581 ) ;
#819 = ORIENTED_EDGE ( 'NONE', *, *, #527, .F. ) ;
#820 = VECTOR ( 'NONE', #364, 1000.000000000000114 ) ;
#821 = EDGE_LOOP ( 'NONE', ( #923, #526 ) ) ;
#822 = EDGE_CURVE ( 'NONE', #292, #52, #90, .T. ) ;
#823 = DIRECTION ( 'NONE',  ( 9.436895709313828621E-16, -0.3420201433256693790, 0.9396926207859082059 ) ) ;
#824 = FACE_BOUND ( 'NONE', #481, .T. ) ;
#825 = ORIENTED_EDGE ( 'NONE', *, *, #897, .T. ) ;
#826 = CARTESIAN_POINT ( 'NONE',  ( -74.99999999999998579, 7.639886883023003783, -35.45510657651633579 ) ) ;
#827 = EDGE_CURVE ( 'NONE', #453, #534, #609, .T. ) ;
#828 = CARTESIAN_POINT ( 'NONE',  ( 75.00000000000002842, 9.605639933785992568, -37.93216429554852454 ) ) ;
#829 = ORIENTED_EDGE ( 'NONE', *, *, #833, .F. ) ;
#830 = EDGE_LOOP ( 'NONE', ( #113, #819, #703, #309 ) ) ;
#831 = LINE ( 'NONE', #684, #674 ) ;
#832 = FACE_BOUND ( 'NONE', #367, .T. ) ;
#833 = EDGE_CURVE ( 'NONE', #618, #506, #478, .T. ) ;
#834 = AXIS2_PLACEMENT_3D ( 'NONE', #729, #370, #208 ) ;
#835 = EDGE_LOOP ( 'NONE', ( #892, #83 ) ) ;
#836 = AXIS2_PLACEMENT_3D ( 'NONE', #27, #173, #243 ) ;
#837 = PRODUCT_DEFINITION_FORMATION_WITH_SPECIFIED_SOURCE ( 'ANY', '', #25, .NOT_KNOWN. ) ;
#838 = CARTESIAN_POINT ( 'NONE',  ( 71.50000000000005684, 59.40934883543910416, -19.80509669928807170 ) ) ;
#839 = CARTESIAN_POINT ( 'NONE',  ( -3.613260614590521783E-14, 8.665947313000051722, -38.27418443887414412 ) ) ;
#840 = ADVANCED_FACE ( 'NONE', ( #900 ), #262, .F. ) ;
#841 = VERTEX_POINT ( 'NONE', #768 ) ;
#842 = ORIENTED_EDGE ( 'NONE', *, *, #487, .T. ) ;
#843 = DIRECTION ( 'NONE',  ( 0.000000000000000000, -0.9396926207859083169, -0.3420201433256687684 ) ) ;
#844 = DIRECTION ( 'NONE',  ( 9.511493642054062451E-16, -0.3420201433256693790, 0.9396926207859082059 ) ) ;
#845 = DIRECTION ( 'NONE',  ( 9.436895709313832566E-16, -0.3420201433256694346, 0.9396926207859083169 ) ) ;
#846 = DIRECTION ( 'NONE',  ( 9.436895709313832566E-16, -0.3420201433256694346, 0.9396926207859082059 ) ) ;
#847 = DIRECTION ( 'NONE',  ( 0.000000000000000000, -0.9396926207859076507, -0.3420201433256706558 ) ) ;
#848 = AXIS2_PLACEMENT_3D ( 'NONE', #19, #882, #98 ) ;
#849 = APPLICATION_PROTOCOL_DEFINITION ( 'draft international standard', 'automotive_design', 1998, #229 ) ;
#850 = ADVANCED_FACE ( 'NONE', ( #122 ), #647, .F. ) ;
#851 =( NAMED_UNIT ( * ) SI_UNIT ( $, .STERADIAN. ) SOLID_ANGLE_UNIT ( ) );
#852 = CYLINDRICAL_SURFACE ( 'NONE', #314, 1.299999999999994937 ) ;
#853 = EDGE_LOOP ( 'NONE', ( #93, #722 ) ) ;
#854 = LINE ( 'NONE', #136, #890 ) ;
#855 = ORIENTED_EDGE ( 'NONE', *, *, #654, .T. ) ;
#856 = ORIENTED_EDGE ( 'NONE', *, *, #376, .T. ) ;
#857 = PLANE ( 'NONE',  #43 ) ;
#858 = DIRECTION ( 'NONE',  ( -1.000000000000000000, -4.419526802337301416E-16, 8.433958449432612946E-16 ) ) ;
#859 = DIRECTION ( 'NONE',  ( 9.436895709313830594E-16, -0.3420201433256693790, 0.9396926207859082059 ) ) ;
#860 = EDGE_CURVE ( 'NONE', #86, #313, #660, .T. ) ;
#861 = ORIENTED_EDGE ( 'NONE', *, *, #445, .F. ) ;
#862 = CIRCLE ( 'NONE', #577, 1.900000000000002354 ) ;
#863 = CIRCLE ( 'NONE', #144, 1.299999999999994937 ) ;
#864 = CARTESIAN_POINT ( 'NONE',  ( 71.50000000000005684, 59.40934883543910416, -19.80509669928807170 ) ) ;
#865 = VECTOR ( 'NONE', #616, 1000.000000000000000 ) ;
#866 = CARTESIAN_POINT ( 'NONE',  ( -8.999999999999950262, 36.01100257787007308, -28.32139826809713412 ) ) ;
#867 = ORIENTED_EDGE ( 'NONE', *, *, #167, .F. ) ;
#868 = VERTEX_POINT ( 'NONE', #435 ) ;
#869 = DIRECTION ( 'NONE',  ( 9.511493642054064423E-16, -0.3420201433256694346, 0.9396926207859083169 ) ) ;
#870 = CARTESIAN_POINT ( 'NONE',  ( -71.49999999999995737, 13.09010408358130917, -33.47138974522747645 ) ) ;
#871 = ORIENTED_EDGE ( 'NONE', *, *, #473, .F. ) ;
#872 = APPLICATION_PROTOCOL_DEFINITION ( 'draft international standard', 'automotive_design', 1998, #599 ) ;
#873 = ADVANCED_FACE ( 'NONE', ( #494 ), #634, .F. ) ;
#874 = LINE ( 'NONE', #307, #878 ) ;
#875 = FACE_BOUND ( 'NONE', #883, .T. ) ;
#876 = VERTEX_POINT ( 'NONE', #80 ) ;
#877 = CARTESIAN_POINT ( 'NONE',  ( -71.49999999999995737, 59.40934883543908285, -19.80509669928794025 ) ) ;
#878 = VECTOR ( 'NONE', #377, 1000.000000000000000 ) ;
#879 = CARTESIAN_POINT ( 'NONE',  ( 71.50000000000005684, 60.63094924246078676, -19.36047051296470300 ) ) ;
#880 = ORIENTED_EDGE ( 'NONE', *, *, #238, .F. ) ;
#881 = CARTESIAN_POINT ( 'NONE',  ( -75.99999999999998579, 12.28874859886308712, -33.76305928873085804 ) ) ;
#882 = DIRECTION ( 'NONE',  ( 9.436895709313830594E-16, -0.3420201433256694346, 0.9396926207859083169 ) ) ;
#883 = EDGE_LOOP ( 'NONE', ( #418, #561 ) ) ;
#884 = CARTESIAN_POINT ( 'NONE',  ( 71.50000000000005684, 13.09010408358133581, -33.47138974522761146 ) ) ;
#885 = FACE_OUTER_BOUND ( 'NONE', #683, .T. ) ;
#886 = EDGE_LOOP ( 'NONE', ( #261, #721 ) ) ;
#887 = EDGE_CURVE ( 'NONE', #293, #841, #549, .T. ) ;
#888 = ORIENTED_EDGE ( 'NONE', *, *, #267, .T. ) ;
#889 = CYLINDRICAL_SURFACE ( 'NONE', #250, 1.900000000000002354 ) ;
#890 = VECTOR ( 'NONE', #141, 1000.000000000000114 ) ;
#891 = VERTEX_POINT ( 'NONE', #707 ) ;
#892 = ORIENTED_EDGE ( 'NONE', *, *, #827, .F. ) ;
#893 = CARTESIAN_POINT ( 'NONE',  ( 75.00000000000002842, 8.579579503808984597, -35.11308643319080147 ) ) ;
#894 = DIRECTION ( 'NONE',  ( -1.268413045844220284E-16, 0.9396926207859082059, 0.3420201433256693790 ) ) ;
#895 = ORIENTED_EDGE ( 'NONE', *, *, #597, .F. ) ;
#896 = CARTESIAN_POINT ( 'NONE',  ( -2.500000000000036415, 20.36250368473442762, -34.01698607614614644 ) ) ;
#897 = EDGE_CURVE ( 'NONE', #744, #79, #771, .T. ) ;
#898 = CARTESIAN_POINT ( 'NONE',  ( -71.49999999999995737, 59.40934883543908285, -19.80509669928794025 ) ) ;
#899 = FACE_OUTER_BOUND ( 'NONE', #67, .T. ) ;
#900 = FACE_OUTER_BOUND ( 'NONE', #830, .T. ) ;
#901 = CARTESIAN_POINT ( 'NONE',  ( -74.99999999999997158, 62.69827300818973725, -18.60802619764808341 ) ) ;
#902 = VECTOR ( 'NONE', #353, 1000.000000000000114 ) ;
#903 = ORIENTED_EDGE ( 'NONE', *, *, #639, .F. ) ;
#904 = MECHANICAL_DESIGN_GEOMETRIC_PRESENTATION_REPRESENTATION (  '', ( #642 ), #23 ) ;
#905 = VERTEX_POINT ( 'NONE', #641 ) ;
#906 = AXIS2_PLACEMENT_3D ( 'NONE', #415, #68, #925 ) ;
#907 = CARTESIAN_POINT ( 'NONE',  ( 71.50000000000005684, 58.38328840546210330, -16.98601883693034509 ) ) ;
#908 = CARTESIAN_POINT ( 'NONE',  ( 9.000000000000047962, 37.79641855736330314, -27.67155999577837378 ) ) ;
#909 = CARTESIAN_POINT ( 'NONE',  ( 2.499999999999966693, 21.68567480672219006, -30.34285785547424652 ) ) ;
#910 = VERTEX_POINT ( 'NONE', #126 ) ;
#911 = EDGE_CURVE ( 'NONE', #841, #52, #630, .T. ) ;
#912 = CARTESIAN_POINT ( 'NONE',  ( 71.50000000000005684, 58.18774842841742867, -20.24972288561144040 ) ) ;
#913 = CARTESIAN_POINT ( 'NONE',  ( -8.999999999999950262, 37.79641855736330314, -27.67155999577835956 ) ) ;
#914 = DIRECTION ( 'NONE',  ( 9.436895709313830594E-16, -0.3420201433256694346, 0.9396926207859083169 ) ) ;
#915 = AXIS2_PLACEMENT_3D ( 'NONE', #839, #894, #409 ) ;
#916 = AXIS2_PLACEMENT_3D ( 'NONE', #908, #845, #198 ) ;
#917 = ORIENTED_EDGE ( 'NONE', *, *, #285, .F. ) ;
#918 = VERTEX_POINT ( 'NONE', #197 ) ;
#919 = VECTOR ( 'NONE', #858, 1000.000000000000000 ) ;
#920 = ADVANCED_FACE ( 'NONE', ( #356 ), #857, .F. ) ;
#921 = SURFACE_SIDE_STYLE ('',( #135 ) ) ;
#922 = DIRECTION ( 'NONE',  ( 9.436895709313832566E-16, -0.3420201433256694346, 0.9396926207859082059 ) ) ;
#923 = ORIENTED_EDGE ( 'NONE', *, *, #833, .T. ) ;
#924 = ORIENTED_EDGE ( 'NONE', *, *, #755, .T. ) ;
#925 = DIRECTION ( 'NONE',  ( 0.000000000000000000, -0.9396926207859084279, -0.3420201433256689905 ) ) ;
#926 = ADVANCED_FACE ( 'NONE', ( #563 ), #558, .F. ) ;
ENDSEC;
END-ISO-10303-21;
