ISO-10303-21;
HEADER;
FILE_DESCRIPTION (( 'STEP AP214' ),
    '1' );
FILE_NAME ('Part9^Assem7_Assem3.STEP',
    '2026-05-04T16:09:33',
    ( '' ),
    ( '' ),
    'SwSTEP 2.0',
    'SolidWorks 2022',
    '' );
FILE_SCHEMA (( 'AUTOMOTIVE_DESIGN' ));
ENDSEC;

DATA;
#1 = ORIENTED_EDGE ( 'NONE', *, *, #71, .F. ) ;
#2 = CARTESIAN_POINT ( 'NONE',  ( 100.0000000000000000, 49.51839604481025958, -13.82750915132596603 ) ) ;
#3 = DIRECTION ( 'NONE',  ( -9.511493642054064423E-16, 0.3420201433256694346, -0.9396926207859083169 ) ) ;
#4 = AXIS2_PLACEMENT_3D ( 'NONE', #34, #63, #298 ) ;
#5 = VECTOR ( 'NONE', #191, 1000.000000000000114 ) ;
#6 = CARTESIAN_POINT ( 'NONE',  ( 100.0000000000000000, 48.10885711363140160, -14.34053936631447002 ) ) ;
#7 = CARTESIAN_POINT ( 'NONE',  ( 74.50000000000001421, 48.10885711363137318, -14.34053936631445225 ) ) ;
#8 = DIRECTION ( 'NONE',  ( 9.511493642054064423E-16, -0.3420201433256694346, 0.9396926207859083169 ) ) ;
#9 = VERTEX_POINT ( 'NONE', #270 ) ;
#10 = CYLINDRICAL_SURFACE ( 'NONE', #326, 1.500000000000003331 ) ;
#11 = ADVANCED_FACE ( 'NONE', ( #273 ), #112, .F. ) ;
#12 = AXIS2_PLACEMENT_3D ( 'NONE', #238, #342, #56 ) ;
#13 = CYLINDRICAL_SURFACE ( 'NONE', #4, 1.500000000000002665 ) ;
#14 = CARTESIAN_POINT ( 'NONE',  ( 76.00000000000001421, 19.06475367845931501, -28.10426181509359722 ) ) ;
#15 = SURFACE_STYLE_USAGE ( .BOTH. , #174 ) ;
#16 = STYLED_ITEM ( 'NONE', ( #97 ), #125 ) ;
#17 =( GEOMETRIC_REPRESENTATION_CONTEXT ( 3 ) GLOBAL_UNCERTAINTY_ASSIGNED_CONTEXT ( ( #20 ) ) GLOBAL_UNIT_ASSIGNED_CONTEXT ( ( #66, #145, #274 ) ) REPRESENTATION_CONTEXT ( 'NONE', 'WORKASPACE' ) );
#18 = DIRECTION ( 'NONE',  ( 1.000000000000000000, 0.000000000000000000, 0.000000000000000000 ) ) ;
#19 = LINE ( 'NONE', #62, #325 ) ;
#20 = UNCERTAINTY_MEASURE_WITH_UNIT (LENGTH_MEASURE( 1.000000000000000082E-05 ), #66, 'distance_accuracy_value', 'NONE');
#21 = SHAPE_DEFINITION_REPRESENTATION ( #110, #231 ) ;
#22 = LINE ( 'NONE', #183, #225 ) ;
#23 = EDGE_CURVE ( 'NONE', #138, #31, #275, .T. ) ;
#24 = SURFACE_STYLE_USAGE ( .BOTH. , #336 ) ;
#25 = FACE_OUTER_BOUND ( 'NONE', #61, .T. ) ;
#26 = EDGE_LOOP ( 'NONE', ( #171, #101, #205, #160, #126, #293, #43, #73 ) ) ;
#27 = DIRECTION ( 'NONE',  ( 9.511493642054064423E-16, -0.3420201433256694346, 0.9396926207859083169 ) ) ;
#28 = ORIENTED_EDGE ( 'NONE', *, *, #182, .T. ) ;
#29 = VECTOR ( 'NONE', #40, 1000.000000000000114 ) ;
#30 = CARTESIAN_POINT ( 'NONE',  ( 76.00000000000001421, 49.51839604481025958, -13.82750915132594471 ) ) ;
#31 = VERTEX_POINT ( 'NONE', #197 ) ;
#32 = CARTESIAN_POINT ( 'NONE',  ( 76.00000000000001421, 16.62915431730344551, -25.79821416772437459 ) ) ;
#33 = LINE ( 'NONE', #269, #178 ) ;
#34 = CARTESIAN_POINT ( 'NONE',  ( 76.00000000000001421, 18.03869324848231059, -25.28518395273587061 ) ) ;
#35 = LINE ( 'NONE', #7, #5 ) ;
#36 = LINE ( 'NONE', #173, #29 ) ;
#37 = DIRECTION ( 'NONE',  ( 0.000000000000000000, 0.9396926207859084279, 0.3420201433256685464 ) ) ;
#38 = DIRECTION ( 'NONE',  ( 8.937880388090285216E-16, 0.000000000000000000, 1.000000000000000000 ) ) ;
#39 = EDGE_CURVE ( 'NONE', #138, #156, #19, .T. ) ;
#40 = DIRECTION ( 'NONE',  ( -9.511493642054062451E-16, 0.3420201433256693790, -0.9396926207859082059 ) ) ;
#41 = PRODUCT_RELATED_PRODUCT_CATEGORY ( 'part', '', ( #166 ) ) ;
#42 = DIRECTION ( 'NONE',  ( -9.511493642054062451E-16, 0.3420201433256693790, -0.9396926207859082059 ) ) ;
#43 = ORIENTED_EDGE ( 'NONE', *, *, #71, .T. ) ;
#44 = CARTESIAN_POINT ( 'NONE',  ( 101.5000000000000000, 19.06475367845932567, -28.10426181509361854 ) ) ;
#45 = EDGE_CURVE ( 'NONE', #232, #277, #36, .T. ) ;
#46 = LINE ( 'NONE', #44, #203 ) ;
#47 = COLOUR_RGB ( '',0.7921568627450980005, 0.8196078431372548767, 0.9333333333333333481 ) ;
#48 = CIRCLE ( 'NONE', #169, 1.500000000000003775 ) ;
#49 = AXIS2_PLACEMENT_3D ( 'NONE', #292, #170, #218 ) ;
#50 = EDGE_CURVE ( 'NONE', #156, #154, #223, .T. ) ;
#51 = DIRECTION ( 'NONE',  ( -2.966551859419954733E-16, -0.9396926207859082059, -0.3420201433256693790 ) ) ;
#52 = VERTEX_POINT ( 'NONE', #121 ) ;
#53 = CARTESIAN_POINT ( 'NONE',  ( 100.0000000000000000, 16.62915431730345617, -25.79821416772439591 ) ) ;
#54 = ORIENTED_EDGE ( 'NONE', *, *, #68, .T. ) ;
#55 = COLOUR_RGB ( '',0.7921568627450980005, 0.8196078431372548767, 0.9333333333333333481 ) ;
#56 = DIRECTION ( 'NONE',  ( -8.937880388090285216E-16, 0.000000000000000000, -1.000000000000000000 ) ) ;
#57 = DIRECTION ( 'NONE',  ( -1.000000000000000000, 0.000000000000000000, 8.673617379884037444E-16 ) ) ;
#58 = PLANE ( 'NONE',  #12 ) ;
#59 = ORIENTED_EDGE ( 'NONE', *, *, #309, .F. ) ;
#60 = CARTESIAN_POINT ( 'NONE',  ( 76.00000000000001421, 49.13491754360839536, -17.15961722867217176 ) ) ;
#61 = EDGE_LOOP ( 'NONE', ( #211, #189, #103, #54 ) ) ;
#62 = CARTESIAN_POINT ( 'NONE',  ( 101.5000000000000000, 18.03869324848232125, -25.28518395273589192 ) ) ;
#63 = DIRECTION ( 'NONE',  ( -9.511493642054064423E-16, 0.3420201433256694346, -0.9396926207859083169 ) ) ;
#64 = ADVANCED_FACE ( 'NONE', ( #139 ), #13, .T. ) ;
#65 = VECTOR ( 'NONE', #327, 1000.000000000000114 ) ;
#66 =( LENGTH_UNIT ( ) NAMED_UNIT ( * ) SI_UNIT ( .MILLI., .METRE. ) );
#67 = AXIS2_PLACEMENT_3D ( 'NONE', #283, #335, #72 ) ;
#68 = EDGE_CURVE ( 'NONE', #154, #209, #115, .T. ) ;
#69 = AXIS2_PLACEMENT_3D ( 'NONE', #267, #83, #165 ) ;
#70 = LINE ( 'NONE', #202, #281 ) ;
#71 = EDGE_CURVE ( 'NONE', #99, #240, #297, .T. ) ;
#72 = DIRECTION ( 'NONE',  ( 0.000000000000000000, -0.9396926207859082059, -0.3420201433256693790 ) ) ;
#73 = ORIENTED_EDGE ( 'NONE', *, *, #152, .T. ) ;
#74 = CIRCLE ( 'NONE', #149, 1.500000000000003331 ) ;
#75 = ORIENTED_EDGE ( 'NONE', *, *, #68, .F. ) ;
#76 = PLANE ( 'NONE',  #67 ) ;
#77 = DIRECTION ( 'NONE',  ( 9.511493642054064423E-16, -0.3420201433256694346, 0.9396926207859083169 ) ) ;
#78 = ADVANCED_FACE ( 'NONE', ( #88 ), #242, .T. ) ;
#79 = DIRECTION ( 'NONE',  ( 9.511493642054064423E-16, -0.3420201433256694346, 0.9396926207859083169 ) ) ;
#80 = ORIENTED_EDGE ( 'NONE', *, *, #23, .F. ) ;
#81 = CARTESIAN_POINT ( 'NONE',  ( 76.00000000000001421, 48.10885711363138739, -14.34053936631444870 ) ) ;
#82 = CARTESIAN_POINT ( 'NONE',  ( 100.0000000000000000, 48.10885711363140160, -14.34053936631447002 ) ) ;
#83 = DIRECTION ( 'NONE',  ( 9.511493642054064423E-16, -0.3420201433256694346, 0.9396926207859083169 ) ) ;
#84 = EDGE_CURVE ( 'NONE', #215, #99, #22, .T. ) ;
#85 = ORIENTED_EDGE ( 'NONE', *, *, #264, .T. ) ;
#86 = SURFACE_STYLE_FILL_AREA ( #87 ) ;
#87 = FILL_AREA_STYLE ('',( #252 ) ) ;
#88 = FACE_OUTER_BOUND ( 'NONE', #314, .T. ) ;
#89 = CARTESIAN_POINT ( 'NONE',  ( 101.5000000000000000, 49.13491754360840957, -17.15961722867219308 ) ) ;
#90 =( LENGTH_UNIT ( ) NAMED_UNIT ( * ) SI_UNIT ( .MILLI., .METRE. ) );
#91 =( GEOMETRIC_REPRESENTATION_CONTEXT ( 3 ) GLOBAL_UNCERTAINTY_ASSIGNED_CONTEXT ( ( #95 ) ) GLOBAL_UNIT_ASSIGNED_CONTEXT ( ( #90, #118, #196 ) ) REPRESENTATION_CONTEXT ( 'NONE', 'WORKASPACE' ) );
#92 = ORIENTED_EDGE ( 'NONE', *, *, #163, .F. ) ;
#93 = EDGE_CURVE ( 'NONE', #154, #260, #70, .T. ) ;
#94 =( NAMED_UNIT ( * ) PLANE_ANGLE_UNIT ( ) SI_UNIT ( $, .RADIAN. ) );
#95 = UNCERTAINTY_MEASURE_WITH_UNIT (LENGTH_MEASURE( 1.000000000000000082E-05 ), #90, 'distance_accuracy_value', 'NONE');
#96 = AXIS2_PLACEMENT_3D ( 'NONE', #219, #328, #303 ) ;
#97 = PRESENTATION_STYLE_ASSIGNMENT (( #24 ) ) ;
#98 = DIRECTION ( 'NONE',  ( -1.000000000000000000, 0.000000000000000000, 8.673617379884037444E-16 ) ) ;
#99 = VERTEX_POINT ( 'NONE', #312 ) ;
#100 = CARTESIAN_POINT ( 'NONE',  ( 76.00000000000001421, 50.54445647478726755, -16.64658701368367133 ) ) ;
#101 = ORIENTED_EDGE ( 'NONE', *, *, #39, .T. ) ;
#102 = AXIS2_PLACEMENT_3D ( 'NONE', #294, #3, #37 ) ;
#103 = ORIENTED_EDGE ( 'NONE', *, *, #93, .F. ) ;
#104 = CARTESIAN_POINT ( 'NONE',  ( 101.5000000000000000, 48.10885711363140160, -14.34053936631447002 ) ) ;
#105 = ADVANCED_FACE ( 'NONE', ( #308 ), #76, .F. ) ;
#106 = ORIENTED_EDGE ( 'NONE', *, *, #333, .F. ) ;
#107 = VERTEX_POINT ( 'NONE', #122 ) ;
#108 = CARTESIAN_POINT ( 'NONE',  ( 76.00000000000001421, 16.62915431730344551, -25.79821416772437459 ) ) ;
#109 = ORIENTED_EDGE ( 'NONE', *, *, #157, .T. ) ;
#110 = PRODUCT_DEFINITION_SHAPE ( 'NONE', 'NONE',  #322 ) ;
#111 = ORIENTED_EDGE ( 'NONE', *, *, #45, .T. ) ;
#112 = PLANE ( 'NONE',  #340 ) ;
#113 = APPLICATION_PROTOCOL_DEFINITION ( 'draft international standard', 'automotive_design', 1998, #220 ) ;
#114 = CIRCLE ( 'NONE', #69, 1.500000000000002665 ) ;
#115 = LINE ( 'NONE', #323, #168 ) ;
#116 = FACE_OUTER_BOUND ( 'NONE', #214, .T. ) ;
#117 = ADVANCED_FACE ( 'NONE', ( #25 ), #259, .F. ) ;
#118 =( NAMED_UNIT ( * ) PLANE_ANGLE_UNIT ( ) SI_UNIT ( $, .RADIAN. ) );
#119 = EDGE_CURVE ( 'NONE', #291, #209, #331, .T. ) ;
#120 = DIRECTION ( 'NONE',  ( 0.000000000000000000, 0.9396926207859082059, 0.3420201433256693235 ) ) ;
#121 = CARTESIAN_POINT ( 'NONE',  ( 74.50000000000001421, 19.06475367845933278, -28.10426181509359012 ) ) ;
#122 = CARTESIAN_POINT ( 'NONE',  ( 76.00000000000001421, 17.65521474728045348, -28.61729203008210121 ) ) ;
#123 =( LENGTH_UNIT ( ) NAMED_UNIT ( * ) SI_UNIT ( .MILLI., .METRE. ) );
#124 = ORIENTED_EDGE ( 'NONE', *, *, #45, .F. ) ;
#125 = MANIFOLD_SOLID_BREP ( 'ŒﬁΩ - âüÇµèoÇµ1', #193 ) ;
#126 = ORIENTED_EDGE ( 'NONE', *, *, #229, .T. ) ;
#127 = CARTESIAN_POINT ( 'NONE',  ( 101.5000000000000000, 18.03869324848232125, -25.28518395273589192 ) ) ;
#128 = VECTOR ( 'NONE', #42, 1000.000000000000114 ) ;
#129 = DIRECTION ( 'NONE',  ( 9.511493642054062451E-16, -0.3420201433256693790, 0.9396926207859082059 ) ) ;
#130 = ORIENTED_EDGE ( 'NONE', *, *, #119, .T. ) ;
#131 = DIRECTION ( 'NONE',  ( -9.511493642054062451E-16, 0.3420201433256693790, -0.9396926207859082059 ) ) ;
#132 = ORIENTED_EDGE ( 'NONE', *, *, #280, .T. ) ;
#133 = FACE_OUTER_BOUND ( 'NONE', #184, .T. ) ;
#134 = DIRECTION ( 'NONE',  ( -9.511493642054062451E-16, 0.3420201433256693790, -0.9396926207859082059 ) ) ;
#135 = CYLINDRICAL_SURFACE ( 'NONE', #102, 1.500000000000002665 ) ;
#136 = VERTEX_POINT ( 'NONE', #100 ) ;
#137 = LINE ( 'NONE', #30, #278 ) ;
#138 = VERTEX_POINT ( 'NONE', #127 ) ;
#139 = FACE_OUTER_BOUND ( 'NONE', #317, .T. ) ;
#141 = AXIS2_PLACEMENT_3D ( 'NONE', #6, #175, #286 ) ;
#140 = DIRECTION ( 'NONE',  ( 9.511493642054064423E-16, -0.3420201433256694346, 0.9396926207859083169 ) ) ;
#142 = EDGE_CURVE ( 'NONE', #209, #136, #153, .T. ) ;
#143 = APPLICATION_CONTEXT ( 'automotive_design' ) ;
#144 = ORIENTED_EDGE ( 'NONE', *, *, #50, .F. ) ;
#145 =( NAMED_UNIT ( * ) PLANE_ANGLE_UNIT ( ) SI_UNIT ( $, .RADIAN. ) );
#146 = ADVANCED_FACE ( 'NONE', ( #190 ), #244, .F. ) ;
#147 = DIRECTION ( 'NONE',  ( 0.000000000000000000, 0.000000000000000000, 1.000000000000000000 ) ) ;
#148 = VECTOR ( 'NONE', #57, 1000.000000000000000 ) ;
#149 = AXIS2_PLACEMENT_3D ( 'NONE', #81, #79, #216 ) ;
#150 = FILL_AREA_STYLE ('',( #210 ) ) ;
#151 = UNCERTAINTY_MEASURE_WITH_UNIT (LENGTH_MEASURE( 1.000000000000000082E-05 ), #123, 'distance_accuracy_value', 'NONE');
#152 = EDGE_CURVE ( 'NONE', #240, #232, #221, .T. ) ;
#153 = LINE ( 'NONE', #207, #148 ) ;
#154 = VERTEX_POINT ( 'NONE', #2 ) ;
#155 = DIRECTION ( 'NONE',  ( 0.000000000000000000, -0.9396926207859079838, -0.3420201433256701562 ) ) ;
#156 = VERTEX_POINT ( 'NONE', #104 ) ;
#157 = EDGE_CURVE ( 'NONE', #136, #9, #48, .T. ) ;
#158 = FACE_OUTER_BOUND ( 'NONE', #26, .T. ) ;
#159 =( GEOMETRIC_REPRESENTATION_CONTEXT ( 3 ) GLOBAL_UNCERTAINTY_ASSIGNED_CONTEXT ( ( #151 ) ) GLOBAL_UNIT_ASSIGNED_CONTEXT ( ( #123, #94, #338 ) ) REPRESENTATION_CONTEXT ( 'NONE', 'WORKASPACE' ) );
#160 = ORIENTED_EDGE ( 'NONE', *, *, #93, .T. ) ;
#161 = AXIS2_PLACEMENT_3D ( 'NONE', #316, #129, #320 ) ;
#162 = LINE ( 'NONE', #265, #282 ) ;
#163 = EDGE_CURVE ( 'NONE', #277, #31, #114, .T. ) ;
#164 = ORIENTED_EDGE ( 'NONE', *, *, #163, .T. ) ;
#165 = DIRECTION ( 'NONE',  ( 0.000000000000000000, -0.9396926207859084279, -0.3420201433256685464 ) ) ;
#166 = PRODUCT ( 'Part9^Assem7_Assem3', 'Part9^Assem7_Assem3', '', ( #248 ) ) ;
#167 = ORIENTED_EDGE ( 'NONE', *, *, #39, .F. ) ;
#168 = VECTOR ( 'NONE', #134, 1000.000000000000114 ) ;
#169 = AXIS2_PLACEMENT_3D ( 'NONE', #60, #77, #186 ) ;
#170 = DIRECTION ( 'NONE',  ( -1.108715264278761029E-16, 0.9396926207859082059, 0.3420201433256693790 ) ) ;
#171 = ORIENTED_EDGE ( 'NONE', *, *, #309, .T. ) ;
#172 = APPLICATION_PROTOCOL_DEFINITION ( 'draft international standard', 'automotive_design', 1998, #143 ) ;
#173 = CARTESIAN_POINT ( 'NONE',  ( 100.0000000000000000, 16.62915431730345617, -25.79821416772439591 ) ) ;
#174 = SURFACE_SIDE_STYLE ('',( #86 ) ) ;
#175 = DIRECTION ( 'NONE',  ( -9.511493642054064423E-16, 0.3420201433256694346, -0.9396926207859083169 ) ) ;
#177 = AXIS2_PLACEMENT_3D ( 'NONE', #310, #51, #185 ) ;
#176 = CARTESIAN_POINT ( 'NONE',  ( 100.0000000000000000, 17.65521474728046059, -28.61729203008212252 ) ) ;
#178 = VECTOR ( 'NONE', #241, 1000.000000000000000 ) ;
#179 = CARTESIAN_POINT ( 'NONE',  ( 0.000000000000000000, 0.000000000000000000, 0.000000000000000000 ) ) ;
#180 = ORIENTED_EDGE ( 'NONE', *, *, #213, .T. ) ;
#181 = STYLED_ITEM ( 'NONE', ( #329 ), #231 ) ;
#182 = EDGE_CURVE ( 'NONE', #9, #52, #272, .T. ) ;
#183 = CARTESIAN_POINT ( 'NONE',  ( 74.50000000000001421, 48.10885711363137318, -14.34053936631444870 ) ) ;
#184 = EDGE_LOOP ( 'NONE', ( #164, #80, #59, #111 ) ) ;
#185 = DIRECTION ( 'NONE',  ( 0.000000000000000000, 0.3420201433256693790, -0.9396926207859082059 ) ) ;
#186 = DIRECTION ( 'NONE',  ( 0.000000000000000000, -0.9396926207859076507, -0.3420201433256706558 ) ) ;
#187 = ORIENTED_EDGE ( 'NONE', *, *, #157, .F. ) ;
#188 = FACE_OUTER_BOUND ( 'NONE', #301, .T. ) ;
#189 = ORIENTED_EDGE ( 'NONE', *, *, #222, .F. ) ;
#190 = FACE_OUTER_BOUND ( 'NONE', #201, .T. ) ;
#191 = DIRECTION ( 'NONE',  ( -9.511493642054062451E-16, 0.3420201433256693790, -0.9396926207859082059 ) ) ;
#192 = ORIENTED_EDGE ( 'NONE', *, *, #182, .F. ) ;
#193 = CLOSED_SHELL ( 'NONE', ( #206, #11, #78, #117, #315, #256, #64, #146, #233, #105 ) ) ;
#194 = DIRECTION ( 'NONE',  ( 0.000000000000000000, -0.9396926207859079838, -0.3420201433256701562 ) ) ;
#195 = AXIS2_PLACEMENT_3D ( 'NONE', #257, #27, #155 ) ;
#196 =( NAMED_UNIT ( * ) SI_UNIT ( $, .STERADIAN. ) SOLID_ANGLE_UNIT ( ) );
#197 = CARTESIAN_POINT ( 'NONE',  ( 101.5000000000000000, 19.06475367845932567, -28.10426181509361854 ) ) ;
#198 = DIRECTION ( 'NONE',  ( -9.511493642054062451E-16, 0.3420201433256693790, -0.9396926207859082059 ) ) ;
#199 = ORIENTED_EDGE ( 'NONE', *, *, #290, .F. ) ;
#200 = DIRECTION ( 'NONE',  ( 0.000000000000000000, 0.9396926207859079838, 0.3420201433256696011 ) ) ;
#201 = EDGE_LOOP ( 'NONE', ( #180, #124, #245, #132 ) ) ;
#202 = CARTESIAN_POINT ( 'NONE',  ( 100.0000000000000000, 49.51839604481025958, -13.82750915132596603 ) ) ;
#203 = VECTOR ( 'NONE', #120, 1000.000000000000114 ) ;
#204 = EDGE_CURVE ( 'NONE', #215, #9, #35, .T. ) ;
#205 = ORIENTED_EDGE ( 'NONE', *, *, #50, .T. ) ;
#206 = ADVANCED_FACE ( 'NONE', ( #133 ), #135, .T. ) ;
#207 = CARTESIAN_POINT ( 'NONE',  ( 100.0000000000000000, 50.54445647478726755, -16.64658701368368909 ) ) ;
#208 = PRESENTATION_LAYER_ASSIGNMENT (  '', '', ( #16 ) ) ;
#209 = VERTEX_POINT ( 'NONE', #288 ) ;
#210 = FILL_AREA_STYLE_COLOUR ( '', #47 ) ;
#211 = ORIENTED_EDGE ( 'NONE', *, *, #142, .T. ) ;
#212 = CARTESIAN_POINT ( 'NONE',  ( 74.50000000000001421, 48.10885711363137318, -14.34053936631445225 ) ) ;
#213 = EDGE_CURVE ( 'NONE', #107, #277, #33, .T. ) ;
#214 = EDGE_LOOP ( 'NONE', ( #109, #319, #334, #268 ) ) ;
#215 = VERTEX_POINT ( 'NONE', #212 ) ;
#216 = DIRECTION ( 'NONE',  ( 0.000000000000000000, -0.9396926207859079838, -0.3420201433256696011 ) ) ;
#217 = EDGE_LOOP ( 'NONE', ( #92, #339, #247, #192, #187, #337, #235, #199 ) ) ;
#218 = DIRECTION ( 'NONE',  ( 0.000000000000000000, -0.3420201433256693790, 0.9396926207859082059 ) ) ;
#219 = CARTESIAN_POINT ( 'NONE',  ( 76.00000000000001421, 18.03869324848231059, -25.28518395273587061 ) ) ;
#220 = APPLICATION_CONTEXT ( 'automotive_design' ) ;
#221 = LINE ( 'NONE', #108, #263 ) ;
#222 = EDGE_CURVE ( 'NONE', #260, #136, #137, .T. ) ;
#223 = CIRCLE ( 'NONE', #254, 1.499999999999995781 ) ;
#224 = CARTESIAN_POINT ( 'NONE',  ( 101.5000000000000000, 18.03869324848232125, -25.28518395273589192 ) ) ;
#225 = VECTOR ( 'NONE', #284, 999.9999999999998863 ) ;
#226 = CARTESIAN_POINT ( 'NONE',  ( 101.5000000000000000, 48.10885711363140160, -14.34053936631447002 ) ) ;
#227 = ORIENTED_EDGE ( 'NONE', *, *, #84, .F. ) ;
#228 = CARTESIAN_POINT ( 'NONE',  ( 101.5000000000000000, 18.03869324848232125, -25.28518395273589192 ) ) ;
#229 = EDGE_CURVE ( 'NONE', #260, #215, #74, .T. ) ;
#230 = PRESENTATION_LAYER_ASSIGNMENT (  '', '', ( #181 ) ) ;
#231 = ADVANCED_BREP_SHAPE_REPRESENTATION ( 'Part9^Assem7_Assem3', ( #125, #332 ), #17 ) ;
#232 = VERTEX_POINT ( 'NONE', #53 ) ;
#233 = ADVANCED_FACE ( 'NONE', ( #158 ), #261, .T. ) ;
#234 = SURFACE_STYLE_FILL_AREA ( #150 ) ;
#235 = ORIENTED_EDGE ( 'NONE', *, *, #119, .F. ) ;
#236 = VECTOR ( 'NONE', #318, 999.9999999999998863 ) ;
#237 = VECTOR ( 'NONE', #198, 1000.000000000000114 ) ;
#238 = CARTESIAN_POINT ( 'NONE',  ( 74.50000000000001421, 48.10885711363137318, -14.34053936631444870 ) ) ;
#239 = CARTESIAN_POINT ( 'NONE',  ( 76.00000000000001421, 49.51839604481025958, -13.82750915132594471 ) ) ;
#240 = VERTEX_POINT ( 'NONE', #32 ) ;
#241 = DIRECTION ( 'NONE',  ( 1.000000000000000000, 4.336808689942018722E-16, -8.673617379884037444E-16 ) ) ;
#242 = CYLINDRICAL_SURFACE ( 'NONE', #141, 1.499999999999995781 ) ;
#243 = MECHANICAL_DESIGN_GEOMETRIC_PRESENTATION_REPRESENTATION (  '', ( #181 ), #91 ) ;
#244 = PLANE ( 'NONE',  #49 ) ;
#245 = ORIENTED_EDGE ( 'NONE', *, *, #152, .F. ) ;
#246 = CARTESIAN_POINT ( 'NONE',  ( 74.50000000000001421, 49.13491754360838115, -17.15961722867217176 ) ) ;
#247 = ORIENTED_EDGE ( 'NONE', *, *, #264, .F. ) ;
#248 = PRODUCT_CONTEXT ( 'NONE', #143, 'mechanical' ) ;
#249 = ORIENTED_EDGE ( 'NONE', *, *, #258, .T. ) ;
#250 = PRODUCT_DEFINITION_FORMATION_WITH_SPECIFIED_SOURCE ( 'ANY', '', #166, .NOT_KNOWN. ) ;
#251 = DIRECTION ( 'NONE',  ( 0.000000000000000000, 0.9396926207859082059, 0.3420201433256693235 ) ) ;
#252 = FILL_AREA_STYLE_COLOUR ( '', #55 ) ;
#253 = DIRECTION ( 'NONE',  ( -9.511493642054064423E-16, 0.3420201433256694346, -0.9396926207859083169 ) ) ;
#254 = AXIS2_PLACEMENT_3D ( 'NONE', #82, #8, #194 ) ;
#255 = LINE ( 'NONE', #304, #237 ) ;
#256 = ADVANCED_FACE ( 'NONE', ( #188 ), #58, .F. ) ;
#257 = CARTESIAN_POINT ( 'NONE',  ( 100.0000000000000000, 49.13491754360840957, -17.15961722867219308 ) ) ;
#258 = EDGE_CURVE ( 'NONE', #99, #52, #162, .T. ) ;
#259 = PLANE ( 'NONE',  #177 ) ;
#260 = VERTEX_POINT ( 'NONE', #239 ) ;
#261 = PLANE ( 'NONE',  #161 ) ;
#262 = MECHANICAL_DESIGN_GEOMETRIC_PRESENTATION_REPRESENTATION (  '', ( #16 ), #159 ) ;
#263 = VECTOR ( 'NONE', #296, 1000.000000000000000 ) ;
#264 = EDGE_CURVE ( 'NONE', #52, #107, #271, .T. ) ;
#265 = CARTESIAN_POINT ( 'NONE',  ( 74.50000000000001421, 18.03869324848232480, -25.28518395273586350 ) ) ;
#266 = ORIENTED_EDGE ( 'NONE', *, *, #280, .F. ) ;
#267 = CARTESIAN_POINT ( 'NONE',  ( 100.0000000000000000, 19.06475367845932567, -28.10426181509361854 ) ) ;
#268 = ORIENTED_EDGE ( 'NONE', *, *, #222, .T. ) ;
#269 = CARTESIAN_POINT ( 'NONE',  ( 76.00000000000001421, 17.65521474728045348, -28.61729203008210121 ) ) ;
#270 = CARTESIAN_POINT ( 'NONE',  ( 74.50000000000001421, 49.13491754360838115, -17.15961722867217532 ) ) ;
#271 = CIRCLE ( 'NONE', #313, 1.500000000000002665 ) ;
#272 = LINE ( 'NONE', #246, #236 ) ;
#273 = FACE_OUTER_BOUND ( 'NONE', #289, .T. ) ;
#274 =( NAMED_UNIT ( * ) SI_UNIT ( $, .STERADIAN. ) SOLID_ANGLE_UNIT ( ) );
#275 = LINE ( 'NONE', #228, #65 ) ;
#276 = DIRECTION ( 'NONE',  ( 0.000000000000000000, -0.9396926207859084279, -0.3420201433256685464 ) ) ;
#277 = VERTEX_POINT ( 'NONE', #176 ) ;
#278 = VECTOR ( 'NONE', #324, 1000.000000000000114 ) ;
#279 = DIRECTION ( 'NONE',  ( 0.000000000000000000, -0.9396926207859084279, -0.3420201433256685464 ) ) ;
#280 = EDGE_CURVE ( 'NONE', #240, #107, #255, .T. ) ;
#281 = VECTOR ( 'NONE', #98, 1000.000000000000000 ) ;
#282 = VECTOR ( 'NONE', #131, 1000.000000000000114 ) ;
#283 = CARTESIAN_POINT ( 'NONE',  ( 100.0000000000000000, 19.06475367845932567, -28.10426181509361854 ) ) ;
#284 = DIRECTION ( 'NONE',  ( 0.000000000000000000, -0.9396926207859082059, -0.3420201433256695456 ) ) ;
#285 = AXIS2_PLACEMENT_3D ( 'NONE', #330, #140, #279 ) ;
#286 = DIRECTION ( 'NONE',  ( 0.000000000000000000, 0.9396926207859079838, 0.3420201433256701562 ) ) ;
#287 = ORIENTED_EDGE ( 'NONE', *, *, #290, .T. ) ;
#288 = CARTESIAN_POINT ( 'NONE',  ( 100.0000000000000000, 50.54445647478726755, -16.64658701368368909 ) ) ;
#289 = EDGE_LOOP ( 'NONE', ( #287, #106, #167, #295 ) ) ;
#290 = EDGE_CURVE ( 'NONE', #31, #291, #46, .T. ) ;
#291 = VERTEX_POINT ( 'NONE', #89 ) ;
#292 = CARTESIAN_POINT ( 'NONE',  ( 76.00000000000001421, 16.62915431730344551, -25.79821416772437459 ) ) ;
#293 = ORIENTED_EDGE ( 'NONE', *, *, #84, .T. ) ;
#294 = CARTESIAN_POINT ( 'NONE',  ( 100.0000000000000000, 18.03869324848232125, -25.28518395273589192 ) ) ;
#295 = ORIENTED_EDGE ( 'NONE', *, *, #23, .T. ) ;
#296 = DIRECTION ( 'NONE',  ( 1.000000000000000000, 4.336808689942018722E-16, -8.673617379884037444E-16 ) ) ;
#297 = CIRCLE ( 'NONE', #96, 1.500000000000002665 ) ;
#298 = DIRECTION ( 'NONE',  ( 0.000000000000000000, 0.9396926207859084279, 0.3420201433256685464 ) ) ;
#299 = CIRCLE ( 'NONE', #285, 1.500000000000002665 ) ;
#300 = DIRECTION ( 'NONE',  ( 9.511493642054064423E-16, -0.3420201433256694346, 0.9396926207859083169 ) ) ;
#301 = EDGE_LOOP ( 'NONE', ( #28, #311, #227, #341 ) ) ;
#302 = CARTESIAN_POINT ( 'NONE',  ( 76.00000000000001421, 48.10885711363138739, -14.34053936631444870 ) ) ;
#303 = DIRECTION ( 'NONE',  ( 0.000000000000000000, -0.9396926207859084279, -0.3420201433256685464 ) ) ;
#304 = CARTESIAN_POINT ( 'NONE',  ( 76.00000000000001421, 16.62915431730344551, -25.79821416772437459 ) ) ;
#305 = LINE ( 'NONE', #226, #128 ) ;
#306 = PRODUCT_DEFINITION_CONTEXT ( 'detailed design', #220, 'design' ) ;
#307 = ORIENTED_EDGE ( 'NONE', *, *, #333, .T. ) ;
#308 = FACE_OUTER_BOUND ( 'NONE', #217, .T. ) ;
#309 = EDGE_CURVE ( 'NONE', #232, #138, #299, .T. ) ;
#310 = CARTESIAN_POINT ( 'NONE',  ( 100.0000000000000000, 49.51839604481025958, -13.82750915132596603 ) ) ;
#311 = ORIENTED_EDGE ( 'NONE', *, *, #258, .F. ) ;
#312 = CARTESIAN_POINT ( 'NONE',  ( 74.50000000000001421, 18.03869324848232480, -25.28518395273586350 ) ) ;
#313 = AXIS2_PLACEMENT_3D ( 'NONE', #14, #300, #276 ) ;
#314 = EDGE_LOOP ( 'NONE', ( #130, #75, #144, #307 ) ) ;
#315 = ADVANCED_FACE ( 'NONE', ( #116 ), #10, .T. ) ;
#316 = CARTESIAN_POINT ( 'NONE',  ( 100.0000000000000000, 18.03869324848232125, -25.28518395273589192 ) ) ;
#317 = EDGE_LOOP ( 'NONE', ( #85, #266, #1, #249 ) ) ;
#318 = DIRECTION ( 'NONE',  ( 0.000000000000000000, -0.9396926207859082059, -0.3420201433256695456 ) ) ;
#319 = ORIENTED_EDGE ( 'NONE', *, *, #204, .F. ) ;
#320 = DIRECTION ( 'NONE',  ( 0.000000000000000000, -0.9396926207859082059, -0.3420201433256693790 ) ) ;
#321 = DIRECTION ( 'NONE',  ( -1.000000000000000000, -3.253122418696523567E-16, 8.937880388090285216E-16 ) ) ;
#322 = PRODUCT_DEFINITION ( 'UNKNOWN', '', #250, #306 ) ;
#323 = CARTESIAN_POINT ( 'NONE',  ( 100.0000000000000000, 49.51839604481025958, -13.82750915132596603 ) ) ;
#324 = DIRECTION ( 'NONE',  ( -9.511493642054062451E-16, 0.3420201433256693790, -0.9396926207859082059 ) ) ;
#325 = VECTOR ( 'NONE', #251, 1000.000000000000114 ) ;
#326 = AXIS2_PLACEMENT_3D ( 'NONE', #302, #253, #200 ) ;
#327 = DIRECTION ( 'NONE',  ( -9.511493642054062451E-16, 0.3420201433256693790, -0.9396926207859082059 ) ) ;
#328 = DIRECTION ( 'NONE',  ( 9.511493642054064423E-16, -0.3420201433256694346, 0.9396926207859083169 ) ) ;
#329 = PRESENTATION_STYLE_ASSIGNMENT (( #15 ) ) ;
#330 = CARTESIAN_POINT ( 'NONE',  ( 100.0000000000000000, 18.03869324848232125, -25.28518395273589192 ) ) ;
#331 = CIRCLE ( 'NONE', #195, 1.499999999999995781 ) ;
#332 = AXIS2_PLACEMENT_3D ( 'NONE', #179, #147, #18 ) ;
#333 = EDGE_CURVE ( 'NONE', #156, #291, #305, .T. ) ;
#334 = ORIENTED_EDGE ( 'NONE', *, *, #229, .F. ) ;
#335 = DIRECTION ( 'NONE',  ( 9.511493642054062451E-16, -0.3420201433256693790, 0.9396926207859082059 ) ) ;
#336 = SURFACE_SIDE_STYLE ('',( #234 ) ) ;
#337 = ORIENTED_EDGE ( 'NONE', *, *, #142, .F. ) ;
#338 =( NAMED_UNIT ( * ) SI_UNIT ( $, .STERADIAN. ) SOLID_ANGLE_UNIT ( ) );
#339 = ORIENTED_EDGE ( 'NONE', *, *, #213, .F. ) ;
#340 = AXIS2_PLACEMENT_3D ( 'NONE', #224, #321, #38 ) ;
#341 = ORIENTED_EDGE ( 'NONE', *, *, #204, .T. ) ;
#342 = DIRECTION ( 'NONE',  ( 1.000000000000000000, 3.253122418696525539E-16, -8.937880388090285216E-16 ) ) ;
ENDSEC;
END-ISO-10303-21;
